<?xml version="1.0" encoding="utf-8"?>
<!-- Generator: Adobe Illustrator 27.4.1, SVG Export Plug-In . SVG Version: 6.00 Build 0)  -->
<svg version="1.1" id="Capa_1" xmlns="http://www.w3.org/2000/svg" xmlns:xlink="http://www.w3.org/1999/xlink" x="0px" y="0px"
	 viewBox="0 0 550 520" style="enable-background:new 0 0 550 520;" xml:space="preserve">
<style type="text/css">
	.st0{opacity:0.5;}
	.st1{fill:#DCDEE2;}
	.st2{fill:#BCC0C9;}
	.st3{fill:#FFFFFF;}
	.st4{fill:#D1D4DA;}
	.st5{fill:#A9AFBB;}
	.st6{fill:#EAECED;}
	.st7{fill:#969DAD;}
	.st8{fill:#8790A0;}
	.st9{fill:url(#SVGID_1_);}
	.st10{opacity:0.29;fill:#3B3E46;enable-background:new    ;}
	.st11{fill:url(#Card-6_00000096745711543195583410000003691223978658117504_);}
	.st12{fill:url(#SVGID_00000162335149817507111480000017964691864268208004_);}
	.st13{fill:url(#SVGID_00000069382603163884547580000015174110941455014822_);}
	.st14{fill:url(#SVGID_00000067193902097785417610000004089200653582218911_);}
	.st15{fill:url(#SVGID_00000163043473681227505050000018126818759216606364_);}
	.st16{fill:url(#SVGID_00000137847062809623622140000017242921706549914814_);}
	.st17{fill:url(#Card-7_00000018204170842506610050000013892571490369579146_);}
	.st18{fill:url(#SVGID_00000049217579303042706140000002125090732714687621_);}
	.st19{fill:url(#SVGID_00000070840863100905211170000016987190929402049966_);}
	.st20{fill:url(#SVGID_00000144311139143332580910000002036114958408789642_);}
	.st21{fill:url(#Card-8_00000090274206971882051010000015526917285271234704_);}
	.st22{fill:url(#SVGID_00000181060180079492342470000009392956304649509011_);}
	.st23{fill:url(#SVGID_00000062151886239754587690000015895000446782025917_);}
	.st24{fill-rule:evenodd;clip-rule:evenodd;fill:#B8BDC7;}
	.st25{fill-rule:evenodd;clip-rule:evenodd;fill:#C3C7CF;fill-opacity:0.3;}
	.st26{fill-rule:evenodd;clip-rule:evenodd;fill:url(#SVGID_00000089575833606714915970000009892484576300157613_);}
	.st27{fill:url(#arm_00000157295030188905961530000017215977568631260835_);}
	.st28{fill:#6A6F7D;}
	.st29{fill:url(#body_00000070811594077142869820000002068323959825122485_);}
	.st30{fill:url(#arm-2_00000134958883873334131180000012534843580972582562_);}
	.st31{fill:#CACCD4;}
	.st32{fill:none;stroke:#222428;stroke-width:2.69;stroke-linecap:round;stroke-linejoin:round;}
	.st33{fill:#33363C;}
	.st34{fill:#888FA1;}
	.st35{fill:#848C9C;}
	.st36{fill:#25282C;}
	.st37{fill:#222428;}
	.st38{fill:#4A4E57;}
	.st39{fill:url(#SVGID_00000042012125591314441030000018182140025768522427_);}
	.st40{fill:url(#SVGID_00000179629130201848034380000005434352974630811827_);}
	.st41{clip-path:url(#SVGID_00000070835355316750422450000016734051488208349616_);}
	.st42{fill:#7A8090;}
	.st43{fill:#B8BDC7;}
	.st44{clip-path:url(#SVGID_00000010995083177787633540000006683621252521198497_);}
	.st45{clip-path:url(#SVGID_00000133506396979496635980000013175736251617426367_);}
	.st46{fill:url(#SVGID_00000172438195284571864780000004798562589309845417_);}
	.st47{fill:#8E95A7;}
	.st48{clip-path:url(#SVGID_00000132804020855593517640000014202648222516423557_);}
	.st49{fill:#E2E3E7;}
	.st50{fill:url(#SVGID_00000161623995711838624550000000772493038586784142_);}
	.st51{fill:url(#SVGID_00000017494138270028099750000003409031975170580376_);}
	.st52{fill:url(#SVGID_00000159448604871615355240000007289645994119827330_);}
	.st53{opacity:0.49;}
	.st54{fill:none;stroke:#25282C;stroke-width:2.17;stroke-linecap:round;stroke-linejoin:round;}
	.st55{fill:#989FAE;}
	.st56{fill:#717886;}
	.st57{fill:#828A9A;}
	.st58{clip-path:url(#SVGID_00000109730402660810604960000012067225810604809121_);}
	.st59{fill:#1A1B17;}
	.st60{fill:#3D4048;}
	.st61{clip-path:url(#SVGID_00000183935919879261113080000017633765537531469246_);}
	.st62{fill:#1E1F23;}
	.st63{clip-path:url(#SVGID_00000083074242727167538910000014932469756206681270_);}
	.st64{fill:url(#SVGID_00000136388806708166981310000000420988074524470686_);}
	.st65{clip-path:url(#SVGID_00000174597358303062428860000000054409413920653759_);}
	.st66{fill:#1B1D19;}
	.st67{fill:#1D1F1A;}
	.st68{fill:#212327;}
	.st69{fill:url(#hair_00000183225177047596456850000006896357343261380498_);}
	.st70{clip-path:url(#SVGID_00000029032741390469712710000000751363012827346848_);}
	.st71{clip-path:url(#SVGID_00000107557472732344530640000017395686075083172753_);}
	.st72{fill:#7F8796;}
	.st73{fill:none;stroke:#7F8796;stroke-width:9.4;stroke-linecap:round;stroke-linejoin:round;}
	.st74{fill:none;stroke:#A9AFBB;stroke-width:9.4;stroke-linecap:round;stroke-linejoin:round;}
</style>
<g id="Layer_2">
	<g id="list" class="st0">
		<path id="BG" class="st1" d="M24.9,126.5l119.1-0.1c2,0,3.7,1.7,3.7,3.7l0.1,120.5c0,2-1.7,3.7-3.7,3.7L25,254.4
			c-2,0-3.7-1.7-3.7-3.7l-0.1-120.5C21.2,128.1,22.8,126.5,24.9,126.5z"/>
		<circle id="Options2" class="st2" cx="139.3" cy="135" r="2.2"/>
		<circle id="Options2-2" class="st2" cx="130.8" cy="135.1" r="2.2"/>
		<circle id="Options2-3" class="st2" cx="122.3" cy="135.1" r="2.2"/>
		<path class="st2" d="M74.7,138.6L74.7,138.6l-44.4-0.2c-1.7,0-3.1-1.4-3.1-3.1c0-1.7,1.4-3.1,3.1-3.1l0,0l44.4,0.2
			c1.7,0,3.1,1.4,3.1,3.1C77.7,137.3,76.3,138.6,74.7,138.6z"/>
		<path id="Card" class="st3" d="M31.6,147.3h105.5c2.5,0,4.6,2.1,4.6,4.6v75.5c0,2.5-2.1,4.6-4.6,4.6H31.6c-2.5,0-4.6-2.1-4.6-4.6
			v-75.5C27,149.3,29.1,147.3,31.6,147.3z"/>
		<path class="st4" d="M39.9,164c-1.7,0-3.1-1.4-3.1-3.1c0-1.7,1.4-3.1,3.1-3.1l91-0.1l0,0c1.7,0,3.1,1.4,3.1,3.1
			c0,1.7-1.4,3.1-3.1,3.1L39.9,164z"/>
		<path class="st4" d="M39.8,177.2c-1.7,0-3.1-1.4-3.1-3.1c0-1.7,1.4-3.1,3.1-3.1l0,0l74.9-0.2l0,0c1.7,0,3.1,1.4,3.1,3.1
			c0,1.7-1.4,3.1-3.1,3.1l0,0L39.8,177.2z"/>
		<path class="st4" d="M39.8,217.8c-1.7,0-3.1-1.4-3.1-3.1c0-1.7,1.4-3.1,3.1-3.1l62.6-0.2l0,0c1.7,0,3.1,1.4,3.1,3.1
			c0,1.7-1.4,3.1-3.1,3.1L39.8,217.8L39.8,217.8z"/>
		<g id="Add_Card">
			<path class="st2" d="M69.8,245c-1.7,0-3.1-1.4-3.1-3.1c0-1.7,1.4-3.1,3.1-3.1h29.5l0,0c1.7,0,3.1,1.4,3.1,3.1
				c0,1.7-1.4,3.1-3.1,3.1H69.8z"/>
		</g>
	</g>
	<g id="list-2">
		<path class="st1" d="M325.5,340.1c0,2.7-2.1,4.8-4.8,4.8l0,0l-117,0.1c-2.7,0-4.8-2.2-4.8-4.8l-0.2-207.4c0-2.7,2.1-4.8,4.8-4.8
			l0,0l116.9-0.1c2.7,0,4.8,2.2,4.8,4.8V153l0.1,85.2L325.5,340.1z"/>
		<g id="Add_Card-2">
			<path class="st2" d="M247.3,335.7c-1.7,0-3.1-1.4-3.1-3.1s1.4-3.1,3.1-3.1h29.5l0,0c1.7,0,3.1,1.4,3.1,3.1s-1.4,3.1-3.1,3.1
				H247.3L247.3,335.7z"/>
		</g>
		<path id="Card-2" class="st5" d="M209.1,149h105.5c2.5,0,4.6,2.1,4.6,4.6V229c0,2.5-2.1,4.6-4.6,4.6H209.1c-2.5,0-4.6-2.1-4.6-4.6
			v-75.5C204.5,151,206.6,149,209.1,149z"/>
		<path id="Card-3" class="st6" d="M209,238.1h105.5c2.5,0,4.6,2.1,4.6,4.6v75.5c0,2.5-2.1,4.6-4.6,4.6H209c-2.5,0-4.6-2.1-4.6-4.6
			v-75.5C204.4,240.1,206.5,238.1,209,238.1z"/>
		<path class="st7" d="M210.4,251.6c-1.7,0-3.1-1.4-3.1-3.1c0-1.7,1.4-3.1,3.1-3.1l91-0.1l0,0c1.7-0.1,3.1,1.2,3.2,2.9
			s-1.2,3.1-2.9,3.2c-0.1,0-0.2,0-0.3,0L210.4,251.6L210.4,251.6z"/>
		<path class="st7" d="M210.3,264.8c-1.7,0-3.1-1.4-3.1-3.1s1.4-3.1,3.1-3.1l74.9-0.2l0,0c1.7,0,3.1,1.4,3.1,3.1s-1.4,3.1-3.1,3.1
			L210.3,264.8L210.3,264.8z"/>
		<path class="st7" d="M210.3,278.3c-1.7,0-3.1-1.4-3.1-3.1s1.4-3.1,3.1-3.1l91-0.2l0,0c1.7,0,3.1,1.4,3.1,3.1s-1.4,3.1-3.1,3.1
			L210.3,278.3z"/>
		<path class="st8" d="M210.5,310.8h17.7c1.8,0,3.2,1.5,3.2,3.2v2.8c0,1.8-1.5,3.2-3.2,3.2h-17.7c-1.8,0-3.2-1.5-3.2-3.2V314
			C207.3,312.2,208.7,310.8,210.5,310.8z"/>
		<circle id="Options2-4" class="st2" cx="317" cy="136.5" r="2.2"/>
		<circle id="Options2-5" class="st2" cx="308.5" cy="136.5" r="2.2"/>
		<circle id="Options2-6" class="st2" cx="300" cy="136.6" r="2.2"/>
		<path class="st2" d="M252.4,140.1L252.4,140.1l-44.4-0.2c-1.7,0-3.1-1.4-3.1-3.1c0-1.7,1.4-3.1,3.1-3.1l0,0l44.4,0.2
			c1.7,0,3.1,1.4,3.1,3.1C255.5,138.7,254.1,140.1,252.4,140.1L252.4,140.1z"/>
		<path id="Card-4" class="st3" d="M209.2,237.6l105.7-0.1c2.5,0,4.6,2.1,4.6,4.6l0.1,75.6c0,2.5-2.1,4.6-4.6,4.6l-105.7,0.1
			c-2.5,0-4.6-2.1-4.6-4.6l-0.1-75.6C204.6,239.7,206.6,237.6,209.2,237.6z"/>
		<path class="st4" d="M210.5,317.4c-1.7-0.1-3-1.5-2.9-3.2c0.1-1.6,1.3-2.8,2.9-2.9H254l0,0c1.7-0.1,3.1,1.2,3.2,2.9
			s-1.2,3.1-2.9,3.2c-0.1,0-0.2,0-0.4,0H210.5L210.5,317.4z"/>
		
			<linearGradient id="SVGID_1_" gradientUnits="userSpaceOnUse" x1="231.3506" y1="583.0011" x2="344.9406" y2="624.7211" gradientTransform="matrix(1 0 0 1 0 -322)">
			<stop  offset="0" style="stop-color:#A8AEBA"/>
			<stop  offset="1" style="stop-color:#767E8C"/>
		</linearGradient>
		<path class="st9" d="M319.5,240.8l0.1,65.2l-89.4,0.1h-25.5l-0.1-65.2c0-1.8,1.5-3.3,3.3-3.3l0,0l108.3-0.1
			C318,237.5,319.5,238.9,319.5,240.8L319.5,240.8z"/>
		<path class="st10" d="M199.1,158.5c0.3,0,0.6,0,0.9,0l104.7,13c2.5,0.3,4.3,2.6,4,5.1l-9.3,74.9c-0.3,2.5-2.6,4.3-5.1,4
			l-95.1-11.8L199.1,158.5z"/>
	</g>
	<g id="card-5">
		
			<linearGradient id="Card-6_00000100348866573068665100000004013623474789810320_" gradientUnits="userSpaceOnUse" x1="163.2901" y1="521.4377" x2="378.3801" y2="523.5877" gradientTransform="matrix(1 0 0 1 -1.238356e-03 -322.0038)">
			<stop  offset="0" style="stop-color:#DBDEE2"/>
			<stop  offset="1" style="stop-color:#FFFFFF"/>
		</linearGradient>
		<path id="Card-6" style="fill:url(#Card-6_00000100348866573068665100000004013623474789810320_);" d="M181.6,149.3l104,18.1
			c2.5,0.4,4.2,2.8,3.7,5.3l-13,74.4c-0.4,2.5-2.8,4.2-5.3,3.7l-104-18.1c-2.5-0.4-4.2-2.8-3.7-5.3l13-74.4
			C176.7,150.6,179.1,148.9,181.6,149.3z"/>
		
			<linearGradient id="SVGID_00000104708277604030880510000001326585431371612846_" gradientUnits="userSpaceOnUse" x1="183.79" y1="494.2401" x2="279.5253" y2="494.2401" gradientTransform="matrix(1 0 0 1 0 -322)">
			<stop  offset="0" style="stop-color:#B0B5C1"/>
			<stop  offset="1" style="stop-color:#D1D4DA"/>
		</linearGradient>
		<path style="fill:url(#SVGID_00000104708277604030880510000001326585431371612846_);" d="M186.3,167.4c-1.6-0.4-2.6-2.1-2.1-3.8
			c0.4-1.4,1.7-2.4,3.2-2.2L277,177l0,0c1.7,0.1,2.9,1.6,2.8,3.3s-1.6,2.9-3.3,2.8c-0.2,0-0.4,0-0.6-0.1L186.3,167.4L186.3,167.4z"
			/>
		
			<linearGradient id="SVGID_00000179620447404422264050000006893820787512413847_" gradientUnits="userSpaceOnUse" x1="181.45" y1="505.8" x2="261.39" y2="505.8" gradientTransform="matrix(1 0 0 1 0 -322)">
			<stop  offset="0" style="stop-color:#B0B5C1"/>
			<stop  offset="1" style="stop-color:#D1D4DA"/>
		</linearGradient>
		<path style="fill:url(#SVGID_00000179620447404422264050000006893820787512413847_);" d="M184,180.4c-1.6-0.5-2.6-2.1-2.1-3.8
			c0.4-1.4,1.7-2.3,3.2-2.2l73.8,12.8l0,0c1.6,0.5,2.6,2.1,2.1,3.8c-0.4,1.4-1.7,2.3-3.2,2.2L184,180.4z"/>
		
			<linearGradient id="SVGID_00000124161027389047014750000009871854899527501983_" gradientUnits="userSpaceOnUse" x1="179.11" y1="520.4991" x2="274.9453" y2="520.4991" gradientTransform="matrix(1 0 0 1 0 -322)">
			<stop  offset="0" style="stop-color:#B0B5C1"/>
			<stop  offset="1" style="stop-color:#D1D4DA"/>
		</linearGradient>
		<path style="fill:url(#SVGID_00000124161027389047014750000009871854899527501983_);" d="M181.6,193.7c-1.6-0.5-2.6-2.1-2.1-3.8
			c0.4-1.4,1.7-2.3,3.2-2.2l89.7,15.5l0,0c1.7,0.1,2.9,1.6,2.8,3.3s-1.6,2.9-3.3,2.8c-0.2,0-0.4,0-0.6-0.1L181.6,193.7L181.6,193.7z
			"/>
		
			<linearGradient id="SVGID_00000173145003680194225940000003328502001647808414_" gradientUnits="userSpaceOnUse" x1="176.77" y1="533.85" x2="272.58" y2="533.85" gradientTransform="matrix(1 0 0 1 0 -322)">
			<stop  offset="0" style="stop-color:#B0B5C1"/>
			<stop  offset="1" style="stop-color:#D1D4DA"/>
		</linearGradient>
		<path style="fill:url(#SVGID_00000173145003680194225940000003328502001647808414_);" d="M179.3,207.1c-1.6-0.5-2.6-2.1-2.1-3.8
			c0.4-1.4,1.7-2.3,3.2-2.2l89.6,15.5l0,0c1.6,0.5,2.6,2.1,2.1,3.8c-0.4,1.4-1.7,2.3-3.2,2.2L179.3,207.1L179.3,207.1z"/>
		
			<linearGradient id="SVGID_00000132783367008437569940000009591807548755100817_" gradientUnits="userSpaceOnUse" x1="174.44" y1="544.7491" x2="242.1753" y2="544.7491" gradientTransform="matrix(1 0 0 1 0 -322)">
			<stop  offset="0" style="stop-color:#B0B5C1"/>
			<stop  offset="1" style="stop-color:#D1D4DA"/>
		</linearGradient>
		<path style="fill:url(#SVGID_00000132783367008437569940000009591807548755100817_);" d="M177,220.4c-1.6-0.5-2.6-2.1-2.1-3.8
			c0.4-1.4,1.7-2.3,3.2-2.2l61.6,10.6l0,0c1.7,0.1,2.9,1.6,2.8,3.3c-0.1,1.7-1.6,2.9-3.3,2.8c-0.2,0-0.4,0-0.6-0.1L177,220.4z"/>
	</g>
	<g id="list-3">
		<path id="BG-2" class="st1" d="M347.9,127.9l115.1-0.1c3.2,0,5.7,2.6,5.7,5.7l0.3,295.2c0,3.2-2.6,5.7-5.7,5.7l-115.1,0.1
			c-3.2,0-5.7-2.6-5.7-5.7l-0.3-295.2C342.1,130.5,344.7,127.9,347.9,127.9z"/>
		<g id="Add_Card-3">
			<path class="st2" d="M390.8,425.2c-1.7,0-3.1-1.4-3.1-3.1s1.4-3.1,3.1-3.1l0,0h29.5l0,0c1.7,0,3.1,1.4,3.1,3.1s-1.4,3.1-3.1,3.1
				H390.8L390.8,425.2z"/>
		</g>
		<circle id="Options2-7" class="st2" cx="460.2" cy="136.5" r="2.2"/>
		<circle id="Options2-8" class="st2" cx="451.7" cy="136.5" r="2.2"/>
		<circle id="Options2-9" class="st2" cx="443.2" cy="136.5" r="2.2"/>
		<path class="st2" d="M395.6,140.1L395.6,140.1l-44.4-0.2c-1.7,0-3.1-1.4-3.1-3.1c0-1.7,1.4-3.1,3.1-3.1l0,0l44.4,0.2
			c1.7,0,3.1,1.4,3.1,3.1C398.6,138.7,397.3,140.1,395.6,140.1z"/>
		
			<linearGradient id="Card-7_00000010296204707866395180000016670810872783452832_" gradientUnits="userSpaceOnUse" x1="354.2769" y1="584.7042" x2="472.2169" y2="624.4141" gradientTransform="matrix(1 1.047197e-03 -1.047197e-03 1 2.598682e-05 -321.9539)">
			<stop  offset="0" style="stop-color:#FFFFFF"/>
			<stop  offset="0.33" style="stop-color:#FEFEFE"/>
			<stop  offset="0.53" style="stop-color:#EDEEEF"/>
			<stop  offset="0.7" style="stop-color:#E2E3E7"/>
			<stop  offset="0.84" style="stop-color:#D2D5DB"/>
			<stop  offset="0.98" style="stop-color:#BFC3CC"/>
			<stop  offset="1" style="stop-color:#BCC0C9"/>
		</linearGradient>
		<path id="Card-7" style="fill:url(#Card-7_00000010296204707866395180000016670810872783452832_);" d="M352.5,238.2H458
			c2.5,0,4.6,2.1,4.6,4.6v75.5c0,2.5-2.1,4.6-4.6,4.6H352.5c-2.5,0-4.6-2.1-4.6-4.6v-75.5C347.9,240.2,349.9,238.2,352.5,238.2z"/>
		
			<linearGradient id="SVGID_00000002352317178251085650000016020721026149253768_" gradientUnits="userSpaceOnUse" x1="350.7" y1="570.35" x2="447.9" y2="570.35" gradientTransform="matrix(1 0 0 1 0 -322)">
			<stop  offset="0" style="stop-color:#D1D4DA"/>
			<stop  offset="1" style="stop-color:#B0B5C1"/>
		</linearGradient>
		<path style="fill:url(#SVGID_00000002352317178251085650000016020721026149253768_);" d="M353.8,251.5c-1.7,0-3.1-1.4-3.1-3.1
			c0-1.7,1.4-3.1,3.1-3.1l0,0l91-0.1l0,0c1.7,0,3.1,1.4,3.1,3.1c0,1.7-1.4,3.1-3.1,3.1l0,0L353.8,251.5z"/>
		
			<linearGradient id="SVGID_00000111168392242000794110000015097015124390018974_" gradientUnits="userSpaceOnUse" x1="350.7" y1="583.6" x2="431.8" y2="583.6" gradientTransform="matrix(1 0 0 1 0 -322)">
			<stop  offset="0" style="stop-color:#D1D4DA"/>
			<stop  offset="1" style="stop-color:#B0B5C1"/>
		</linearGradient>
		<path style="fill:url(#SVGID_00000111168392242000794110000015097015124390018974_);" d="M353.8,264.8c-1.7,0-3.1-1.4-3.1-3.1
			s1.4-3.1,3.1-3.1l74.9-0.2l0,0c1.7,0,3.1,1.4,3.1,3.1s-1.4,3.1-3.1,3.1L353.8,264.8L353.8,264.8z"/>
		
			<linearGradient id="SVGID_00000057831386297975514160000014825878394293484951_" gradientUnits="userSpaceOnUse" x1="350.7" y1="597.1" x2="447.9" y2="597.1" gradientTransform="matrix(1 0 0 1 0 -322)">
			<stop  offset="0" style="stop-color:#D1D4DA"/>
			<stop  offset="1" style="stop-color:#B0B5C1"/>
		</linearGradient>
		<path style="fill:url(#SVGID_00000057831386297975514160000014825878394293484951_);" d="M353.8,278.3c-1.7,0-3.1-1.4-3.1-3.1
			s1.4-3.1,3.1-3.1l0,0l91-0.2l0,0c1.7,0,3.1,1.4,3.1,3.1s-1.4,3.1-3.1,3.1l0,0L353.8,278.3z"/>
		
			<linearGradient id="Card-8_00000183945086166040307250000000939374392276582068_" gradientUnits="userSpaceOnUse" x1="348.1005" y1="691.4504" x2="463.4005" y2="691.4504" gradientTransform="matrix(1 0 0 1 -4.607668e-04 -322.0004)">
			<stop  offset="0" style="stop-color:#FFFFFF"/>
			<stop  offset="0.33" style="stop-color:#FEFEFE"/>
			<stop  offset="0.53" style="stop-color:#EDEEEF"/>
			<stop  offset="0.7" style="stop-color:#E2E3E7"/>
			<stop  offset="0.84" style="stop-color:#D2D5DB"/>
			<stop  offset="0.98" style="stop-color:#BFC3CC"/>
			<stop  offset="1" style="stop-color:#BCC0C9"/>
		</linearGradient>
		<path id="Card-8" style="fill:url(#Card-8_00000183945086166040307250000000939374392276582068_);" d="M352.7,327l106-0.1
			c2.6,0,4.6,2.1,4.6,4.6l0.1,75.8c0,2.6-2.1,4.6-4.6,4.6l-106,0.1c-2.6,0-4.6-2.1-4.6-4.6l-0.1-75.8
			C348.1,329.1,350.2,327,352.7,327z"/>
		<path class="st4" d="M353.6,406c-1.7,0.1-3.2-1.2-3.3-2.9c-0.1-1.7,1.2-3.2,2.9-3.3c0.1,0,0.2,0,0.4,0h43.6l0,0
			c1.7,0,3.1,1.4,3.1,3.1s-1.4,3.1-3.1,3.1L353.6,406L353.6,406z"/>
		
			<linearGradient id="SVGID_00000029757804244595721270000006432581997861803695_" gradientUnits="userSpaceOnUse" x1="405.392" y1="714.7614" x2="406.9019" y2="616.4414" gradientTransform="matrix(1 0 0 1 0 -322)">
			<stop  offset="0" style="stop-color:#A4AAB8"/>
			<stop  offset="1" style="stop-color:#828A9A"/>
		</linearGradient>
		<path style="fill:url(#SVGID_00000029757804244595721270000006432581997861803695_);" d="M463.4,330.2l0.1,65.4l-89.6,0.1h-25.6
			l-0.1-65.4c0-1.8,1.5-3.3,3.3-3.3l0,0l108.7-0.1C461.9,326.8,463.4,328.3,463.4,330.2C463.4,330.1,463.4,330.2,463.4,330.2z"/>
		<path id="Card-9" class="st3" d="M352.1,148.3l106-0.1c2.6,0,4.6,2.1,4.6,4.6l0.1,75.8c0,2.6-2.1,4.6-4.6,4.6l-106,0.1
			c-2.6,0-4.6-2.1-4.6-4.6l-0.1-75.8C347.5,150.4,349.6,148.3,352.1,148.3z"/>
		<path class="st4" d="M353,227.3c-1.7,0-3.1-1.4-3.1-3.1c0-1.7,1.4-3.1,3.1-3.1h43.6l0,0c1.7,0.1,3,1.6,2.9,3.3
			c-0.1,1.6-1.3,2.8-2.9,2.9L353,227.3L353,227.3z"/>
		
			<linearGradient id="SVGID_00000153697042035714785350000002657096635809304755_" gradientUnits="userSpaceOnUse" x1="404.7884" y1="536.0914" x2="406.3084" y2="437.7814" gradientTransform="matrix(1 0 0 1 0 -322)">
			<stop  offset="0" style="stop-color:#727987"/>
			<stop  offset="1" style="stop-color:#C4C8D0"/>
		</linearGradient>
		<path style="fill:url(#SVGID_00000153697042035714785350000002657096635809304755_);" d="M462.8,151.5l0.1,65.4l-89.6,0.1h-25.6
			l-0.1-65.4c0-1.8,1.5-3.3,3.3-3.3l0,0l108.7-0.1C461.3,148.2,462.7,149.6,462.8,151.5L462.8,151.5z"/>
		<path class="st24" d="M405.2,182.1l-8.4,22.2c-5.9-2.3-10.6-6.8-13.3-12.5L405.2,182.1L405.2,182.1z"/>
		<path class="st25" d="M405.2,158.4V182l-0.1-0.1l-21.6,9.7c-1.4-3-2.1-6.3-2-9.7c0-0.4,0-0.8,0-1.2c0.2-5.8,2.7-11.4,6.8-15.4
			l0.1-0.1l0,0c4.4-4.5,10.4-7,16.7-6.9L405.2,158.4L405.2,158.4z"/>
		
			<linearGradient id="SVGID_00000084496493937304414430000017501453584402277044_" gradientUnits="userSpaceOnUse" x1="412.8514" y1="480.4491" x2="412.8514" y2="527.752" gradientTransform="matrix(1 0 0 1 0 -322)">
			<stop  offset="0" style="stop-color:#FFFFFF"/>
			<stop  offset="1" style="stop-color:#D7DADF"/>
		</linearGradient>
		<path style="fill-rule:evenodd;clip-rule:evenodd;fill:url(#SVGID_00000084496493937304414430000017501453584402277044_);" d="
			M396.9,204.3l8.4-22.2v-23.6c2.9,0,5.7,0.5,8.4,1.4c3.1,1.2,5.9,3.1,8.2,5.4c4.3,4.1,6.7,9.7,6.9,15.6c0,0.4,0,0.8,0,1.2
			c0.1,6.3-2.4,12.3-6.9,16.7l0,0c-4.4,4.6-10.4,7.1-16.7,7C402.3,205.8,399.5,205.3,396.9,204.3z"/>
	</g>
	<g id="Sasquatch">
		
			<linearGradient id="arm_00000176740610761927201190000018045467777365771145_" gradientUnits="userSpaceOnUse" x1="76.49" y1="666.7345" x2="301.68" y2="666.7345" gradientTransform="matrix(1 0 0 1 0 -322)">
			<stop  offset="0" style="stop-color:#6F7583"/>
			<stop  offset="1" style="stop-color:#A4AAB8"/>
		</linearGradient>
		<path id="arm" style="fill:url(#arm_00000176740610761927201190000018045467777365771145_);" d="M263,341.6l-0.3,1.8l0,0
			c-0.7,3.2-2.8,8.2-7.8,15.6c0,0-4.4,7.6-15.2,6c-1.5-0.2-3,0.1-4.2,1c-4.6,3.2-17.1,11-32.9,12c-2.7,0.2-5.3,0.2-8-0.1
			c-3.6-0.3-7.1-1-10.5-2c-2.1-0.6-4.2-1.4-6.2-2.3l2.5-21.1l1.9-15.6c0,0,18.2,5.5,27.1,5.1c6.7-0.3,13.2-2.4,18.8-6.1
			c6.4-4.2,7.8-9.4,9.1-16.5c1.1-5.4,6.3-8.9,11.6-7.9l3.2,0.6c1,0.1,2,0.3,3,0.6l3.5,0.7c2.9,0.6,4.8,3.3,4.3,6.2l-1.3,7l-2.1,10.9
			l0.8,0.1C262.2,338.1,263.3,339.8,263,341.6z"/>
		<path id="shadow" class="st28" d="M202.5,378.1c-2.7,0.2-5.3,0.2-8-0.1c-3.6-0.3-7.1-1-10.5-2c-0.2-3.5-1.4-24.7-1.5-26.2
			C183.1,359.8,190.8,376.4,202.5,378.1z"/>
		
			<linearGradient id="body_00000010305795424083639350000004811463113092321716_" gradientUnits="userSpaceOnUse" x1="148.9458" y1="568.282" x2="144.4558" y2="780.002" gradientTransform="matrix(1 0 0 1 0 -322)">
			<stop  offset="0" style="stop-color:#6F7583"/>
			<stop  offset="1" style="stop-color:#A4AAB8"/>
		</linearGradient>
		<path id="body" style="fill:url(#body_00000010305795424083639350000004811463113092321716_);" d="M187.6,437
			c-2.7,22.2-6.7,47.1-6.7,47.1l-2.7,10.1l-28.3-4V490c-0.1-3-0.1-5.9-0.2-8.9l-0.3-14.3l-0.1-5.6c0-0.4,0-0.8,0-1.2
			c0-0.3,0-0.5,0.1-0.8c0.1-0.2,0.1-0.5,0.1-0.7c-0.2,0-0.5,0-0.7,0.1l-0.7,0.1c-0.5,0.1-1,0.2-1.4,0.3c-1,0.2-1.8,0.9-2.4,1.7
			c-0.4,0.8-0.7,1.7-0.8,2.6c-0.3,1.4-0.6,2.8-0.8,4.2c-1,7.2-1.3,14.6-0.8,21.9l-35.7-2c0,0-0.7-12.2-1.1-24.4c0-0.3,0-0.6,0-1
			c-0.1-3.3-0.2-6.6-0.3-9.6c0-0.3,0-0.7,0-1c-0.1-4.6-0.1-8.4,0.1-10.5l0.7-121.9c0,0-1.3-36.4,0-47.1s10.2-19.4,19.7-23.9
			c3.5-1.7,7.2-2.8,11-3.3c0.1,0,1.1-0.8,1.2-0.9c1.1-0.8,2.3-1.5,3.5-2.1c3.7-1.9,7.7-3,11.8-3.3c1.2-0.1,10.8-0.7,10.8,1.2
			c0,0.4-0.9,0.6-1.2,0.7c-1,0.3-2.1,0.5-3.1,0.8c-2.6,0.6-5.2,1-7.8,1.7c-0.5,0.1-0.9,0.2-1.4,0.4c-0.4,0.1-0.7,0.3-1,0.6
			c0.3-0.1,0.7-0.2,1.1-0.2c0.4,0,0.8,0,1.3-0.1s0.9-0.1,1.3-0.1c2.1-0.1,4.2-0.2,6.2-0.2s4.1,0,6.1,0.2c1.9,0.2,3.9,0.6,5.7,1.3
			c2.1,0.9,0.3,1.4-0.7,1.5c-1.8,0.2-3.7,0.3-5.5,0.2c-1.4,0-2.7,0-4,0.1s-2.6,0-3.9,0.1c-0.7,0-1.5,0.1-2.2,0.3
			c0.5,0.3,1,0.5,1.5,0.7s1,0.5,1.5,0.8c1,0.5,2,1.1,3,1.7l0.2,0.1c0.8,0.5,1.6,1,2.3,1.6c14.1,10.1,15.5,27.6,16.2,35
			s5.2,51.2,5.2,51.2S190.3,414.7,187.6,437z"/>
		<path id="shadow-2" class="st28" d="M79.3,434.9c-4,4.1-5.3,10-3.5,15.4c0.7,2.1,2.1,4,3.9,5.3c1.9,1.3,4.1,2,6.4,2
			c-0.7-0.4-1.1-1-1.3-1.8c-0.5-2.2-0.2-4.5-0.2-6.8s-0.9-3.8-1.4-5.9c-0.9-3.4-1.3-7-1.2-10.5C81,433.2,80.1,434,79.3,434.9z"/>
		<path id="shadow-3" class="st28" d="M114.4,454.8c-2.6,3.1-5.8,5.6-9.4,7.4c-0.1-3.3-0.2-6.6-0.3-9.6c0-0.3,0-0.7,0-1
			c6.8-3.5,8.8-10.8,8.2-17.3c-0.7-6.7-4.7-16.2-6.1-26.9c-0.3-2.7-0.4-5.5-0.1-8.3c0.2-2.4,0.7-4.9,1.4-7.2
			c0.3-1.4,0.8-2.7,1.4-3.9c-0.1,0.7-0.2,1.4-0.2,2.1c-0.2,5.8,0.2,11.6,1.2,17.3c1.3,5.6,2.9,11.2,4.9,16.6
			C119,434.1,121.9,445.7,114.4,454.8z"/>
		
			<linearGradient id="arm-2_00000163787685378827680980000007003046477074846651_" gradientUnits="userSpaceOnUse" x1="181.5043" y1="624.1425" x2="71.3943" y2="750.5624" gradientTransform="matrix(1 0 0 1 0 -322)">
			<stop  offset="0" style="stop-color:#6F7583"/>
			<stop  offset="1" style="stop-color:#A4AAB8"/>
		</linearGradient>
		<path id="arm-2" style="fill:url(#arm-2_00000163787685378827680980000007003046477074846651_);" d="M105.3,325.3
			c0,0,1.5,20.7-11.3,28.8s-20.9,22.9-22.2,35s3.4,28.3,5.4,35.7s5.4,21.5,5.4,21.5s-3.4,0.7-2.7,6.1s3.4,5.4,8.8,5.4
			c0,0,10.8-0.7,18.2-6.1s6.7-18.9,4.7-24.2c0,0-10.1-22.2-2-40.4L105.3,325.3z"/>
		<path id="belly" class="st31" d="M145.2,351.4h22.9c7.4,0,13.5,6,13.5,13.5v62.6c0,7.4-6,13.5-13.5,13.5h-22.9
			c-7.4,0-13.5-6-13.5-13.5v-62.6C131.7,357.5,137.7,351.4,145.2,351.4z"/>
		<g id="smile">
			<ellipse class="st31" cx="154.6" cy="318.1" rx="20.9" ry="11.8"/>
			<path class="st32" d="M140.4,315c9.1,4.1,19.5,4,28.5-0.3"/>
		</g>
		<g id="boots">
			<rect x="148.5" y="515.8" class="st5" width="59.3" height="4"/>
			<rect x="94.7" y="515.8" class="st5" width="48.5" height="4"/>
			<path class="st33" d="M141.7,486.6l-12.7,0.2l-0.1-0.1c-1.4-4.4-5.5-7.4-10.1-7.3h-7.2c-3.2,0-5.8,2.5-5.8,5.7c0,0.1,0,0.2,0,0.3
				l0.1,2.5c-1.5,6.1-8,17.8-10,21.1c-1.2,2-1.7,4.4-1.3,6.7h48.5v-8.1C143.1,504.3,141.7,486.6,141.7,486.6z"/>
			<path class="st33" d="M191.6,498.9c-2.8-0.6-5.1-2.8-7.1-4.8c-2.5-2.5-3.2-6-3.3-9.5v-2.2c0-0.3,0-0.6,0-1h-4.8
				c-3.5,0-6.6,2.1-7.9,5.4h-18.8c-1.3,9.6-1.7,19.3-1.3,29h59.3C207.1,500.9,195,499.6,191.6,498.9z"/>
			<circle class="st34" cx="162" cy="501.6" r="6.7"/>
			<ellipse class="st34" cx="133.7" cy="502.3" rx="3.4" ry="6.7"/>
		</g>
		<g id="eyes">
			<path class="st3" d="M141.8,289.5L141.8,289.5c1.5,0,2.7,1.2,2.7,2.7v5.4c0,1.5-1.2,2.7-2.7,2.7l0,0c-1.5,0-2.7-1.2-2.7-2.7v-5.4
				C139.1,290.7,140.3,289.5,141.8,289.5z"/>
			<path class="st3" d="M168.7,289.5L168.7,289.5c1.5,0,2.7,1.2,2.7,2.7v5.4c0,1.5-1.2,2.7-2.7,2.7l0,0c-1.5,0-2.7-1.2-2.7-2.7v-5.4
				C166.1,290.7,167.3,289.5,168.7,289.5z"/>
		</g>
		<path id="shadow-4" class="st28" d="M167.4,454.5c0,0-14.2,8.1-17.9,18.2l-0.3-14.1C149.2,458.5,161.3,457.8,167.4,454.5z"/>
		<g id="detail">
			<path class="st35" d="M251.8,348c1.1-3.3,3.2-6.1,5.8-8.3c1-0.8-0.4-2.3-1.4-1.4c-2.9,2.4-5.1,5.6-6.3,9.2
				C249.5,348.7,251.4,349.2,251.8,348L251.8,348z"/>
		</g>
	</g>
	<g id="robot">
		<rect id="neck" x="460.7" y="355" class="st36" width="25.2" height="7.1"/>
		<g id="arm-3">
			<g id="arm_l">
				<path class="st37" d="M420.2,429c2.4,1.1,5.3,0.9,7.5-0.6c23.3-16,25.9-49.8,26-51.2c0.2-4.2-3.1-7.7-7.3-7.8
					c-4-0.1-7.4,2.9-7.8,6.8c0,0.4-2.2,28-19.4,39.8c-3.4,2.4-4.3,7.1-1.9,10.5C418,427.6,419,428.4,420.2,429z"/>
			</g>
			<path class="st38" d="M418.1,418l5.1,9.8c1.3,2.6,0.3,5.7-2.2,7.1l-9.8,5.1c-2.6,1.3-5.7,0.3-7.1-2.2L399,428
				c-1.3-2.6-0.3-5.7,2.2-7.1l9.8-5.1C413.6,414.5,416.8,415.5,418.1,418z"/>
		</g>
		<g id="head">
			
				<linearGradient id="SVGID_00000007404138820103785700000012215325471289987986_" gradientUnits="userSpaceOnUse" x1="-5266.3018" y1="686.51" x2="-5266.3018" y2="635.08" gradientTransform="matrix(-1 0 0 1 -4785.8496 -322)">
				<stop  offset="0" style="stop-color:#878D9F"/>
				<stop  offset="1" style="stop-color:#C9CCD4"/>
			</linearGradient>
			<path style="fill:url(#SVGID_00000007404138820103785700000012215325471289987986_);" d="M493.1,355.2h-25.3
				c-1.7,0-3.1-1.4-3.1-3.1v-46.4c0-1.7,1.4-3.1,3.1-3.1h25.3c1.7,0,3.1,1.4,3.1,3.1V352C496.3,353.8,494.8,355.2,493.1,355.2z"/>
			
				<linearGradient id="SVGID_00000104697698256635960260000017329960272141254032_" gradientUnits="userSpaceOnUse" x1="466.15" y1="815.6" x2="466.15" y2="605.22" gradientTransform="matrix(1 0 0 1 0 -322)">
				<stop  offset="0" style="stop-color:#727987"/>
				<stop  offset="6.000000e-02" style="stop-color:#79818F"/>
				<stop  offset="0.28" style="stop-color:#989FAE"/>
				<stop  offset="0.5" style="stop-color:#B8BDC7"/>
				<stop  offset="0.69" style="stop-color:#CDD0D6"/>
				<stop  offset="0.87" style="stop-color:#DADDE1"/>
				<stop  offset="1" style="stop-color:#DEE0E4"/>
			</linearGradient>
			<path style="fill:url(#SVGID_00000104697698256635960260000017329960272141254032_);" d="M478.8,355.3h-25.3
				c-1.7,0-3.2-1.4-3.2-3.2v-46.4c0-1.7,1.4-3.2,3.2-3.2h25.3c1.7,0,3.2,1.4,3.2,3.2v46.4C482,353.8,480.6,355.3,478.8,355.3z"/>
		</g>
		<g id="glasses">
			<path class="st36" d="M485.9,321.9H445c-1.5,0-2.8-1.2-2.8-2.8l0,0c0-1.5,1.2-2.8,2.8-2.8h40.9c1.5,0,2.8,1.2,2.8,2.8l0,0
				C488.6,320.6,487.4,321.9,485.9,321.9z"/>
			<path class="st36" d="M471.5,333.8h8.3c1.6,0,2.9-1.1,3.2-2.7l2-11.1h-18.8l2,11.1C468.5,332.7,469.9,333.8,471.5,333.8z"/>
			<path class="st36" d="M450.9,333.8h8.3c1.6,0,2.9-1.1,3.2-2.7l2-11.1h-18.8l2,11.1C447.9,332.7,449.3,333.8,450.9,333.8z"/>
			<g>
				<g>
					<defs>
						<path id="SVGID_00000070108989683426242260000000480043764080312465_" d="M451.4,331.2h7.3c0.7,0,1.4-0.5,1.5-1.3l1.4-9.4
							h-13.1l1.4,9.4C450,330.6,450.7,331.2,451.4,331.2z"/>
					</defs>
					<clipPath id="SVGID_00000011710775376258656290000002967533929564578985_">
						<use xlink:href="#SVGID_00000070108989683426242260000000480043764080312465_"  style="overflow:visible;"/>
					</clipPath>
					<g style="clip-path:url(#SVGID_00000011710775376258656290000002967533929564578985_);">
						<path class="st42" d="M451.4,331.2h7.3c0.7,0,1.4-0.5,1.5-1.3l1.4-9.4h-13.1l1.4,9.4C450,330.6,450.7,331.2,451.4,331.2z"/>
						
							<rect x="453" y="315.9" transform="matrix(0.6309 -0.7758 0.7758 0.6309 -83.9535 473.1808)" class="st43" width="4.8" height="17.9"/>
					</g>
				</g>
			</g>
			<g>
				<g>
					<defs>
						<path id="SVGID_00000181807185880011728630000004423085622385478287_" d="M472,331.2h7.3c0.7,0,1.4-0.5,1.5-1.3l1.4-9.4H469
							l1.4,9.4C470.6,330.6,471.2,331.2,472,331.2z"/>
					</defs>
					<clipPath id="SVGID_00000115482102177460917450000017674813979054595721_">
						<use xlink:href="#SVGID_00000181807185880011728630000004423085622385478287_"  style="overflow:visible;"/>
					</clipPath>
					<g style="clip-path:url(#SVGID_00000115482102177460917450000017674813979054595721_);">
						<path class="st42" d="M472,331.2h7.3c0.7,0,1.4-0.5,1.5-1.3l1.4-9.4H469l1.4,9.4C470.6,330.6,471.2,331.2,472,331.2z"/>
						
							<rect x="473.3" y="315.8" transform="matrix(0.6309 -0.7758 0.7758 0.6309 -76.4355 488.9077)" class="st43" width="4.8" height="17.9"/>
					</g>
				</g>
			</g>
		</g>
		<path id="leg" class="st37" d="M466.2,504.9l-14.1,3.4c-6-25.4-6-51.9,0-77.3l14.1,3.4C460.7,457.6,460.7,481.7,466.2,504.9z"/>
		<g id="boot">
			<g>
				<g>
					<defs>
						<path id="SVGID_00000164516003640967688230000013138056035109561740_" d="M464.6,497.7c0.1,0,0.2,0.1,0.2,0.2
							c0.4,1.3,2.5,9,2.6,10.5s0,11.7,0,11.7h-38.7c0,0-1.9-10.1,8.4-11.7s11.8-6,12.1-9.5c0.2-1.8,0.2-3.6,0-5.4c0,0,4.4-1,5.6,1
							c0.4,0.6,0.7,1.1,1,1.6c0.6,1.1,1.9,1.8,3.2,1.8L464.6,497.7z"/>
					</defs>
					<clipPath id="SVGID_00000148638895437825160230000014779196625126667913_">
						<use xlink:href="#SVGID_00000164516003640967688230000013138056035109561740_"  style="overflow:visible;"/>
					</clipPath>
					<g style="clip-path:url(#SVGID_00000148638895437825160230000014779196625126667913_);">
						<path class="st1" d="M464.8,497.6c0,0,2.6,9.1,2.7,10.7s0,11.7,0,11.7h-38.7c0,0-1.9-10.1,8.4-11.7s11.8-6,12.1-9.5
							c0.2-1.8,0.2-3.6,0-5.4c0,0,4.4-1,5.6,1c0.4,0.6,0.7,1.1,1,1.6c0.6,1.1,1.9,1.8,3.2,1.8L464.8,497.6z"/>
						
							<linearGradient id="SVGID_00000016786814285075308920000010823584023745592254_" gradientUnits="userSpaceOnUse" x1="-5253.3501" y1="840.05" x2="-5214.4502" y2="840.05" gradientTransform="matrix(-1 0 0 1 -4785.8501 -322)">
							<stop  offset="0" style="stop-color:#878D9F"/>
							<stop  offset="1" style="stop-color:#C9CCD4"/>
						</linearGradient>
						
							<rect x="428.6" y="516.1" style="fill:url(#SVGID_00000016786814285075308920000010823584023745592254_);" width="38.9" height="3.9"/>
					</g>
				</g>
			</g>
			<circle class="st47" cx="460.5" cy="509.5" r="3.7"/>
		</g>
		<path id="leg-2" class="st37" d="M499.4,504.9l-14.1,3.4c-6-25.4-6-51.9,0-77.3l14.1,3.4C493.9,457.6,493.9,481.7,499.4,504.9z"/>
		<g id="boot-2">
			<path class="st2" d="M497.7,497.7c0.1,0,0.2,0.1,0.3,0.2c0.4,1.3,2.5,9,2.6,10.5s0,11.7,0,11.7h-38.7c0,0-1.9-10.1,8.4-11.7
				s11.8-6,12.1-9.5c0.2-1.8,0.2-3.6,0-5.4c0,0,4.4-1,5.6,1c0.4,0.6,0.7,1.1,1,1.6c0.6,1.1,1.8,1.8,3.1,1.8L497.7,497.7z"/>
			<g>
				<g>
					<defs>
						<path id="SVGID_00000158747919750824490200000005241324662791559613_" d="M497.7,497.7c0.1,0,0.2,0.1,0.3,0.2
							c0.4,1.3,2.5,9,2.6,10.5s0,11.7,0,11.7h-38.7c0,0-1.9-10.1,8.4-11.7s11.8-6,12.1-9.5c0.2-1.8,0.2-3.6,0-5.4c0,0,4.4-1,5.6,1
							c0.4,0.6,0.7,1.1,1,1.6c0.6,1.1,1.8,1.8,3.1,1.8L497.7,497.7z"/>
					</defs>
					<clipPath id="SVGID_00000073710575392859683300000005557061089957620653_">
						<use xlink:href="#SVGID_00000158747919750824490200000005241324662791559613_"  style="overflow:visible;"/>
					</clipPath>
					<g style="clip-path:url(#SVGID_00000073710575392859683300000005557061089957620653_);">
						<path class="st49" d="M497.9,497.6c0,0,2.6,9.1,2.7,10.7s0,11.7,0,11.7h-38.7c0,0-1.9-10.1,8.4-11.7s11.8-6,12.1-9.5
							c0.2-1.8,0.2-3.6,0-5.4c0,0,4.4-1,5.6,1c0.4,0.6,0.7,1.1,1,1.6c0.6,1.1,1.8,1.8,3.1,1.8L497.9,497.6z"/>
						
							<linearGradient id="SVGID_00000009557420606656090280000004184288341710770602_" gradientUnits="userSpaceOnUse" x1="-5286.4902" y1="840.05" x2="-5247.5903" y2="840.05" gradientTransform="matrix(-1 0 0 1 -4785.8501 -322)">
							<stop  offset="0" style="stop-color:#878D9F"/>
							<stop  offset="1" style="stop-color:#C9CCD4"/>
						</linearGradient>
						
							<rect x="461.7" y="516.1" style="fill:url(#SVGID_00000009557420606656090280000004184288341710770602_);" width="38.9" height="3.9"/>
					</g>
				</g>
			</g>
			<circle class="st47" cx="493.7" cy="509.5" r="3.7"/>
		</g>
		<g id="torso">
			
				<linearGradient id="SVGID_00000143614815952517696910000008307008540625168815_" gradientUnits="userSpaceOnUse" x1="-5270.52" y1="771.43" x2="-5270.52" y2="699.35" gradientTransform="matrix(-1 0 0 1 -4789.1201 -298.65)">
				<stop  offset="0" style="stop-color:#878D9F"/>
				<stop  offset="1" style="stop-color:#C9CCD4"/>
			</linearGradient>
			<path style="fill:url(#SVGID_00000143614815952517696910000008307008540625168815_);" d="M502.1,443.5h-41.4
				c-3.3,0-6.1-2.7-6.1-6.1v-67.7c0-3.3,2.7-6.1,6.1-6.1h41.4c3.3,0,6.1,2.7,6.1,6.1v67.7C508.1,440.8,505.4,443.5,502.1,443.5z"/>
			
				<linearGradient id="SVGID_00000001622533700517551120000005479770845634376891_" gradientUnits="userSpaceOnUse" x1="463.6458" y1="831.85" x2="463.6458" y2="696.64" gradientTransform="matrix(1 0 0 1 5.422517e-02 -322.054)">
				<stop  offset="0" style="stop-color:#727987"/>
				<stop  offset="6.000000e-02" style="stop-color:#79818F"/>
				<stop  offset="0.28" style="stop-color:#989FAE"/>
				<stop  offset="0.5" style="stop-color:#B8BDC7"/>
				<stop  offset="0.69" style="stop-color:#CDD0D6"/>
				<stop  offset="0.87" style="stop-color:#DADDE1"/>
				<stop  offset="1" style="stop-color:#DEE0E4"/>
			</linearGradient>
			<path style="fill:url(#SVGID_00000001622533700517551120000005479770845634376891_);" d="M484.2,441.6l-41.4-0.2
				c-3.4,0-6.1-2.7-6-6.1l0.3-67.8c0-3.4,2.7-6.1,6.1-6l41.4,0.2c3.4,0,6.1,2.7,6,6.1l-0.3,67.8
				C490.3,438.9,487.5,441.6,484.2,441.6z"/>
		</g>
		<g id="details" class="st53">
			<line class="st54" x1="454.4" y1="377.5" x2="454.4" y2="392.9"/>
			<line class="st54" x1="449.6" y1="377.5" x2="449.6" y2="392.9"/>
			<line class="st54" x1="444.8" y1="377.5" x2="444.8" y2="392.9"/>
			<circle class="st42" cx="460.3" cy="378.1" r="1.6"/>
			<circle class="st55" cx="460.3" cy="383.9" r="1.6"/>
		</g>
		<g id="arm_l-2">
			<path class="st37" d="M523.6,431.8c2.5-1,4.3-3.2,4.7-5.9c4.2-28-18.8-52.8-19.8-53.9c-3.1-2.8-7.9-2.7-10.7,0.4
				c-2.6,2.8-2.7,7-0.3,9.9c0.3,0.3,19,20.7,15.9,41.3c-0.6,4.1,2.2,8,6.3,8.6C521,432.5,522.4,432.3,523.6,431.8L523.6,431.8z"/>
		</g>
		<path id="hand" class="st38" d="M514.3,425.9l10.7,3c2.8,0.8,4.4,3.7,3.6,6.4l-3,10.7c-0.8,2.8-3.7,4.4-6.4,3.6l-10.7-3
			c-2.8-0.8-4.4-3.7-3.6-6.4l3-10.7C508.6,426.7,511.5,425.1,514.3,425.9z"/>
	</g>
	<g id="girl">
		
			<rect id="leg-3" x="349.5" y="374.2" transform="matrix(0.96 -0.28 0.28 0.96 -91.9729 114.5927)" class="st56" width="11.2" height="10"/>
		<path id="hand-2" class="st57" d="M291,206.2c-0.3-1.7-0.3-3.5,0-5.2c0.3-1.8,0.2-3.6-0.1-5.4c-0.5-2-1.1-4-1.7-6
			c-0.2-0.9-0.6-4.3-1.8-4.5c-0.3-0.1-0.6,0.2-0.8,0.5c-0.8,1.3-0.3,2.2-0.2,3.6c0.3,2.2,0.4,4.4,0.4,6.6c0,1.4,0.3,3.2-1,4
			l-1.2-3.8c-0.2-0.7-1-1.2-1.7-0.9c-0.6,0.2-1.1,0.8-1,1.5l0.4,3.2c0.3,2.5,0.4,6.1,2.4,7.9c0.6,0.9,1.1,1.9,1.3,2.9l5.4-2.2
			L291,206.2z"/>
		<path id="hand-3" class="st57" d="M274.6,252.3c-1.7-0.3-3.5-0.4-5.2-0.1c-1.8,0.2-3.6,0.2-5.4-0.2c-2-0.5-4-1.2-5.9-1.7
			c-0.9-0.2-4.3-0.7-4.5-1.9c0-0.3,0.2-0.6,0.5-0.8c1.3-0.7,2.2-0.3,3.6-0.1c2.2,0.3,4.4,0.4,6.6,0.5c1.4,0,3.2,0.3,4-1l-3.8-1.2
			c-0.7-0.2-1.1-1-0.9-1.8c0.2-0.6,0.8-1,1.5-1l3.2,0.4c2.5,0.3,6.1,0.4,7.9,2.4c0.9,0.6,1.9,1.1,2.9,1.4l-2.2,5.4L274.6,252.3z"/>
		<g id="arm-4">
			<g>
				<g>
					<defs>
						<path id="SVGID_00000069365907682568000530000001098906044622518938_" d="M340.7,231.7c-7.9,4.1-16.1,7.6-24.5,10.3
							c-4,1.2-6.6,3.1-10.4,1.2c-1.9-1-3.6-2.4-5-4.1c-6.1-6.6-14.4-23.7-16.2-27.6c-0.2-0.5-0.1-1,0.4-1.3l6.7-4.7
							c0.5-0.3,1.1-0.2,1.5,0.3c1.4,1.9,5.1,7.2,10.3,14.8c1.3,1.9,2.6,3.7,4.1,5.5c0.8,1,1.7,2,2.7,2.9c0.8,0.7,2,0.8,3,0.3
							c11.9-6.1,19.5-10.9,22.8-12.9c0.1-0.1,0.2-0.2,0.4-0.2C338.6,221.1,340,226.4,340.7,231.7z"/>
					</defs>
					<clipPath id="SVGID_00000167387795145329438220000007518607219601026712_">
						<use xlink:href="#SVGID_00000069365907682568000530000001098906044622518938_"  style="overflow:visible;"/>
					</clipPath>
					<g style="clip-path:url(#SVGID_00000167387795145329438220000007518607219601026712_);">
						<path class="st59" d="M340.7,231.7c-7.9,4.1-16.1,7.6-24.5,10.3c-4,1.2-6.6,3.1-10.4,1.2c-1.9-1-3.6-2.4-5-4.1
							c-6.1-6.6-14.4-23.7-16.2-27.6c-0.2-0.5-0.1-1,0.4-1.3l6.7-4.7c0.5-0.3,1.1-0.2,1.5,0.3c1.4,1.9,5.1,7.2,10.3,14.8
							c1.3,1.9,2.6,3.7,4.1,5.5c0.8,1,1.7,2,2.7,2.9c0.8,0.7,2,0.8,3,0.3c11.9-6.1,19.5-10.9,22.8-12.9c0.1-0.1,0.2-0.2,0.4-0.2
							C338.6,221.1,340,226.4,340.7,231.7z"/>
						<path class="st60" d="M297.8,242c1,1.3,2.2,2.5,3.5,3.6c1.5,1.1,3.2,2,4.9,2.7c1.1,0.5,2.6,1.1,3.8,0.5c2.1-1,2.1-3.6,0.8-5.2
							c-0.9-1-2.1-1.7-3.4-2c-1.4-0.5-2.6-1.2-3.6-2.2c-0.9-1.1-2.1-2-3.3-2.7c-1.7-0.7-4.1-0.3-4.3,1.8
							C296.3,239.8,296.9,241.1,297.8,242z"/>
					</g>
				</g>
			</g>
		</g>
		<g id="foot">
			
				<rect x="308.8" y="377.3" transform="matrix(0.9997 -2.321151e-02 2.321151e-02 0.9997 -8.7888 7.4005)" class="st56" width="11.2" height="10"/>
			<g id="boot_b">
				<g>
					<g>
						<defs>
							<path id="SVGID_00000031174920159033487080000000227472886491691148_" d="M321.8,403.7v2.1l-26.6,0.6
								c-0.1-0.7-0.2-1.4-0.2-2.1c0-2,0.7-4.9,4.2-5.7c5.6-1.3,10-4.7,9.4-16.2c0,0,5.3-1.3,4.5,4l7.1-0.2c0.2,3,0.7,5.9,1.4,8.8
								C322.3,397.4,321.8,403.7,321.8,403.7z"/>
						</defs>
						<clipPath id="SVGID_00000066488537575829627890000007568459136095553203_">
							<use xlink:href="#SVGID_00000031174920159033487080000000227472886491691148_"  style="overflow:visible;"/>
						</clipPath>
						<g style="clip-path:url(#SVGID_00000066488537575829627890000007568459136095553203_);">
							<path class="st62" d="M321.8,403.7v2.1l-26.6,0.6c-0.1-0.7-0.2-1.4-0.2-2.1c0-2,0.7-4.9,4.2-5.7c5.6-1.3,10-4.7,9.4-16.2
								c0,0,5.3-1.3,4.5,4l7.1-0.2c0.2,3,0.7,5.9,1.4,8.8C322.3,397.4,321.8,403.7,321.8,403.7z"/>
							<circle class="st34" cx="317" cy="398" r="2.8"/>
							
								<rect x="293.8" y="404" transform="matrix(0.9997 -2.268830e-02 2.268830e-02 0.9997 -9.1669 7.0926)" class="st34" width="28.4" height="7.1"/>
						</g>
					</g>
				</g>
			</g>
		</g>
		<g id="leg-4">
			<g>
				<g>
					<defs>
						<path id="SVGID_00000113316646768673063070000015374753326571481266_" d="M307.9,381c-0.4,0-0.8-0.3-1-0.7
							c-0.7-2.6-1.1-5.3-1.6-7.9c-0.6-3.3-1.2-6.6-1.7-9.9c-1-6.5-1.9-13-2.5-19.5c-1.9-19.6-0.2-38.3,7.6-56.5
							c1.9-4.6,6.1-14.9,12.3-13.3c4.2,1.1,5.6,6.8,5.8,10.4c0.7,10.7-0.4,21.5-1.8,32.1c-0.9,6.9-2.1,13.7-2.6,20.7
							s0.3,13.7,1.1,20.5l1.4,11.5c0.4,3.6,1.2,7.3,1.4,11c0,0.5-0.4,0.9-0.9,1C322.1,380.5,310.9,380.9,307.9,381z"/>
					</defs>
					<clipPath id="SVGID_00000008828819946042785930000001307030149794096564_">
						<use xlink:href="#SVGID_00000113316646768673063070000015374753326571481266_"  style="overflow:visible;"/>
					</clipPath>
					<g style="clip-path:url(#SVGID_00000008828819946042785930000001307030149794096564_);">
						
							<linearGradient id="SVGID_00000057109759591828964790000012963509172596024198_" gradientUnits="userSpaceOnUse" x1="313.9369" y1="595.1599" x2="313.3569" y2="685.4598" gradientTransform="matrix(1 0 0 1 0 -322)">
							<stop  offset="0" style="stop-color:#1E201B"/>
							<stop  offset="1" style="stop-color:#1B1B1B"/>
						</linearGradient>
						<path style="fill:url(#SVGID_00000057109759591828964790000012963509172596024198_);" d="M307.9,381c-0.4,0-0.8-0.3-1-0.7
							c-0.7-2.6-1.1-5.3-1.6-7.9c-0.6-3.3-1.2-6.6-1.7-9.9c-1-6.5-1.9-13-2.5-19.5c-1.9-19.6-0.2-38.3,7.6-56.5
							c1.9-4.6,6.1-14.9,12.3-13.3c4.2,1.1,5.6,6.8,5.8,10.4c0.7,10.7-0.4,21.5-1.8,32.1c-0.9,6.9-2.1,13.7-2.6,20.7
							s0.3,13.7,1.1,20.5l1.4,11.5c0.4,3.6,1.2,7.3,1.4,11c0,0.5-0.4,0.9-0.9,1C322.1,380.5,310.9,380.9,307.9,381z"/>
						<path class="st60" d="M303.7,333.7L303.7,333.7c5.1-0.4,9.5,3.4,9.8,8.5l0.4,5.8c0.3,5-3.5,9.4-8.5,9.8l0,0
							c-5,0.3-9.4-3.5-9.8-8.5l-0.4-5.8C294.8,338.4,298.6,334.1,303.7,333.7z"/>
					</g>
				</g>
			</g>
		</g>
		<path id="torso-2" class="st62" d="M342,289.1l-35.4,3.2c0.5-9-0.2-17.9-0.6-26.9c-0.4-7.3-0.4-14.7-0.3-22.1
			c0-1.4,0.1-2.8,0.1-4.3c0.1-4.3,0.6-8.7,1.6-12.9c2-8.1,6.6-14.4,16.6-17.3c1.8-0.5,3.5-1.2,5.3-0.7l0.3,0.1
			c1.3,0.6,2.4,1.5,3.3,2.7c1.4,1.6,2.5,3.4,3.4,5.3c2.3,4.9,3.7,10.2,4.4,15.5c0.5,3.3,0.8,6.5,1,9.5
			C342.1,245.2,343.1,289,342,289.1z"/>
		<g id="arm-5">
			<g>
				<g>
					<defs>
						<path id="SVGID_00000124128559953501190920000015504892551000033681_" d="M313.6,219.1c-0.6,3.8-2.2,12.7-5.4,25.6
							c-0.3,1.1-1.2,1.8-2.3,2c-1.7,0.2-4.9,0.3-10.8-0.4c-9.2-1.1-15.5-1.8-17.9-2.1c-0.6-0.1-1.1,0.4-1.2,0.9l-0.9,8.1
							c-0.1,0.5,0.3,1,0.8,1.1c4.2,1.2,22.4,6.3,31.4,6.1c10.2-0.2,10-4.5,12.4-9.7s9.5-24.1,9.6-33.2c0.1-6.6-5.9-8.5-10.8-5.8
							C315.9,213.4,314,216,313.6,219.1z"/>
					</defs>
					<clipPath id="SVGID_00000088829023694838583840000012361483938083602355_">
						<use xlink:href="#SVGID_00000124128559953501190920000015504892551000033681_"  style="overflow:visible;"/>
					</clipPath>
					<g style="clip-path:url(#SVGID_00000088829023694838583840000012361483938083602355_);">
						<path class="st59" d="M313.6,219.1c-0.6,3.8-2.2,12.7-5.4,25.6c-0.3,1.1-1.2,1.8-2.3,2c-1.7,0.2-4.9,0.3-10.8-0.4
							c-9.2-1.1-15.5-1.8-17.9-2.1c-0.6-0.1-1.1,0.4-1.2,0.9l-0.9,8.1c-0.1,0.5,0.3,1,0.8,1.1c4.2,1.2,22.4,6.3,31.4,6.1
							c10.2-0.2,10-4.5,12.4-9.7s9.5-24.1,9.6-33.2c0.1-6.6-5.9-8.5-10.8-5.8C315.9,213.4,314,216,313.6,219.1z"/>
						<path class="st60" d="M313,262.9c1.5-0.7,3-1.5,4.3-2.5c1.4-1.2,2.7-2.6,3.8-4.1c0.8-1,1.8-2.3,1.5-3.6c-0.5-2.3-3-3-4.9-2.1
							c-1.2,0.7-2.1,1.7-2.8,2.8c-0.8,1.2-1.8,2.2-3,3c-1.3,0.6-2.4,1.5-3.4,2.5c-1.1,1.4-1.3,3.9,0.7,4.6
							C310.4,264,311.9,263.4,313,262.9z"/>
					</g>
				</g>
			</g>
		</g>
		<g id="badge">
			<circle class="st34" cx="320.8" cy="222.7" r="4.4"/>
			<path class="st34" d="M315.5,231.2l0.6-2.4c0.1-0.3,0.4-0.6,0.8-0.5l4.6,1.1c0.3,0.1,0.6,0.4,0.5,0.8l-0.6,2.4
				c-0.1,0.3-0.4,0.6-0.8,0.5L316,232C315.7,231.9,315.5,231.5,315.5,231.2z"/>
		</g>
		<path id="hair_b" class="st66" d="M310.1,202c0,0-2.4,8.6-3,10.4l3.7-0.9l6.4-8.4L310.1,202z"/>
		<path id="mouth" class="st67" d="M311.8,193.3c0.1,0-0.5,1.1-0.6,1.1c-0.7,0.9-1.9,1.3-3,1c-0.5-0.1-1.1-0.1-1.6-0.2
			c-0.1,0-1.6-0.1-1.5,0.2c0,0,1,1.6,4.2,1.8s5.3-3.8,5.3-3.8L311.8,193.3z"/>
		<path id="nose" class="st56" d="M307.8,183.5c0,0-2.5,2.6-2.7,3.4s0.4,1.4,1.3,2.1S307.8,183.5,307.8,183.5z"/>
		<path id="face" class="st57" d="M308.2,182l-2.5,9.5c0,0.1,0,0.2,0.1,0.2c2.6,1,5.3,1.6,8,1.9c0,0-0.8,4.9-8.5,1.8
			c0,0-1,4-0.5,5.5s1.4,2.5,5,2.7c1.8,0,3.5,0.2,5.2,0.5l7.1-18.3L308.2,182z"/>
		<g id="eye">
			<path class="st68" d="M309.4,185.8l0.6-2.2c0.1-0.5,0.6-0.7,1.1-0.6l0,0c0.5,0.1,0.7,0.6,0.6,1.1l-0.6,2.2
				c-0.1,0.5-0.6,0.7-1.1,0.6l0,0C309.5,186.8,309.2,186.3,309.4,185.8z"/>
		</g>
		
			<linearGradient id="hair_00000064326382065220030770000007391006731196170925_" gradientUnits="userSpaceOnUse" x1="189.6437" y1="736.3287" x2="192.2937" y2="685.4988" gradientTransform="matrix(0.9989 -4.588604e-02 4.588604e-02 0.9989 102.2926 -505.3972)">
			<stop  offset="0" style="stop-color:#494D56"/>
			<stop  offset="1" style="stop-color:#303239"/>
		</linearGradient>
		<path id="hair" style="fill:url(#hair_00000064326382065220030770000007391006731196170925_);" d="M345.9,179.1
			c0.3,5.7,0.6,11.4-0.7,17.1c-0.5,2.3-1.4,4.7-3.1,6.3c-1.6,1.5-3.6,1.6-5.7,1.9c-1.6,0.2-4.3-0.4-5.3,1.2
			c-0.4,0.8-0.7,1.5-0.9,2.3c-0.8,2.1-2.5,3.1-4.4,3.9c-0.1-0.5-0.1-1-0.1-1.4c-1.2,2.4-3.5,3.3-6.1,3.6v-1.3
			c-0.3,1.2-1.5,2-2.7,1.9c-2.3-0.1-5.5-0.5-6.9,0.7c0.8-4.3,2.2-8.4,4.4-12.2c3.5-6.1,6.8-16.1,6.8-16.1s-14.5-4.2-15.5-5.2
			s0-9.2,4.1-13.6c4.9-5.3,12-5.6,18.5-3.6C335.7,166.8,345.1,170.1,345.9,179.1z"/>
		<g id="boot_b-2">
			<path class="st57" d="M368.5,396.6l0.6,2l-25.5,7.5c-0.3-0.6-0.6-1.3-0.8-1.9c-0.5-1.9-0.6-4.9,2.5-6.6c5.1-2.7,8.4-7.1,4.8-18.1
				c0,0,4.8-2.6,5.4,2.7l6.8-2c1,2.8,2.2,5.6,3.6,8.2C367.4,390.4,368.5,396.6,368.5,396.6z"/>
			<g>
				<g>
					<defs>
						<path id="SVGID_00000179640056912371225170000003702290147197587124_" d="M368.5,396.6l0.6,2l-25.5,7.5
							c-0.3-0.6-0.6-1.3-0.8-1.9c-0.5-1.9-0.6-4.9,2.5-6.6c5.1-2.7,8.4-7.1,4.8-18.1c0,0,4.8-2.6,5.4,2.7l6.8-2
							c1,2.8,2.2,5.6,3.6,8.2C367.4,390.4,368.5,396.6,368.5,396.6z"/>
					</defs>
					<clipPath id="SVGID_00000045597239928872142900000003516062424149360309_">
						<use xlink:href="#SVGID_00000179640056912371225170000003702290147197587124_"  style="overflow:visible;"/>
					</clipPath>
					<g style="clip-path:url(#SVGID_00000045597239928872142900000003516062424149360309_);">
						<path class="st62" d="M368.5,396.6l0.6,2l-25.5,7.5c-0.3-0.6-0.6-1.3-0.8-1.9c-0.5-1.9-0.6-4.9,2.5-6.6
							c5.1-2.7,8.4-7.1,4.8-18.1c0,0,4.8-2.6,5.4,2.7l6.8-2c1,2.8,2.2,5.6,3.6,8.2C367.4,390.4,368.5,396.6,368.5,396.6z"/>
						<circle class="st34" cx="362.5" cy="392.4" r="2.8"/>
						
							<rect x="342.1" y="400.4" transform="matrix(0.9593 -0.2825 0.2825 0.9593 -99.6053 117.1052)" class="st34" width="28.4" height="7.1"/>
					</g>
				</g>
			</g>
		</g>
		<g id="leg-5">
			<g>
				<g>
					<defs>
						<path id="SVGID_00000086676756367015982250000006227717796229237941_" d="M307.4,294.5c0,0.3,0.1,0.6,0.2,1
							c0.7,2.7,2,5.1,3.8,7.3c3.9,4.9,10.7,7.4,11.8,14.2c1.5,9.3,3.9,18.4,7.3,27.2c2.3,6.2,4.9,12.4,7.6,18.4
							c1.4,3.1,2.8,6.1,4.3,9.2c1.2,2.4,2.3,5,3.6,7.3c0.2,0.4,0.7,0.6,1.1,0.5c2.9-0.9,13.8-4.2,17-5.3c0.5-0.2,0.8-0.7,0.6-1.2
							c-1.1-3.5-2.9-7-4.2-10.4c-1.4-3.6-2.9-7.2-4.4-10.8c-2.6-6.5-5.1-12.9-6.5-19.8c-1.1-5.7-1.8-11.5-2.5-17.2
							c-1.3-11.8-3.2-23.6-5.8-35.2c0.3,1.2-3.9,3.2-4.6,3.5c-2.2,0.8-4.7,1.1-7,1.8c-3.8,1-7.5,2.2-11.1,3.7
							c-1.2,0.5-2.4,1.1-3.5,1.7c-1.3,0.6-2.7,1.1-4.2,1.3C308.2,292.2,307,292.2,307.4,294.5z"/>
					</defs>
					<clipPath id="SVGID_00000057832926199987678210000005826232268630751657_">
						<use xlink:href="#SVGID_00000086676756367015982250000006227717796229237941_"  style="overflow:visible;"/>
					</clipPath>
					<g style="clip-path:url(#SVGID_00000057832926199987678210000005826232268630751657_);">
						<path class="st62" d="M307.4,294.5c0,0.3,0.1,0.6,0.2,1c0.7,2.7,2,5.1,3.8,7.3c3.9,4.9,10.7,7.4,11.8,14.2
							c1.5,9.3,3.9,18.4,7.3,27.2c2.3,6.2,4.9,12.4,7.6,18.4c1.4,3.1,2.8,6.1,4.3,9.2c1.2,2.4,2.3,5,3.6,7.3
							c0.2,0.4,0.7,0.6,1.1,0.5c2.9-0.9,13.8-4.2,17-5.3c0.5-0.2,0.8-0.7,0.6-1.2c-1.1-3.5-2.9-7-4.2-10.4
							c-1.4-3.6-2.9-7.2-4.4-10.8c-2.6-6.5-5.1-12.9-6.5-19.8c-1.1-5.7-1.8-11.5-2.5-17.2c-1.3-11.8-3.2-23.6-5.8-35.2
							c0.3,1.2-3.9,3.2-4.6,3.5c-2.2,0.8-4.7,1.1-7,1.8c-3.8,1-7.5,2.2-11.1,3.7c-1.2,0.5-2.4,1.1-3.5,1.7c-1.3,0.6-2.7,1.1-4.2,1.3
							C308.2,292.2,307,292.2,307.4,294.5z"/>
						<path class="st60" d="M330.7,334.4L330.7,334.4c4.8-1.8,10,0.7,11.8,5.4l2,5.4c1.8,4.7-0.7,10-5.4,11.8l0,0
							c-4.7,1.8-10-0.7-11.8-5.4l-2-5.4C323.5,341.4,325.9,336.2,330.7,334.4z"/>
					</g>
				</g>
			</g>
		</g>
		<g id="belt">
			<path class="st60" d="M323.9,274.5h2.9c0.7,0,1.2,0.5,1.2,1.2v6.8c0,0.7-0.5,1.2-1.2,1.2h-2.9c-0.7,0-1.2-0.5-1.2-1.2v-6.8
				C322.6,275.1,323.2,274.5,323.9,274.5z"/>
			<path class="st60" d="M313,274.5h2.9c0.7,0,1.2,0.5,1.2,1.2v6.8c0,0.7-0.5,1.2-1.2,1.2H313c-0.7,0-1.2-0.5-1.2-1.2v-6.8
				C311.8,275.1,312.3,274.5,313,274.5z"/>
			<path class="st60" d="M333.7,274.5h2.9c0.7,0,1.2,0.5,1.2,1.2v6.8c0,0.7-0.5,1.2-1.2,1.2h-2.9c-0.7,0-1.2-0.5-1.2-1.2v-6.8
				C332.5,275.1,333,274.5,333.7,274.5z"/>
		</g>
	</g>
	<g id="ladder">
		<path class="st72" d="M307.1,405h13.1c2.6,0,4.7,2.1,4.7,4.7l0,0c0,2.6-2.1,4.7-4.7,4.7h-13.1c-2.6,0-4.7-2.1-4.7-4.7l0,0
			C302.4,407.2,304.5,405,307.1,405z"/>
		<path class="st72" d="M312.5,426.3h13.1c2.6,0,4.7,2.1,4.7,4.7l0,0c0,2.6-2.1,4.7-4.7,4.7h-13.1c-2.6,0-4.7-2.1-4.7-4.7l0,0
			C307.8,428.4,309.9,426.3,312.5,426.3z"/>
		<path class="st72" d="M316.9,447.6h14.8c2.6,0,4.7,2.1,4.7,4.7l0,0c0,2.6-2.1,4.7-4.7,4.7h-14.8c-2.6,0-4.7-2.1-4.7-4.7l0,0
			C312.2,449.7,314.3,447.6,316.9,447.6z"/>
		<path class="st72" d="M321.7,469h13.1c2.6,0,4.7,2.1,4.7,4.7l0,0c0,2.6-2.1,4.7-4.7,4.7h-13.1c-2.6,0-4.7-2.1-4.7-4.7l0,0
			C317,471.1,319.1,469,321.7,469z"/>
		<path class="st72" d="M324.6,490.4h18.2c2.6,0,4.7,2.1,4.7,4.7l0,0c0,2.6-2.1,4.7-4.7,4.7h-18.2c-2.6,0-4.7-2.1-4.7-4.7l0,0
			C319.9,492.5,322,490.4,324.6,490.4z"/>
		<line class="st73" x1="253.2" y1="354.2" x2="294.6" y2="354.2"/>
		<path class="st74" d="M223.5,514.9L256,335.5c1.6-8.7,9.1-15,17.9-15l0,0c8.8,0,16.4,6.3,17.9,15l32.5,179.4"/>
	</g>
</g>
</svg>
