<?xml version="1.0" encoding="utf-8"?>
<!-- Generator: Adobe Illustrator 27.4.1, SVG Export Plug-In . SVG Version: 6.00 Build 0)  -->
<svg version="1.1" id="Capa_1" xmlns="http://www.w3.org/2000/svg" xmlns:xlink="http://www.w3.org/1999/xlink" x="0px" y="0px"
	 viewBox="0 0 550 520" style="enable-background:new 0 0 550 520;" xml:space="preserve">
<style type="text/css">
	.st0{opacity:0.5;}
	.st1{fill:#EAEAEA;}
	.st2{fill:#CFCFCF;}
	.st3{fill:#FFFFFF;}
	.st4{fill:#E1E1E1;}
	.st5{fill:#C0C0C0;}
	.st6{fill:#F5F5F5;}
	.st7{fill:#B1B1B1;}
	.st8{fill:#A3A3A3;}
	.st9{fill:url(#SVGID_1_);}
	.st10{opacity:0.29;fill:#4C4C4C;enable-background:new    ;}
	.st11{fill:url(#Card-6_00000034068038283013156810000011882065666975867566_);}
	.st12{fill:url(#SVGID_00000093146036539012011030000012604860611912367006_);}
	.st13{fill:url(#SVGID_00000099658498219658518060000002909088137034140321_);}
	.st14{fill:url(#SVGID_00000152250423616566015320000013922015412485791119_);}
	.st15{fill:url(#SVGID_00000106137806132074679220000018394538049872617370_);}
	.st16{fill:url(#SVGID_00000132048364624276866600000007053203540810620862_);}
	.st17{fill:url(#Card-7_00000045599142639141058760000002189867095225924534_);}
	.st18{fill:url(#SVGID_00000106124311121757549840000005310333628574534335_);}
	.st19{fill:url(#SVGID_00000013909951860926604910000007124770033434966207_);}
	.st20{fill:url(#SVGID_00000010277633708110115590000007611110712402927269_);}
	.st21{fill:url(#Card-8_00000063632845997590326880000011835372382464270015_);}
	.st22{fill:url(#SVGID_00000103955657096302517220000000721612482671197863_);}
	.st23{fill:url(#SVGID_00000116202350818594544880000002259487924373351298_);}
	.st24{fill-rule:evenodd;clip-rule:evenodd;fill:#CCCCCC;}
	.st25{fill-rule:evenodd;clip-rule:evenodd;fill:#D5D5D5;fill-opacity:0.3;}
	.st26{fill-rule:evenodd;clip-rule:evenodd;fill:url(#SVGID_00000155104207008812110890000011753627754349389728_);}
	.st27{fill:url(#arm_00000160873551961958994350000000374943515372331149_);}
	.st28{fill:#818181;}
	.st29{fill:url(#body_00000173151720142839341350000016873652669371492509_);}
	.st30{fill:url(#arm-2_00000115483468511472576850000011427405078868691877_);}
	.st31{fill:#DBDBDB;}
	.st32{fill:none;stroke:#2F2F2F;stroke-width:2.69;stroke-linecap:round;stroke-linejoin:round;}
	.st33{fill:#434343;}
	.st34{fill:#A4A4A4;}
	.st35{fill:#9F9F9F;}
	.st36{fill:#333333;}
	.st37{fill:#2F2F2F;}
	.st38{fill:#5D5D5D;}
	.st39{fill:url(#SVGID_00000052790078602639624850000005575154500186944404_);}
	.st40{fill:url(#SVGID_00000049222347062526215080000012298852867202085563_);}
	.st41{clip-path:url(#SVGID_00000022540803926943531700000012117252004636121531_);}
	.st42{fill:#949494;}
	.st43{fill:#CCCCCC;}
	.st44{clip-path:url(#SVGID_00000102532537948245994420000015026980807272677287_);}
	.st45{clip-path:url(#SVGID_00000049901909832227322630000004141813576507595667_);}
	.st46{fill:url(#SVGID_00000168803775731134813910000006258006054625538200_);}
	.st47{fill:#AAAAAA;}
	.st48{clip-path:url(#SVGID_00000053534900595116726760000002248539697116338616_);}
	.st49{fill:#EFEFEF;}
	.st50{fill:url(#SVGID_00000066515932510458744190000006544918472350845333_);}
	.st51{fill:url(#SVGID_00000041279493570072872610000003322557805974580149_);}
	.st52{fill:url(#SVGID_00000155131277177880950170000004431398329992173697_);}
	.st53{opacity:0.49;}
	.st54{fill:none;stroke:#333333;stroke-width:2.17;stroke-linecap:round;stroke-linejoin:round;}
	.st55{fill:#B2B2B2;}
	.st56{fill:#8A8A8A;}
	.st57{fill:#9D9D9D;}
	.st58{clip-path:url(#SVGID_00000088831735053222929610000007839839127781708186_);}
	.st59{fill:#232323;}
	.st60{fill:#4E4E4E;}
	.st61{clip-path:url(#SVGID_00000078043402995603169720000015316054040528692636_);}
	.st62{fill:#2A2A2A;}
	.st63{clip-path:url(#SVGID_00000076575578330228233920000016448529825525073308_);}
	.st64{fill:url(#SVGID_00000125581473036483719720000014439604610006149265_);}
	.st65{clip-path:url(#SVGID_00000039837740672959272520000004316701137737582468_);}
	.st66{fill:#252525;}
	.st67{fill:#272727;}
	.st68{fill:#2E2E2E;}
	.st69{fill:url(#hair_00000156558502034762848390000002683912695545540505_);}
	.st70{clip-path:url(#SVGID_00000020389865845425748570000003523387384559829659_);}
	.st71{clip-path:url(#SVGID_00000152981501327564441010000012525904812438423168_);}
	.st72{fill:#999999;}
	.st73{fill:none;stroke:#999999;stroke-width:9.4;stroke-linecap:round;stroke-linejoin:round;}
	.st74{fill:none;stroke:#C0C0C0;stroke-width:9.4;stroke-linecap:round;stroke-linejoin:round;}
</style>
<g id="Layer_2">
	<g id="list" class="st0">
		<path id="BG" class="st1" d="M24.9,126.5l119.1-0.1c2,0,3.7,1.7,3.7,3.7l0.1,120.5c0,2-1.7,3.7-3.7,3.7L25,254.4
			c-2,0-3.7-1.7-3.7-3.7l-0.1-120.5C21.2,128.1,22.8,126.5,24.9,126.5z"/>
		<circle id="Options2" class="st2" cx="139.3" cy="135" r="2.2"/>
		<circle id="Options2-2" class="st2" cx="130.8" cy="135.1" r="2.2"/>
		<circle id="Options2-3" class="st2" cx="122.3" cy="135.1" r="2.2"/>
		<path class="st2" d="M74.7,138.6L74.7,138.6l-44.4-0.2c-1.7,0-3.1-1.4-3.1-3.1c0-1.7,1.4-3.1,3.1-3.1l0,0l44.4,0.2
			c1.7,0,3.1,1.4,3.1,3.1C77.7,137.3,76.3,138.6,74.7,138.6z"/>
		<path id="Card" class="st3" d="M31.6,147.3h105.5c2.5,0,4.6,2.1,4.6,4.6v75.5c0,2.5-2.1,4.6-4.6,4.6H31.6c-2.5,0-4.6-2.1-4.6-4.6
			v-75.5C27,149.3,29.1,147.3,31.6,147.3z"/>
		<path class="st4" d="M39.9,164c-1.7,0-3.1-1.4-3.1-3.1c0-1.7,1.4-3.1,3.1-3.1l91-0.1l0,0c1.7,0,3.1,1.4,3.1,3.1
			c0,1.7-1.4,3.1-3.1,3.1C130.9,163.9,39.9,164,39.9,164z"/>
		<path class="st4" d="M39.8,177.2c-1.7,0-3.1-1.4-3.1-3.1c0-1.7,1.4-3.1,3.1-3.1c0,0,0,0,0,0l74.9-0.2l0,0c1.7,0,3.1,1.4,3.1,3.1
			c0,1.7-1.4,3.1-3.1,3.1c0,0,0,0,0,0L39.8,177.2z"/>
		<path class="st4" d="M39.8,217.8c-1.7,0-3.1-1.4-3.1-3.1c0-1.7,1.4-3.1,3.1-3.1l62.6-0.2l0,0c1.7,0,3.1,1.4,3.1,3.1
			c0,1.7-1.4,3.1-3.1,3.1L39.8,217.8L39.8,217.8z"/>
		<g id="Add_Card">
			<path class="st2" d="M69.8,245c-1.7,0-3.1-1.4-3.1-3.1c0-1.7,1.4-3.1,3.1-3.1h29.5l0,0c1.7,0,3.1,1.4,3.1,3.1
				c0,1.7-1.4,3.1-3.1,3.1H69.8z"/>
		</g>
	</g>
	<g id="list-2">
		<path class="st1" d="M325.5,340.1c0,2.7-2.1,4.8-4.8,4.8c0,0,0,0,0,0L203.7,345c-2.7,0-4.8-2.2-4.8-4.8l-0.2-207.4
			c0-2.7,2.1-4.8,4.8-4.8c0,0,0,0,0,0l116.9-0.1c2.7,0,4.8,2.2,4.8,4.8V153l0.1,85.2L325.5,340.1z"/>
		<g id="Add_Card-2">
			<path class="st2" d="M247.3,335.7c-1.7,0-3.1-1.4-3.1-3.1c0-1.7,1.4-3.1,3.1-3.1h29.5l0,0c1.7,0,3.1,1.4,3.1,3.1
				c0,1.7-1.4,3.1-3.1,3.1H247.3L247.3,335.7z"/>
		</g>
		<path id="Card-2" class="st5" d="M209.1,149h105.5c2.5,0,4.6,2.1,4.6,4.6V229c0,2.5-2.1,4.6-4.6,4.6H209.1c-2.5,0-4.6-2.1-4.6-4.6
			v-75.5C204.5,151,206.6,149,209.1,149z"/>
		<path id="Card-3" class="st6" d="M209,238.1h105.5c2.5,0,4.6,2.1,4.6,4.6v75.5c0,2.5-2.1,4.6-4.6,4.6H209c-2.5,0-4.6-2.1-4.6-4.6
			v-75.5C204.4,240.1,206.5,238.1,209,238.1z"/>
		<path class="st7" d="M210.4,251.6c-1.7,0-3.1-1.4-3.1-3.1c0-1.7,1.4-3.1,3.1-3.1l91-0.1l0,0c1.7-0.1,3.1,1.2,3.2,2.9
			c0.1,1.7-1.2,3.1-2.9,3.2c-0.1,0-0.2,0-0.3,0L210.4,251.6L210.4,251.6z"/>
		<path class="st7" d="M210.3,264.8c-1.7,0-3.1-1.4-3.1-3.1c0-1.7,1.4-3.1,3.1-3.1l74.9-0.2l0,0c1.7,0,3.1,1.4,3.1,3.1
			c0,1.7-1.4,3.1-3.1,3.1L210.3,264.8L210.3,264.8z"/>
		<path class="st7" d="M210.3,278.3c-1.7,0-3.1-1.4-3.1-3.1c0-1.7,1.4-3.1,3.1-3.1l91-0.2l0,0c1.7,0,3.1,1.4,3.1,3.1
			c0,1.7-1.4,3.1-3.1,3.1L210.3,278.3z"/>
		<path class="st8" d="M210.5,310.8h17.7c1.8,0,3.2,1.5,3.2,3.2v2.8c0,1.8-1.5,3.2-3.2,3.2h-17.7c-1.8,0-3.2-1.5-3.2-3.2V314
			C207.3,312.2,208.7,310.8,210.5,310.8z"/>
		<circle id="Options2-4" class="st2" cx="317" cy="136.5" r="2.2"/>
		<circle id="Options2-5" class="st2" cx="308.5" cy="136.5" r="2.2"/>
		<circle id="Options2-6" class="st2" cx="300" cy="136.6" r="2.2"/>
		<path class="st2" d="M252.4,140.1L252.4,140.1l-44.4-0.2c-1.7,0-3.1-1.4-3.1-3.1c0-1.7,1.4-3.1,3.1-3.1l0,0l44.4,0.2
			c1.7,0,3.1,1.4,3.1,3.1C255.5,138.7,254.1,140.1,252.4,140.1L252.4,140.1z"/>
		<path id="Card-4" class="st3" d="M209.2,237.6l105.7-0.1c2.5,0,4.6,2.1,4.6,4.6l0.1,75.6c0,2.5-2.1,4.6-4.6,4.6l-105.7,0.1
			c-2.5,0-4.6-2.1-4.6-4.6l-0.1-75.6C204.6,239.7,206.6,237.6,209.2,237.6z"/>
		<path class="st4" d="M210.5,317.4c-1.7-0.1-3-1.5-2.9-3.2c0.1-1.6,1.3-2.8,2.9-2.9H254l0,0c1.7-0.1,3.1,1.2,3.2,2.9
			s-1.2,3.1-2.9,3.2c-0.1,0-0.2,0-0.4,0H210.5L210.5,317.4z"/>
		
			<linearGradient id="SVGID_1_" gradientUnits="userSpaceOnUse" x1="231.3509" y1="258.8898" x2="344.9409" y2="217.1698" gradientTransform="matrix(1 0 0 -1 0 519.89)">
			<stop  offset="0" style="stop-color:#BFBFBF"/>
			<stop  offset="1" style="stop-color:#909090"/>
		</linearGradient>
		<path class="st9" d="M319.5,240.8l0.1,65.2l-89.4,0.1h-25.5l-0.1-65.2c0-1.8,1.5-3.3,3.3-3.3c0,0,0,0,0,0l108.3-0.1
			C318,237.5,319.5,238.9,319.5,240.8C319.5,240.8,319.5,240.8,319.5,240.8z"/>
		<path class="st10" d="M199.1,158.5c0.3,0,0.6,0,0.9,0l104.7,13c2.5,0.3,4.3,2.6,4,5.1l-9.3,74.9c-0.3,2.5-2.6,4.3-5.1,4
			l-95.1-11.8L199.1,158.5z"/>
	</g>
	<g id="card-5">
		
			<linearGradient id="Card-6_00000044160214175649141510000002065182654680017086_" gradientUnits="userSpaceOnUse" x1="163.2898" y1="320.423" x2="378.3798" y2="318.273" gradientTransform="matrix(1 0 0 -1 -1.238356e-03 519.8862)">
			<stop  offset="0" style="stop-color:#E9E9E9"/>
			<stop  offset="1" style="stop-color:#FFFFFF"/>
		</linearGradient>
		<path id="Card-6" style="fill:url(#Card-6_00000044160214175649141510000002065182654680017086_);" d="M181.6,149.3l104,18.1
			c2.5,0.4,4.2,2.8,3.7,5.3l-13,74.4c-0.4,2.5-2.8,4.2-5.3,3.7l-104-18.1c-2.5-0.4-4.2-2.8-3.7-5.3l13-74.4
			C176.7,150.6,179.1,148.9,181.6,149.3z"/>
		
			<linearGradient id="SVGID_00000112631573385636471630000018055146291481794487_" gradientUnits="userSpaceOnUse" x1="183.79" y1="347.6344" x2="279.5949" y2="347.6344" gradientTransform="matrix(1 0 0 -1 0 519.89)">
			<stop  offset="0" style="stop-color:#C6C6C6"/>
			<stop  offset="1" style="stop-color:#E1E1E1"/>
		</linearGradient>
		<path style="fill:url(#SVGID_00000112631573385636471630000018055146291481794487_);" d="M186.3,167.4c-1.6-0.4-2.6-2.1-2.1-3.8
			c0.4-1.4,1.7-2.4,3.2-2.2L277,177l0,0c1.7,0.1,2.9,1.6,2.8,3.3c-0.1,1.7-1.6,2.9-3.3,2.8c-0.2,0-0.4,0-0.6-0.1L186.3,167.4
			L186.3,167.4z"/>
		
			<linearGradient id="SVGID_00000123440740805501372350000010633086216379252619_" gradientUnits="userSpaceOnUse" x1="181.45" y1="336.095" x2="261.39" y2="336.095" gradientTransform="matrix(1 0 0 -1 0 519.89)">
			<stop  offset="0" style="stop-color:#C6C6C6"/>
			<stop  offset="1" style="stop-color:#E1E1E1"/>
		</linearGradient>
		<path style="fill:url(#SVGID_00000123440740805501372350000010633086216379252619_);" d="M184,180.4c-1.6-0.5-2.6-2.1-2.1-3.8
			c0.4-1.4,1.7-2.3,3.2-2.2l73.8,12.8l0,0c1.6,0.5,2.6,2.1,2.1,3.8c-0.4,1.4-1.7,2.3-3.2,2.2L184,180.4z"/>
		
			<linearGradient id="SVGID_00000171712486344053932700000012962805117060415630_" gradientUnits="userSpaceOnUse" x1="179.11" y1="321.3288" x2="274.9109" y2="321.3288" gradientTransform="matrix(1 0 0 -1 0 519.89)">
			<stop  offset="0" style="stop-color:#C6C6C6"/>
			<stop  offset="1" style="stop-color:#E1E1E1"/>
		</linearGradient>
		<path style="fill:url(#SVGID_00000171712486344053932700000012962805117060415630_);" d="M181.6,193.7c-1.6-0.5-2.6-2.1-2.1-3.8
			c0.4-1.4,1.7-2.3,3.2-2.2l89.7,15.5l0,0c1.7,0.1,2.9,1.6,2.8,3.3c-0.1,1.7-1.6,2.9-3.3,2.8c-0.2,0-0.4,0-0.6-0.1L181.6,193.7
			L181.6,193.7z"/>
		
			<linearGradient id="SVGID_00000046318016961360420950000007779236299269822882_" gradientUnits="userSpaceOnUse" x1="176.77" y1="308.055" x2="272.58" y2="308.055" gradientTransform="matrix(1 0 0 -1 0 519.89)">
			<stop  offset="0" style="stop-color:#C6C6C6"/>
			<stop  offset="1" style="stop-color:#E1E1E1"/>
		</linearGradient>
		<path style="fill:url(#SVGID_00000046318016961360420950000007779236299269822882_);" d="M179.3,207.1c-1.6-0.5-2.6-2.1-2.1-3.8
			c0.4-1.4,1.7-2.3,3.2-2.2l89.6,15.5l0,0c1.6,0.5,2.6,2.1,2.1,3.8c-0.4,1.4-1.7,2.3-3.2,2.2L179.3,207.1L179.3,207.1z"/>
		
			<linearGradient id="SVGID_00000085963492624339844120000013137324117068880032_" gradientUnits="userSpaceOnUse" x1="174.44" y1="297.1288" x2="242.1909" y2="297.1288" gradientTransform="matrix(1 0 0 -1 0 519.89)">
			<stop  offset="0" style="stop-color:#C6C6C6"/>
			<stop  offset="1" style="stop-color:#E1E1E1"/>
		</linearGradient>
		<path style="fill:url(#SVGID_00000085963492624339844120000013137324117068880032_);" d="M177,220.4c-1.6-0.5-2.6-2.1-2.1-3.8
			c0.4-1.4,1.7-2.3,3.2-2.2l61.6,10.6l0,0c1.7,0.1,2.9,1.6,2.8,3.3c-0.1,1.7-1.6,2.9-3.3,2.8c-0.2,0-0.4,0-0.6-0.1L177,220.4z"/>
	</g>
	<g id="list-3">
		<path id="BG-2" class="st1" d="M347.9,127.9l115.1-0.1c3.2,0,5.7,2.6,5.7,5.7l0.3,295.2c0,3.2-2.6,5.7-5.7,5.7l-115.1,0.1
			c-3.2,0-5.7-2.6-5.7-5.7l-0.3-295.2C342.1,130.5,344.7,127.9,347.9,127.9z"/>
		<g id="Add_Card-3">
			<path class="st2" d="M390.8,425.2c-1.7,0-3.1-1.4-3.1-3.1c0-1.7,1.4-3.1,3.1-3.1c0,0,0,0,0,0h29.5l0,0c1.7,0,3.1,1.4,3.1,3.1
				c0,1.7-1.4,3.1-3.1,3.1H390.8L390.8,425.2z"/>
		</g>
		<circle id="Options2-7" class="st2" cx="460.2" cy="136.5" r="2.2"/>
		<circle id="Options2-8" class="st2" cx="451.7" cy="136.5" r="2.2"/>
		<circle id="Options2-9" class="st2" cx="443.2" cy="136.5" r="2.2"/>
		<path class="st2" d="M395.6,140.1L395.6,140.1l-44.4-0.2c-1.7,0-3.1-1.4-3.1-3.1c0-1.7,1.4-3.1,3.1-3.1l0,0l44.4,0.2
			c1.7,0,3.1,1.4,3.1,3.1C398.6,138.7,397.3,140.1,395.6,140.1z"/>
		
			<linearGradient id="Card-7_00000048464623145843796260000016088872341415509416_" gradientUnits="userSpaceOnUse" x1="354.1123" y1="257.1745" x2="472.0523" y2="217.4645" gradientTransform="matrix(1 1.047197e-03 1.047197e-03 -1 -0.713 519.913)">
			<stop  offset="0" style="stop-color:#FFFFFF"/>
			<stop  offset="0.33" style="stop-color:#FEFEFE"/>
			<stop  offset="0.53" style="stop-color:#F8F8F8"/>
			<stop  offset="0.7" style="stop-color:#EFEFEF"/>
			<stop  offset="0.84" style="stop-color:#E2E2E2"/>
			<stop  offset="0.98" style="stop-color:#D2D2D2"/>
			<stop  offset="1" style="stop-color:#CFCFCF"/>
		</linearGradient>
		<path id="Card-7" style="fill:url(#Card-7_00000048464623145843796260000016088872341415509416_);" d="M352.5,238.2H458
			c2.5,0,4.6,2.1,4.6,4.6v75.5c0,2.5-2.1,4.6-4.6,4.6H352.5c-2.5,0-4.6-2.1-4.6-4.6v-75.5C347.9,240.2,349.9,238.2,352.5,238.2z"/>
		
			<linearGradient id="SVGID_00000108301548578038532470000017459387324152126905_" gradientUnits="userSpaceOnUse" x1="350.7562" y1="271.455" x2="447.8839" y2="271.455" gradientTransform="matrix(1 0 0 -1 0 519.89)">
			<stop  offset="0" style="stop-color:#E1E1E1"/>
			<stop  offset="1" style="stop-color:#C6C6C6"/>
		</linearGradient>
		<path style="fill:url(#SVGID_00000108301548578038532470000017459387324152126905_);" d="M353.8,251.5c-1.7,0-3.1-1.4-3.1-3.1
			c0-1.7,1.4-3.1,3.1-3.1c0,0,0,0,0,0l91-0.1l0,0c1.7,0,3.1,1.4,3.1,3.1c0,1.7-1.4,3.1-3.1,3.1c0,0,0,0,0,0L353.8,251.5z"/>
		
			<linearGradient id="SVGID_00000036244861947790619040000018066282809428818603_" gradientUnits="userSpaceOnUse" x1="350.7039" y1="258.29" x2="431.7361" y2="258.29" gradientTransform="matrix(1 0 0 -1 0 519.89)">
			<stop  offset="0" style="stop-color:#E1E1E1"/>
			<stop  offset="1" style="stop-color:#C6C6C6"/>
		</linearGradient>
		<path style="fill:url(#SVGID_00000036244861947790619040000018066282809428818603_);" d="M353.8,264.8c-1.7,0-3.1-1.4-3.1-3.1
			c0-1.7,1.4-3.1,3.1-3.1l74.9-0.2l0,0c1.7,0,3.1,1.4,3.1,3.1c0,1.7-1.4,3.1-3.1,3.1L353.8,264.8L353.8,264.8z"/>
		
			<linearGradient id="SVGID_00000021085047475812136180000008995770983830748062_" gradientUnits="userSpaceOnUse" x1="350.6962" y1="244.755" x2="447.8239" y2="244.755" gradientTransform="matrix(1 0 0 -1 0 519.89)">
			<stop  offset="0" style="stop-color:#E1E1E1"/>
			<stop  offset="1" style="stop-color:#C6C6C6"/>
		</linearGradient>
		<path style="fill:url(#SVGID_00000021085047475812136180000008995770983830748062_);" d="M353.8,278.3c-1.7,0-3.1-1.4-3.1-3.1
			c0-1.7,1.4-3.1,3.1-3.1c0,0,0,0,0,0l91-0.2l0,0c1.7,0,3.1,1.4,3.1,3.1c0,1.7-1.4,3.1-3.1,3.1c0,0,0,0,0,0L353.8,278.3z"/>
		
			<linearGradient id="Card-8_00000034088102248994635490000016071432657937289368_" gradientUnits="userSpaceOnUse" x1="348.0877" y1="150.4095" x2="463.4171" y2="150.4095" gradientTransform="matrix(1 0 0 -1 -4.607668e-04 519.8896)">
			<stop  offset="0" style="stop-color:#FFFFFF"/>
			<stop  offset="0.33" style="stop-color:#FEFEFE"/>
			<stop  offset="0.53" style="stop-color:#F8F8F8"/>
			<stop  offset="0.7" style="stop-color:#EFEFEF"/>
			<stop  offset="0.84" style="stop-color:#E2E2E2"/>
			<stop  offset="0.98" style="stop-color:#D2D2D2"/>
			<stop  offset="1" style="stop-color:#CFCFCF"/>
		</linearGradient>
		<path id="Card-8" style="fill:url(#Card-8_00000034088102248994635490000016071432657937289368_);" d="M352.7,327l106-0.1
			c2.6,0,4.6,2.1,4.6,4.6l0.1,75.8c0,2.6-2.1,4.6-4.6,4.6l-106,0.1c-2.6,0-4.6-2.1-4.6-4.6l-0.1-75.8
			C348.1,329.1,350.2,327,352.7,327z"/>
		<path class="st4" d="M353.6,406c-1.7,0.1-3.2-1.2-3.3-2.9c-0.1-1.7,1.2-3.2,2.9-3.3c0.1,0,0.2,0,0.4,0h43.6l0,0
			c1.7,0,3.1,1.4,3.1,3.1s-1.4,3.1-3.1,3.1L353.6,406L353.6,406z"/>
		
			<linearGradient id="SVGID_00000156576939860545895550000005227973180957335694_" gradientUnits="userSpaceOnUse" x1="405.3015" y1="127.13" x2="406.8114" y2="225.45" gradientTransform="matrix(1 0 0 -1 0 519.89)">
			<stop  offset="0" style="stop-color:#BCBCBC"/>
			<stop  offset="1" style="stop-color:#9D9D9D"/>
		</linearGradient>
		<path style="fill:url(#SVGID_00000156576939860545895550000005227973180957335694_);" d="M463.4,330.2l0.1,65.4l-89.6,0.1h-25.6
			l-0.1-65.4c0-1.8,1.5-3.3,3.3-3.3c0,0,0,0,0,0l108.7-0.1C461.9,326.8,463.4,328.3,463.4,330.2
			C463.4,330.1,463.4,330.2,463.4,330.2z"/>
		<path id="Card-9" class="st3" d="M352.1,148.3l106-0.1c2.6,0,4.6,2.1,4.6,4.6l0.1,75.8c0,2.6-2.1,4.6-4.6,4.6l-106,0.1
			c-2.6,0-4.6-2.1-4.6-4.6l-0.1-75.8C347.5,150.4,349.6,148.3,352.1,148.3z"/>
		<path class="st4" d="M353,227.3c-1.7,0-3.1-1.4-3.1-3.1c0-1.7,1.4-3.1,3.1-3.1h43.6l0,0c1.7,0.1,3,1.6,2.9,3.3
			c-0.1,1.6-1.3,2.8-2.9,2.9L353,227.3L353,227.3z"/>
		
			<linearGradient id="SVGID_00000018951823625840958190000013415935662333933470_" gradientUnits="userSpaceOnUse" x1="404.6984" y1="305.8" x2="406.2184" y2="404.11" gradientTransform="matrix(1 0 0 -1 0 519.89)">
			<stop  offset="0" style="stop-color:#8B8B8B"/>
			<stop  offset="1" style="stop-color:#D6D6D6"/>
		</linearGradient>
		<path style="fill:url(#SVGID_00000018951823625840958190000013415935662333933470_);" d="M462.8,151.5l0.1,65.4l-89.6,0.1h-25.6
			l-0.1-65.4c0-1.8,1.5-3.3,3.3-3.3c0,0,0,0,0,0l108.7-0.1C461.3,148.2,462.7,149.6,462.8,151.5
			C462.8,151.5,462.8,151.5,462.8,151.5z"/>
		<path class="st24" d="M405.2,182.1l-8.4,22.2c-5.9-2.3-10.6-6.8-13.3-12.5L405.2,182.1L405.2,182.1z"/>
		<path class="st25" d="M405.2,158.4v23.6l-0.1-0.1l-21.6,9.7c-1.4-3-2.1-6.3-2-9.7c0-0.4,0-0.8,0-1.2c0.2-5.8,2.7-11.4,6.8-15.4
			c0,0,0.1-0.1,0.1-0.1l0,0c4.4-4.5,10.4-7,16.7-6.9H405.2z"/>
		
			<linearGradient id="SVGID_00000044868469602079932440000007720078773587497112_" gradientUnits="userSpaceOnUse" x1="412.8176" y1="361.4409" x2="412.8176" y2="314.1075" gradientTransform="matrix(1 0 0 -1 0 519.89)">
			<stop  offset="0" style="stop-color:#FFFFFF"/>
			<stop  offset="1" style="stop-color:#E6E6E6"/>
		</linearGradient>
		<path style="fill-rule:evenodd;clip-rule:evenodd;fill:url(#SVGID_00000044868469602079932440000007720078773587497112_);" d="
			M396.9,204.3l8.4-22.2v-23.6c2.9,0,5.7,0.5,8.4,1.4c3.1,1.2,5.9,3.1,8.2,5.4c4.3,4.1,6.7,9.7,6.9,15.6c0,0.4,0,0.8,0,1.2
			c0.1,6.3-2.4,12.3-6.9,16.7l0,0c-4.4,4.6-10.4,7.1-16.7,7C402.3,205.8,399.5,205.3,396.9,204.3z"/>
	</g>
	<g id="Sasquatch">
		
			<linearGradient id="arm_00000047022729798963434870000008522158454750530226_" gradientUnits="userSpaceOnUse" x1="76.49" y1="175.0296" x2="301.68" y2="175.0296" gradientTransform="matrix(1 0 0 -1 0 519.89)">
			<stop  offset="0" style="stop-color:#878787"/>
			<stop  offset="1" style="stop-color:#BCBCBC"/>
		</linearGradient>
		<path id="arm" style="fill:url(#arm_00000047022729798963434870000008522158454750530226_);" d="M263,341.6l-0.3,1.8l0,0
			c-0.7,3.2-2.8,8.2-7.8,15.6c0,0-4.4,7.6-15.2,6c-1.5-0.2-3,0.1-4.2,1c-4.6,3.2-17.1,11-32.9,12c-2.7,0.2-5.3,0.2-8-0.1
			c-3.6-0.3-7.1-1-10.5-2c-2.1-0.6-4.2-1.4-6.2-2.3l2.5-21.1l1.9-15.6c0,0,18.2,5.5,27.1,5.1c6.7-0.3,13.2-2.4,18.8-6.1
			c6.4-4.2,7.8-9.4,9.1-16.5c1.1-5.4,6.3-8.9,11.6-7.9l3.2,0.6c1,0.1,2,0.3,3,0.6l3.5,0.7c2.9,0.6,4.8,3.3,4.3,6.2l-1.3,7l-2.1,10.9
			l0.8,0.1C262.2,338.1,263.3,339.8,263,341.6z"/>
		<path id="shadow" class="st28" d="M202.5,378.1c-2.7,0.2-5.3,0.2-8-0.1c-3.6-0.3-7.1-1-10.5-2c-0.2-3.5-1.4-24.7-1.5-26.2
			C183.1,359.8,190.8,376.4,202.5,378.1z"/>
		
			<linearGradient id="body_00000088821357320417782070000017822168571220101552_" gradientUnits="userSpaceOnUse" x1="148.8689" y1="273.6096" x2="144.3789" y2="61.8896" gradientTransform="matrix(1 0 0 -1 0 519.89)">
			<stop  offset="0" style="stop-color:#878787"/>
			<stop  offset="1" style="stop-color:#BCBCBC"/>
		</linearGradient>
		<path id="body" style="fill:url(#body_00000088821357320417782070000017822168571220101552_);" d="M187.6,437
			c-2.7,22.2-6.7,47.1-6.7,47.1l-2.7,10.1l-28.3-4V490c-0.1-3-0.1-5.9-0.2-8.9l-0.3-14.3l-0.1-5.6c0-0.4,0-0.8,0-1.2
			c0-0.3,0-0.5,0.1-0.8c0.1-0.2,0.1-0.5,0.1-0.7c-0.2,0-0.5,0-0.7,0.1l-0.7,0.1c-0.5,0.1-1,0.2-1.4,0.3c-1,0.2-1.8,0.9-2.4,1.7
			c-0.4,0.8-0.7,1.7-0.8,2.6c-0.3,1.4-0.6,2.8-0.8,4.2c-1,7.2-1.3,14.6-0.8,21.9l-35.7-2c0,0-0.7-12.2-1.1-24.4c0-0.3,0-0.6,0-1
			c-0.1-3.3-0.2-6.6-0.3-9.6c0-0.3,0-0.7,0-1c-0.1-4.6-0.1-8.4,0.1-10.5l0.7-121.9c0,0-1.3-36.4,0-47.1s10.2-19.4,19.7-23.9
			c3.5-1.7,7.2-2.8,11-3.3c0.1,0,1.1-0.8,1.2-0.9c1.1-0.8,2.3-1.5,3.5-2.1c3.7-1.9,7.7-3,11.8-3.3c1.2-0.1,10.8-0.7,10.8,1.2
			c0,0.4-0.9,0.6-1.2,0.7c-1,0.3-2.1,0.5-3.1,0.8c-2.6,0.6-5.2,1-7.8,1.7c-0.5,0.1-0.9,0.2-1.4,0.4c-0.4,0.1-0.7,0.3-1,0.6
			c0.3-0.1,0.7-0.2,1.1-0.2c0.4,0,0.8,0,1.3-0.1s0.9-0.1,1.3-0.1c2.1-0.1,4.2-0.2,6.2-0.2s4.1,0,6.1,0.2c1.9,0.2,3.9,0.6,5.7,1.3
			c2.1,0.9,0.3,1.4-0.7,1.5c-1.8,0.2-3.7,0.3-5.5,0.2c-1.4,0-2.7,0-4,0.1s-2.6,0-3.9,0.1c-0.7,0-1.5,0.1-2.2,0.3
			c0.5,0.3,1,0.5,1.5,0.7c0.5,0.2,1,0.5,1.5,0.8c1,0.5,2,1.1,3,1.7l0.2,0.1c0.8,0.5,1.6,1,2.3,1.6c14.1,10.1,15.5,27.6,16.2,35
			s5.2,51.2,5.2,51.2S190.3,414.7,187.6,437z"/>
		<path id="shadow-2" class="st28" d="M79.3,434.9c-4,4.1-5.3,10-3.5,15.4c0.7,2.1,2.1,4,3.9,5.3c1.9,1.3,4.1,2,6.4,2
			c-0.7-0.4-1.1-1-1.3-1.8c-0.5-2.2-0.2-4.5-0.2-6.8s-0.9-3.8-1.4-5.9c-0.9-3.4-1.3-7-1.2-10.5C81,433.2,80.1,434,79.3,434.9z"/>
		<path id="shadow-3" class="st28" d="M114.4,454.8c-2.6,3.1-5.8,5.6-9.4,7.4c-0.1-3.3-0.2-6.6-0.3-9.6c0-0.3,0-0.7,0-1
			c6.8-3.5,8.8-10.8,8.2-17.3c-0.7-6.7-4.7-16.2-6.1-26.9c-0.3-2.7-0.4-5.5-0.1-8.3c0.2-2.4,0.7-4.9,1.4-7.2
			c0.3-1.4,0.8-2.7,1.4-3.9c-0.1,0.7-0.2,1.4-0.2,2.1c-0.2,5.8,0.2,11.6,1.2,17.3c1.3,5.6,2.9,11.2,4.9,16.6
			C119,434.1,121.9,445.7,114.4,454.8z"/>
		
			<linearGradient id="arm-2_00000090265829212196508980000015750200611888159381_" gradientUnits="userSpaceOnUse" x1="181.4863" y1="217.7632" x2="71.3763" y2="91.3432" gradientTransform="matrix(1 0 0 -1 0 519.89)">
			<stop  offset="0" style="stop-color:#878787"/>
			<stop  offset="1" style="stop-color:#BCBCBC"/>
		</linearGradient>
		<path id="arm-2" style="fill:url(#arm-2_00000090265829212196508980000015750200611888159381_);" d="M105.3,325.3
			c0,0,1.5,20.7-11.3,28.8s-20.9,22.9-22.2,35s3.4,28.3,5.4,35.7s5.4,21.5,5.4,21.5s-3.4,0.7-2.7,6.1s3.4,5.4,8.8,5.4
			c0,0,10.8-0.7,18.2-6.1s6.7-18.9,4.7-24.2c0,0-10.1-22.2-2-40.4L105.3,325.3z"/>
		<path id="belly" class="st31" d="M145.2,351.4h22.9c7.4,0,13.5,6,13.5,13.5v62.6c0,7.4-6,13.5-13.5,13.5h-22.9
			c-7.4,0-13.5-6-13.5-13.5v-62.6C131.7,357.5,137.7,351.4,145.2,351.4z"/>
		<g id="smile">
			<ellipse class="st31" cx="154.6" cy="318.1" rx="20.9" ry="11.8"/>
			<path class="st32" d="M140.4,315c9.1,4.1,19.5,4,28.5-0.3"/>
		</g>
		<g id="boots">
			<rect x="148.5" y="515.8" class="st5" width="59.3" height="4"/>
			<rect x="94.7" y="515.8" class="st5" width="48.5" height="4"/>
			<path class="st33" d="M141.7,486.6l-12.7,0.2l-0.1-0.1c-1.4-4.4-5.5-7.4-10.1-7.3h-7.2c-3.2,0-5.8,2.5-5.8,5.7c0,0.1,0,0.2,0,0.3
				l0.1,2.5c-1.5,6.1-8,17.8-10,21.1c-1.2,2-1.7,4.4-1.3,6.7h48.5v-8.1C143.1,504.3,141.7,486.6,141.7,486.6z"/>
			<path class="st33" d="M191.6,498.9c-2.8-0.6-5.1-2.8-7.1-4.8c-2.5-2.5-3.2-6-3.3-9.5v-2.2c0-0.3,0-0.6,0-1h-4.8
				c-3.5,0-6.6,2.1-7.9,5.4h-18.8c-1.3,9.6-1.7,19.3-1.3,29h59.3C207.1,500.9,195,499.6,191.6,498.9z"/>
			<circle class="st34" cx="162" cy="501.6" r="6.7"/>
			<ellipse class="st34" cx="133.7" cy="502.3" rx="3.4" ry="6.7"/>
		</g>
		<g id="eyes">
			<path class="st3" d="M141.8,289.5L141.8,289.5c1.5,0,2.7,1.2,2.7,2.7v5.4c0,1.5-1.2,2.7-2.7,2.7h0c-1.5,0-2.7-1.2-2.7-2.7v-5.4
				C139.1,290.7,140.3,289.5,141.8,289.5z"/>
			<path class="st3" d="M168.7,289.5L168.7,289.5c1.5,0,2.7,1.2,2.7,2.7v5.4c0,1.5-1.2,2.7-2.7,2.7h0c-1.5,0-2.7-1.2-2.7-2.7v-5.4
				C166.1,290.7,167.3,289.5,168.7,289.5z"/>
		</g>
		<path id="shadow-4" class="st28" d="M167.4,454.5c0,0-14.2,8.1-17.9,18.2l-0.3-14.1C149.2,458.5,161.3,457.8,167.4,454.5z"/>
		<g id="detail">
			<path class="st35" d="M251.8,348c1.1-3.3,3.2-6.1,5.8-8.3c1-0.8-0.4-2.3-1.4-1.4c-2.9,2.4-5.1,5.6-6.3,9.2
				C249.5,348.7,251.4,349.2,251.8,348L251.8,348z"/>
		</g>
	</g>
	<g id="robot">
		<rect id="neck" x="460.7" y="355" class="st36" width="25.2" height="7.1"/>
		<g id="arm-3">
			<g id="arm_l">
				<path class="st37" d="M420.2,429c2.4,1.1,5.3,0.9,7.5-0.6c23.3-16,25.9-49.8,26-51.2c0.2-4.2-3.1-7.7-7.3-7.8
					c-4-0.1-7.4,2.9-7.8,6.8c0,0.4-2.2,28-19.4,39.8c-3.4,2.4-4.3,7.1-1.9,10.5C418,427.6,419,428.4,420.2,429z"/>
			</g>
			<path class="st38" d="M418.1,418l5.1,9.8c1.3,2.6,0.3,5.7-2.2,7.1l-9.8,5.1c-2.6,1.3-5.7,0.3-7.1-2.2l-5.1-9.8
				c-1.3-2.6-0.3-5.7,2.2-7.1l9.8-5.1C413.6,414.5,416.8,415.5,418.1,418z"/>
		</g>
		<g id="head">
			
				<linearGradient id="SVGID_00000060726302090243813660000009770611396857508030_" gradientUnits="userSpaceOnUse" x1="-5222.3096" y1="155.38" x2="-5222.3096" y2="206.81" gradientTransform="matrix(-1 0 0 -1 -4741.8496 519.89)">
				<stop  offset="0" style="stop-color:#A2A2A2"/>
				<stop  offset="1" style="stop-color:#DADADA"/>
			</linearGradient>
			<path style="fill:url(#SVGID_00000060726302090243813660000009770611396857508030_);" d="M493.1,355.2h-25.3
				c-1.7,0-3.1-1.4-3.1-3.1v-46.4c0-1.7,1.4-3.1,3.1-3.1h25.3c1.7,0,3.1,1.4,3.1,3.1V352C496.3,353.8,494.8,355.2,493.1,355.2z"/>
			
				<linearGradient id="SVGID_00000038390128310287299180000006806720646831413692_" gradientUnits="userSpaceOnUse" x1="466.21" y1="26.29" x2="466.21" y2="236.67" gradientTransform="matrix(1 0 0 -1 0 519.89)">
				<stop  offset="0" style="stop-color:#8B8B8B"/>
				<stop  offset="6.000000e-02" style="stop-color:#939393"/>
				<stop  offset="0.28" style="stop-color:#B2B2B2"/>
				<stop  offset="0.5" style="stop-color:#CCCCCC"/>
				<stop  offset="0.69" style="stop-color:#DDDDDD"/>
				<stop  offset="0.87" style="stop-color:#E8E8E8"/>
				<stop  offset="1" style="stop-color:#ECECEC"/>
			</linearGradient>
			<path style="fill:url(#SVGID_00000038390128310287299180000006806720646831413692_);" d="M478.8,355.3h-25.3
				c-1.7,0-3.2-1.4-3.2-3.2v-46.4c0-1.7,1.4-3.2,3.2-3.2h25.3c1.7,0,3.2,1.4,3.2,3.2v46.4C482,353.8,480.6,355.3,478.8,355.3z"/>
		</g>
		<g id="glasses">
			<path class="st36" d="M485.9,321.9H445c-1.5,0-2.8-1.2-2.8-2.8v0c0-1.5,1.2-2.8,2.8-2.8h40.9c1.5,0,2.8,1.2,2.8,2.8v0
				C488.6,320.6,487.4,321.9,485.9,321.9z"/>
			<path class="st36" d="M471.5,333.8h8.3c1.6,0,2.9-1.1,3.2-2.7l2-11.1h-18.8l2,11.1C468.5,332.7,469.9,333.8,471.5,333.8z"/>
			<path class="st36" d="M450.9,333.8h8.3c1.6,0,2.9-1.1,3.2-2.7l2-11.1h-18.8l2,11.1C447.9,332.7,449.3,333.8,450.9,333.8z"/>
			<g>
				<defs>
					<path id="SVGID_00000015327956251477723420000010857850785994833830_" d="M451.4,331.2h7.3c0.7,0,1.4-0.5,1.5-1.3l1.4-9.4
						h-13.1l1.4,9.4C450,330.6,450.7,331.2,451.4,331.2z"/>
				</defs>
				<clipPath id="SVGID_00000112634764017041353830000009768041156423103900_">
					<use xlink:href="#SVGID_00000015327956251477723420000010857850785994833830_"  style="overflow:visible;"/>
				</clipPath>
				<g style="clip-path:url(#SVGID_00000112634764017041353830000009768041156423103900_);">
					<path class="st42" d="M451.4,331.2h7.3c0.7,0,1.4-0.5,1.5-1.3l1.4-9.4h-13.1l1.4,9.4C450,330.6,450.7,331.2,451.4,331.2z"/>
					
						<rect x="453" y="315.9" transform="matrix(0.6309 -0.7758 0.7758 0.6309 -83.9581 473.1834)" class="st43" width="4.8" height="17.9"/>
				</g>
			</g>
			<g>
				<defs>
					<path id="SVGID_00000054981745615453553740000012146346609190137016_" d="M472,331.2h7.3c0.7,0,1.4-0.5,1.5-1.3l1.4-9.4h-13.2
						l1.4,9.4C470.6,330.6,471.2,331.2,472,331.2z"/>
				</defs>
				<clipPath id="SVGID_00000029739096625494941860000002327050474331912340_">
					<use xlink:href="#SVGID_00000054981745615453553740000012146346609190137016_"  style="overflow:visible;"/>
				</clipPath>
				<g style="clip-path:url(#SVGID_00000029739096625494941860000002327050474331912340_);">
					<path class="st42" d="M472,331.2h7.3c0.7,0,1.4-0.5,1.5-1.3l1.4-9.4h-13.2l1.4,9.4C470.6,330.6,471.2,331.2,472,331.2z"/>
					
						<rect x="473.3" y="315.9" transform="matrix(0.6309 -0.7758 0.7758 0.6309 -76.4761 488.8936)" class="st43" width="4.8" height="17.9"/>
				</g>
			</g>
		</g>
		<path id="leg" class="st37" d="M466.2,504.9l-14.1,3.4c-6-25.4-6-51.9,0-77.3l14.1,3.4C460.7,457.6,460.7,481.7,466.2,504.9z"/>
		<g id="boot">
			<g>
				<defs>
					<path id="SVGID_00000175309995260127939670000008206663292415734700_" d="M464.6,497.7c0.1,0,0.2,0.1,0.2,0.2
						c0.4,1.3,2.5,9,2.6,10.5s0,11.7,0,11.7h-38.7c0,0-1.9-10.1,8.4-11.7s11.8-6,12.1-9.5c0.2-1.8,0.2-3.6,0-5.4c0,0,4.4-1,5.6,1
						c0.4,0.6,0.7,1.1,1,1.6c0.6,1.1,1.9,1.8,3.2,1.8L464.6,497.7z"/>
				</defs>
				<clipPath id="SVGID_00000083786023033613087680000008855913876177065122_">
					<use xlink:href="#SVGID_00000175309995260127939670000008206663292415734700_"  style="overflow:visible;"/>
				</clipPath>
				<g style="clip-path:url(#SVGID_00000083786023033613087680000008855913876177065122_);">
					<path class="st1" d="M464.8,497.6c0,0,2.6,9.1,2.7,10.7s0,11.7,0,11.7h-38.7c0,0-1.9-10.1,8.4-11.7s11.8-6,12.1-9.5
						c0.2-1.8,0.2-3.6,0-5.4c0,0,4.4-1,5.6,1c0.4,0.6,0.7,1.1,1,1.6c0.6,1.1,1.9,1.8,3.2,1.8L464.8,497.6z"/>
					
						<linearGradient id="SVGID_00000067221094950932939330000003036714372405821829_" gradientUnits="userSpaceOnUse" x1="-5209.3599" y1="1.855" x2="-5170.4302" y2="1.855" gradientTransform="matrix(-1 0 0 -1 -4741.8501 519.89)">
						<stop  offset="0" style="stop-color:#A2A2A2"/>
						<stop  offset="1" style="stop-color:#DADADA"/>
					</linearGradient>
					
						<rect x="428.6" y="516.1" style="fill:url(#SVGID_00000067221094950932939330000003036714372405821829_);" width="38.9" height="3.9"/>
				</g>
			</g>
			<circle class="st47" cx="460.5" cy="509.5" r="3.7"/>
		</g>
		<path id="leg-2" class="st37" d="M499.4,504.9l-14.1,3.4c-6-25.4-6-51.9,0-77.3l14.1,3.4C493.9,457.6,493.9,481.7,499.4,504.9z"/>
		<g id="boot-2">
			<path class="st2" d="M497.7,497.7c0.1,0,0.2,0.1,0.3,0.2c0.4,1.3,2.5,9,2.6,10.5s0,11.7,0,11.7h-38.7c0,0-1.9-10.1,8.4-11.7
				s11.8-6,12.1-9.5c0.2-1.8,0.2-3.6,0-5.4c0,0,4.4-1,5.6,1c0.4,0.6,0.7,1.1,1,1.6c0.6,1.1,1.8,1.8,3.1,1.8L497.7,497.7z"/>
			<g>
				<defs>
					<path id="SVGID_00000070816987670538927330000000712796584815770043_" d="M497.7,497.7c0.1,0,0.2,0.1,0.3,0.2
						c0.4,1.3,2.5,9,2.6,10.5s0,11.7,0,11.7h-38.7c0,0-1.9-10.1,8.4-11.7s11.8-6,12.1-9.5c0.2-1.8,0.2-3.6,0-5.4c0,0,4.4-1,5.6,1
						c0.4,0.6,0.7,1.1,1,1.6c0.6,1.1,1.8,1.8,3.1,1.8L497.7,497.7z"/>
				</defs>
				<clipPath id="SVGID_00000095311783881798857120000015626783451060700556_">
					<use xlink:href="#SVGID_00000070816987670538927330000000712796584815770043_"  style="overflow:visible;"/>
				</clipPath>
				<g style="clip-path:url(#SVGID_00000095311783881798857120000015626783451060700556_);">
					<path class="st49" d="M497.9,497.6c0,0,2.6,9.1,2.7,10.7s0,11.7,0,11.7h-38.7c0,0-1.9-10.1,8.4-11.7s11.8-6,12.1-9.5
						c0.2-1.8,0.2-3.6,0-5.4c0,0,4.4-1,5.6,1c0.4,0.6,0.7,1.1,1,1.6c0.6,1.1,1.8,1.8,3.1,1.8L497.9,497.6z"/>
					
						<linearGradient id="SVGID_00000042723555839003642280000008666285746057492155_" gradientUnits="userSpaceOnUse" x1="-5242.4902" y1="1.855" x2="-5203.5601" y2="1.855" gradientTransform="matrix(-1 0 0 -1 -4741.8501 519.89)">
						<stop  offset="0" style="stop-color:#A2A2A2"/>
						<stop  offset="1" style="stop-color:#DADADA"/>
					</linearGradient>
					
						<rect x="461.7" y="516.1" style="fill:url(#SVGID_00000042723555839003642280000008666285746057492155_);" width="38.9" height="3.9"/>
				</g>
			</g>
			<circle class="st47" cx="493.7" cy="509.5" r="3.7"/>
		</g>
		<g id="torso">
			
				<linearGradient id="SVGID_00000106833934904472673450000006749087685983881602_" gradientUnits="userSpaceOnUse" x1="-5226.5" y1="70.46" x2="-5226.5" y2="142.54" gradientTransform="matrix(-1 0 0 -1 -4745.1201 543.24)">
				<stop  offset="0" style="stop-color:#A2A2A2"/>
				<stop  offset="1" style="stop-color:#DADADA"/>
			</linearGradient>
			<path style="fill:url(#SVGID_00000106833934904472673450000006749087685983881602_);" d="M502.1,443.5h-41.4
				c-3.3,0-6.1-2.7-6.1-6.1v-67.7c0-3.3,2.7-6.1,6.1-6.1h41.4c3.3,0,6.1,2.7,6.1,6.1v67.7C508.1,440.8,505.4,443.5,502.1,443.5z"/>
			
				<linearGradient id="SVGID_00000055675600490480312310000005743717200209657019_" gradientUnits="userSpaceOnUse" x1="463.6019" y1="10.04" x2="463.6019" y2="145.25" gradientTransform="matrix(1 0 0 -1 5.422517e-02 519.836)">
				<stop  offset="0" style="stop-color:#8B8B8B"/>
				<stop  offset="6.000000e-02" style="stop-color:#939393"/>
				<stop  offset="0.28" style="stop-color:#B2B2B2"/>
				<stop  offset="0.5" style="stop-color:#CCCCCC"/>
				<stop  offset="0.69" style="stop-color:#DDDDDD"/>
				<stop  offset="0.87" style="stop-color:#E8E8E8"/>
				<stop  offset="1" style="stop-color:#ECECEC"/>
			</linearGradient>
			<path style="fill:url(#SVGID_00000055675600490480312310000005743717200209657019_);" d="M484.2,441.6l-41.4-0.2
				c-3.4,0-6.1-2.7-6-6.1l0.3-67.8c0-3.4,2.7-6.1,6.1-6l41.4,0.2c3.4,0,6.1,2.7,6,6.1l-0.3,67.8
				C490.3,438.9,487.5,441.6,484.2,441.6z"/>
		</g>
		<g id="details" class="st53">
			<line class="st54" x1="454.4" y1="377.5" x2="454.4" y2="392.9"/>
			<line class="st54" x1="449.6" y1="377.5" x2="449.6" y2="392.9"/>
			<line class="st54" x1="444.8" y1="377.5" x2="444.8" y2="392.9"/>
			<circle class="st42" cx="460.3" cy="378.1" r="1.6"/>
			<circle class="st55" cx="460.3" cy="383.9" r="1.6"/>
		</g>
		<g id="arm_l-2">
			<path class="st37" d="M523.6,431.8c2.5-1,4.3-3.2,4.7-5.9c4.2-28-18.8-52.8-19.8-53.9c-3.1-2.8-7.9-2.7-10.7,0.4
				c-2.6,2.8-2.7,7-0.3,9.9c0.3,0.3,19,20.7,15.9,41.3c-0.6,4.1,2.2,8,6.3,8.6C521,432.5,522.4,432.3,523.6,431.8L523.6,431.8z"/>
		</g>
		<path id="hand" class="st38" d="M514.3,425.9l10.7,3c2.8,0.8,4.4,3.7,3.6,6.4l-3,10.7c-0.8,2.8-3.7,4.4-6.4,3.6l-10.7-3
			c-2.8-0.8-4.4-3.7-3.6-6.4l3-10.7C508.6,426.7,511.5,425.1,514.3,425.9z"/>
	</g>
	<g id="girl">
		
			<rect id="leg-3" x="349.5" y="374.2" transform="matrix(0.96 -0.28 0.28 0.96 -91.9841 114.5974)" class="st56" width="11.2" height="10"/>
		<path id="hand-2" class="st57" d="M291,206.2c-0.3-1.7-0.3-3.5,0-5.2c0.3-1.8,0.2-3.6-0.1-5.4c-0.5-2-1.1-4-1.7-6
			c-0.2-0.9-0.6-4.3-1.8-4.5c-0.3-0.1-0.6,0.2-0.8,0.5c-0.8,1.3-0.3,2.2-0.2,3.6c0.3,2.2,0.4,4.4,0.4,6.6c0,1.4,0.3,3.2-1,4
			l-1.2-3.8c-0.2-0.7-1-1.2-1.7-0.9c-0.6,0.2-1.1,0.8-1,1.5l0.4,3.2c0.3,2.5,0.4,6.1,2.4,7.9c0.6,0.9,1.1,1.9,1.3,2.9l5.4-2.2
			L291,206.2z"/>
		<path id="hand-3" class="st57" d="M274.6,252.3c-1.7-0.3-3.5-0.4-5.2-0.1c-1.8,0.2-3.6,0.2-5.4-0.2c-2-0.5-4-1.2-5.9-1.7
			c-0.9-0.2-4.3-0.7-4.5-1.9c0-0.3,0.2-0.6,0.5-0.8c1.3-0.7,2.2-0.3,3.6-0.1c2.2,0.3,4.4,0.4,6.6,0.5c1.4,0,3.2,0.3,4-1l-3.8-1.2
			c-0.7-0.2-1.1-1-0.9-1.8c0.2-0.6,0.8-1,1.5-1l3.2,0.4c2.5,0.3,6.1,0.4,7.9,2.4c0.9,0.6,1.9,1.1,2.9,1.4l-2.2,5.4L274.6,252.3z"/>
		<g id="arm-4">
			<g>
				<defs>
					<path id="SVGID_00000137097515163309955890000011490060525554421134_" d="M340.7,231.7c-7.9,4.1-16.1,7.6-24.5,10.3
						c-4,1.2-6.6,3.1-10.4,1.2c-1.9-1-3.6-2.4-5-4.1c-6.1-6.6-14.4-23.7-16.2-27.6c-0.2-0.5-0.1-1,0.4-1.3l6.7-4.7
						c0.5-0.3,1.1-0.2,1.5,0.3c1.4,1.9,5.1,7.2,10.3,14.8c1.3,1.9,2.6,3.7,4.1,5.5c0.8,1,1.7,2,2.7,2.9c0.8,0.7,2,0.8,3,0.3
						c11.9-6.1,19.5-10.9,22.8-12.9c0.1-0.1,0.2-0.2,0.4-0.2C338.6,221.1,340,226.4,340.7,231.7z"/>
				</defs>
				<clipPath id="SVGID_00000066483531930000225730000009933752753683699859_">
					<use xlink:href="#SVGID_00000137097515163309955890000011490060525554421134_"  style="overflow:visible;"/>
				</clipPath>
				<g style="clip-path:url(#SVGID_00000066483531930000225730000009933752753683699859_);">
					<path class="st59" d="M340.7,231.7c-7.9,4.1-16.1,7.6-24.5,10.3c-4,1.2-6.6,3.1-10.4,1.2c-1.9-1-3.6-2.4-5-4.1
						c-6.1-6.6-14.4-23.7-16.2-27.6c-0.2-0.5-0.1-1,0.4-1.3l6.7-4.7c0.5-0.3,1.1-0.2,1.5,0.3c1.4,1.9,5.1,7.2,10.3,14.8
						c1.3,1.9,2.6,3.7,4.1,5.5c0.8,1,1.7,2,2.7,2.9c0.8,0.7,2,0.8,3,0.3c11.9-6.1,19.5-10.9,22.8-12.9c0.1-0.1,0.2-0.2,0.4-0.2
						C338.6,221.1,340,226.4,340.7,231.7z"/>
					<path class="st60" d="M297.8,242c1,1.3,2.2,2.5,3.5,3.6c1.5,1.1,3.2,2,4.9,2.7c1.1,0.5,2.6,1.1,3.8,0.5c2.1-1,2.1-3.6,0.8-5.2
						c-0.9-1-2.1-1.7-3.4-2c-1.4-0.5-2.6-1.2-3.6-2.2c-0.9-1.1-2.1-2-3.3-2.7c-1.7-0.7-4.1-0.3-4.3,1.8
						C296.3,239.8,296.9,241.1,297.8,242z"/>
				</g>
			</g>
		</g>
		<g id="foot">
			
				<rect x="308.8" y="377.3" transform="matrix(0.9997 -2.321080e-02 2.321080e-02 0.9997 -8.7886 7.4012)" class="st56" width="11.2" height="10"/>
			<g id="boot_b">
				<g>
					<defs>
						<path id="SVGID_00000107579000129645349500000010686053920832659088_" d="M321.8,403.7l0,2.1l-26.6,0.6
							c-0.1-0.7-0.2-1.4-0.2-2.1c0-2,0.7-4.9,4.2-5.7c5.6-1.3,10-4.7,9.4-16.2c0,0,5.3-1.3,4.5,4l7.1-0.2c0.2,3,0.7,5.9,1.4,8.8
							C322.3,397.4,321.8,403.7,321.8,403.7z"/>
					</defs>
					<clipPath id="SVGID_00000008839308521983853100000018429800311246208171_">
						<use xlink:href="#SVGID_00000107579000129645349500000010686053920832659088_"  style="overflow:visible;"/>
					</clipPath>
					<g style="clip-path:url(#SVGID_00000008839308521983853100000018429800311246208171_);">
						<path class="st62" d="M321.8,403.7l0,2.1l-26.6,0.6c-0.1-0.7-0.2-1.4-0.2-2.1c0-2,0.7-4.9,4.2-5.7c5.6-1.3,10-4.7,9.4-16.2
							c0,0,5.3-1.3,4.5,4l7.1-0.2c0.2,3,0.7,5.9,1.4,8.8C322.3,397.4,321.8,403.7,321.8,403.7z"/>
						<circle class="st34" cx="317" cy="398" r="2.8"/>
						
							<rect x="293.8" y="404" transform="matrix(0.9997 -2.268733e-02 2.268733e-02 0.9997 -9.1686 7.0922)" class="st34" width="28.4" height="7.1"/>
					</g>
				</g>
			</g>
		</g>
		<g id="leg-4">
			<g>
				<defs>
					<path id="SVGID_00000034067967520773261400000006303605545878107009_" d="M307.9,381c-0.4,0-0.8-0.3-1-0.7
						c-0.7-2.6-1.1-5.3-1.6-7.9c-0.6-3.3-1.2-6.6-1.7-9.9c-1-6.5-1.9-13-2.5-19.5c-1.9-19.6-0.2-38.3,7.6-56.5
						c1.9-4.6,6.1-14.9,12.3-13.3c4.2,1.1,5.6,6.8,5.8,10.4c0.7,10.7-0.4,21.5-1.8,32.1c-0.9,6.9-2.1,13.7-2.6,20.7
						s0.3,13.7,1.1,20.5l1.4,11.5c0.4,3.6,1.2,7.3,1.4,11c0,0.5-0.4,0.9-0.9,1C322.1,380.5,310.9,380.9,307.9,381z"/>
				</defs>
				<clipPath id="SVGID_00000072247965537781916190000002739011912665165751_">
					<use xlink:href="#SVGID_00000034067967520773261400000006303605545878107009_"  style="overflow:visible;"/>
				</clipPath>
				<g style="clip-path:url(#SVGID_00000072247965537781916190000002739011912665165751_);">
					
						<linearGradient id="SVGID_00000049940449495421092410000001605173960929892491_" gradientUnits="userSpaceOnUse" x1="313.9587" y1="246.73" x2="313.3787" y2="156.43" gradientTransform="matrix(1 0 0 -1 0 519.89)">
						<stop  offset="0" style="stop-color:#282828"/>
						<stop  offset="1" style="stop-color:#1B1B1B"/>
					</linearGradient>
					<path style="fill:url(#SVGID_00000049940449495421092410000001605173960929892491_);" d="M307.9,381c-0.4,0-0.8-0.3-1-0.7
						c-0.7-2.6-1.1-5.3-1.6-7.9c-0.6-3.3-1.2-6.6-1.7-9.9c-1-6.5-1.9-13-2.5-19.5c-1.9-19.6-0.2-38.3,7.6-56.5
						c1.9-4.6,6.1-14.9,12.3-13.3c4.2,1.1,5.6,6.8,5.8,10.4c0.7,10.7-0.4,21.5-1.8,32.1c-0.9,6.9-2.1,13.7-2.6,20.7
						s0.3,13.7,1.1,20.5l1.4,11.5c0.4,3.6,1.2,7.3,1.4,11c0,0.5-0.4,0.9-0.9,1C322.1,380.5,310.9,380.9,307.9,381z"/>
					<path class="st60" d="M303.7,333.7L303.7,333.7c5.1-0.4,9.5,3.4,9.8,8.5l0.4,5.8c0.3,5-3.5,9.4-8.5,9.8l0,0
						c-5,0.3-9.4-3.5-9.8-8.5l-0.4-5.8C294.8,338.4,298.6,334.1,303.7,333.7z"/>
				</g>
			</g>
		</g>
		<path id="torso-2" class="st62" d="M342,289.1l-35.4,3.2c0.5-9-0.2-17.9-0.6-26.9c-0.4-7.3-0.4-14.7-0.3-22.1
			c0-1.4,0.1-2.8,0.1-4.3c0.1-4.3,0.6-8.7,1.6-12.9c2-8.1,6.6-14.4,16.6-17.3c1.8-0.5,3.5-1.2,5.3-0.7l0.3,0.1
			c1.3,0.6,2.4,1.5,3.3,2.7c1.4,1.6,2.5,3.4,3.4,5.3c2.3,4.9,3.7,10.2,4.4,15.5c0.5,3.3,0.8,6.5,1,9.5
			C342.1,245.2,343.1,289,342,289.1z"/>
		<g id="arm-5">
			<g>
				<defs>
					<path id="SVGID_00000016794603401675447350000018326858431416823187_" d="M313.6,219.1c-0.6,3.8-2.2,12.7-5.4,25.6
						c-0.3,1.1-1.2,1.8-2.3,2c-1.7,0.2-4.9,0.3-10.8-0.4c-9.2-1.1-15.5-1.8-17.9-2.1c-0.6-0.1-1.1,0.4-1.2,0.9l-0.9,8.1
						c-0.1,0.5,0.3,1,0.8,1.1c4.2,1.2,22.4,6.3,31.4,6.1c10.2-0.2,10-4.5,12.4-9.7c2.4-5.2,9.5-24.1,9.6-33.2
						c0.1-6.6-5.9-8.5-10.8-5.8C315.9,213.4,314,216,313.6,219.1z"/>
				</defs>
				<clipPath id="SVGID_00000106131942821206118340000012688411929163866508_">
					<use xlink:href="#SVGID_00000016794603401675447350000018326858431416823187_"  style="overflow:visible;"/>
				</clipPath>
				<g style="clip-path:url(#SVGID_00000106131942821206118340000012688411929163866508_);">
					<path class="st59" d="M313.6,219.1c-0.6,3.8-2.2,12.7-5.4,25.6c-0.3,1.1-1.2,1.8-2.3,2c-1.7,0.2-4.9,0.3-10.8-0.4
						c-9.2-1.1-15.5-1.8-17.9-2.1c-0.6-0.1-1.1,0.4-1.2,0.9l-0.9,8.1c-0.1,0.5,0.3,1,0.8,1.1c4.2,1.2,22.4,6.3,31.4,6.1
						c10.2-0.2,10-4.5,12.4-9.7c2.4-5.2,9.5-24.1,9.6-33.2c0.1-6.6-5.9-8.5-10.8-5.8C315.9,213.4,314,216,313.6,219.1z"/>
					<path class="st60" d="M313,262.9c1.5-0.7,3-1.5,4.3-2.5c1.4-1.2,2.7-2.6,3.8-4.1c0.8-1,1.8-2.3,1.5-3.6c-0.5-2.3-3-3-4.9-2.1
						c-1.2,0.7-2.1,1.7-2.8,2.8c-0.8,1.2-1.8,2.2-3,3c-1.3,0.6-2.4,1.5-3.4,2.5c-1.1,1.4-1.3,3.9,0.7,4.6
						C310.4,264,311.9,263.4,313,262.9z"/>
				</g>
			</g>
		</g>
		<g id="badge">
			<circle class="st34" cx="320.8" cy="222.7" r="4.4"/>
			<path class="st34" d="M315.5,231.2l0.6-2.4c0.1-0.3,0.4-0.6,0.8-0.5l4.6,1.1c0.3,0.1,0.6,0.4,0.5,0.8l-0.6,2.4
				c-0.1,0.3-0.4,0.6-0.8,0.5L316,232C315.7,231.9,315.5,231.5,315.5,231.2z"/>
		</g>
		<path id="hair_b" class="st66" d="M310.1,202c0,0-2.4,8.6-3,10.4l3.7-0.9l6.4-8.4L310.1,202z"/>
		<path id="mouth" class="st67" d="M311.8,193.3c0.1,0-0.5,1.1-0.6,1.1c-0.7,0.9-1.9,1.3-3,1c-0.5-0.1-1.1-0.1-1.6-0.2
			c-0.1,0-1.6-0.1-1.5,0.2c0,0,1,1.6,4.2,1.8s5.3-3.8,5.3-3.8L311.8,193.3z"/>
		<path id="nose" class="st56" d="M307.8,183.5c0,0-2.5,2.6-2.7,3.4s0.4,1.4,1.3,2.1S307.8,183.5,307.8,183.5z"/>
		<path id="face" class="st57" d="M308.2,182l-2.5,9.5c0,0.1,0,0.2,0.1,0.2c2.6,1,5.3,1.6,8,1.9c0,0-0.8,4.9-8.5,1.8
			c0,0-1,4-0.5,5.5s1.4,2.5,5,2.7c1.8,0,3.5,0.2,5.2,0.5l7.1-18.3L308.2,182z"/>
		<g id="eye">
			<path class="st68" d="M309.4,185.8l0.6-2.2c0.1-0.5,0.6-0.7,1.1-0.6l0,0c0.5,0.1,0.7,0.6,0.6,1.1l-0.6,2.2
				c-0.1,0.5-0.6,0.7-1.1,0.6l0,0C309.5,186.8,309.2,186.3,309.4,185.8z"/>
		</g>
		
			<linearGradient id="hair_00000016785493631650089530000012847109435894903172_" gradientUnits="userSpaceOnUse" x1="197.0222" y1="106.4104" x2="199.6722" y2="157.2404" gradientTransform="matrix(0.9989 -4.588604e-02 -4.588604e-02 -0.9989 133.5602 336.7533)">
			<stop  offset="0" style="stop-color:#5C5C5C"/>
			<stop  offset="1" style="stop-color:#404040"/>
		</linearGradient>
		<path id="hair" style="fill:url(#hair_00000016785493631650089530000012847109435894903172_);" d="M345.9,179.1
			c0.3,5.7,0.6,11.4-0.7,17.1c-0.5,2.3-1.4,4.7-3.1,6.3c-1.6,1.5-3.6,1.6-5.7,1.9c-1.6,0.2-4.3-0.4-5.3,1.2
			c-0.4,0.8-0.7,1.5-0.9,2.3c-0.8,2.1-2.5,3.1-4.4,3.9c-0.1-0.5-0.1-1-0.1-1.4c-1.2,2.4-3.5,3.3-6.1,3.6l0-1.3
			c-0.3,1.2-1.5,2-2.7,1.9c-2.3-0.1-5.5-0.5-6.9,0.7c0.8-4.3,2.2-8.4,4.4-12.2c3.5-6.1,6.8-16.1,6.8-16.1s-14.5-4.2-15.5-5.2
			s0-9.2,4.1-13.6c4.9-5.3,12-5.6,18.5-3.6C335.7,166.8,345.1,170.1,345.9,179.1z"/>
		<g id="boot_b-2">
			<path class="st57" d="M368.5,396.6l0.6,2l-25.5,7.5c-0.3-0.6-0.6-1.3-0.8-1.9c-0.5-1.9-0.6-4.9,2.5-6.6c5.1-2.7,8.4-7.1,4.8-18.1
				c0,0,4.8-2.6,5.4,2.7l6.8-2c1,2.8,2.2,5.6,3.6,8.2C367.4,390.4,368.5,396.6,368.5,396.6z"/>
			<g>
				<defs>
					<path id="SVGID_00000138540877954829962780000000729437490587713422_" d="M368.5,396.6l0.6,2l-25.5,7.5
						c-0.3-0.6-0.6-1.3-0.8-1.9c-0.5-1.9-0.6-4.9,2.5-6.6c5.1-2.7,8.4-7.1,4.8-18.1c0,0,4.8-2.6,5.4,2.7l6.8-2
						c1,2.8,2.2,5.6,3.6,8.2C367.4,390.4,368.5,396.6,368.5,396.6z"/>
				</defs>
				<clipPath id="SVGID_00000137825983439295322140000010377910883330275718_">
					<use xlink:href="#SVGID_00000138540877954829962780000000729437490587713422_"  style="overflow:visible;"/>
				</clipPath>
				<g style="clip-path:url(#SVGID_00000137825983439295322140000010377910883330275718_);">
					<path class="st62" d="M368.5,396.6l0.6,2l-25.5,7.5c-0.3-0.6-0.6-1.3-0.8-1.9c-0.5-1.9-0.6-4.9,2.5-6.6
						c5.1-2.7,8.4-7.1,4.8-18.1c0,0,4.8-2.6,5.4,2.7l6.8-2c1,2.8,2.2,5.6,3.6,8.2C367.4,390.4,368.5,396.6,368.5,396.6z"/>
					<circle class="st34" cx="362.5" cy="392.4" r="2.8"/>
					
						<rect x="342.1" y="400.4" transform="matrix(0.9593 -0.2825 0.2825 0.9593 -99.6147 117.1136)" class="st34" width="28.4" height="7.1"/>
				</g>
			</g>
		</g>
		<g id="leg-5">
			<g>
				<defs>
					<path id="SVGID_00000175316764118093762830000004558177465160672387_" d="M307.4,294.5c0,0.3,0.1,0.6,0.2,1
						c0.7,2.7,2,5.1,3.8,7.3c3.9,4.9,10.7,7.4,11.8,14.2c1.5,9.3,3.9,18.4,7.3,27.2c2.3,6.2,4.9,12.4,7.6,18.4
						c1.4,3.1,2.8,6.1,4.3,9.2c1.2,2.4,2.3,5,3.6,7.3c0.2,0.4,0.7,0.6,1.1,0.5c2.9-0.9,13.8-4.2,17-5.3c0.5-0.2,0.8-0.7,0.6-1.2
						c-1.1-3.5-2.9-7-4.2-10.4c-1.4-3.6-2.9-7.2-4.4-10.8c-2.6-6.5-5.1-12.9-6.5-19.8c-1.1-5.7-1.8-11.5-2.5-17.2
						c-1.3-11.8-3.2-23.6-5.8-35.2c0.3,1.2-3.9,3.2-4.6,3.5c-2.2,0.8-4.7,1.1-7,1.8c-3.8,1-7.5,2.2-11.1,3.7
						c-1.2,0.5-2.4,1.1-3.5,1.7c-1.3,0.6-2.7,1.1-4.2,1.3C308.2,292.2,307,292.2,307.4,294.5z"/>
				</defs>
				<clipPath id="SVGID_00000018225186396742324750000012315203035934364835_">
					<use xlink:href="#SVGID_00000175316764118093762830000004558177465160672387_"  style="overflow:visible;"/>
				</clipPath>
				<g style="clip-path:url(#SVGID_00000018225186396742324750000012315203035934364835_);">
					<path class="st62" d="M307.4,294.5c0,0.3,0.1,0.6,0.2,1c0.7,2.7,2,5.1,3.8,7.3c3.9,4.9,10.7,7.4,11.8,14.2
						c1.5,9.3,3.9,18.4,7.3,27.2c2.3,6.2,4.9,12.4,7.6,18.4c1.4,3.1,2.8,6.1,4.3,9.2c1.2,2.4,2.3,5,3.6,7.3c0.2,0.4,0.7,0.6,1.1,0.5
						c2.9-0.9,13.8-4.2,17-5.3c0.5-0.2,0.8-0.7,0.6-1.2c-1.1-3.5-2.9-7-4.2-10.4c-1.4-3.6-2.9-7.2-4.4-10.8
						c-2.6-6.5-5.1-12.9-6.5-19.8c-1.1-5.7-1.8-11.5-2.5-17.2c-1.3-11.8-3.2-23.6-5.8-35.2c0.3,1.2-3.9,3.2-4.6,3.5
						c-2.2,0.8-4.7,1.1-7,1.8c-3.8,1-7.5,2.2-11.1,3.7c-1.2,0.5-2.4,1.1-3.5,1.7c-1.3,0.6-2.7,1.1-4.2,1.3
						C308.2,292.2,307,292.2,307.4,294.5z"/>
					<path class="st60" d="M330.7,334.4L330.7,334.4c4.8-1.8,10,0.7,11.8,5.4l2,5.4c1.8,4.7-0.7,10-5.4,11.8l0,0
						c-4.7,1.8-10-0.7-11.8-5.4l-2-5.4C323.5,341.4,325.9,336.2,330.7,334.4z"/>
				</g>
			</g>
		</g>
		<g id="belt">
			<path class="st60" d="M323.9,274.5h2.9c0.7,0,1.2,0.5,1.2,1.2v6.8c0,0.7-0.5,1.2-1.2,1.2h-2.9c-0.7,0-1.2-0.5-1.2-1.2v-6.8
				C322.6,275.1,323.2,274.5,323.9,274.5z"/>
			<path class="st60" d="M313,274.5h2.9c0.7,0,1.2,0.5,1.2,1.2v6.8c0,0.7-0.5,1.2-1.2,1.2H313c-0.7,0-1.2-0.5-1.2-1.2v-6.8
				C311.8,275.1,312.3,274.5,313,274.5z"/>
			<path class="st60" d="M333.7,274.5h2.9c0.7,0,1.2,0.5,1.2,1.2v6.8c0,0.7-0.5,1.2-1.2,1.2h-2.9c-0.7,0-1.2-0.5-1.2-1.2v-6.8
				C332.5,275.1,333,274.5,333.7,274.5z"/>
		</g>
	</g>
	<g id="ladder">
		<path class="st72" d="M307.1,405h13.1c2.6,0,4.7,2.1,4.7,4.7v0c0,2.6-2.1,4.7-4.7,4.7h-13.1c-2.6,0-4.7-2.1-4.7-4.7v0
			C302.4,407.2,304.5,405,307.1,405z"/>
		<path class="st72" d="M312.5,426.3h13.1c2.6,0,4.7,2.1,4.7,4.7v0c0,2.6-2.1,4.7-4.7,4.7h-13.1c-2.6,0-4.7-2.1-4.7-4.7v0
			C307.8,428.4,309.9,426.3,312.5,426.3z"/>
		<path class="st72" d="M316.9,447.6h14.8c2.6,0,4.7,2.1,4.7,4.7v0c0,2.6-2.1,4.7-4.7,4.7h-14.8c-2.6,0-4.7-2.1-4.7-4.7v0
			C312.2,449.7,314.3,447.6,316.9,447.6z"/>
		<path class="st72" d="M321.7,469h13.1c2.6,0,4.7,2.1,4.7,4.7v0c0,2.6-2.1,4.7-4.7,4.7h-13.1c-2.6,0-4.7-2.1-4.7-4.7v0
			C317,471.1,319.1,469,321.7,469z"/>
		<path class="st72" d="M324.6,490.4h18.2c2.6,0,4.7,2.1,4.7,4.7v0c0,2.6-2.1,4.7-4.7,4.7h-18.2c-2.6,0-4.7-2.1-4.7-4.7v0
			C319.9,492.5,322,490.4,324.6,490.4z"/>
		<line class="st73" x1="253.2" y1="354.2" x2="294.6" y2="354.2"/>
		<path class="st74" d="M223.5,514.9L256,335.5c1.6-8.7,9.1-15,17.9-15l0,0c8.8,0,16.4,6.3,17.9,15l32.5,179.4"/>
	</g>
</g>
</svg>
