<?xml version="1.0" encoding="utf-8"?>
<!-- Generator: Adobe Illustrator 27.4.1, SVG Export Plug-In . SVG Version: 6.00 Build 0)  -->
<svg version="1.1" id="Capa_1" xmlns="http://www.w3.org/2000/svg" xmlns:xlink="http://www.w3.org/1999/xlink" x="0px" y="0px"
	 viewBox="0 0 550 520" style="enable-background:new 0 0 550 520;" xml:space="preserve">
<style type="text/css">
	.st0{fill:url(#SVGID_1_);}
	.st1{fill:#C0C0C0;}
	.st2{fill:url(#SVGID_00000137820643910208283640000004806874541512487582_);}
	.st3{fill:url(#SVGID_00000121986683108530379050000001324421710377888647_);}
	.st4{fill:#E1E1E1;}
	.st5{fill:#999999;}
	.st6{fill:url(#SVGID_00000000922392831352240900000012607518442657204381_);}
	.st7{fill-rule:evenodd;clip-rule:evenodd;fill:#EAEAEA;}
	.st8{fill-rule:evenodd;clip-rule:evenodd;fill:#FFFFFF;}
	.st9{fill-rule:evenodd;clip-rule:evenodd;fill:url(#SVGID_00000000189314640036269530000005683106602201472412_);}
	.st10{fill:#CFCFCF;}
	.st11{fill-rule:evenodd;clip-rule:evenodd;fill:url(#SVGID_00000111869501267332049150000014173080013823487877_);}
	.st12{fill-rule:evenodd;clip-rule:evenodd;fill:url(#SVGID_00000129926324327254094390000010494023117107775658_);}
	.st13{fill-rule:evenodd;clip-rule:evenodd;fill:url(#SVGID_00000106841588610172554430000004072191503096602776_);}
	.st14{fill-rule:evenodd;clip-rule:evenodd;fill:url(#SVGID_00000033356065523807472910000012374217228109941676_);}
	.st15{fill-rule:evenodd;clip-rule:evenodd;fill:url(#SVGID_00000029042502508083004720000016232409567469571218_);}
	.st16{fill-rule:evenodd;clip-rule:evenodd;fill:url(#SVGID_00000176044257769897660580000004674442878753269663_);}
	.st17{fill-rule:evenodd;clip-rule:evenodd;fill:#E8E8E8;}
	.st18{fill-rule:evenodd;clip-rule:evenodd;fill:#CCCCCC;}
	.st19{fill-rule:evenodd;clip-rule:evenodd;fill:url(#SVGID_00000178902511701263351710000014553212827611791033_);}
	.st20{fill-rule:evenodd;clip-rule:evenodd;fill:url(#SVGID_00000137845599587008027220000003050757281197882782_);}
	.st21{fill-rule:evenodd;clip-rule:evenodd;fill:url(#SVGID_00000130642180298802152080000003790514552962808225_);}
	.st22{fill-rule:evenodd;clip-rule:evenodd;fill:url(#SVGID_00000059284512221374281670000014778113620531554491_);}
	.st23{fill-rule:evenodd;clip-rule:evenodd;fill:url(#SVGID_00000011748626387253477210000005450588610883450019_);}
	.st24{fill-rule:evenodd;clip-rule:evenodd;fill:url(#SVGID_00000023966891354942001530000001333685999532426126_);}
	.st25{fill-rule:evenodd;clip-rule:evenodd;fill:url(#SVGID_00000143581957943329301610000003961445692319226787_);}
	.st26{fill-rule:evenodd;clip-rule:evenodd;fill:url(#SVGID_00000086672254943988149540000014627726595660563601_);}
	.st27{fill-rule:evenodd;clip-rule:evenodd;fill:url(#SVGID_00000132079176403184625190000018159808555727361177_);}
	.st28{opacity:0.5;}
	.st29{fill-rule:evenodd;clip-rule:evenodd;fill:url(#SVGID_00000148633694350756185930000006062205647575112849_);}
	.st30{fill-rule:evenodd;clip-rule:evenodd;fill:#616161;fill-opacity:0.5;}
	.st31{fill-rule:evenodd;clip-rule:evenodd;fill:#A3A3A3;}
	.st32{fill-rule:evenodd;clip-rule:evenodd;fill:url(#SVGID_00000103230438449154162340000015385356633317956530_);}
	.st33{fill-rule:evenodd;clip-rule:evenodd;fill:#D1D1D1;}
	.st34{fill-rule:evenodd;clip-rule:evenodd;fill:#D0D0D0;}
	.st35{fill-rule:evenodd;clip-rule:evenodd;fill:url(#SVGID_00000149378221755648114490000009675169640489469357_);}
	.st36{fill-rule:evenodd;clip-rule:evenodd;fill:url(#SVGID_00000011733885969112715930000004325268143175378863_);}
	.st37{fill-rule:evenodd;clip-rule:evenodd;fill:url(#SVGID_00000145029113229069516230000005266508428585134246_);}
	.st38{fill-rule:evenodd;clip-rule:evenodd;fill:url(#SVGID_00000132064670957377039860000016261679266376566679_);}
	.st39{fill-rule:evenodd;clip-rule:evenodd;fill:#999999;}
	.st40{fill-rule:evenodd;clip-rule:evenodd;fill:#939393;}
	.st41{fill-rule:evenodd;clip-rule:evenodd;fill:url(#SVGID_00000122685615816904673940000003300164889525878971_);}
	.st42{fill-rule:evenodd;clip-rule:evenodd;fill:url(#SVGID_00000072248738674246714620000004255299853062629276_);}
	.st43{fill-rule:evenodd;clip-rule:evenodd;fill:url(#SVGID_00000172427057902402809170000010951365257691407012_);}
	.st44{fill-rule:evenodd;clip-rule:evenodd;fill:url(#SVGID_00000183952569309684654590000007690259400303874475_);}
	.st45{fill-rule:evenodd;clip-rule:evenodd;fill:#313131;}
	.st46{fill-rule:evenodd;clip-rule:evenodd;fill:url(#SVGID_00000031898823732675166040000003784610703001309057_);}
	.st47{fill-rule:evenodd;clip-rule:evenodd;fill:#FFFFFF;fill-opacity:0.3;}
	.st48{fill-rule:evenodd;clip-rule:evenodd;fill:#C4C4C4;}
	.st49{fill-rule:evenodd;clip-rule:evenodd;}
	.st50{fill-rule:evenodd;clip-rule:evenodd;fill:url(#SVGID_00000011737208221290747280000000167748450779421314_);}
	.st51{fill-rule:evenodd;clip-rule:evenodd;fill:url(#SVGID_00000119081674766857356180000014185910346009737113_);}
	.st52{fill-rule:evenodd;clip-rule:evenodd;fill:url(#SVGID_00000029759848141905986560000015730339386158303166_);}
	.st53{fill-rule:evenodd;clip-rule:evenodd;fill:url(#SVGID_00000026862672350454290810000000892637303789716891_);}
	.st54{fill-rule:evenodd;clip-rule:evenodd;fill:url(#SVGID_00000029018898250297796710000010064131882482513834_);}
	.st55{fill-rule:evenodd;clip-rule:evenodd;fill:url(#SVGID_00000075123926984051743680000004848472103054020536_);}
	.st56{fill-rule:evenodd;clip-rule:evenodd;fill:url(#SVGID_00000129922721114289096760000002912952307319368321_);}
	.st57{fill-rule:evenodd;clip-rule:evenodd;fill:url(#SVGID_00000136386386538929977560000016477458632995064210_);}
	.st58{fill-rule:evenodd;clip-rule:evenodd;fill:url(#SVGID_00000144318545652718827390000003482570948114911384_);}
	.st59{fill-rule:evenodd;clip-rule:evenodd;fill:url(#SVGID_00000087392989779626867310000010427468726328066696_);}
	.st60{fill-rule:evenodd;clip-rule:evenodd;fill:#2C2C2C;}
	.st61{fill-rule:evenodd;clip-rule:evenodd;fill:#9B9B9B;}
	.st62{fill-rule:evenodd;clip-rule:evenodd;fill:#C5C5C5;}
	.st63{fill-rule:evenodd;clip-rule:evenodd;fill:url(#SVGID_00000026843162735366001830000000190906528712258190_);}
	.st64{fill-rule:evenodd;clip-rule:evenodd;fill:url(#SVGID_00000008137174057787962740000010516517951697780867_);}
	.st65{fill-rule:evenodd;clip-rule:evenodd;fill:url(#SVGID_00000064313559013885287610000003071304107288822967_);}
	.st66{fill-rule:evenodd;clip-rule:evenodd;fill:url(#SVGID_00000025422628918320638420000018203232258074847142_);}
	.st67{fill-rule:evenodd;clip-rule:evenodd;fill:url(#SVGID_00000171686880856022494640000010549682374379280536_);}
	.st68{fill-rule:evenodd;clip-rule:evenodd;fill:url(#SVGID_00000060710973215225930510000004875922474967408042_);}
	.st69{fill-rule:evenodd;clip-rule:evenodd;fill:url(#SVGID_00000072265277466608690260000003014110135160675243_);}
	.st70{fill-rule:evenodd;clip-rule:evenodd;fill:url(#SVGID_00000062191672905758227580000007589860613273014454_);}
	.st71{fill-rule:evenodd;clip-rule:evenodd;fill:url(#SVGID_00000065766376081366651130000002963730172611044491_);}
	.st72{fill-rule:evenodd;clip-rule:evenodd;fill:url(#SVGID_00000070082931266596030750000003920561343103468699_);}
	.st73{fill-rule:evenodd;clip-rule:evenodd;fill:url(#SVGID_00000083073271904166961550000014132635950283317157_);}
	.st74{fill-rule:evenodd;clip-rule:evenodd;fill:url(#SVGID_00000018955203163686790630000017324865612396639921_);}
	.st75{fill-rule:evenodd;clip-rule:evenodd;fill:url(#SVGID_00000078752513631872532800000017344214866567935418_);}
	.st76{fill-rule:evenodd;clip-rule:evenodd;fill:url(#SVGID_00000006703218706849649010000008442794734037710730_);}
	.st77{fill-rule:evenodd;clip-rule:evenodd;fill:url(#SVGID_00000098943236125971641490000016544944260077080704_);}
	.st78{fill-rule:evenodd;clip-rule:evenodd;fill:url(#SVGID_00000035524651903168487730000008424510017728249477_);}
	.st79{fill-rule:evenodd;clip-rule:evenodd;fill:url(#SVGID_00000047757740966706796730000013632051429572629896_);}
	.st80{fill-rule:evenodd;clip-rule:evenodd;fill:#616161;fill-opacity:0.3;}
	.st81{fill-rule:evenodd;clip-rule:evenodd;fill:#2E2E2E;}
	.st82{fill-rule:evenodd;clip-rule:evenodd;fill:url(#SVGID_00000162350065005224326360000008080745091166599818_);}
	.st83{fill-rule:evenodd;clip-rule:evenodd;fill:url(#SVGID_00000165929868397104194260000017218405260327615142_);}
	.st84{fill-rule:evenodd;clip-rule:evenodd;fill:url(#SVGID_00000180343538781437221000000000428337585984251318_);}
	.st85{fill-rule:evenodd;clip-rule:evenodd;fill:url(#SVGID_00000166652190127870858970000003493528400601318833_);}
	.st86{fill-rule:evenodd;clip-rule:evenodd;fill:url(#SVGID_00000168084611947436004710000000495211884186142899_);}
	.st87{fill-rule:evenodd;clip-rule:evenodd;fill:url(#SVGID_00000000917401576566724590000010861564240780808110_);}
	.st88{fill-rule:evenodd;clip-rule:evenodd;fill:url(#SVGID_00000106120879648247226890000002788529694006701745_);}
	.st89{fill-rule:evenodd;clip-rule:evenodd;fill:url(#SVGID_00000080184649531513298080000011240529508625930426_);}
	.st90{fill-rule:evenodd;clip-rule:evenodd;fill:url(#SVGID_00000122708290044570253790000013650519319891395987_);}
	.st91{fill-rule:evenodd;clip-rule:evenodd;fill:url(#SVGID_00000065037813066195675000000001551951129822947230_);}
	.st92{fill-rule:evenodd;clip-rule:evenodd;fill:url(#SVGID_00000118388037040468100120000000232590589888707231_);}
	.st93{fill-rule:evenodd;clip-rule:evenodd;fill:url(#SVGID_00000000201242802138848500000017917242823374392987_);}
	.st94{fill-rule:evenodd;clip-rule:evenodd;fill:url(#SVGID_00000045591927851888417850000002619250486209508771_);}
	.st95{fill-rule:evenodd;clip-rule:evenodd;fill:url(#SVGID_00000088111874899432970050000012764779785413595546_);}
	.st96{fill-rule:evenodd;clip-rule:evenodd;fill:url(#SVGID_00000048465405379520127100000012797428558840600739_);}
	.st97{fill-rule:evenodd;clip-rule:evenodd;fill:url(#SVGID_00000091725796077097170300000013166459189838184095_);}
	.st98{fill-rule:evenodd;clip-rule:evenodd;fill:url(#SVGID_00000009592549455977317070000014703952690900948922_);}
	.st99{fill-rule:evenodd;clip-rule:evenodd;fill:url(#SVGID_00000039852874711933900850000015957736723080733604_);}
	.st100{fill-rule:evenodd;clip-rule:evenodd;fill:url(#SVGID_00000145038930740548180440000000173752036921269659_);}
	.st101{fill-rule:evenodd;clip-rule:evenodd;fill:url(#SVGID_00000010997819172050950570000011241069605998914442_);}
	.st102{fill-rule:evenodd;clip-rule:evenodd;fill:url(#SVGID_00000034063980266216672450000013682386383520165540_);}
	.st103{fill-rule:evenodd;clip-rule:evenodd;fill:url(#SVGID_00000158725527186381509630000007868836575795510413_);}
	.st104{fill-rule:evenodd;clip-rule:evenodd;fill:url(#SVGID_00000042727862812551797820000017029951600358106808_);}
	.st105{fill-rule:evenodd;clip-rule:evenodd;fill:url(#SVGID_00000114032401347034582440000012612452188248582786_);}
</style>
<g id="Layer_2">
	<g id="Layer19_0_FILL">
		
			<linearGradient id="SVGID_1_" gradientUnits="userSpaceOnUse" x1="217.5448" y1="7809.564" x2="217.5448" y2="7847.5239" gradientTransform="matrix(0.98 0.21 -0.21 0.98 1610.9469 -7666.8823)">
			<stop  offset="0" style="stop-color:#EEEEEE;stop-opacity:0.5"/>
			<stop  offset="1" style="stop-color:#EEEEEE;stop-opacity:0"/>
			<stop  offset="1" style="stop-color:#FFFFFF;stop-opacity:0"/>
		</linearGradient>
		<path class="st0" d="M187.4,16.8c-10.2-2.2-20.3,4.3-22.5,14.6c-1.1,4.9-0.2,10.1,2.6,14.3c5.7,8.8,17.5,11.3,26.3,5.6
			c4.2-2.7,7.1-7,8.2-11.9c1.1-4.9,0.2-10.1-2.6-14.3C196.7,20.8,192.4,17.8,187.4,16.8z"/>
	</g>
	<circle class="st1" cx="180.5" cy="49.5" r="3.8"/>
	<g id="Layer18_0_FILL">
		
			<linearGradient id="SVGID_00000168819774081180676930000004841108730818135956_" gradientUnits="userSpaceOnUse" x1="217.574" y1="7815.1836" x2="217.574" y2="7841.9336" gradientTransform="matrix(0.98 0.21 -0.21 0.98 1610.9469 -7666.8823)">
			<stop  offset="0" style="stop-color:#E1E1E1;stop-opacity:0.5"/>
			<stop  offset="1" style="stop-color:#EEEEEE;stop-opacity:0"/>
			<stop  offset="1" style="stop-color:#FFFFFF;stop-opacity:0"/>
		</linearGradient>
		<path style="fill:url(#SVGID_00000168819774081180676930000004841108730818135956_);" d="M190.7,46.7c3-1.9,5.1-4.9,5.8-8.4
			c0.8-3.5,0.1-7.1-1.9-10.1c-4-6.2-12.3-8-18.5-4c-3,1.9-5.1,5-5.8,8.4c-1.6,7.2,3,14.3,10.2,15.9c0,0,0,0,0,0
			C184.1,49.3,187.8,48.6,190.7,46.7z"/>
	</g>
	<g id="Layer17_0_FILL">
		
			<linearGradient id="SVGID_00000059282127677064911120000006960296921925330062_" gradientUnits="userSpaceOnUse" x1="218.4646" y1="493.7985" x2="218.4646" y2="482.3485" gradientTransform="matrix(0.9778 0.2096 0.2096 -0.9778 -133.576 472.1444)">
			<stop  offset="0" style="stop-color:#A2A2A2"/>
			<stop  offset="1" style="stop-color:#D8D8D8"/>
		</linearGradient>
		<path style="fill:url(#SVGID_00000059282127677064911120000006960296921925330062_);" d="M186.4,35.7c-0.5-0.1-1,0-1.4,0.3
			c-0.4,0.3-0.7,0.7-0.8,1.2l-0.2,0.9l-1.9-0.4l0.2-0.9c0.1-0.5,0-1-0.3-1.5c-0.3-0.4-0.7-0.7-1.2-0.8c-0.5-0.1-1,0-1.4,0.3
			c-0.4,0.3-0.7,0.7-0.8,1.2c-0.1,0.5,0,1,0.3,1.4c0.3,0.4,0.7,0.7,1.2,0.8l0.9,0.2l-0.7,3.4l-0.9,4h0.2h0.1l0.7,0.2l0.8-3.9
			l0.8-3.6l1.9,0.4l-0.8,3.6l-0.8,3.9l0.9,0.2l0.9-4.1l0.7-3.4l0.9,0.2c0.5,0.1,1,0,1.4-0.3c0.4-0.3,0.7-0.7,0.8-1.2
			c0.1-0.5,0-1-0.3-1.4c-0.3-0.4-0.7-0.7-1.2-0.8 M185.4,36.6c0.5-0.3,1.1-0.1,1.4,0.4c0.1,0.2,0.1,0.4,0.1,0.6
			c-0.1,0.2-0.2,0.5-0.4,0.6c-0.2,0.1-0.5,0.2-0.7,0.1l-0.9-0.2l0.2-0.9C185.1,37,185.2,36.8,185.4,36.6 M180.5,35.3
			c0.3,0.1,0.5,0.2,0.6,0.4c0.1,0.2,0.2,0.5,0.1,0.7l-0.2,0.9l-0.9-0.2c-0.2,0-0.5-0.2-0.6-0.4c-0.1-0.2-0.2-0.5-0.1-0.7
			c0.1-0.2,0.2-0.5,0.4-0.6c0.2-0.1,0.5-0.1,0.7,0L180.5,35.3z"/>
		<polygon class="st4" points="181.8,38.6 181.1,42.2 180.2,46.1 181.9,46.4 182.1,46.5 182.9,42.6 183.7,39 		"/>
		<path class="st4" d="M186.5,38.3c0.2-0.1,0.4-0.3,0.4-0.6c0.1-0.5-0.3-1-0.9-1.1c-0.2,0-0.4,0-0.6,0.1c-0.2,0.1-0.4,0.4-0.4,0.6
			l-0.2,0.9l0.9,0.2C186,38.5,186.3,38.5,186.5,38.3z"/>
		<path class="st4" d="M180.6,35.4c-0.2-0.1-0.5,0-0.7,0.1c-0.2,0.1-0.4,0.3-0.4,0.6c-0.1,0.2,0,0.5,0.1,0.7
			c0.1,0.2,0.4,0.4,0.6,0.4l0.9,0.2l0.2-0.9c0.1-0.2,0-0.5-0.1-0.7C181,35.6,180.8,35.5,180.6,35.4z"/>
		<path class="st4" d="M192.4,36.6c0.1-1,0-2.1-0.2-3.1c-0.2-1-0.7-2-1.2-2.8c-0.6-0.9-1.3-1.7-2.1-2.3c-0.8-0.7-1.8-1.2-2.8-1.5
			l-0.4-0.1l-0.4-0.1l-0.4-0.1l-0.4-0.1c-1.1-0.1-2.1,0-3.1,0.2c-2,0.5-3.8,1.7-5.1,3.3c-0.7,0.8-1.2,1.8-1.5,2.8
			c-0.5,1.4-0.6,2.9-0.4,4.3c0.2,1.4,0.7,2.7,1.5,3.8c0.4,0.7,0.8,1.4,1.1,2.2c0.3,0.7,0.4,1.5,0.4,2.3l1.9,0.4l0.9-4l0.7-3.4
			l-0.9-0.2c-0.5-0.1-0.9-0.4-1.2-0.8c-0.3-0.4-0.4-0.9-0.3-1.4c0.1-0.5,0.4-0.9,0.8-1.2c0.4-0.3,0.9-0.4,1.4-0.3
			c0.5,0.1,0.9,0.4,1.2,0.8c0.3,0.4,0.4,1,0.3,1.5l-0.2,0.9l1.9,0.4l0.2-0.9c0.1-0.5,0.4-0.9,0.8-1.2c0.4-0.3,0.9-0.4,1.4-0.3
			c0.5,0.1,0.9,0.4,1.2,0.8c0.3,0.4,0.4,0.9,0.3,1.4c-0.1,0.5-0.4,0.9-0.8,1.2c-0.4,0.3-0.9,0.4-1.4,0.3l-0.9-0.2l-0.7,3.4l-0.9,4
			h0.1l1.8,0.4c0.3-0.7,0.8-1.4,1.3-2c0.6-0.6,1.2-1.1,1.9-1.5c1.2-0.7,2.2-1.7,3-2.9c0.5-0.8,0.9-1.6,1.1-2.4
			C192.3,37.7,192.4,37.2,192.4,36.6z"/>
	</g>
	<g id="Layer9_0_FILL">
		<path class="st1" d="M182.2,48c0,0.1,0,0.2,0.1,0.3c0.1,0.1,0.2,0.2,0.3,0.2l1.9,0.4l0.2-0.9l-1.9-0.4c-0.1,0-0.2,0-0.4,0
			C182.4,47.7,182.3,47.8,182.2,48 M180.8,47.3c-0.1-0.1-0.2-0.2-0.3-0.2l-3.3-0.7l-0.2,0.9l3.3,0.7c0.1,0,0.3,0,0.4,0
			c0.1-0.1,0.2-0.2,0.2-0.3C180.9,47.5,180.9,47.4,180.8,47.3L180.8,47.3z"/>
		<path class="st5" d="M177.4,45.5l-0.2,0.9l3.3,0.7c0.1,0,0.2,0.1,0.3,0.2c0,0.1,0,0.3,0,0.4c0,0.1-0.1,0.2-0.2,0.3
			c-0.1,0.1-0.2,0.1-0.4,0l-3.2-0.7l-0.3,1.4l0.9,0.2l5.6,1.2l0.9,0.2l0.3-1.4l-1.9-0.4c-0.1,0-0.2-0.1-0.3-0.2
			c-0.1-0.1-0.1-0.2-0.1-0.3c0-0.1,0.1-0.3,0.2-0.3c0.1,0,0.2,0,0.4,0l1.9,0.4l0.2-0.9l-1.8-0.4l-1.2-0.3l-1.6-0.3l-0.7-0.2h-0.1
			L177.4,45.5z"/>
		<path class="st1" d="M186.4,35.7c-0.5-0.1-1,0-1.4,0.3c-0.4,0.3-0.7,0.7-0.8,1.2l-0.2,0.9l-1.9-0.4l0.2-0.9c0.1-0.5,0-1-0.3-1.5
			c-0.3-0.4-0.7-0.7-1.2-0.8c-0.5-0.1-1,0-1.4,0.3c-0.4,0.3-0.7,0.7-0.8,1.2c-0.1,0.5,0,1,0.3,1.4c0.3,0.4,0.7,0.7,1.2,0.8l0.9,0.2
			l-0.7,3.4l-0.9,4h0.2h0.1l0.7,0.2l0.8-3.9l0.8-3.6l1.9,0.4l-0.8,3.6l-0.8,3.9l0.9,0.2l0.9-4.1l0.7-3.4l0.9,0.2
			c0.5,0.1,1,0,1.4-0.3c0.4-0.3,0.7-0.7,0.8-1.2c0.1-0.5,0-1-0.3-1.4c-0.3-0.4-0.7-0.7-1.2-0.8 M185.4,36.6c0.5-0.3,1.1-0.1,1.4,0.4
			c0.1,0.2,0.1,0.4,0.1,0.6c-0.1,0.2-0.2,0.5-0.4,0.6c-0.2,0.1-0.5,0.2-0.7,0.1l-0.9-0.2l0.2-0.9C185.1,37,185.2,36.8,185.4,36.6
			 M180.5,35.3c0.3,0.1,0.5,0.2,0.6,0.4c0.1,0.2,0.2,0.5,0.1,0.7l-0.2,0.9l-0.9-0.2c-0.2,0-0.5-0.2-0.6-0.4
			c-0.1-0.2-0.2-0.5-0.1-0.7c0.1-0.2,0.2-0.5,0.4-0.6c0.2-0.1,0.5-0.1,0.7,0L180.5,35.3z"/>
		
			<linearGradient id="SVGID_00000003827101697555164000000000156484892074397619_" gradientUnits="userSpaceOnUse" x1="218.4765" y1="502.4163" x2="218.4765" y2="482.3624" gradientTransform="matrix(0.9778 0.2096 0.2096 -0.9778 -133.576 472.1444)">
			<stop  offset="0" style="stop-color:#C0C0C0;stop-opacity:0.6"/>
			<stop  offset="0.74" style="stop-color:#D8D8D8;stop-opacity:0.6"/>
			<stop  offset="1" style="stop-color:#FCFCFC;stop-opacity:0.6"/>
		</linearGradient>
		<path style="fill:url(#SVGID_00000003827101697555164000000000156484892074397619_);" d="M183.7,39l-0.8,3.6l-0.8,3.9l-0.2,0
			l-1.6-0.3l0.8-3.9l0.8-3.6L183.7,39z M180.6,35.4c-0.2-0.1-0.5,0-0.7,0.1c-0.2,0.1-0.4,0.3-0.4,0.6c-0.1,0.2,0,0.5,0.1,0.7
			c0.1,0.2,0.4,0.4,0.6,0.4l0.9,0.2l0.2-0.9c0.1-0.2,0-0.5-0.1-0.7C181,35.6,180.8,35.5,180.6,35.4L180.6,35.4z M186.5,38.3
			c0.2-0.1,0.4-0.3,0.4-0.6c0.1-0.5-0.3-1-0.9-1.1c-0.2,0-0.4,0-0.6,0.1c-0.2,0.1-0.4,0.4-0.4,0.6l-0.2,0.9l0.9,0.2
			C186,38.5,186.3,38.5,186.5,38.3L186.5,38.3z M192.5,36.6c0.1-1,0-2.1-0.2-3.1c-0.3-1-0.7-2-1.2-2.8c-0.6-0.9-1.3-1.7-2.1-2.3
			c-0.8-0.7-1.8-1.2-2.8-1.5l-0.4-0.1l-0.4-0.1l-0.4-0.1l-0.4-0.1c-1.1-0.1-2.1,0-3.1,0.2c-2,0.5-3.8,1.7-5.1,3.3
			c-0.7,0.8-1.2,1.8-1.5,2.8c-0.5,1.4-0.6,2.9-0.4,4.3c0.2,1.4,0.7,2.7,1.5,3.8c0.4,0.7,0.8,1.4,1.1,2.2c0.3,0.7,0.4,1.5,0.4,2.3
			l1.9,0.4l0.9-4l0.7-3.4l-0.9-0.2c-0.5-0.1-0.9-0.4-1.2-0.8c-0.3-0.4-0.4-0.9-0.3-1.4c0.1-0.5,0.4-0.9,0.8-1.2
			c0.4-0.3,0.9-0.4,1.4-0.3c0.5,0.1,0.9,0.4,1.2,0.8c0.3,0.4,0.4,1,0.3,1.5l-0.2,0.9l1.9,0.4l0.2-0.9c0.1-0.5,0.4-0.9,0.8-1.2
			c0.4-0.3,0.9-0.4,1.4-0.3c0.5,0.1,0.9,0.4,1.2,0.8c0.3,0.4,0.4,0.9,0.3,1.4c-0.1,0.5-0.4,0.9-0.8,1.2c-0.4,0.3-0.9,0.4-1.4,0.3
			l-0.9-0.2l-0.7,3.4l-0.9,4h0.1l1.8,0.4c0.3-0.7,0.8-1.4,1.3-2c0.6-0.6,1.2-1.1,1.9-1.5c1.2-0.7,2.2-1.7,3-2.9
			c0.5-0.8,0.9-1.6,1.1-2.4C192.3,37.7,192.4,37.2,192.5,36.6L192.5,36.6z"/>
	</g>
	<path class="st7" d="M181.5,128.2c5,0.2,7.5,2.8,7.5,7.9V346c0,5.1-2.5,7.8-7.5,7.9H50.1c-5.3,0-7.9-2.6-7.9-7.9V136.1
		c0-5.2,2.6-7.9,7.9-7.9H181.5z"/>
	<path class="st8" d="M180.9,160.4v25.5c0,3.7-1.9,5.5-5.6,5.5H55.5c-3.7,0-5.6-1.9-5.6-5.5v-32.2c0-3.7,1.9-5.6,5.6-5.6h119.8
		c3.7,0,5.6,1.9,5.6,5.6V160.4z M49.9,290.7h131v50.1c0,3.7-1.9,5.5-5.6,5.5H55.5c-3.7,0-5.6-1.8-5.6-5.5L49.9,290.7z"/>
	
		<linearGradient id="SVGID_00000013152025634764840340000000634466034634623383_" gradientUnits="userSpaceOnUse" x1="59.8468" y1="330.3807" x2="170.9538" y2="219.2738" gradientTransform="matrix(1 0 0 -1 0 519.89)">
		<stop  offset="0" style="stop-color:#BCBCBC"/>
		<stop  offset="1" style="stop-color:#9D9D9D"/>
	</linearGradient>
	<path style="fill-rule:evenodd;clip-rule:evenodd;fill:url(#SVGID_00000013152025634764840340000000634466034634623383_);" d="
		M180.9,290.7h-131v-88.5c0-3.7,1.9-5.5,5.6-5.5h119.8c3.7,0,5.6,1.8,5.6,5.5V290.7z"/>
	<circle id="Options1" class="st10" cx="177.1" cy="138.2" r="2.2"/>
	<circle id="Options1-2" class="st10" cx="168.6" cy="138.2" r="2.2"/>
	<circle id="Options1-3" class="st10" cx="160.1" cy="138.3" r="2.2"/>
	<path class="st10" d="M97.5,141.8L97.5,141.8l-44.4-0.2c-1.7,0-3.1-1.4-3.1-3.1c0-1.7,1.4-3.1,3.1-3.1l0,0l44.4,0.2
		c1.7,0,3.1,1.4,3.1,3.1C100.6,140.4,99.2,141.8,97.5,141.8z"/>
	
		<linearGradient id="SVGID_00000145775435427711286050000015098769235133740167_" gradientUnits="userSpaceOnUse" x1="83.1403" y1="196.4201" x2="62.09" y2="196.4201" gradientTransform="matrix(1 0 0 -1 0 519.89)">
		<stop  offset="0" style="stop-color:#BFBFBF"/>
		<stop  offset="1" style="stop-color:#656565"/>
	</linearGradient>
	<path style="fill-rule:evenodd;clip-rule:evenodd;fill:url(#SVGID_00000145775435427711286050000015098769235133740167_);" d="
		M62.8,325.9c-0.5-0.4-0.7-1-0.7-1.7c0-1.3,1.1-2.4,2.4-2.4c0.6,0,1.3,0.2,1.7,0.7l3.3,3.3l9.7-9.7c0.4-0.5,1-0.7,1.7-0.7
		c1.3,0,2.4,1,2.4,2.3c0,0,0,0,0,0.1c0,0.6-0.2,1.2-0.7,1.7l-11.3,11.3c-0.4,0.5-1,0.7-1.7,0.7c-0.6,0-1.2-0.2-1.7-0.7L62.8,325.9z"
		/>
	
		<linearGradient id="SVGID_00000072264270637383729580000017622609950208949377_" gradientUnits="userSpaceOnUse" x1="59.579" y1="182.1118" x2="85.7851" y2="210.8394" gradientTransform="matrix(1 0 0 -1 0 519.89)">
		<stop  offset="0" style="stop-color:#ECECEC"/>
		<stop  offset="0.99" style="stop-color:#F5F5F5"/>
	</linearGradient>
	<path style="fill-rule:evenodd;clip-rule:evenodd;fill:url(#SVGID_00000072264270637383729580000017622609950208949377_);" d="
		M62.8,325.9l4.9,4.9c0.4,0.5,1,0.7,1.7,0.7c0.6,0,1.2-0.2,1.7-0.7l11.3-11.3c0.5-0.4,0.7-1,0.7-1.7c0-1.3-1-2.4-2.3-2.4
		c0,0,0,0-0.1,0c-0.6,0-1.2,0.2-1.7,0.7l-9.7,9.7l-3.3-3.3c-0.4-0.5-1.1-0.7-1.7-0.7c-1.3,0-2.3,1.1-2.4,2.4
		C62.1,324.9,62.4,325.5,62.8,325.9z M63.6,338.8c-4.2,0-6.3-2.1-6.3-6.3v-18c0-4.2,2.1-6.3,6.3-6.3h18.1c4.2,0,6.4,2.1,6.4,6.3v18
		c0,4.2-2.1,6.3-6.4,6.3H63.6z"/>
	
		<linearGradient id="SVGID_00000129923035684585028800000007708688688264658565_" gradientUnits="userSpaceOnUse" x1="57.3993" y1="361.7446" x2="155.3906" y2="361.7446" gradientTransform="matrix(1 0 0 -1 0 519.89)">
		<stop  offset="0" style="stop-color:#ECECEC"/>
		<stop  offset="0.99" style="stop-color:#F5F5F5"/>
	</linearGradient>
	<path style="fill-rule:evenodd;clip-rule:evenodd;fill:url(#SVGID_00000129923035684585028800000007708688688264658565_);" d="
		M153,155.8c0.6,0,1.3,0.3,1.7,0.7c0.5,0.4,0.7,1,0.7,1.6c0,1.3-1,2.3-2.3,2.4c0,0,0,0-0.1,0H59.8c-0.6,0-1.2-0.2-1.7-0.7
		c-0.5-0.4-0.7-1-0.7-1.7c0-0.6,0.2-1.2,0.7-1.6c0.4-0.5,1-0.8,1.7-0.7L153,155.8z"/>
	
		<linearGradient id="SVGID_00000055684831938495281780000000463441078081835685_" gradientUnits="userSpaceOnUse" x1="57.3993" y1="338.0798" x2="112.761" y2="338.0798" gradientTransform="matrix(1 0 0 -1 0 519.89)">
		<stop  offset="0" style="stop-color:#ECECEC"/>
		<stop  offset="0.99" style="stop-color:#F5F5F5"/>
	</linearGradient>
	<path style="fill-rule:evenodd;clip-rule:evenodd;fill:url(#SVGID_00000055684831938495281780000000463441078081835685_);" d="
		M110.4,179.4c0.7,0,1.3,0.3,1.7,0.7c0.4,0.4,0.6,1,0.6,1.6c0,0.6-0.2,1.2-0.6,1.7c-0.5,0.4-1.1,0.7-1.7,0.7H59.8
		c-0.5,0-1.1-0.2-1.5-0.5c-0.1,0-0.1-0.1-0.1-0.2c-0.5-0.5-0.7-1.1-0.7-1.7c0-0.6,0.2-1.2,0.7-1.6c0.4-0.5,1-0.7,1.7-0.7H110.4z"/>
	
		<linearGradient id="SVGID_00000050659986659934795230000006732864286823626410_" gradientUnits="userSpaceOnUse" x1="57.3995" y1="349.8951" x2="166.2704" y2="349.8951" gradientTransform="matrix(1 0 0 -1 0 519.89)">
		<stop  offset="0" style="stop-color:#ECECEC"/>
		<stop  offset="0.99" style="stop-color:#F5F5F5"/>
	</linearGradient>
	<path style="fill-rule:evenodd;clip-rule:evenodd;fill:url(#SVGID_00000050659986659934795230000006732864286823626410_);" d="
		M163.9,167.6c1.3,0,2.3,1.1,2.3,2.3c0,0,0,0,0,0c0,0.6-0.2,1.2-0.7,1.7c-0.4,0.4-1,0.7-1.7,0.7H59.8c-0.6,0-1.2-0.2-1.7-0.7
		c-0.5-0.4-0.7-1-0.7-1.7c0-0.6,0.2-1.2,0.7-1.7c0.4-0.5,1-0.7,1.7-0.7H163.9z"/>
	
		<linearGradient id="SVGID_00000046308615757540706110000016770269564194590101_" gradientUnits="userSpaceOnUse" x1="57.3997" y1="219.6346" x2="164.8507" y2="219.6346" gradientTransform="matrix(1 0 0 -1 0 519.89)">
		<stop  offset="0" style="stop-color:#ECECEC"/>
		<stop  offset="0.99" style="stop-color:#F5F5F5"/>
	</linearGradient>
	<path style="fill-rule:evenodd;clip-rule:evenodd;fill:url(#SVGID_00000046308615757540706110000016770269564194590101_);" d="
		M162.5,297.9c0.6,0,1.3,0.2,1.7,0.7c0.4,0.4,0.7,1,0.6,1.7c0,1.3-1,2.3-2.3,2.4c0,0-0.1,0-0.1,0H59.8c-0.6,0-1.2-0.2-1.7-0.7
		c-0.5-0.4-0.7-1-0.7-1.7c0-1.3,1.1-2.4,2.4-2.4H162.5z"/>
	<path class="st7" d="M340.8,128.2c5,0.2,7.5,2.8,7.5,7.9v282.7c0,5.2-2.5,7.8-7.5,7.9H209.5c-5.2,0-7.9-2.6-7.9-7.9V136.1
		c0-5.2,2.6-7.9,7.9-7.9H340.8z"/>
	<path class="st8" d="M340.3,153.7v19.5c0,3.7-1.9,5.6-5.6,5.6H214.9c-3.7,0-5.6-1.9-5.6-5.6v-19.5c0-3.7,1.9-5.6,5.6-5.6h119.8
		C338.4,148.1,340.3,150,340.3,153.7z M253.1,363.8l68-0.1l19.3,0.1v49.9c0,3.7-1.9,5.5-5.6,5.5H214.9c-3.8,0-5.6-1.8-5.6-5.5v-49.9
		l19.1-0.1L253.1,363.8z"/>
	<path class="st17" d="M161.2,219.4l-0.2-0.1c-1-0.2-1.8-0.7-2.4-1.6c-0.1-0.1-0.2-0.3-0.3-0.5c-0.4-0.7-0.5-1.6-0.3-2.4
		c0.2-1,0.8-1.8,1.6-2.3c1.6-1.2,3.9-0.8,5.1,0.9c0.1,0.1,0.1,0.1,0.1,0.2c0.6,0.8,0.8,1.8,0.6,2.8c-0.2,1-0.8,1.9-1.6,2.5
		C163.1,219.4,162.1,219.6,161.2,219.4z M99.3,240c-0.2-0.6-0.2-1.3-0.1-1.9c0.2-1,0.8-1.8,1.7-2.4c0.8-0.6,1.9-0.8,2.8-0.5
		c1,0.2,1.8,0.7,2.4,1.6c0.5,0.7,0.7,1.6,0.7,2.5c0,0.1-0.1,0.2-0.1,0.4c-0.2,1-0.8,1.9-1.7,2.4c-0.1,0.1-0.2,0.1-0.3,0.2
		c-0.8,0.4-1.6,0.6-2.5,0.4c-0.1,0-0.2-0.1-0.3-0.1c-0.8-0.3-1.5-0.8-2-1.5C99.6,240.7,99.4,240.3,99.3,240z M124.7,252.9
		c0.8-0.4,1.7-0.6,2.5-0.4c0.1,0,0.2,0,0.3,0.1c0.9,0.2,1.6,0.8,2.1,1.5c0.2,0.3,0.3,0.7,0.4,1c0.2,0.6,0.2,1.2,0.1,1.9
		c-0.2,1-0.8,1.9-1.6,2.4c-0.8,0.5-1.9,0.7-2.9,0.5c-1-0.2-1.9-0.8-2.4-1.6c-0.5-0.7-0.7-1.5-0.6-2.4c0-0.2,0-0.3,0.1-0.5
		c0.2-1,0.8-1.9,1.6-2.4C124.5,253,124.6,253,124.7,252.9L124.7,252.9z M70.3,269.3c0.8,0.2,1.5,0.7,2,1.5c0.2,0.3,0.4,0.6,0.5,1
		c0.2,0.6,0.2,1.2,0.1,1.8c-0.4,2-2.4,3.4-4.5,3c-1-0.2-1.8-0.8-2.4-1.6c-1.2-1.7-0.7-4.1,1-5.2c0,0,0,0,0,0
		c0.8-0.6,1.9-0.8,2.8-0.5C70.1,269.1,70.2,269.2,70.3,269.3z"/>
	<path class="st18" d="M161.2,219.4l-31.1,35.7c-0.1-0.3-0.2-0.7-0.4-1c-0.5-0.7-1.3-1.3-2.1-1.5l30.8-35.3c0.1,0.2,0.2,0.3,0.3,0.5
		c0.5,0.8,1.4,1.4,2.4,1.6L161.2,219.4z M106.7,239.3l18,13.6c-0.1,0-0.2,0.1-0.3,0.1c-0.8,0.6-1.4,1.4-1.6,2.4
		c0,0.2-0.1,0.3-0.1,0.5l-18-13.7c0.1,0,0.2-0.1,0.3-0.2c0.9-0.5,1.5-1.4,1.7-2.4C106.7,239.5,106.7,239.4,106.7,239.3L106.7,239.3z
		 M99.3,240c0.1,0.4,0.3,0.7,0.5,1c0.5,0.7,1.2,1.3,2,1.5l-28.9,29.2c-0.1-0.4-0.3-0.7-0.5-1c-0.5-0.7-1.2-1.3-2-1.5L99.3,240z"/>
	
		<linearGradient id="SVGID_00000072242531340117906500000006052019601915041687_" gradientUnits="userSpaceOnUse" x1="274.78" y1="261.1" x2="274.78" y2="336.2" gradientTransform="matrix(1 0 0 -1 0 519.89)">
		<stop  offset="0" style="stop-color:#BFBFBF"/>
		<stop  offset="1" style="stop-color:#909090"/>
	</linearGradient>
	<path style="fill-rule:evenodd;clip-rule:evenodd;fill:url(#SVGID_00000072242531340117906500000006052019601915041687_);" d="
		M340.3,189.2v64.1c0,3.6-1.8,5.4-5.3,5.5H214.9c-3.7,0-5.6-1.8-5.6-5.5v-64.1c0-3.7,1.9-5.5,5.6-5.5H335
		C338.5,183.8,340.3,185.6,340.3,189.2z"/>
	
		<linearGradient id="SVGID_00000112612544164576947660000009868357999238067328_" gradientUnits="userSpaceOnUse" x1="240.2861" y1="270.3679" x2="289.9461" y2="175.1979" gradientTransform="matrix(1 0 0 -1 0 519.89)">
		<stop  offset="0" style="stop-color:#D1D1D1"/>
		<stop  offset="1" style="stop-color:#9B9B9B"/>
	</linearGradient>
	<path style="fill-rule:evenodd;clip-rule:evenodd;fill:url(#SVGID_00000112612544164576947660000009868357999238067328_);" d="
		M228.3,363.7l-19.1,0.1v-94.5c0-1,0.2-2,0.6-2.9c0.8-1.7,2.4-2.6,4.8-2.6h120c3.7,0,5.6,1.8,5.6,5.5v94.5l-19.3-0.1H228.3z"/>
	<circle id="Options1-4" class="st10" cx="338.6" cy="137" r="2.2"/>
	<circle id="Options1-5" class="st10" cx="330.1" cy="137.1" r="2.2"/>
	<circle id="Options1-6" class="st10" cx="321.6" cy="137.1" r="2.2"/>
	<path class="st10" d="M259,140.6L259,140.6l-44.4-0.2c-1.7,0-3.1-1.4-3.1-3.1c0-1.7,1.4-3.1,3.1-3.1l0,0l44.4,0.2
		c1.7,0,3.1,1.4,3.1,3.1C262.1,139.3,260.7,140.6,259,140.6z"/>
	
		<linearGradient id="SVGID_00000051376192895812678240000000354427209698167999_" gradientUnits="userSpaceOnUse" x1="216.7295" y1="361.7442" x2="319.4712" y2="361.7442" gradientTransform="matrix(1 0 0 -1 0 519.89)">
		<stop  offset="0" style="stop-color:#ECECEC"/>
		<stop  offset="0.99" style="stop-color:#F5F5F5"/>
	</linearGradient>
	<path style="fill-rule:evenodd;clip-rule:evenodd;fill:url(#SVGID_00000051376192895812678240000000354427209698167999_);" d="
		M219.1,160.5c-0.6,0-1.2-0.2-1.6-0.7c-0.5-0.4-0.7-1-0.7-1.7c0-0.6,0.3-1.2,0.7-1.6c0.4-0.5,1-0.7,1.6-0.7h98
		c0.7,0,1.3,0.3,1.7,0.7c0.4,0.4,0.7,1,0.7,1.6c0,1.3-1,2.3-2.2,2.4c-0.1,0-0.1,0-0.2,0L219.1,160.5z"/>
	
		<linearGradient id="SVGID_00000057132500485291874080000018077190860989340544_" gradientUnits="userSpaceOnUse" x1="216.7297" y1="349.8951" x2="320.8908" y2="349.8951" gradientTransform="matrix(1 0 0 -1 0 519.89)">
		<stop  offset="0" style="stop-color:#ECECEC"/>
		<stop  offset="0.99" style="stop-color:#F5F5F5"/>
	</linearGradient>
	<path style="fill-rule:evenodd;clip-rule:evenodd;fill:url(#SVGID_00000057132500485291874080000018077190860989340544_);" d="
		M217.5,168.3c0.4-0.5,1-0.7,1.6-0.7h99.4c0.6,0,1.3,0.2,1.7,0.7c0.4,0.4,0.7,1,0.6,1.7c0,0.6-0.2,1.2-0.6,1.7
		c-0.5,0.4-1.1,0.7-1.7,0.7h-99.4c-0.6,0-1.2-0.2-1.6-0.7c-0.5-0.4-0.7-1-0.7-1.7C216.7,169.4,217,168.8,217.5,168.3z"/>
	
		<linearGradient id="SVGID_00000067198817439200640260000008842336410266499488_" gradientUnits="userSpaceOnUse" x1="216.7297" y1="146.595" x2="310.9202" y2="146.595" gradientTransform="matrix(1 0 0 -1 0 519.89)">
		<stop  offset="0" style="stop-color:#ECECEC"/>
		<stop  offset="0.99" style="stop-color:#F5F5F5"/>
	</linearGradient>
	<path style="fill-rule:evenodd;clip-rule:evenodd;fill:url(#SVGID_00000067198817439200640260000008842336410266499488_);" d="
		M308.5,370.9c1.3,0,2.4,1,2.4,2.3c0,0,0,0,0,0c0,0.6-0.2,1.2-0.7,1.7c-0.4,0.5-1.1,0.7-1.7,0.7h-89.4c-0.6,0-1.2-0.2-1.6-0.7
		c-0.5-0.4-0.7-1-0.7-1.7c0-0.6,0.3-1.3,0.7-1.7c0.4-0.5,1-0.7,1.6-0.7H308.5z"/>
	
		<linearGradient id="SVGID_00000153684741450076964650000010853358171728755091_" gradientUnits="userSpaceOnUse" x1="216.7297" y1="110.1349" x2="283.7403" y2="110.1349" gradientTransform="matrix(1 0 0 -1 0 519.89)">
		<stop  offset="0" style="stop-color:#ECECEC"/>
		<stop  offset="0.99" style="stop-color:#F5F5F5"/>
	</linearGradient>
	<path style="fill-rule:evenodd;clip-rule:evenodd;fill:url(#SVGID_00000153684741450076964650000010853358171728755091_);" d="
		M281.4,407.4c0.6,0,1.2,0.2,1.7,0.7c0.5,0.4,0.7,1.1,0.7,1.7c0,1.3-1.1,2.3-2.4,2.4h-62.3c-0.6,0-1.2-0.2-1.6-0.7
		c-0.5-0.4-0.7-1-0.7-1.7c0-0.6,0.3-1.3,0.7-1.7c0.4-0.4,1-0.7,1.6-0.7L281.4,407.4L281.4,407.4z"/>
	
		<linearGradient id="SVGID_00000092456861523703510550000005984695668574511537_" gradientUnits="userSpaceOnUse" x1="216.7093" y1="134.0148" x2="314.7007" y2="134.0148" gradientTransform="matrix(1 0 0 -1 0 519.89)">
		<stop  offset="0" style="stop-color:#ECECEC"/>
		<stop  offset="0.99" style="stop-color:#F5F5F5"/>
	</linearGradient>
	<path style="fill-rule:evenodd;clip-rule:evenodd;fill:url(#SVGID_00000092456861523703510550000005984695668574511537_);" d="
		M312.3,383.5c0.6,0,1.3,0.3,1.7,0.7c0.4,0.4,0.7,1,0.7,1.6c0,1.3-1,2.3-2.3,2.4c0,0-0.1,0-0.1,0h-93.2c-0.6,0-1.2-0.2-1.7-0.7
		c-0.4-0.4-0.7-1.1-0.7-1.7c0-0.6,0.2-1.2,0.7-1.6c0.4-0.5,1-0.8,1.7-0.7H312.3z"/>
	
		<linearGradient id="SVGID_00000008114117514273899580000003722603864175319936_" gradientUnits="userSpaceOnUse" x1="216.7093" y1="122.1549" x2="325.5609" y2="122.1549" gradientTransform="matrix(1 0 0 -1 0 519.89)">
		<stop  offset="0" style="stop-color:#ECECEC"/>
		<stop  offset="0.99" style="stop-color:#F5F5F5"/>
	</linearGradient>
	<path style="fill-rule:evenodd;clip-rule:evenodd;fill:url(#SVGID_00000008114117514273899580000003722603864175319936_);" d="
		M324.9,396.1c0.4,0.4,0.7,1.1,0.7,1.7c0,0.6-0.2,1.2-0.7,1.7c-0.4,0.5-1,0.7-1.7,0.7H219.1c-0.6,0-1.3-0.2-1.7-0.7
		c-0.4-0.4-0.7-1-0.7-1.7c0-0.6,0.2-1.2,0.7-1.7c0.4-0.5,1.1-0.7,1.7-0.7h104.2C323.9,395.4,324.5,395.6,324.9,396.1z"/>
	
		<linearGradient id="SVGID_00000094583438555616388610000004098110168923139256_" gradientUnits="userSpaceOnUse" x1="238.3999" y1="205.0347" x2="311.1622" y2="205.0347" gradientTransform="matrix(1 0 0 -1 0 519.89)">
		<stop  offset="0" style="stop-color:#FFFFFF;stop-opacity:0.5"/>
		<stop  offset="1" style="stop-color:#FFFFFF;stop-opacity:0.2"/>
	</linearGradient>
	<path style="fill-rule:evenodd;clip-rule:evenodd;fill:url(#SVGID_00000094583438555616388610000004098110168923139256_);" d="
		M276.7,333.8c0-0.8,0.3-1.5,0.9-2.1c0.5-0.6,1.3-0.9,2.1-0.9h27.9c0.8,0,1.6,0.3,2.1,0.9c0.6,0.5,0.9,1.3,0.9,2.1v19.6
		c0,1.6-1.3,3-2.9,3c0,0-0.1,0-0.1,0h-27.8c-1.7,0-3-1.3-3-3L276.7,333.8z M239,333.8c0-0.8,0.3-1.5,0.9-2.1
		c0.5-0.6,1.3-0.9,2.1-0.9h27.9c0.8,0,1.6,0.3,2.1,0.9c0.6,0.5,0.9,1.3,0.9,2.1v19.6c0,1.6-1.3,3-2.9,3c0,0-0.1,0-0.1,0H242
		c-1.7,0-3-1.3-3-3L239,333.8z M241.4,279.3c-0.8,0-1.5-0.3-2.1-0.9c-0.6-0.6-0.9-1.3-0.9-2.1c0-1.7,1.3-3,3-3h66.8
		c0.8,0,1.6,0.3,2.1,0.9c0.6,0.6,0.9,1.3,0.8,2.1c0.1,1.6-1.2,2.9-2.8,3c-0.1,0-0.1,0-0.2,0L241.4,279.3z M239,288.2
		c0-1.7,1.3-3,3-3h65.5c0.8,0,1.6,0.3,2.1,0.9c0.6,0.5,0.9,1.3,0.9,2.1V321c0,0.8-0.3,1.6-0.9,2.1c-0.6,0.5-1.3,0.8-2.1,0.8H242
		c-1.7,0-3-1.3-3-3V288.2z"/>
	<g class="st28">
		<path class="st7" d="M500.3,128.2c5,0.2,7.5,2.8,7.5,7.9v54.4c0,5.1-2.5,7.7-7.5,7.9H368.9c-5.3,0-7.9-2.6-7.9-7.9v-54.4
			c0-5.2,2.6-7.9,7.9-7.9H500.3z"/>
		<path class="st8" d="M374.1,148.8h120.2c3,0,5.4,2.4,5.4,5.4v0V185c0,3.7-1.9,5.5-5.6,5.5H374.3c-3.7,0-5.6-1.8-5.6-5.5v-30.8
			C368.7,151.2,371.1,148.8,374.1,148.8L374.1,148.8z"/>
		
			<linearGradient id="SVGID_00000025404666426656926560000002211196530780416441_" gradientUnits="userSpaceOnUse" x1="376.139" y1="352.679" x2="490.7115" y2="352.679" gradientTransform="matrix(1 0 0 -1 0 519.89)">
			<stop  offset="0" style="stop-color:#ECECEC"/>
			<stop  offset="0.99" style="stop-color:#F5F5F5"/>
		</linearGradient>
		<path style="fill-rule:evenodd;clip-rule:evenodd;fill:url(#SVGID_00000025404666426656926560000002211196530780416441_);" d="
			M460.7,170.7c0.6,0,1.3,0.3,1.7,0.7c0.5,0.4,0.7,1,0.7,1.6c0,1.3-0.9,2.3-2.2,2.4c-0.1,0-0.1,0-0.2,0h-82.2
			c-0.6,0-1.2-0.2-1.7-0.7c-0.5-0.5-0.7-1.1-0.7-1.7c0-0.6,0.2-1.2,0.7-1.6c0.4-0.5,1-0.7,1.7-0.7H460.7z M490.1,159.6
			c0.4,0.5,0.7,1.1,0.6,1.7c0,1.3-0.9,2.3-2.2,2.4c-0.1,0-0.1,0-0.2,0H378.5c-0.6,0-1.2-0.2-1.7-0.7c-0.4-0.4-0.7-1-0.7-1.7
			c0-0.6,0.2-1.2,0.7-1.7c0.4-0.5,1-0.7,1.7-0.7h109.8C489,158.9,489.6,159.2,490.1,159.6L490.1,159.6z"/>
		<circle id="Options1-7" class="st10" cx="495.8" cy="137.8" r="2.2"/>
		<circle id="Options1-8" class="st10" cx="487.3" cy="137.9" r="2.2"/>
		<circle id="Options1-9" class="st10" cx="478.8" cy="137.9" r="2.2"/>
		<path class="st10" d="M416.1,141.4L416.1,141.4l-44.4-0.2c-1.7,0-3.1-1.4-3.1-3.1c0-1.7,1.4-3.1,3.1-3.1l0,0l44.4,0.2
			c1.7,0,3.1,1.4,3.1,3.1C419.2,140,417.8,141.4,416.1,141.4L416.1,141.4z"/>
	</g>
	<path class="st30" d="M204.4,139h1.2h0.7l119.8,4.1c3.7,0.1,5.5,2,5.4,5.7l-2.2,64c-0.2,3.7-2.1,5.5-5.9,5.3l-3.7-0.1H319
		L201.6,214v-72.9L204.4,139z"/>
	<path class="st31" d="M217.6,131.8c0.6-0.6,1.1-1.4,1.1-2.3c1.6,0.3,3,1.1,4.1,2.3c0.2,0.2,0.3,0.5,0.2,0.9c0,0.3-0.1,0.6-0.3,0.8
		c-0.2,0.2-0.5,0.3-0.9,0.4c-0.3,0-0.6-0.1-0.8-0.4C220.2,132.4,218.9,131.8,217.6,131.8z M216.4,125.8c0.1,0,0.1-0.1,0.2-0.1
		c2.7-0.9,5.7-0.2,7.6,2c0.2,0.3,0.3,0.6,0.3,0.9c0,0.3-0.2,0.6-0.4,0.8c-0.2,0.2-0.5,0.3-0.8,0.3c-0.3,0-0.6-0.1-0.8-0.3
		c-1-1.2-2.5-1.8-4-1.6c-0.2-0.4-0.4-0.7-0.7-1C217.4,126.3,216.9,126,216.4,125.8L216.4,125.8z"/>
	
		<linearGradient id="SVGID_00000049937544702776652440000017582806083304119686_" gradientUnits="userSpaceOnUse" x1="214.5388" y1="385.0788" x2="186.4388" y2="413.1888" gradientTransform="matrix(1 0 0 -1 0 519.89)">
		<stop  offset="0" style="stop-color:#414141"/>
		<stop  offset="1" style="stop-color:#121212"/>
	</linearGradient>
	<path style="fill-rule:evenodd;clip-rule:evenodd;fill:url(#SVGID_00000049937544702776652440000017582806083304119686_);" d="
		M216.4,125.8c0.5,0.2,1,0.5,1.3,0.9c0.3,0.3,0.5,0.6,0.7,1c0.2,0.5,0.3,1,0.3,1.6c0,0.1,0,0.2,0,0.2c-0.1,0.9-0.5,1.7-1.1,2.3v0.1
		c-0.7,0.7-1.7,1-2.7,0.9c-14.8-0.7-25-7.6-30.5-20.9c-0.4-0.9-0.4-1.9,0-2.8c0.3-0.9,1.1-1.7,2-2c0.9-0.4,1.9-0.4,2.8,0
		c0.9,0.3,1.7,1.1,2,2c4.3,10.4,12.3,15.8,24,16.3C215.7,125.5,216,125.6,216.4,125.8z"/>
	<path class="st33" d="M199.5,184.2c-0.6,0-1.2-0.3-1.6-0.7c-0.5-0.5-0.7-1.1-0.7-1.7c0-0.6,0.3-1.2,0.8-1.6c0.4-0.5,1-0.7,1.6-0.6
		c7.3,0.3,14.1,0.5,20.5,0.7c1.6,0.1,3.2,0.1,4.7,0.2c0.8,0,1.6,0,2.4,0.1c0.2,0,0.3,0,0.5,0.1l7.9,0.2c24.5,0.8,37.3,1.3,38.3,1.4
		c0.6,0,1.2,0.3,1.7,0.7c0.4,0.5,0.6,1.1,0.6,1.7c0,0.6-0.2,1.2-0.7,1.7c-0.4,0.4-1,0.7-1.7,0.6c-1,0-13.8-0.5-38.3-1.3l-7.9-0.3
		c-0.2,0-0.3,0-0.5,0c-0.8,0-1.6-0.1-2.4-0.1L220,185C213.6,184.8,206.7,184.5,199.5,184.2z"/>
	<path class="st8" d="M263.3,133.2c1.1-1.8,2.8-3,4.8-3.4l-1.2,33.7c-1.1,0-2.2-0.5-2.9-1.3c-0.8-0.8-1.1-1.9-1.1-3l0.9-9.1
		c-0.8-0.1-1.5-0.6-1.9-1.2c-0.5-0.7-0.7-1.5-0.6-2.3l0.2-7.3C261.5,137,262.1,135,263.3,133.2z M256.4,129.4l2.7,0.1l-0.3,8.6
		c0,1.3-0.5,2.5-1.4,3.4c-0.8,0.9-1.9,1.6-3.1,1.9l-0.1,17.2c0,0.7-0.3,1.3-0.7,1.8c-0.5,0.4-1.1,0.7-1.7,0.6
		c-0.6,0-1.2-0.3-1.6-0.8c-0.5-0.5-0.7-1.1-0.6-1.8l1.1-17.2c-1.1-0.4-2.1-1.2-2.8-2.1c-0.7-1-1-2.2-1-3.4l0.3-8.5l2.5,0.1l-0.3,7.9
		c0,0.3,0.1,0.6,0.2,0.8c0.2,0.2,0.5,0.3,0.8,0.3c0.3,0,0.5,0,0.7-0.2c0.2-0.2,0.4-0.5,0.4-0.8l0.3-7.9l2.6,0.1l-0.3,7.9
		c0,0.3,0.1,0.6,0.3,0.8c0.2,0.2,0.4,0.3,0.7,0.3c0.3,0.1,0.6,0,0.7-0.2c0.2-0.2,0.3-0.5,0.4-0.8L256.4,129.4z"/>
	<path class="st34" d="M190.1,171.1l131,4.5l-0.3,7.4l-0.2,7.5c-0.2,3.7-2.1,5.5-5.9,5.3L195,191.8c-3.7-0.1-5.5-2.1-5.4-5.7
		l0.2-7.5L190.1,171.1z M199.5,184.2c7.3,0.3,14.1,0.5,20.5,0.7l4.7,0.2c0.8,0,1.6,0,2.4,0.1c0.2,0,0.3,0,0.5,0l7.9,0.3
		c24.5,0.8,37.3,1.3,38.3,1.3c0.6,0,1.2-0.2,1.7-0.6c0.5-0.4,0.7-1,0.7-1.7c0.1-0.6-0.2-1.2-0.6-1.7c-0.4-0.5-1-0.7-1.7-0.7
		c-1-0.1-13.8-0.5-38.3-1.4l-7.9-0.2c-0.2,0-0.3-0.1-0.5-0.1c-0.8,0-1.6-0.1-2.4-0.1c-1.6-0.1-3.1-0.1-4.7-0.2
		c-6.4-0.2-13.3-0.4-20.5-0.7c-0.6,0-1.2,0.2-1.6,0.6c-0.5,0.4-0.8,1-0.8,1.6c0,0.6,0.2,1.3,0.7,1.7
		C198.3,184,198.9,184.3,199.5,184.2z"/>
	
		<linearGradient id="SVGID_00000013175525843520919360000005226213385738200471_" gradientUnits="userSpaceOnUse" x1="306.397" y1="318.8872" x2="192.957" y2="440.4372" gradientTransform="matrix(1 0 0 -1 0 519.89)">
		<stop  offset="0" style="stop-color:#6A6A6A"/>
		<stop  offset="1" style="stop-color:#D6D6D6"/>
	</linearGradient>
	<path style="fill-rule:evenodd;clip-rule:evenodd;fill:url(#SVGID_00000013175525843520919360000005226213385738200471_);" d="
		M321.1,175.7l-130.9-4.5l1.7-49.1c0.1-3.7,2.1-5.4,5.8-5.3l119.7,4.1c3.7,0.1,5.5,2,5.4,5.7L321.1,175.7z M256.4,129.4l-0.3,7.9
		c0,0.3-0.2,0.6-0.4,0.8c-0.2,0.2-0.5,0.3-0.7,0.2c-0.3,0-0.5-0.1-0.7-0.3c-0.2-0.2-0.3-0.5-0.3-0.8l0.3-7.9l-2.6-0.1l-0.3,7.9
		c0,0.3-0.1,0.6-0.4,0.8c-0.2,0.2-0.4,0.3-0.7,0.2c-0.3,0-0.6-0.1-0.8-0.3c-0.2-0.2-0.3-0.5-0.2-0.8l0.3-7.9l-2.5-0.1l-0.3,8.5
		c0,1.2,0.3,2.4,1,3.4c0.7,1,1.7,1.7,2.8,2.1l-1.1,17.2c0,0.7,0.2,1.3,0.6,1.8c0.4,0.5,1,0.8,1.6,0.8c0.6,0,1.3-0.2,1.7-0.6
		c0.5-0.5,0.7-1.1,0.7-1.8l0.1-17.2c1.2-0.3,2.3-0.9,3.1-1.9c0.9-0.9,1.4-2.1,1.4-3.4l0.3-8.6L256.4,129.4z M263.3,133.2
		c-1.2,1.7-1.8,3.8-1.8,5.9l-0.2,7.3c-0.1,0.8,0.1,1.6,0.6,2.3c0.4,0.6,1.1,1.1,1.9,1.2l-0.9,9.1c0,1.1,0.3,2.2,1.1,3
		c0.7,0.8,1.8,1.3,2.9,1.3l1.2-33.6C266.1,130.2,264.3,131.5,263.3,133.2L263.3,133.2z"/>
	<path class="st8" d="M185.8,171l131,4.5l-0.3,7.4l-0.2,7.5c-0.1,3.7-2.1,5.5-5.8,5.4l-119.7-4.1c-3.7-0.2-5.5-2.1-5.4-5.7l0.2-7.5
		L185.8,171z M195.2,184.1c7.3,0.3,14.1,0.5,20.5,0.7c1.6,0,3.2,0.1,4.8,0.2l2.4,0.1c0.2,0,0.3,0,0.5,0l7.9,0.3
		c24.6,0.8,37.3,1.3,38.3,1.3c0.6,0,1.2-0.2,1.7-0.6c0.5-0.4,0.7-1.1,0.7-1.7c0.1-1.3-0.9-2.3-2.1-2.4c0,0-0.1,0-0.1,0
		c-1-0.1-13.8-0.5-38.4-1.3l-7.9-0.2c-0.1,0-0.3-0.1-0.4-0.1l-2.4-0.1c-1.6,0-3.1-0.1-4.8-0.2c-6.4-0.2-13.2-0.4-20.5-0.7
		c-0.6,0-1.2,0.2-1.6,0.6c-0.5,0.4-0.8,1-0.8,1.6c0,0.6,0.2,1.3,0.7,1.7C194,183.8,194.6,184.1,195.2,184.1L195.2,184.1z"/>
	
		<linearGradient id="SVGID_00000120526469794226737690000012577487059565660843_" gradientUnits="userSpaceOnUse" x1="396.3488" y1="298.4977" x2="213.2088" y2="393.1477" gradientTransform="matrix(1 0 0 -1 0 519.89)">
		<stop  offset="0" style="stop-color:#868686"/>
		<stop  offset="1" style="stop-color:#D6D6D6"/>
	</linearGradient>
	<path style="fill-rule:evenodd;clip-rule:evenodd;fill:url(#SVGID_00000120526469794226737690000012577487059565660843_);" d="
		M316.8,175.6L185.8,171l1.7-49c0.1-3.7,2.1-5.4,5.8-5.3l119.7,4.1c3.7,0.1,5.5,2,5.4,5.7L316.8,175.6z"/>
	
		<linearGradient id="SVGID_00000132077220511122928000000009419525092528785337_" gradientUnits="userSpaceOnUse" x1="192.8799" y1="336.8319" x2="271.9237" y2="336.8319" gradientTransform="matrix(1 0 0 -1 0 519.89)">
		<stop  offset="0" style="stop-color:#ECECEC"/>
		<stop  offset="0.99" style="stop-color:#F5F5F5"/>
	</linearGradient>
	<path style="fill-rule:evenodd;clip-rule:evenodd;fill:url(#SVGID_00000132077220511122928000000009419525092528785337_);" d="
		M195.2,184.1c-0.6,0-1.2-0.3-1.6-0.7c-0.4-0.5-0.7-1.1-0.7-1.7c0-0.6,0.3-1.2,0.8-1.6c0.4-0.5,1-0.7,1.6-0.6
		c7.3,0.3,14.1,0.5,20.5,0.7c1.6,0.1,3.2,0.1,4.8,0.2l2.4,0.1c0.2,0,0.3,0,0.4,0.1l7.9,0.2c24.6,0.8,37.3,1.3,38.4,1.3
		c1.3,0,2.3,1,2.3,2.3c0,0,0,0.1,0,0.1c0,0.6-0.2,1.3-0.7,1.7c-0.5,0.4-1.1,0.7-1.7,0.6c-1-0.1-13.8-0.5-38.4-1.3l-7.9-0.3
		c-0.2,0-0.3,0-0.5,0l-2.4-0.1c-1.6-0.1-3.2-0.1-4.8-0.2C209.3,184.6,202.5,184.4,195.2,184.1z"/>
	
		<linearGradient id="SVGID_00000088132924636582678440000009806020962373360044_" gradientUnits="userSpaceOnUse" x1="155.4716" y1="439.9304" x2="289.7017" y2="439.9304" gradientTransform="matrix(1 0 0 -1 0 519.89)">
		<stop  offset="0" style="stop-color:#DEDEDE"/>
		<stop  offset="0.24" style="stop-color:#DCDCDC"/>
		<stop  offset="0.42" style="stop-color:#D6D6D6"/>
		<stop  offset="0.57" style="stop-color:#CCCCCC"/>
		<stop  offset="0.7" style="stop-color:#BDBDBD"/>
		<stop  offset="0.83" style="stop-color:#AAAAAA"/>
		<stop  offset="0.96" style="stop-color:#939393"/>
		<stop  offset="1" style="stop-color:#8B8B8B"/>
	</linearGradient>
	<path style="fill-rule:evenodd;clip-rule:evenodd;fill:url(#SVGID_00000088132924636582678440000009806020962373360044_);" d="
		M194.8,100.9l-34.6-4.7c-0.1,0-0.2-0.1-0.2-0.1c-0.5-0.1-0.9-0.2-1.4-0.3c-2.5-0.8-3.5-2.8-3.1-5.8l3.9-28.8c0.5-3.6,2.5-5.2,6-4.8
		h0.2l54,7.3c3.6,0.5,5.1,2.6,4.6,6.2l-3.9,28.8c-0.5,3.6-2.5,5.2-6.1,4.7L194.8,100.9z M209.6,76.6c-0.7-0.1-1.5,0.1-2.1,0.5
		c-0.6,0.5-1,1.1-1.1,1.9l-0.8,5.5c-0.1,0.8,0.1,1.5,0.6,2.1c0.4,0.6,1.1,1,1.8,1.1c0.8,0.1,1.5-0.1,2.1-0.6c0.6-0.5,1-1.2,1.1-1.9
		l0.7-5.5c0.1-0.7-0.1-1.4-0.5-2C211.1,77,210.4,76.6,209.6,76.6z M188.8,94.6c1.3,0.1,2.6,0.1,3.8-0.2c1.2-0.3,1.8-0.7,2-1.3
		s0.1-0.8-0.5-1l-9.7-1.3c-0.6-0.1-0.9,0.2-0.9,0.7s0.6,1.2,1.7,1.7C186.3,93.9,187.5,94.4,188.8,94.6L188.8,94.6z M174.8,80.2
		l0.7-5.5c0.1-0.7-0.1-1.5-0.6-2.1c-0.4-0.6-1.1-1-1.8-1.1c-1.5-0.2-3,0.8-3.2,2.4c0,0,0,0,0,0.1l-0.8,5.5c-0.1,0.8,0.1,1.5,0.6,2.1
		c0.4,0.6,1.1,1,1.8,1.1c0.8,0.1,1.5-0.1,2.1-0.6C174.3,81.7,174.7,81,174.8,80.2L174.8,80.2z"/>
	<path class="st39" d="M209.6,76.6c0.8,0.1,1.4,0.5,1.9,1.1c0.5,0.6,0.7,1.3,0.5,2l-0.7,5.5c-0.1,0.8-0.5,1.5-1.1,1.9
		c-0.6,0.5-1.4,0.7-2.1,0.6c-0.7-0.1-1.4-0.5-1.8-1.1c-0.5-0.6-0.8-1.4-0.6-2.1l0.8-5.5c0.1-0.7,0.5-1.4,1.1-1.9
		C208.2,76.6,208.9,76.4,209.6,76.6z M174.7,80.2c-0.1,0.8-0.5,1.4-1.1,1.9c-0.6,0.4-1.4,0.6-2.1,0.6c-0.7-0.1-1.4-0.5-1.8-1.1
		c-0.5-0.6-0.7-1.4-0.6-2.1l0.8-5.5c0.2-1.5,1.6-2.6,3.2-2.4c0.7,0.1,1.4,0.5,1.8,1.1c0.5,0.6,0.7,1.3,0.6,2.1L174.7,80.2z"/>
	<path class="st40" d="M188.8,94.6c-1.3-0.2-2.5-0.6-3.6-1.2c-1.1-0.6-1.6-1.1-1.7-1.7s0.3-0.8,0.9-0.7l9.7,1.3
		c0.6,0.1,0.7,0.4,0.5,1s-0.8,1-2,1.3C191.3,94.7,190,94.7,188.8,94.6z"/>
	
		<linearGradient id="SVGID_00000002371310493153075680000014002148776116184192_" gradientUnits="userSpaceOnUse" x1="144.0525" y1="423.73" x2="144.0525" y2="467.9817" gradientTransform="matrix(1 0 0 -1 0 519.89)">
		<stop  offset="0" style="stop-color:#8B8B8B"/>
		<stop  offset="1" style="stop-color:#DEDEDE"/>
	</linearGradient>
	<path style="fill-rule:evenodd;clip-rule:evenodd;fill:url(#SVGID_00000002371310493153075680000014002148776116184192_);" d="
		M160,96.2l-12.6-1.7l-19.9-2.7c-3.6-0.5-5.2-2.6-4.7-6.2l3.9-28.8c0.5-3.6,2.6-5.2,6.2-4.8l32.5,4.4c-3.5-0.4-5.5,1.2-6,4.8
		L155.6,90c-0.4,3.1,0.6,5,3.1,5.8C159.1,96,159.5,96.1,160,96.2z"/>
	
		<linearGradient id="SVGID_00000074444168688405648140000002710886647006646944_" gradientUnits="userSpaceOnUse" x1="171.125" y1="407.32" x2="171.125" y2="425.41" gradientTransform="matrix(1 0 0 -1 0 519.89)">
		<stop  offset="0" style="stop-color:#414141"/>
		<stop  offset="1" style="stop-color:#121212"/>
	</linearGradient>
	<path style="fill-rule:evenodd;clip-rule:evenodd;fill:url(#SVGID_00000074444168688405648140000002710886647006646944_);" d="
		M191.9,104.4c-1,1-2,1.9-3.1,2.7c-2.5,1.9-5.2,3.4-8.2,4.3c-3.7,1.1-7.6,1.4-11.4,0.9c-2.1-0.3-4.2-0.8-6.3-1.6
		c1.3-1.1,2.1-2.6,2.4-4.3c0.5-3.7-2.1-7.2-5.9-7.7c-1.8-0.3-3.7,0.2-5.1,1.4c-0.9,0.7-1.6,1.6-2.1,2.7c-0.2-0.2-0.4-0.4-0.6-0.7
		c-1.8-2.3-3.2-4.9-4.1-7.6l12.5,1.7c0.1,0,0.2,0,0.2,0.1l34.6,4.7C193.9,102.1,193,103.3,191.9,104.4z"/>
	
		<linearGradient id="SVGID_00000068653463410610699870000012864646471041724042_" gradientUnits="userSpaceOnUse" x1="194.1846" y1="410.8965" x2="181.1546" y2="406.6165" gradientTransform="matrix(1 0 0 -1 0 519.89)">
		<stop  offset="0" style="stop-color:#8B8B8B"/>
		<stop  offset="1" style="stop-color:#DEDEDE"/>
	</linearGradient>
	<path style="fill-rule:evenodd;clip-rule:evenodd;fill:url(#SVGID_00000068653463410610699870000012864646471041724042_);" d="
		M180.6,111.5c3-1,5.7-2.4,8.2-4.3c1.1-0.8,2.1-1.8,3.1-2.7c0.2,0.3,0.4,0.6,0.7,0.9c1.1,1.4,1.6,3.2,1.3,5
		c-0.2,1.8-1.2,3.5-2.6,4.6c-1.4,1.1-3.3,1.6-5.1,1.3c-1.8-0.2-3.4-1.2-4.5-2.6C181.2,112.9,180.8,112.2,180.6,111.5z"/>
	
		<linearGradient id="SVGID_00000023272735039067235220000003909366556126218655_" gradientUnits="userSpaceOnUse" x1="164.8528" y1="416.8065" x2="152.0228" y2="411.8866" gradientTransform="matrix(1 0 0 -1 0 519.89)">
		<stop  offset="0" style="stop-color:#8B8B8B"/>
		<stop  offset="1" style="stop-color:#DEDEDE"/>
	</linearGradient>
	<path style="fill-rule:evenodd;clip-rule:evenodd;fill:url(#SVGID_00000023272735039067235220000003909366556126218655_);" d="
		M152.2,102.8c0.4-1.1,1.2-2,2.1-2.7c1.5-1.1,3.3-1.6,5.1-1.4c3.7,0.6,6.3,4,5.9,7.7c-0.2,1.7-1,3.2-2.4,4.3
		c-0.1,0.1-0.2,0.2-0.3,0.3c-1.4,1.1-3.3,1.6-5.1,1.3c-1.8-0.2-3.5-1.2-4.6-2.6c-1.1-1.5-1.6-3.3-1.3-5.1
		C151.8,104,151.9,103.4,152.2,102.8z"/>
	<path class="st45" d="M184.8,136c0-0.3,0-0.6,0.2-0.8c0.2-0.3,0.5-0.4,0.8-0.5c0.3,0,0.6,0.1,0.9,0.2c0.1,0.1,0.2,0.2,0.4,0.3
		c1.1,0.6,2.3,0.9,3.5,0.9c0.3,0,0.6,0.1,0.8,0.3c0.2,0.2,0.4,0.5,0.4,0.9c0,0.3-0.2,0.6-0.4,0.8c-0.2,0.2-0.5,0.4-0.8,0.4
		c-1.9,0.1-3.9-0.5-5.4-1.6C185,136.6,184.8,136.4,184.8,136C184.8,136.1,184.7,136,184.8,136z M188.4,131.5c0.9,0.4,2,0.6,3,0.6
		c0.3,0,0.6,0.1,0.9,0.3c0.2,0.2,0.3,0.5,0.3,0.8c0,0.3,0,0.6-0.2,0.8c-0.2,0.2-0.5,0.3-0.9,0.4c-1.2,0-2.3-0.1-3.4-0.5
		c-0.7-0.3-1.4-0.6-2-1.1c-0.2-0.2-0.4-0.4-0.5-0.7c-0.1-0.3,0-0.6,0.2-0.9c0.2-0.2,0.5-0.4,0.8-0.4c0.3-0.1,0.6,0,0.9,0.2
		C187.8,131.2,188.1,131.4,188.4,131.5z"/>
	
		<linearGradient id="SVGID_00000147184806484587318970000016787014033508578439_" gradientUnits="userSpaceOnUse" x1="185.0543" y1="382.6292" x2="156.6268" y2="411.0666" gradientTransform="matrix(1 0 0 -1 0 519.89)">
		<stop  offset="0" style="stop-color:#414141"/>
		<stop  offset="1" style="stop-color:#121212"/>
	</linearGradient>
	<path style="fill-rule:evenodd;clip-rule:evenodd;fill:url(#SVGID_00000147184806484587318970000016787014033508578439_);" d="
		M188.4,131.5c-0.3-0.2-0.7-0.3-1-0.6c-0.2-0.2-0.5-0.3-0.9-0.2c-0.3,0-0.6,0.2-0.8,0.4c-0.2,0.3-0.3,0.6-0.2,0.9
		c0,0.3,0.2,0.6,0.5,0.7c0.6,0.5,1.3,0.9,2,1.1c-0.2,0.5-0.6,0.9-1,1.3c-0.1-0.1-0.3-0.2-0.4-0.3c-0.3-0.2-0.6-0.2-0.9-0.2
		c-0.3,0-0.6,0.2-0.8,0.5c-0.2,0.2-0.3,0.5-0.2,0.8l-0.4-0.1c-14.7-2.2-24.1-10.1-28.2-23.8c-0.3-1-0.2-2,0.3-2.8
		c0.4-0.9,1.2-1.5,2.1-1.8c1-0.3,2-0.2,2.9,0.3c0.9,0.5,1.5,1.3,1.8,2.2c3.2,10.8,10.6,17,22.1,18.7c1,0.1,1.9,0.7,2.4,1.4
		C188.1,130.5,188.3,131,188.4,131.5z"/>
	<path class="st8" d="M272.7,137.5c2.7,0,5.2,1.2,6.9,3.2c1.8,1.9,2.8,4.5,2.6,7.2c0,2.7-1.2,5.2-3.2,6.9c-3.8,4-10.1,4.2-14.1,0.4
		c-4-3.8-4.2-10.1-0.4-14.1c0.3-0.3,0.6-0.6,1-0.9C267.4,138.3,270,137.3,272.7,137.5z"/>
	<path class="st47" d="M272.6,135l-40.8-1.6c-3.4-0.2-6.7,1-9.2,3.4c-5.2,4.8-5.5,12.8-0.8,18c2.3,2.5,5.5,4,8.9,4.1l40.8,1.6
		c3.4,0.2,6.7-1,9.2-3.3l0,0c5.2-4.8,5.5-12.9,0.8-18.1C279.2,136.6,276,135.1,272.6,135z M219.9,133.8L219.9,133.8
		c3.2-3.1,7.6-4.7,12.1-4.4l40.8,1.6c9.3,0.4,16.5,8.2,16.1,17.4s-8.2,16.5-17.4,16.1l-40.8-1.6c-9.3-0.4-16.5-8.2-16.2-17.5
		C214.7,141.1,216.6,136.9,219.9,133.8L219.9,133.8z"/>
	<path class="st48" d="M420.9,504.7h10.6c0.4,3.6,2.5,6.6,6.4,8.9c4.4,2.6,6.5,4.2,6.4,4.9c0,0.5-0.1,1-0.3,1.4h-6.5
		c-3.1,0.1-5.2-0.5-6.5-1.7c-1.3-1.3-2.2-1.9-2.6-1.8v3.5h-4l-3.1-6.8C420.2,510.4,420.1,507.5,420.9,504.7z M399.9,504.7h10.6
		c0.8,2.7,0.7,5.7-0.3,8.4l-3,6.8h-4v-3.5c-0.4-0.1-1.3,0.5-2.6,1.8s-3.5,1.8-6.6,1.7h-6.5c-0.3-0.4-0.4-0.9-0.4-1.4
		c0-0.7,2.1-2.3,6.3-4.9C397.3,511.3,399.4,508.3,399.9,504.7L399.9,504.7z"/>
	<path class="st49" d="M401,312c0.3,0,0.6,0.1,0.9,0.3c0.2,0.2,0.4,0.5,0.4,0.9l0.1,2.6c0,0.3-0.1,0.6-0.3,0.9
		c-0.2,0.2-0.5,0.4-0.9,0.4c-0.3,0-0.6-0.1-0.9-0.4c-0.2-0.2-0.4-0.5-0.4-0.8l-0.1-2.7c-0.1-0.3,0-0.6,0.2-0.9
		C400.3,312.1,400.7,312,401,312z M416,310.9c0.3,0,0.6,0.1,0.9,0.3c0.2,0.2,0.4,0.5,0.4,0.9l0.1,2.6c0,0.3-0.1,0.6-0.3,0.9
		c-0.2,0.3-0.5,0.4-0.9,0.4c-0.3,0-0.6-0.1-0.9-0.3c-0.2-0.2-0.4-0.5-0.4-0.9l-0.2-2.7C414.8,311.5,415.3,310.9,416,310.9
		C416,310.9,416,310.9,416,310.9L416,310.9z"/>
	
		<linearGradient id="SVGID_00000134948004091355841330000007037169863116088193_" gradientUnits="userSpaceOnUse" x1="404.6761" y1="231.7016" x2="424.6169" y2="182.4044" gradientTransform="matrix(1 0 0 -1 0 519.89)">
		<stop  offset="0" style="stop-color:#7C7C7C"/>
		<stop  offset="1" style="stop-color:#121212"/>
	</linearGradient>
	<path style="fill-rule:evenodd;clip-rule:evenodd;fill:url(#SVGID_00000134948004091355841330000007037169863116088193_);" d="
		M411.2,330.3c0.2,0.5,0.3,1,0.4,1.5c-1.5,0.7-3.2,0.6-4.6-0.3c-0.5-0.3-1.2-0.2-2.2,0.4c-0.2,0.1-0.4,0.2-0.5,0.4
		c-0.9,0.8-2.2,1.1-3.4,0.8c-1-0.3-1.9-0.8-2.8-1.4c-0.6-0.4-1.3-0.7-2-0.9c-0.8-0.2-1.7-0.5-2.8-0.7c-2.4-0.5-3.6-2.1-3.5-5
		c0.1-2.8-0.2-4.8-1-5.8c0,0,0-0.1,0-0.1c-1.4-2.4-1.5-4.5-0.4-6.3c0.2-0.3,0.3-0.6,0.4-0.9c0.6-1.5,0.6-3.1,0.1-4.5l-0.1-0.4
		c-0.6-1.8-0.6-3.2,0-4.3c0.4-0.7,1.2-1.3,2-1.4c1.6-0.4,2.7-1.8,2.6-3.4c0-2.7,1.8-4.6,5.4-5.7c2.8-0.6,4.5-1.4,5.1-2.5
		c1.8-2.8,4.7-3.4,8.8-1.6c2.1,0.9,3.6,0.9,4.7,0c2.1-1.7,4.2-1.3,6.4,1l0.6,0.7c0.1,0.1,0.2,0.2,0.4,0.3v0.1
		c0.2,0.1,0.5,0.2,0.8,0.1c0.9-0.3,1.9-0.4,2.9-0.3c0.9,0,1.8,0.3,2.6,0.9c0.8,0.5,1.6,1.7,2.5,3.8c0.7,1.9,2.2,3.3,4.1,3.9
		c1.7,0.5,2.9,2.1,2.7,3.9c0,2,0.7,3.9,2,5.4c1.4,1.6,1.7,3.2,0.9,4.7c-0.8,1.5-0.4,3.4,1.2,5.6s1.9,4.2,0.8,6.1
		c-0.8,1.4-1.4,2.8-2,4.3c-0.6,1.6-1.6,2.4-2.9,2.4c-1.6-0.1-3.1,0.3-4.5,1c-1.6,0.8-3.4,1-5.1,0.7c-1.3-0.3-2.7-0.4-4-0.1l0,0
		c-0.7,0.2-1.4,0.4-2,0.5l-1.1,0.2c-0.4,0-0.8,0.1-1.1,0.1h-0.5c-0.2,0-0.4-0.1-0.7-0.1c-0.1,0-0.3,0-0.4-0.1c0,0-0.1,0-0.1,0
		c-0.1,0-0.1,0-0.2,0c-0.2,0-0.4,0-0.5-0.1c-0.4-0.2-0.8-0.6-1.1-1c0-0.1-0.1-0.1-0.1-0.2c-0.2-0.4-0.3-0.8-0.4-1.2
		c0-0.3,0-0.7,0-1.2c0-0.2,0-0.5,0-0.7l0.2-0.7c0.7-1.7,1.9-3.2,3.4-4.4c0,0,0-0.1,0.1-0.1c1.1-1.3,1-3-0.5-4.9
		c-1.5-1.7-1.7-3.1-0.5-4.4c1.1-1.7,1.5-3.8,1.4-5.8c-0.1-1.7-0.9-3.4-2.2-4.6c-2.9-2.7-2.9-5.3,0-7.7c-2.5,1.3-4.5,1.7-5.8,1.2
		c-0.9-0.4-2.2,0.3-3.8,2c-1.6,1.8-3.2,2.3-4.8,1.5c-1.3-0.3-2.3,0.2-3,1.6c-0.5,1.4-2,2-3.4,1.5c0,0-0.1,0-0.1,0
		c-1.4-0.6-2.2,0.1-2.5,2.1l1.1,14c0.4,4.6,2.3,7.6,5.6,9.2c2.3,1,4.8,1.4,7.3,1.1L411.2,330.3z"/>
	
		<linearGradient id="SVGID_00000075120720236738487460000013646376754579346365_" gradientUnits="userSpaceOnUse" x1="409.8419" y1="223.81" x2="409.8419" y2="189.5538" gradientTransform="matrix(1 0 0 -1 0 519.89)">
		<stop  offset="0" style="stop-color:#BFBFBF"/>
		<stop  offset="1" style="stop-color:#949494"/>
	</linearGradient>
	<path style="fill-rule:evenodd;clip-rule:evenodd;fill:url(#SVGID_00000075120720236738487460000013646376754579346365_);" d="
		M418.4,328.7c-2.3,0.8-4.8,1.3-7.2,1.6H411c-2.5,0.2-5-0.2-7.3-1.1c-3.3-1.5-5.2-4.6-5.6-9.2l-1.1-14c0.3-2,1.1-2.7,2.5-2.1
		c1.3,0.6,2.9,0,3.5-1.4c0,0,0-0.1,0-0.1c0.8-1.4,1.8-2,3-1.6c1.6,0.7,3.2,0.2,4.8-1.5s2.9-2.4,3.8-2c1.3,0.5,3.2,0.1,5.8-1.2
		c-2.9,2.4-2.9,4.9,0,7.7c1.3,1.2,2,2.8,2.2,4.6c0.2,2-0.3,4.1-1.4,5.8c-1.2,1.3-1,2.8,0.5,4.4c1.4,2,1.6,3.6,0.5,4.9
		c0,0-0.1,0.1-0.1,0.1c-1.5,1.1-2.7,2.6-3.4,4.4L418.4,328.7z M401,312c-0.3,0-0.7,0.1-0.9,0.4c-0.2,0.2-0.3,0.6-0.2,0.9l0.1,2.7
		c0,0.3,0.2,0.6,0.4,0.8c0.2,0.2,0.5,0.4,0.9,0.4c0.3,0,0.6-0.2,0.9-0.4c0.2-0.2,0.3-0.6,0.3-0.9l-0.1-2.6c0-0.3-0.2-0.6-0.4-0.9
		C401.6,312.1,401.3,312,401,312z M405.8,325.9l0.4,0.2c0.3,0.2,0.7,0.4,1.2,0.5c0.7,0.1,1.5,0.2,2.2,0.2c2.2-0.2,3.6-1,4.2-2.4
		c0-0.1,0.2-0.4,0.4-0.9c0.1-0.3,0.2-0.6,0.3-0.9v-0.1c0-0.1,0-0.3,0-0.5c0-0.5-0.3-0.9-0.8-0.9c0,0,0,0,0,0l-4.5,0.2l-4.5,0.2
		c-0.2,0-0.4,0.1-0.5,0.2c-0.2,0.3-0.3,0.8-0.1,1.2l0,0c0.1,0.5,0.3,0.9,0.5,1.3c0.2,0.4,0.4,0.7,0.5,0.8
		C405.3,325.4,405.5,325.7,405.8,325.9L405.8,325.9z M416,310.9c-0.7,0-1.2,0.6-1.2,1.2c0,0,0,0,0,0l0.2,2.7c0,0.3,0.1,0.6,0.4,0.9
		c0.2,0.2,0.6,0.3,0.9,0.3c0.3,0,0.6-0.1,0.9-0.4c0.2-0.2,0.4-0.5,0.3-0.9l-0.1-2.6c0-0.3-0.1-0.6-0.4-0.9
		C416.7,311,416.3,310.9,416,310.9L416,310.9z"/>
	
		<linearGradient id="SVGID_00000008849098982190896340000006014766583150096037_" gradientUnits="userSpaceOnUse" x1="396.4939" y1="15.16" x2="396.4939" y2="72.19" gradientTransform="matrix(1 0 0 -1 0 519.89)">
		<stop  offset="0" style="stop-color:#BFBFBF"/>
		<stop  offset="1" style="stop-color:#949494"/>
	</linearGradient>
	<path style="fill-rule:evenodd;clip-rule:evenodd;fill:url(#SVGID_00000008849098982190896340000006014766583150096037_);" d="
		M431.5,504.7h-10.6c0.9-2.7,0.9-8.6,0.1-17.7c-0.8-9.1-0.6-16,0.5-20.7c1.1-4.8,0.8-11-1-18.6h14.8c-2.7,18.5-4,37.2-3.8,55.9
		C431.4,504,431.4,504.4,431.5,504.7z M370,339.9c-0.1,0-0.2,0-0.3,0l-0.3,0.2l-5.3,2.4H364c-1.8,0.2-3.2-1.6-4.2-5.4l-0.8-3l0,0v0
		l-0.8-2.9v-0.1l-0.4-1.4c-0.1-0.3-0.1-0.6,0.1-0.9c0.2-0.3,0.4-0.5,0.8-0.6c0.3-0.1,0.6,0,0.9,0.1c0.3,0.1,0.5,0.4,0.6,0.7
		c-0.1-0.3,0-0.6,0.2-0.9c0.2-0.3,0.4-0.5,0.7-0.5c0.3-0.1,0.7-0.1,1,0.1c0.3,0.2,0.5,0.4,0.6,0.7c-0.1-0.3,0-0.6,0.1-0.9
		c0.2-0.3,0.4-0.5,0.8-0.6c0.3-0.1,0.6-0.1,0.9,0.1c0.3,0.2,0.5,0.4,0.6,0.7l-2-6.8c-0.1-0.3,0-0.6,0.1-0.9c0.1-0.3,0.4-0.5,0.8-0.6
		c0.3-0.1,0.6,0,0.9,0.1c0.3,0.2,0.5,0.4,0.6,0.8l2.1,7.6c1-0.4,1.7-0.1,2,0.8l1.2,4.5c0.4,1.5,0.4,3.2,0.1,4.7
		c0,0.1-0.1,0.1-0.1,0.2C370.5,338.7,370.3,339.3,370,339.9z"/>
	
		<linearGradient id="SVGID_00000024695640601138467720000004253443973226148536_" gradientUnits="userSpaceOnUse" x1="412.991" y1="125.69" x2="412.991" y2="186.59" gradientTransform="matrix(1 0 0 -1 0 519.89)">
		<stop  offset="0" style="stop-color:#414141"/>
		<stop  offset="1" style="stop-color:#5C5C5C"/>
	</linearGradient>
	<path style="fill-rule:evenodd;clip-rule:evenodd;fill:url(#SVGID_00000024695640601138467720000004253443973226148536_);" d="
		M430,381.1c-0.6,0.5-1.1,0.9-1.7,1.5l-0.1,0.1c-1.1,1.2-1.2,3-0.4,4.4c-0.1,1.1,0.5,2,1.4,2.5c-0.1,0.7,0.6,1.4,1.9,2
		c0.2,0.6,0.8,0.9,1.9,0.9c0.3,0,0.7,0,1-0.1l0.3,1.9c-3.7-0.1-7.4-0.5-11-1.1c-7.6-1.5-11-6.7-10.2-15.5v-0.2
		c0.8-8.3,2.3-16.5,4.5-24.6c2-6.7,3.5-12.5,4.5-17.4c0-0.2,0.1-0.5,0.1-0.8s0.1-0.4,0.1-0.6v0c0.3,0,0.5,0,0.8,0c0.1,0,0.2,0,0.4,0
		c0.2,0.1,0.3,0.1,0.5,0.1c1.6,0.3,3.2,0.7,4.7,1.4c1.3,0.5,2.6,1.1,3.8,1.8c1.5,0.9,3,1.8,4.4,2.8c1,0.6,2,1.3,3,2
		c6.2,4.2,12.4,8.8,18.6,14c1.9,1.6,3.3,3.7,4.1,6c0.9,2.9-0.3,5.6-3.7,8.3l-15.4,12.6c-0.6,0.4-1.1,0.5-1.5,0.2l-0.1-0.2l-4.2-5
		l-0.2-0.3c0-0.1-0.1-0.1,0-0.2c-0.2-0.4-0.1-0.8,0.4-1.2l9.7-7.5c2.9-2.2,4.3-3.5,4.1-4c0-1.7-4.4-5-13.2-10
		c-0.5-0.2-0.9-0.5-1.3-0.7l-6.3-3.4l-5.1,18.3c-0.5,1.8-0.4,3.7,0.2,5.4c0.3,0.9,0.7,1.8,1.3,2.6L430,381.1z M411,333.3
		c-0.1,0.2-0.1,0.4-0.2,0.6v0.1c-1.4,4.4-2.4,10.7-2.9,19c-0.5,8.2-0.3,16.4,0.4,24.5c0,0.6,0.1,1.1,0.2,1.6
		c0.8,8.7-4.7,13.1-16.4,13.3c0.7-5.2,2.2-10.2,4.4-14.9c0.6-1,1.1-2,1.7-3c0-0.1,0-0.1,0.1-0.1c0.2-0.4,0.5-0.9,0.7-1.4
		c0.7-1.2,1.3-2.4,1.8-3.6c0.5-1.2,0.3-3.8-0.5-8c-1.1-3.3-1.7-6.8-1.7-10.4l-0.5,0.9c-0.1,0.3-0.3,0.5-0.5,0.8
		c-1,1.7-2.1,3.4-3.4,5c-0.3,0.3-0.5,0.7-0.9,1c-0.1,0.2-0.3,0.3-0.5,0.4c-3.3,3.8-7.4,6.8-12.1,8.6c-0.8,0.3-1.6,0.4-2.4,0.5
		c-3,0.2-5.4-1.7-7.2-5.6l-8.3-18c-0.4-0.7-0.3-1.2,0.2-1.5l0.2-0.2l0.6-0.3l5.3-2.4l0.3-0.2c0.1,0,0.2-0.1,0.3,0
		c0.4,0,0.8,0.2,1,0.8l4.9,11.2c1.3,3.3,2.3,5,3,5c2.5,0.9,5.3-1.2,8.7-6.5c3.3-5.3,5.1-8,5.2-8.2c1.4-2,3-3.8,4.9-5.4
		c0.9-0.7,1.9-1.2,3-1.5c0.1,0,0.3,0,0.4-0.1h0L411,333.3z"/>
	
		<linearGradient id="SVGID_00000044861447298417151850000011809514526825838264_" gradientUnits="userSpaceOnUse" x1="406.0517" y1="196.6796" x2="413.6216" y2="200.9996" gradientTransform="matrix(1 0 0 -1 0 519.89)">
		<stop  offset="0" style="stop-color:#313131"/>
		<stop  offset="1" style="stop-color:#7A7A7A"/>
	</linearGradient>
	<path style="fill-rule:evenodd;clip-rule:evenodd;fill:url(#SVGID_00000044861447298417151850000011809514526825838264_);" d="
		M409.1,321.4c-1.8,0.9-3,2.6-3.4,4.5c-0.3-0.2-0.5-0.4-0.7-0.7c-0.1-0.1-0.2-0.4-0.5-0.8c-0.2-0.4-0.4-0.9-0.5-1.3l0,0
		c-0.2-0.4-0.1-0.8,0.1-1.2c0.1-0.1,0.3-0.2,0.5-0.2L409.1,321.4z"/>
	
		<linearGradient id="SVGID_00000085969154039004364870000005365747254999843729_" gradientUnits="userSpaceOnUse" x1="413.82" y1="198.9857" x2="406.73" y2="192.9157" gradientTransform="matrix(1 0 0 -1 0 519.89)">
		<stop  offset="0" style="stop-color:#787878"/>
		<stop  offset="1" style="stop-color:#7A7A7A"/>
	</linearGradient>
	<path style="fill-rule:evenodd;clip-rule:evenodd;fill:url(#SVGID_00000085969154039004364870000005365747254999843729_);" d="
		M405.8,325.9c0.4-1.9,1.6-3.6,3.4-4.5l4.5-0.2c0.5,0,0.8,0.4,0.8,0.8c0,0,0,0,0,0c0,0.2,0,0.3,0,0.5v0.1c-0.1,0.3-0.2,0.6-0.3,0.9
		c-0.2,0.5-0.3,0.7-0.4,0.9c-0.6,1.5-2,2.3-4.2,2.4c-0.7,0-1.5,0-2.2-0.2c-0.4-0.1-0.8-0.2-1.2-0.5L405.8,325.9z"/>
	
		<linearGradient id="SVGID_00000049940256083619463510000014719878295354183862_" gradientUnits="userSpaceOnUse" x1="416.6266" y1="191.23" x2="416.6266" y2="182.3392" gradientTransform="matrix(1 0 0 -1 0 519.89)">
		<stop  offset="0" style="stop-color:#767676"/>
		<stop  offset="1" style="stop-color:#949494"/>
	</linearGradient>
	<path style="fill-rule:evenodd;clip-rule:evenodd;fill:url(#SVGID_00000049940256083619463510000014719878295354183862_);" d="
		M411.6,331.8c-0.1-0.5-0.2-1-0.4-1.5c2.5-0.3,4.9-0.8,7.2-1.6c0,0.2,0,0.5,0,0.7c0,0.5,0,0.9,0,1.2c0.1,0.4,0.2,0.8,0.4,1.2
		c0.1,0.1,0.1,0.1,0.1,0.2c0.3,0.4,0.7,0.8,1.1,1c0.2,0.1,0.3,0.1,0.5,0.2c0.1,0,0.1,0,0.2,0c0,0,0.1,0,0.1,0c0.1,0,0.3,0.1,0.4,0.1
		c0.2,0,0.4,0,0.7,0.1h0.5l0,0.6v0.1c0,0.2-0.1,0.5-0.1,0.6c-0.1,0.1-0.1,0.2-0.2,0.2c-2.4,2.2-5,3-7.7,2.6
		c-1.9-0.1-3.4-1.6-3.6-3.5c0,0,0-0.1,0-0.1c0-0.2,0.1-0.4,0.2-0.6c0.2-0.1,0.3-0.2,0.4-0.4C411.6,332.6,411.7,332.2,411.6,331.8z"
		/>
	
		<linearGradient id="SVGID_00000169529233779423551730000013969676304242310806_" gradientUnits="userSpaceOnUse" x1="414.3402" y1="72.32" x2="414.3402" y2="186.15" gradientTransform="matrix(1 0 0 -1 0 519.89)">
		<stop  offset="0" style="stop-color:#525252"/>
		<stop  offset="1" style="stop-color:#9E9E9E"/>
	</linearGradient>
	<path style="fill-rule:evenodd;clip-rule:evenodd;fill:url(#SVGID_00000169529233779423551730000013969676304242310806_);" d="
		M410.8,447.7H396c-3-18.3-4.3-36.8-4-55.3c11.8-0.1,17.3-4.6,16.4-13.3c-0.1-0.5-0.1-1-0.2-1.6c-0.7-8.1-0.9-16.3-0.4-24.5
		c0.6-8.3,1.6-14.6,2.9-19v-0.1c0,0,0,0.1,0,0.1c0.2,1.9,1.7,3.3,3.6,3.5c2.7,0.4,5.3-0.4,7.7-2.6c0.1,0,0.2-0.1,0.2-0.2
		c0,0.2-0.1,0.5-0.1,0.8c-1,4.9-2.5,10.7-4.5,17.4c-2.2,8-3.7,16.3-4.5,24.6v0.2c-0.8,8.8,2.6,14,10.2,15.5c3.6,0.7,7.3,1,11,1.1
		c2.8,17.7,3.1,35.7,0.9,53.5L410.8,447.7L410.8,447.7z"/>
	
		<linearGradient id="SVGID_00000027599149972120676610000006620272834398773935_" gradientUnits="userSpaceOnUse" x1="429.3636" y1="129.6364" x2="439.8137" y2="140.0764" gradientTransform="matrix(1 0 0 -1 0 519.89)">
		<stop  offset="0" style="stop-color:#BFBFBF"/>
		<stop  offset="1" style="stop-color:#949494"/>
	</linearGradient>
	<path style="fill-rule:evenodd;clip-rule:evenodd;fill:url(#SVGID_00000027599149972120676610000006620272834398773935_);" d="
		M430,381.1c1-0.7,2-1.3,3-2c1.9-1.3,3.6-1.7,5.1-1.2l4.1,5c0.3,1.2-1.3,3.1-4.7,5.6c0.6,1.6,0.1,2.7-1.5,3.5
		c-0.6,0.2-1.3,0.3-1.9,0.3c-0.3,0.1-0.7,0.1-1,0.1c-1,0-1.7-0.3-1.9-0.9c-1.3-0.6-2-1.3-1.9-2c-1-0.4-1.5-1.4-1.4-2.5
		c-0.8-1.4-0.6-3.2,0.4-4.4l0.1-0.1C428.9,382,429.4,381.5,430,381.1z"/>
	
		<linearGradient id="SVGID_00000168100751110830851390000016533949814256317855_" gradientUnits="userSpaceOnUse" x1="403.41" y1="15.16" x2="403.41" y2="72.19" gradientTransform="matrix(1 0 0 -1 0 519.89)">
		<stop  offset="0" style="stop-color:#BFBFBF"/>
		<stop  offset="1" style="stop-color:#949494"/>
	</linearGradient>
	<path style="fill-rule:evenodd;clip-rule:evenodd;fill:url(#SVGID_00000168100751110830851390000016533949814256317855_);" d="
		M410.4,504.7h-10.6c0-0.4,0-0.7,0-1.1c0.1-18.7-1.2-37.4-3.9-55.9h14.8c-1.8,7.6-2.2,13.8-1,18.6c1.1,4.7,1.3,11.7,0.5,20.7
		C409.6,496.2,409.6,502,410.4,504.7z"/>
	<path class="st8" d="M358.4,423.1c0.4,4.1-0.5,9-2.9,14.7c-1,2.4-1.8,2.2-2.5-0.6c-0.5-2.6-2.7-4.6-5.3-4.9
		c-3.1-0.5-4.2-1.2-3.4-2.1c4.5-4.9,8.7-7.6,12.5-8.1C357.9,422,358.4,422.3,358.4,423.1z M327.6,428.6c0.8-3.5,1.9-6.8,3.3-10.1
		c1.2-2.8,2-3.6,2.4-2.3c0.7,2.5,0.7,6.4-0.2,11.6c-1.6,0-3.1,0.2-4.6,0.5C328.2,428.5,327.9,428.5,327.6,428.6L327.6,428.6z
		 M332.6,446c-1.1-1.3-1.5-2-1-2.2c0.2-0.1,0.8,0.1,1.9,0.5c0,0.2-0.1,0.5-0.2,0.7C333.2,445.4,333,445.7,332.6,446L332.6,446z
		 M318.2,442l0.4-1.7c0.2-0.5,0.4-0.6,0.6-0.3c-0.1,0.3-0.3,0.7-0.5,1C318.7,441.4,318.5,441.7,318.2,442z"/>
	<path class="st60" d="M314.1,444.1c0.8,0.1,1.7,0.4,2.5,0.7c0.1,0,0.1,0,0.2,0l0.5,0.3c1.3,0.7,1.4,1.5,0.4,2.5
		c-1,1-2.5,1.4-3.9,1.1c-0.9-0.2-1.6-0.9-1.7-1.9c-0.1-0.2-0.1-0.4-0.1-0.7v-0.4l0.1-0.6c0-0.1,0.1-0.3,0.2-0.4
		c0.2-0.5,0.7-0.7,1.3-0.6h0.1L314.1,444.1z M319.1,456.1c-2.1-0.1-4.2-0.6-6.1-1.5c-1.3-0.5-2.1-1.9-1.8-3.3c0,1.8,2,3,6,3.7
		c3.5,0.6,7,0.8,10.6,0.3c3.1-0.5,2.2,0.7-2.5,3.4c0.4-0.2,0.8-0.5,1.1-0.9c1.2-1.2-0.2-1.8-4.2-1.6
		C321,456.1,320,456.1,319.1,456.1L319.1,456.1z"/>
	<path class="st61" d="M347.6,515.8c-0.6,0.9-0.8,2-0.7,3.1c0.1,0.3,0.1,0.7,0.2,1h-8.8c1.1-0.3,1.8-1.4,2.1-3.3
		c0-0.2,0-0.3,0.1-0.5c0-0.3,0.1-0.6,0.1-0.9c0.1-0.8,0.2-1.5,0.4-2.3C343,514.2,345.3,515.2,347.6,515.8z"/>
	<path class="st62" d="M350.9,509.2c0.5,0.8,0.6,1.8,0.3,2.7c-0.2,0.5-0.4,0.9-0.8,1.3l-0.2,0.2c-0.3,0.2-0.5,0.5-0.8,0.7
		c-0.7,0.5-1.3,1-1.7,1.7c-2.4-0.5-4.6-1.5-6.6-2.9c0.1-0.8,0.3-1.7,0.5-2.6l1-6.9C344.7,506,347.6,508,350.9,509.2z"/>
	
		<linearGradient id="SVGID_00000152222214321069572010000012038052797482165632_" gradientUnits="userSpaceOnUse" x1="365.3877" y1="107.8948" x2="336.6677" y2="64.9248" gradientTransform="matrix(1 0 0 -1 0 519.89)">
		<stop  offset="0" style="stop-color:#EFEFEF"/>
		<stop  offset="1" style="stop-color:#787878"/>
	</linearGradient>
	<path style="fill-rule:evenodd;clip-rule:evenodd;fill:url(#SVGID_00000152222214321069572010000012038052797482165632_);" d="
		M361,461.8c-2.1-1.8-5.8-3.3-11.3-4.5s-7.7-2.3-6.9-3.5c4.3-9.4,3.9-16-1.2-19.8c-5.5-3.1-10.5-2.8-15,0.9c0.4-2.9-0.3-4.5-2.2-5
		c0.6-0.3,1.2-0.6,1.8-0.9l0,0c0.4-0.2,0.8-0.3,1.2-0.4c0.1,0,0.1-0.1,0.2-0.1c0.3-0.1,0.5-0.1,0.8-0.2c1.5-0.3,3.1-0.5,4.6-0.5
		c1,0,2.1,0.1,3.2,0.2c0.9,0.1,1.8,0.2,2.7,0.4s1.6,0.3,2.4,0.5c0.3,0.1,0.6,0.1,0.8,0.2c0.5-0.6,1-1.3,1.6-1.9
		c4.3-4.9,9.5-7.2,15.5-7c0.2,0,0.4,0,0.6,0.1c0.1,0,0.2,0,0.4,0.1c1.2,0.4,1.8,1.4,1.7,3.1c-0.1,8.5-1,17-2.5,25.4
		c0,0.2-0.1,1.8-0.4,4.7C358.7,457,359.3,459.7,361,461.8z M358.5,423.1c0-0.8-0.5-1.2-1.6-1c-3.8,0.5-7.9,3.2-12.5,8.1
		c-0.8,1,0.3,1.7,3.4,2.1c2.7,0.3,4.9,2.3,5.3,4.9c0.7,2.8,1.5,3,2.5,0.6C357.9,432.1,358.8,427.2,358.5,423.1L358.5,423.1z"/>
	
		<linearGradient id="SVGID_00000045581586284832039560000016969111429837517193_" gradientUnits="userSpaceOnUse" x1="328.3934" y1="103.3663" x2="335.5434" y2="88.2563" gradientTransform="matrix(1 0 0 -1 0 519.89)">
		<stop  offset="0" style="stop-color:#EFEFEF"/>
		<stop  offset="1" style="stop-color:#787878"/>
	</linearGradient>
	<path style="fill-rule:evenodd;clip-rule:evenodd;fill:url(#SVGID_00000045581586284832039560000016969111429837517193_);" d="
		M333.1,427.9c0.9-5.2,1-9.1,0.2-11.6c-0.4-1.3-1.2-0.5-2.4,2.3c-1.4,3.2-2.5,6.6-3.3,10.1c-0.1,0-0.1,0-0.2,0.1
		c-0.4,0.1-0.8,0.2-1.2,0.4c2.1-7.3,3.9-11.9,5.6-13.8c0.1-0.2,0.3-0.3,0.4-0.5c1.4-1.2,2.9-0.4,4.4,2.4c2.1,3.7,3.7,7.6,4.7,11.7
		c-0.8-0.2-1.6-0.4-2.4-0.5s-1.8-0.3-2.7-0.4C335.2,428,334.1,427.9,333.1,427.9z"/>
	
		<linearGradient id="SVGID_00000005262107099066115620000016797299268242496930_" gradientUnits="userSpaceOnUse" x1="315.5014" y1="114.073" x2="337.6115" y2="55.703" gradientTransform="matrix(1 0 0 -1 0 519.89)">
		<stop  offset="0" style="stop-color:#FFFFFF"/>
		<stop  offset="1" style="stop-color:#E1E1E1"/>
	</linearGradient>
	<path style="fill-rule:evenodd;clip-rule:evenodd;fill:url(#SVGID_00000005262107099066115620000016797299268242496930_);" d="
		M348.5,469.1l-30.1,1.3c-1.6-3.4-3.5-6.7-5.7-9.9c-3-4.5-4.3-7.5-4-9c0.6-2.2,1.7-4.1,3.2-5.8v0.4c0,0.2,0.1,0.5,0.1,0.7
		c0.1,0.9,0.8,1.7,1.7,1.9c1.4,0.4,2.9-0.1,3.9-1.1c1-1,0.9-1.9-0.4-2.5l-0.5-0.3c-0.1,0-0.1,0-0.2,0c-0.8-0.3-1.6-0.6-2.5-0.7
		c-0.1,0-0.2,0-0.3,0c0.9-0.9,1.7-1.9,2.3-3.1c1.7-5.3,4.5-8.9,8.3-11c1.9,0.5,2.7,2.1,2.2,5c4.5-3.7,9.5-4,15-0.9
		c5.1,3.8,5.5,10.4,1.2,19.8c-1,1.2,1.3,2.3,6.9,3.5s9.3,2.6,11.3,4.5c0.2,0.3,0.5,0.5,0.7,0.8c-1,0.9-2.3,1.5-3.6,1.7l3.6,0.9
		C357.7,467.7,353.2,469,348.5,469.1z M332.6,446c0.3-0.2,0.6-0.6,0.7-1c0.1-0.2,0.1-0.5,0.2-0.7c0-0.6-0.1-1.2-0.3-1.8
		c-0.2-1-0.7-1.5-1.4-1.5c-0.8,0-1.6,0.3-2.1,0.8c-0.6,0.4-1.1,1.1-1.3,1.8c-0.2,0.5-0.1,1.1,0.1,1.6c0.4,0.5,0.9,0.8,1.5,1
		c0.7,0.2,1.4,0.2,2.1,0L332.6,446z M318.2,442c0.3-0.3,0.5-0.6,0.6-1c0.2-0.3,0.3-0.7,0.5-1c0.1-0.4,0.3-0.8,0.4-1.3
		c0.2-0.8,0.2-1.2-0.1-1.2c-0.5,0.2-1,0.5-1.3,1c-0.5,0.6-1,1.2-1.3,1.9c-0.3,0.4-0.4,0.9-0.5,1.4c-0.1,0.3,0.1,0.6,0.4,0.7
		c0.3,0.1,0.6,0,1-0.3L318.2,442z M313,454.6l1.6,3.9c0.9,2.3,2.7,3.1,5.2,2.3c1.6-0.5,3.2-1.1,4.7-1.9c0.1-0.1,0.3-0.1,0.4-0.2
		l0.2-0.1c0,0,0.1,0,0.1,0c4.8-2.7,5.6-3.8,2.5-3.4c-3.5,0.5-7.1,0.3-10.6-0.3c-4-0.7-6-1.9-6-3.7
		C310.9,452.7,311.7,454.1,313,454.6z"/>
	
		<linearGradient id="SVGID_00000150103715189274745410000005870224120337791922_" gradientUnits="userSpaceOnUse" x1="330.9261" y1="73.6199" x2="330.7761" y2="78.9699" gradientTransform="matrix(1 0 0 -1 0 519.89)">
		<stop  offset="0" style="stop-color:#242424"/>
		<stop  offset="1" style="stop-color:#B0B0B0"/>
	</linearGradient>
	<path style="fill-rule:evenodd;clip-rule:evenodd;fill:url(#SVGID_00000150103715189274745410000005870224120337791922_);" d="
		M333.5,444.2c-1.1-0.5-1.7-0.6-1.9-0.5c-0.5,0.2-0.1,1,1,2.2l-0.6,0.2c-0.7,0.2-1.4,0.2-2.1,0c-0.6-0.2-1.1-0.5-1.5-1
		c-0.2-0.5-0.3-1.1-0.1-1.6c0.2-0.7,0.7-1.4,1.3-1.8c0.6-0.5,1.4-0.8,2.1-0.8c0.7,0,1.1,0.5,1.4,1.5
		C333.4,443,333.5,443.6,333.5,444.2z"/>
	
		<linearGradient id="SVGID_00000148633111489384066680000009373308621919638436_" gradientUnits="userSpaceOnUse" x1="317.84" y1="47.8986" x2="348.6749" y2="47.8986" gradientTransform="matrix(1 0 0 -1 0 519.89)">
		<stop  offset="0.13" style="stop-color:#797979"/>
		<stop  offset="0.65" style="stop-color:#3A3A3A"/>
		<stop  offset="1" style="stop-color:#7B7B7B"/>
	</linearGradient>
	<path style="fill-rule:evenodd;clip-rule:evenodd;fill:url(#SVGID_00000148633111489384066680000009373308621919638436_);" d="
		M334.2,473.9l-15.5,0.9c-0.3,0.1-0.5-0.1-0.6-0.4c0-0.1,0-0.1,0-0.2l-0.2-3.3c0-0.4,0.1-0.6,0.5-0.6l30.1-1.3l0.2,3.3
		c0.1,0.3-0.1,0.5-0.4,0.6c0,0-0.1,0-0.1,0L334.2,473.9z"/>
	
		<linearGradient id="SVGID_00000009556314338073664000000002188161734867498424_" gradientUnits="userSpaceOnUse" x1="355.4922" y1="8.6491" x2="332.9922" y2="45.2591" gradientTransform="matrix(1 0 0 -1 0 519.89)">
		<stop  offset="0" style="stop-color:#5C5C5C"/>
		<stop  offset="1" style="stop-color:#A1A1A1"/>
	</linearGradient>
	<path style="fill-rule:evenodd;clip-rule:evenodd;fill:url(#SVGID_00000009556314338073664000000002188161734867498424_);" d="
		M368.3,489.3c3.4,2.7,5.3,6.8,5,11.1c-1.8-3-4.3-5.6-7.3-7.4c-2.5-1.4-5.3-2.1-8.2-2.1c-3.6,0.1-6.2,0.9-7.8,2.4
		c-3.1,2.8-2.8,8.1,0.9,15.8c-3.3-1.1-6.1-3.1-8.4-5.8l-1,6.9l-2.7,3.1l-2.3-3.4l-3,2.8l-1.6-3.1l-2.7,2.8l-1.1-3.2
		c0.1-0.5,0.2-1,0.2-1.5c0-0.2,0-0.4,0-0.6v-1c0-0.3,0-0.6,0-0.9c0-1.1-0.1-2.2-0.3-3.3c-0.1-0.8-0.3-1.5-0.5-2.3
		c-0.3-1-0.5-2.1-0.7-3.1c-0.9-5.7-0.4-10.3,1.6-14c1.6-3.1,3.6-6.1,5.9-8.8l14-0.8c2.4,5,7.7,9.6,16.1,13.7
		C365.7,487.5,367,488.3,368.3,489.3z"/>
	
		<linearGradient id="SVGID_00000054223532209202524350000007300026835001636796_" gradientUnits="userSpaceOnUse" x1="387.6563" y1="43.2993" x2="354.7563" y2="-14.1707" gradientTransform="matrix(1 0 0 -1 0 519.89)">
		<stop  offset="0" style="stop-color:#FFFFFF"/>
		<stop  offset="0.59" style="stop-color:#A1A1A1"/>
	</linearGradient>
	<path style="fill-rule:evenodd;clip-rule:evenodd;fill:url(#SVGID_00000054223532209202524350000007300026835001636796_);" d="
		M367.9,519.9c-0.9-0.9,0.8-2.1,5.1-3.7c2.4-0.6,5.2-2.9,8.2-6.9c3-4,3.6-5.6,1.8-4.8c-2.7,1.2-3.4-0.1-2-3.8
		c1.4-3.7,1.4-5.1-0.1-4.3s-3.4-1.6-5.6-7.3c-2.5-5.8-4.8-9.8-6.8-11.9c1.8,1,3.4,2.2,4.8,3.7c3.1,2.7,5.8,5.8,8.2,9.2
		c0.8,1.4,1.8,1.4,2.9,0.1c0.7-0.1,1.8,1.4,3.3,4.4c1.5,3.1,1,6.8-1.3,11.3c-0.7,1.6-0.7,3.3,0,4.9c0.6,1.8-2,3.3-8,4.5
		c-2.3,0.5-3.3,1.3-3,2.5c0.5,1.4-1.6,2.1-6.2,2.2H367.9z"/>
	
		<linearGradient id="SVGID_00000014627997318835809540000004258336449207422371_" gradientUnits="userSpaceOnUse" x1="-8106.5195" y1="-2150.2939" x2="-8100.8491" y2="-2150.2939" gradientTransform="matrix(0.38 -0.93 -0.93 -0.36 1387.2377 -7844.4199)">
		<stop  offset="0" style="stop-color:#242424"/>
		<stop  offset="1" style="stop-color:#B0B0B0"/>
	</linearGradient>
	<path style="fill-rule:evenodd;clip-rule:evenodd;fill:url(#SVGID_00000014627997318835809540000004258336449207422371_);" d="
		M319.3,440.1c-0.3-0.4-0.5-0.3-0.6,0.3l-0.4,1.7l-0.4,0.3c-0.4,0.3-0.8,0.4-1,0.3c-0.3-0.1-0.4-0.4-0.4-0.7c0.1-0.5,0.3-1,0.5-1.4
		c0.4-0.7,0.8-1.3,1.3-1.9c0.3-0.5,0.8-0.8,1.3-1c0.3-0.1,0.4,0.3,0.1,1.2C319.6,439.3,319.5,439.7,319.3,440.1z"/>
	
		<linearGradient id="SVGID_00000145019761879943172190000006443082693265984384_" gradientUnits="userSpaceOnUse" x1="325.5632" y1="65.0245" x2="316.1532" y2="59.5645" gradientTransform="matrix(1 0 0 -1 0 519.89)">
		<stop  offset="0" style="stop-color:#686868"/>
		<stop  offset="0.63" style="stop-color:#7A7A7A"/>
	</linearGradient>
	<path style="fill-rule:evenodd;clip-rule:evenodd;fill:url(#SVGID_00000145019761879943172190000006443082693265984384_);" d="
		M314.6,458.5c0.2-1.2,1.7-2,4.5-2.4c1,0,2,0,3.1,0c4-0.1,5.4,0.4,4.2,1.6c-0.3,0.4-0.7,0.7-1.1,0.9c0,0-0.1,0-0.1,0l-0.2,0.1
		c-0.1,0.1-0.3,0.2-0.4,0.2c-1.5,0.7-3.1,1.3-4.7,1.9C317.2,461.6,315.5,460.8,314.6,458.5z"/>
	
		<linearGradient id="SVGID_00000174588727905428888820000002302276738970002569_" gradientUnits="userSpaceOnUse" x1="315.2388" y1="63.2945" x2="314.1988" y2="61.6245" gradientTransform="matrix(1 0 0 -1 0 519.89)">
		<stop  offset="0" style="stop-color:#686868"/>
		<stop  offset="1" style="stop-color:#7A7A7A"/>
	</linearGradient>
	<path style="fill-rule:evenodd;clip-rule:evenodd;fill:url(#SVGID_00000174588727905428888820000002302276738970002569_);" d="
		M314.6,458.5l-1.6-3.9c1.9,0.9,4,1.4,6.1,1.5C316.2,456.5,314.8,457.3,314.6,458.5z"/>
	
		<linearGradient id="SVGID_00000087394276556796347440000009868311509861394830_" gradientUnits="userSpaceOnUse" x1="332.8899" y1="29.6694" x2="315.5598" y2="34.9595" gradientTransform="matrix(1 0 0 -1 0 519.89)">
		<stop  offset="0" style="stop-color:#C5C5C5"/>
		<stop  offset="1" style="stop-color:#FFFFFF"/>
	</linearGradient>
	<path style="fill-rule:evenodd;clip-rule:evenodd;fill:url(#SVGID_00000087394276556796347440000009868311509861394830_);" d="
		M318.7,474.8l15.5-0.9c-2.3,2.7-4.2,5.7-5.9,8.8c-2,3.7-2.5,8.4-1.6,14c0.2,1,0.4,2.1,0.7,3.1c0.2,0.8,0.4,1.5,0.5,2.3
		c0.2,1.1,0.3,2.2,0.3,3.3c-5.1-6.4-8.2-14.8-9.2-25.3c0-0.3,0-0.5-0.1-0.8l-0.1-1.6c0-0.1,0-0.1,0-0.2l-0.2-1.9
		C318.7,475.5,318.7,475.2,318.7,474.8z"/>
	
		<linearGradient id="SVGID_00000071553347719055390970000017994434047414014350_" gradientUnits="userSpaceOnUse" x1="321.7416" y1="13.5566" x2="318.9716" y2="-3.9834" gradientTransform="matrix(1 0 0 -1 0 519.89)">
		<stop  offset="0" style="stop-color:#5C5C5C"/>
		<stop  offset="0.59" style="stop-color:#A1A1A1"/>
	</linearGradient>
	<path style="fill-rule:evenodd;clip-rule:evenodd;fill:url(#SVGID_00000071553347719055390970000017994434047414014350_);" d="
		M319,480.2c1,10.5,4.1,18.9,9.2,25.3c0,0.3,0,0.6,0,0.9v1c0,0.2,0,0.5,0,0.6c-0.1,0.5-0.1,1-0.2,1.5c-0.1,0.8-0.3,1.6-0.5,2.4
		l-1.3-2.1l-2.4,3.6l-1.4-4.4c-0.2-4.3-0.7-8.6-1.7-12.9C319.9,490.9,319.3,485.6,319,480.2z"/>
	
		<linearGradient id="SVGID_00000042720198514341003380000007764801690304219050_" gradientUnits="userSpaceOnUse" x1="329.57" y1="5.41" x2="321.32" y2="5.41" gradientTransform="matrix(1 0 0 -1 0 519.89)">
		<stop  offset="0" style="stop-color:#D3D3D3"/>
		<stop  offset="1" style="stop-color:#EEEEEE"/>
	</linearGradient>
	<path style="fill-rule:evenodd;clip-rule:evenodd;fill:url(#SVGID_00000042720198514341003380000007764801690304219050_);" d="
		M327.5,511.9c-0.5,1.6-1.1,3.2-1.8,4.8c-1.2,2,0.2,3.1,4,3.2h-6.5c-1.7-0.1-2.2-1.3-1.5-3.5c0.5-2.4,0.7-4.9,0.8-7.4l1.3,4.3
		l2.4-3.6L327.5,511.9z"/>
	
		<linearGradient id="SVGID_00000097498223527380447680000011737933748631277226_" gradientUnits="userSpaceOnUse" x1="330.6852" y1="6.3883" x2="342.4551" y2="1.4983" gradientTransform="matrix(1 0 0 -1 0 519.89)">
		<stop  offset="0" style="stop-color:#FFFFFF"/>
		<stop  offset="1" style="stop-color:#C2C2C2"/>
	</linearGradient>
	<path style="fill-rule:evenodd;clip-rule:evenodd;fill:url(#SVGID_00000097498223527380447680000011737933748631277226_);" d="
		M341,512.9c-0.1,0.8-0.2,1.6-0.4,2.3c-0.1,0.3-0.1,0.6-0.1,0.9c0,0.2-0.1,0.3-0.1,0.5c-0.3,1.9-1,3-2.1,3.3h-8.6
		c-3.8-0.1-5.1-1.2-4-3.2c0.8-1.5,1.4-3.1,1.8-4.8c0.2-0.8,0.4-1.6,0.5-2.4l1.2,3.2l2.7-2.8l1.6,3.1l3-2.8l2.3,3.4l2.7-3.1
		C341.3,511.2,341.2,512.1,341,512.9z"/>
	
		<linearGradient id="SVGID_00000042010628793207872740000015617351918524631742_" gradientUnits="userSpaceOnUse" x1="356.6711" y1="9.8888" x2="378.7311" y2="29.6488" gradientTransform="matrix(1 0 0 -1 0 519.89)">
		<stop  offset="0" style="stop-color:#5C5C5C"/>
		<stop  offset="1" style="stop-color:#A1A1A1"/>
	</linearGradient>
	<path style="fill-rule:evenodd;clip-rule:evenodd;fill:url(#SVGID_00000042010628793207872740000015617351918524631742_);" d="
		M368.8,514.5c2.9-5.4,4.4-10.1,4.5-14.1c0.2-4.3-1.7-8.5-5-11.1c1.5-2.3,1.5-6.3,0.3-12.1c2,2.1,4.3,6,6.8,11.9
		c2.2,5.7,4.1,8.1,5.6,7.3c1.5-0.9,1.5,0.6,0.1,4.3s-0.8,5,2,3.8c1.9-0.8,1.3,0.8-1.8,4.8c-3.1,4-5.8,6.3-8.3,6.9
		c-4.3,1.6-6,2.8-5.1,3.7h-2.2c0.9-0.2,1.6-1.3,2.4-3.1c0-0.1,0.1-0.2,0.2-0.3C368.4,515.9,368.6,515.2,368.8,514.5z"/>
	
		<linearGradient id="SVGID_00000174602328107124676220000005049749752192541350_" gradientUnits="userSpaceOnUse" x1="372.8018" y1="15.2337" x2="347.4318" y2="18.5637" gradientTransform="matrix(1 0 0 -1 0 519.89)">
		<stop  offset="0" style="stop-color:#5C5C5C"/>
		<stop  offset="1" style="stop-color:#A1A1A1"/>
	</linearGradient>
	<path style="fill-rule:evenodd;clip-rule:evenodd;fill:url(#SVGID_00000174602328107124676220000005049749752192541350_);" d="
		M351.2,511.9c0.3-0.9,0.1-1.9-0.3-2.7c-3.7-7.7-3.9-13-0.9-15.8c1.6-1.5,4.2-2.3,7.8-2.4c2.9-0.1,5.7,0.6,8.2,2.1
		c3,1.9,5.5,4.4,7.3,7.4c-0.1,4-1.6,8.7-4.5,14.1l-1.3,1.1l-1.9-2.2l-2.1,1.6l-2.7-2.1l-3.7,1.7l-2-2.4l-4,1.4L351.2,511.9z"/>
	
		<linearGradient id="SVGID_00000148639334151670059540000007654875470372544134_" gradientUnits="userSpaceOnUse" x1="347.8256" y1="5.6745" x2="367.1956" y2="0.1345" gradientTransform="matrix(1 0 0 -1 0 519.89)">
		<stop  offset="0" style="stop-color:#FFFFFF"/>
		<stop  offset="1" style="stop-color:#C2C2C2"/>
	</linearGradient>
	<path style="fill-rule:evenodd;clip-rule:evenodd;fill:url(#SVGID_00000148639334151670059540000007654875470372544134_);" d="
		M347.1,519.9c-0.1-0.4-0.2-0.7-0.2-1c-0.1-1.1,0.2-2.2,0.7-3.1c0.5-0.7,1-1.3,1.7-1.7c0.3-0.2,0.5-0.4,0.8-0.7l0.2-0.2
		c0.3-0.4,0.6-0.8,0.8-1.3v1.8l4-1.4l2,2.4l3.7-1.7l2.7,2.1l2.1-1.7l1.9,2.2l1.3-1.1c-0.2,0.7-0.4,1.4-0.6,2
		c-0.1,0.1-0.1,0.2-0.2,0.3c-0.7,1.8-1.5,2.8-2.4,3.1L347.1,519.9z"/>
	<polygon class="st80" points="83.2,353.8 101.4,353.8 93.9,341.9 94.1,319.6 72.2,329.3 	"/>
	<path class="st81" d="M137.5,329.4c5.3,0.2,8.1-0.6,8.2-2.4c0.1-1.4-0.1-2-0.6-1.6c-0.3,0.2-0.6,0.3-1,0.4c0.5,1.7-0.5,2.6-2.9,2.8
		C138.8,328.8,137.5,329.1,137.5,329.4z"/>
	<path class="st49" d="M139.9,315c-0.2,0.1-0.3,0.4-0.3,0.6c0,0.2,0.1,0.4,0.2,0.5c0,0,0.1,0,0.1,0.1c0.1,0.1,0.2,0.2,0.4,0.2h2.4
		c0.2,0,0.4-0.1,0.6-0.2c0.2-0.2,0.3-0.4,0.3-0.6c0-0.2-0.1-0.5-0.3-0.6c-0.1-0.2-0.3-0.2-0.6-0.2h-2.2
		C140.2,314.8,140,314.8,139.9,315z"/>
	
		<linearGradient id="SVGID_00000070841573294958205510000012056039701559591822_" gradientUnits="userSpaceOnUse" x1="-189.23" y1="215.505" x2="-230.23" y2="215.505" gradientTransform="matrix(-1 0 0 -1 -61.4 519.89)">
		<stop  offset="0.38" style="stop-color:#B8B8B8"/>
		<stop  offset="1" style="stop-color:#A2A2A2"/>
	</linearGradient>
	<path style="fill-rule:evenodd;clip-rule:evenodd;fill:url(#SVGID_00000070841573294958205510000012056039701559591822_);" d="
		M136.7,304.5c2.8,0.3,5.6,0.3,8.4,0.2c9.3-0.3,15.3,0.4,17.9,2.2s3.1,5.9,1.5,12.6c1.4-2.3,2.5-4.8,3.4-7.4
		c0.2-0.5,0.3-1.1,0.4-1.6c0.8-4.5,0.6-8-0.4-10.6c-1.4-3.3-4.3-5.2-8.7-5.6c-2.7-0.2-5.4-0.2-8.1,0c-1.1,0.1-2.3,0.2-3.4,0.3
		c-9.3,0.8-10.1-1-2.2-5.2c-5.6,1.1-10,2.9-13.2,5.3c-0.4,0.3-0.7,0.6-1,0.8v0c-0.5,0.4-1,0.9-1.4,1.3c-0.2,0.2-0.3,0.4-0.5,0.6
		c-2.1,2.4-2,4.2,0.5,5.5c0.9,0.4,1.8,0.8,2.8,1C134,304.1,135.3,304.4,136.7,304.5z"/>
	
		<linearGradient id="SVGID_00000145032186338134138820000018134943558415951026_" gradientUnits="userSpaceOnUse" x1="-206.2662" y1="215.37" x2="-206.2662" y2="186.8044" gradientTransform="matrix(-1 0 0 -1 -61.4 519.89)">
		<stop  offset="0" style="stop-color:#BFBFBF"/>
		<stop  offset="1" style="stop-color:#949494"/>
	</linearGradient>
	<path style="fill-rule:evenodd;clip-rule:evenodd;fill:url(#SVGID_00000145032186338134138820000018134943558415951026_);" d="
		M137,314.2l-0.3-9.6c2.8,0.3,5.6,0.3,8.4,0.2c5.6,0.3,8.3,4.6,7.8,12.8c-0.2,3.2-2.8,4.7-7.6,4.7h-8.1L137,314.2z M139.6,315.6
		c0,0.2,0.1,0.4,0.2,0.5c0,0,0.1,0,0.1,0.1c0.1,0.1,0.2,0.2,0.4,0.2h2.4c0.2,0,0.4-0.1,0.6-0.2c0.2-0.2,0.3-0.4,0.3-0.6
		c0-0.2-0.1-0.5-0.3-0.6c-0.1-0.2-0.3-0.2-0.6-0.2h-2.2c-0.2,0-0.4,0.1-0.6,0.2C139.7,315.2,139.6,315.4,139.6,315.6L139.6,315.6z
		 M142.3,326.1H138c-0.6,0-0.8-0.6-0.7-2h8.7c1.4,0.1,1.4,2.2,0.2,6.3c-1,2.8-2.1,3.4-3.1,1.8c-0.8-1-2-1.5-3.2-1.4h-2.4v-1.4
		c5.3,0.2,8.1-0.6,8.2-2.4c0.1-1.4-0.1-2-0.6-1.6c-0.3,0.2-0.6,0.3-1,0.4C143.5,326,142.9,326.1,142.3,326.1L142.3,326.1z"/>
	
		<linearGradient id="SVGID_00000032639172186505848030000010252733960084470915_" gradientUnits="userSpaceOnUse" x1="-198.2043" y1="197.6085" x2="-196.2543" y2="205.1185" gradientTransform="matrix(-1 0 0 -1 -61.4 519.89)">
		<stop  offset="0" style="stop-color:#BFBFBF"/>
		<stop  offset="1" style="stop-color:#949494"/>
	</linearGradient>
	<path style="fill-rule:evenodd;clip-rule:evenodd;fill:url(#SVGID_00000032639172186505848030000010252733960084470915_);" d="
		M137.3,322.2l-0.3-8l-2.6,4.4C133.3,320.4,134.3,321.6,137.3,322.2z"/>
	
		<linearGradient id="SVGID_00000063629827522021317050000017775399568120020902_" gradientUnits="userSpaceOnUse" x1="-217.6286" y1="208.2507" x2="-203.7586" y2="182.5107" gradientTransform="matrix(-1 0 0 -1 -61.4 519.89)">
		<stop  offset="0" style="stop-color:#3C3C3C"/>
		<stop  offset="1" style="stop-color:#131313"/>
	</linearGradient>
	<path style="fill-rule:evenodd;clip-rule:evenodd;fill:url(#SVGID_00000063629827522021317050000017775399568120020902_);" d="
		M144.9,340.5c0.5-0.8,1.1-1.4,1.8-2c0.5-0.4,1.1-0.9,1.8-1.4c1.4-0.9,2.8-1.7,4.3-2.4l2.2-1c1-3.3,1.6-8.6,1.9-15.9v-0.3
		c0-1.4,0.6-2.8,1.5-3.8c0.5-0.6,1.2-0.9,1.9-1c1-0.1,2.1,0.3,2.7,1.2c1.4,1.9,1.3,4.5-0.1,6.4c-0.7,0.8-1.7,1.3-2.8,1.4h-0.1
		c0.1,3.6,1,5.5,2.7,5.7c0.3-2.7,1-5.4,2-7.9c1.6-6.7,1.1-10.9-1.5-12.6s-8.6-2.4-17.9-2.2c5.6,0.3,8.3,4.6,7.8,12.8
		c-0.2,3.2-2.8,4.7-7.6,4.7h-8.1v1.9h8.7c1.4,0.1,1.4,2.2,0.2,6.3c-1,2.8-2.1,3.4-3.1,1.8c-0.8-1-2-1.5-3.2-1.4h-2.4
		c-0.4,7.5,1.8,10.8,6.5,9.9L144.9,340.5z"/>
	
		<linearGradient id="SVGID_00000089539278844347176750000007730722145988500878_" gradientUnits="userSpaceOnUse" x1="-145.4898" y1="189.8419" x2="-159.6098" y2="189.9619" gradientTransform="matrix(-1 0 0 -1 -61.4 519.89)">
		<stop  offset="0" style="stop-color:#BFBFBF"/>
		<stop  offset="1" style="stop-color:#949494"/>
	</linearGradient>
	<path style="fill-rule:evenodd;clip-rule:evenodd;fill:url(#SVGID_00000089539278844347176750000007730722145988500878_);" d="
		M91.5,340.8l6.7-4c-0.7-1.8-1.1-3.7-1.3-5.6c-0.2-2.4-0.4-5-0.8-7.7c0-0.1,0-0.2,0-0.3c-0.2-1.2-0.9-2.2-1.9-2.9l-4.9-0.7l-2.7-0.4
		c-0.4,0-0.7,0.2-1,0.4c-0.4,0.3-0.7,0.7-0.7,1.2c0,0.1,0,0.3,0,0.4c0,0.3,0.2,0.6,0.3,0.8c0.1,0.1,0.1,0.2,0.2,0.3h-0.5
		c-0.1,0.1-0.3,0.2-0.4,0.4c-0.4,0.2-0.6,0.7-0.6,1.1c-0.1,0.4,0,0.9,0.3,1.3c0.1,0.2,0.3,0.4,0.4,0.5c0.2,0,0.3,0.1,0.4,0.2
		c-0.5,0.2-0.9,0.7-0.9,1.3c0,0.3,0,0.6,0.2,0.8c0.2,0.3,0.4,0.5,0.7,0.6c-0.2,0.2-0.4,0.5-0.6,0.8c0.1,0.4,0.2,0.8,0.4,1.1
		c0.2,0.3,0.6,0.6,1,0.6c0.4,0.2,0.8,0.2,1.2,0.2c0.6,1.9,1,3.8,1.1,5.8c0,0.3,0.1,0.6,0.1,0.9C88.9,339.3,90.1,340.4,91.5,340.8z"
		/>
	
		<linearGradient id="SVGID_00000041995498538987231490000001385425399070946707_" gradientUnits="userSpaceOnUse" x1="-167.26" y1="197.5079" x2="-137.3127" y2="197.5079" gradientTransform="matrix(-1 0 0 -1 -61.4 519.89)">
		<stop  offset="0" style="stop-color:#646464"/>
		<stop  offset="1" style="stop-color:#121212"/>
	</linearGradient>
	<path style="fill-rule:evenodd;clip-rule:evenodd;fill:url(#SVGID_00000041995498538987231490000001385425399070946707_);" d="
		M85.4,322.1c0.1,0.1,0.1,0.2,0.2,0.3h-0.5c-0.1,0.1-0.3,0.2-0.4,0.4c-0.4,0.2-0.6,0.7-0.6,1.1c-0.1,0.4,0,0.9,0.3,1.3
		c0.1,0.2,0.3,0.4,0.4,0.5c0.2,0,0.3,0.1,0.4,0.2c-0.5,0.2-0.9,0.7-0.9,1.3c0,0.3,0,0.6,0.2,0.8l-4.7,1.8c-0.4,0.2-0.9,0.2-1.3,0.2
		h-1.1c-1.1-1.2-1.6-2.9-1.4-4.5l0.7-0.5c0.3-0.3,0.7-0.6,1.1-0.7l7.4-2.8C85,321.6,85.2,321.9,85.4,322.1z M101.7,315.1
		c0.8-0.3,1.6-0.2,2.3,0.1c0.7,0.3,1.3,0.9,1.6,1.7c0.3,0.7,0.2,1.6-0.1,2.3c-0.3,0.7-0.9,1.3-1.7,1.6l-7.6,2.9c0-0.1,0-0.2,0-0.3
		c-0.2-1.2-0.9-2.2-1.9-2.9l-4.9-0.7L101.7,315.1z"/>
	
		<linearGradient id="SVGID_00000123404821681144619370000002717185160572690091_" gradientUnits="userSpaceOnUse" x1="-157.5045" y1="182.0188" x2="-255.0859" y2="132.7234" gradientTransform="matrix(-1 0 0 -1 -61.4 519.89)">
		<stop  offset="0" style="stop-color:#414141"/>
		<stop  offset="1" style="stop-color:#121212"/>
	</linearGradient>
	<path style="fill-rule:evenodd;clip-rule:evenodd;fill:url(#SVGID_00000123404821681144619370000002717185160572690091_);" d="
		M151.4,404.2c11.5-1.3,20.9-3.1,28.1-5.2c3.1-1.1,5.7-1.3,7.7-0.6c3.7-2.3,3.9-9.2,0.6-20.5c-1-3.4-2-6.9-2.9-10.3
		c-0.2-0.8-0.4-1.6-0.6-2.4c-1.9-7.1-3.6-14.3-5.2-21.5c-0.2-0.8-0.4-1.6-0.6-2.4l-2.9-0.2v0.6c-0.1,0.5-0.1,1-0.3,1.6
		c-0.1,0.6-0.2,1.2-0.4,1.7c-0.1,0.4-0.3,0.8-0.4,1.1c-0.2,0.4-0.4,0.8-0.7,1.2c-0.2,0.4-0.4,0.7-0.8,1c-6,4.3-12.5,4.5-19.4,0.6
		c-0.9-0.5-1.8-1.1-2.8-1.7c0,0-0.1-0.1-0.2-0.1c-0.6-0.4-1.3-0.7-2-0.9c-0.7-0.2-1.4-0.3-2.2-0.3c-1,0-1.9,0.2-2.9,0.5l-26.8,7.2
		c-1.7,0.4-3.5-0.2-4.5-1.7l-8-10.2c-1-1.4-2-2-3-1.8l-8.8,5.2c-0.6,0.5-0.4,1.5,0.6,3l11.4,15.2c2.8,3.7,7.1,4.9,13,3.7l21-3.8
		c1.3-0.2,2.2,0.5,2.9,2c0.4,1.1,0.7,2.2,0.8,3.3c0.4,3.8,0.7,8,0.8,12.6c0.1,4.6,0.7,9.1,1.7,13.6
		C145.5,398.5,147.9,402,151.4,404.2z"/>
	
		<linearGradient id="SVGID_00000132058908859892644820000001783285451782255806_" gradientUnits="userSpaceOnUse" x1="-160.3271" y1="183.4151" x2="-154.4271" y2="174.7651" gradientTransform="matrix(-1 0 0 -1 -61.4 519.89)">
		<stop  offset="0" style="stop-color:#414141"/>
		<stop  offset="1" style="stop-color:#121212"/>
	</linearGradient>
	<path style="fill-rule:evenodd;clip-rule:evenodd;fill:url(#SVGID_00000132058908859892644820000001783285451782255806_);" d="
		M92.6,344.9l8.8-5.2l-1.3-2.2c-0.3-0.7-1.1-0.9-1.8-0.6l-6.7,4h-0.1c-0.8,0.5-0.9,1.1-0.2,2L92.6,344.9z"/>
	
		<linearGradient id="SVGID_00000104679943597526200410000006628169795600688260_" gradientUnits="userSpaceOnUse" x1="-138.75" y1="192.29" x2="-133.63" y2="192.29" gradientTransform="matrix(-1 0 0 -1 -61.4 519.89)">
		<stop  offset="0" style="stop-color:#BFBFBF"/>
		<stop  offset="1" style="stop-color:#999999"/>
	</linearGradient>
	<path style="fill-rule:evenodd;clip-rule:evenodd;fill:url(#SVGID_00000104679943597526200410000006628169795600688260_);" d="
		M77.3,329.9c-1.1-1.2-1.6-2.9-1.4-4.5l-3.1,2.7c-0.5,0.5-0.7,0.9-0.5,1.2s0.5,0.5,1.2,0.6L77.3,329.9z"/>
	
		<linearGradient id="SVGID_00000069376823392424389770000001656168157259790264_" gradientUnits="userSpaceOnUse" x1="-218.5967" y1="169.2911" x2="-225.9467" y2="191.8911" gradientTransform="matrix(-1 0 0 -1 -61.4 519.89)">
		<stop  offset="0" style="stop-color:#626262"/>
		<stop  offset="1" style="stop-color:#6D6D6D"/>
	</linearGradient>
	<path style="fill-rule:evenodd;clip-rule:evenodd;fill:url(#SVGID_00000069376823392424389770000001656168157259790264_);" d="
		M154.9,333.7l-2.2,1c-1.5,0.7-2.9,1.5-4.3,2.4c-0.7,0.5-1.3,1-1.8,1.4c-0.7,0.6-1.3,1.2-1.8,2c-1,1.7-1.5,3.8-1.2,5.8
		c0.9-0.3,1.9-0.4,2.9-0.5c0.7,0,1.5,0.1,2.2,0.3c0.7,0.2,1.4,0.5,2,0.9c0.1,0,0.1,0,0.2,0.1c0.9,0.6,1.9,1.2,2.8,1.7
		c6.9,3.8,13.4,3.6,19.4-0.6c0.3-0.3,0.6-0.6,0.8-1c0.3-0.4,0.5-0.8,0.7-1.2c0.2-0.4,0.3-0.7,0.4-1.1c0.2-0.6,0.3-1.1,0.4-1.7
		c0.1-0.5,0.2-1,0.3-1.6v-0.8c0-1,0-2.1-0.2-3.1l0,0c-0.1-0.6-0.2-1.2-0.4-1.8c-0.5-2-1.7-3.9-3.3-5.2c-0.7-0.5-1.5-0.8-2.4-0.9
		c-1.6-0.2-3.2,0-4.8,0.4c-0.7,0.1-1.3,0.3-2,0.6c-0.9,0.2-1.8,0.6-2.8,1c-0.7,0.3-1.4,0.6-2.2,0.9L154.9,333.7z"/>
	
		<linearGradient id="SVGID_00000038372459427918793300000016362927145481796512_" gradientUnits="userSpaceOnUse" x1="-238.6312" y1="180.2538" x2="-279.3258" y2="121.1871" gradientTransform="matrix(-1 0 0 -1 -61.4 519.89)">
		<stop  offset="0" style="stop-color:#414141"/>
		<stop  offset="1" style="stop-color:#121212"/>
	</linearGradient>
	<path style="fill-rule:evenodd;clip-rule:evenodd;fill:url(#SVGID_00000038372459427918793300000016362927145481796512_);" d="
		M208.5,401.3l9.9-3c0.9-0.3,0.9-1.7,0.1-4.2c-4.4-16-8.6-26-12.7-30.1l-20.3-18.3c-1-1.1-2.1-2.1-3.3-3c-1.4-1.2-3.6-1.9-6.6-2v0.1
		l2.9,0.2c0.3,0.8,0.5,1.6,0.6,2.4c1.6,7.2,3.3,14.4,5.2,21.5l12.7,9.1c5.1,9.2,7.9,16,8.4,20.5S207,401.3,208.5,401.3z"/>
	
		<linearGradient id="SVGID_00000026155447804926372790000001965452382740658049_" gradientUnits="userSpaceOnUse" x1="-220.8601" y1="207.23" x2="-220.8601" y2="186.16" gradientTransform="matrix(-1 0 0 -1 -61.4 519.89)">
		<stop  offset="0" style="stop-color:#BFBFBF"/>
		<stop  offset="1" style="stop-color:#949494"/>
	</linearGradient>
	<path style="fill-rule:evenodd;clip-rule:evenodd;fill:url(#SVGID_00000026155447804926372790000001965452382740658049_);" d="
		M154.9,333.7l2.8-1.2c0.7-0.3,1.5-0.5,2.2-0.9c1-0.4,1.9-0.7,2.8-1c0-0.1,0-0.3,0-0.4c-0.1-1.2-0.1-2.1,0-2.9
		c-1.7-0.2-2.6-2.1-2.7-5.7h0.1c1.1-0.1,2.1-0.6,2.8-1.4c1.4-1.9,1.5-4.5,0.1-6.4c-0.6-0.9-1.6-1.3-2.7-1.2c-0.8,0.1-1.5,0.4-1.9,1
		c-1,1-1.5,2.4-1.5,3.8v0.3C156.6,325.2,155.9,330.5,154.9,333.7z"/>
	
		<linearGradient id="SVGID_00000177481873728172702860000011727346972286363827_" gradientUnits="userSpaceOnUse" x1="-212.88" y1="114.8113" x2="-250.29" y2="114.8113" gradientTransform="matrix(-1 0 0 -1 -61.4 519.89)">
		<stop  offset="0" style="stop-color:#414141"/>
		<stop  offset="1" style="stop-color:#121212"/>
	</linearGradient>
	<path style="fill-rule:evenodd;clip-rule:evenodd;fill:url(#SVGID_00000177481873728172702860000011727346972286363827_);" d="
		M187.2,398.3c-2-0.6-4.6-0.4-7.7,0.6c-7.2,2.2-16.6,3.9-28.1,5.2c0.1,2.1,0.3,4.2,0.7,6.2c0,0.9,0.7,1.6,1.6,1.7
		c0.1,0,0.2,0,0.3,0.1c0.4,0.1,0.8,0.1,1.2,0c5.6-0.8,11.2-1.9,16.6-3.3c7.6-1.7,12.7-2.6,15.3-2.8c0.2,0,0.5-0.1,0.7-0.2
		c0.2-0.1,0.3-0.1,0.5-0.2c0.8-0.5,1-1.2,0.6-2.2C188,401.8,187.5,400.1,187.2,398.3z"/>
	
		<linearGradient id="SVGID_00000152254981672787441490000003777334323874736554_" gradientUnits="userSpaceOnUse" x1="-222.9205" y1="75.9357" x2="-146.6405" y2="-50.5843" gradientTransform="matrix(-1 0 0 -1 -61.4 519.89)">
		<stop  offset="0" style="stop-color:#414141"/>
		<stop  offset="1" style="stop-color:#121212"/>
	</linearGradient>
	<path style="fill-rule:evenodd;clip-rule:evenodd;fill:url(#SVGID_00000152254981672787441490000003777334323874736554_);" d="
		M140.3,508.8c0.3,0.2,0.7,0.2,1,0.2l6.4-1.3l2.6-0.6c1.2-0.3,1.6-1,1.2-2c-0.1-0.5-0.3-1-0.4-1.5c-0.4-1.3-0.8-2.6-1.2-3.9
		c-0.2-0.7-0.5-1.5-0.7-2.2v-0.2c-0.4-1.4-0.9-2.8-1.2-4.2c-1.9-7.4-3.1-15-3.8-22.6c-0.5-4.9,1.2-9.8,4.8-13.3l15-13.9
		c5.8-5.5,12.3-10.1,19.4-13.9c4.4-2.4,6.5-6,6.1-10.9c-0.3-4.2-0.9-8.4-1.8-12.5c-0.2,0.1-0.5,0.2-0.7,0.2c-2.6,0.1-7.7,1-15.3,2.8
		c-5.5,1.3-11,2.4-16.6,3.3c-0.4,0.1-0.8,0.1-1.2,0c-0.1-0.1-0.2-0.1-0.3-0.1v0.7c-10.1,14.4-17.7,27.4-23,39.1
		c-1.1,2.3-2,4.6-2.9,6.8c-1,3-1,6.2-0.2,9.3c0,0.2,0.1,0.4,0.2,0.5c0.4,1.7,0.8,3.4,1.2,5.1c1.8,6.7,3.6,13.1,5.6,19.4
		c0.4,1.4,0.9,2.9,1.4,4.2c0,0.1,0,0.2,0.1,0.2c0.2,0.8,0.5,1.5,0.7,2.2c0.5,1.3,1,2.6,1.4,3.9c0.5,1.5,1.1,3,1.6,4.4l0,0
		C139.8,508.3,140,508.7,140.3,508.8z"/>
	
		<linearGradient id="SVGID_00000096053924193740962100000002949414213981949102_" gradientUnits="userSpaceOnUse" x1="-8652.8945" y1="-1345.5684" x2="-8647.2041" y2="-1345.5684" gradientTransform="matrix(-0.31 -0.95 0.95 -0.31 -1192.1155 -8241.4541)">
		<stop  offset="0" style="stop-color:#414141"/>
		<stop  offset="1" style="stop-color:#121212"/>
	</linearGradient>
	<path style="fill-rule:evenodd;clip-rule:evenodd;fill:url(#SVGID_00000096053924193740962100000002949414213981949102_);" d="
		M218.4,398.4l-9.9,3l0.5,2.5c0.1,0.5,0.4,1,0.8,1.3c0.3,0,0.5,0,0.8-0.1l7.5-2.4c0.1,0,0.2-0.1,0.3-0.2c0.4-0.4,0.6-1,0.4-1.5
		L218.4,398.4z"/>
	
		<linearGradient id="SVGID_00000026130520918718234930000017102439733279703480_" gradientUnits="userSpaceOnUse" x1="-278.0551" y1="105.4471" x2="-275.4057" y2="116.3146" gradientTransform="matrix(-1 0 0 -1 -61.4 519.89)">
		<stop  offset="0" style="stop-color:#BFBFBF"/>
		<stop  offset="1" style="stop-color:#949494"/>
	</linearGradient>
	<path style="fill-rule:evenodd;clip-rule:evenodd;fill:url(#SVGID_00000026130520918718234930000017102439733279703480_);" d="
		M212.4,415.5l-0.7-2.2c-0.2-0.4-0.2-0.9,0-1.4c0.3-0.4,0.7-0.7,1.1-0.8l6.8-2.2c0.8-0.4,1.7-0.1,2,0.7c0,0.1,0.1,0.2,0.1,0.3
		l-1.1-3.4c-0.3-1.5-1-2.9-2-4c-0.1,0.1-0.2,0.2-0.3,0.2l-7.5,2.4c-0.3,0.1-0.5,0.1-0.8,0.1c-0.7,0.7-0.8,2.1-0.4,4l0.7,4
		C210.6,414.6,211.3,415.4,212.4,415.5z"/>
	
		<linearGradient id="SVGID_00000001647684423063260180000002191850578515417788_" gradientUnits="userSpaceOnUse" x1="-277.1796" y1="106.9209" x2="-288.2496" y2="107.1409" gradientTransform="matrix(-1 0 0 -1 -61.4 519.89)">
		<stop  offset="0" style="stop-color:#BFBFBF"/>
		<stop  offset="1" style="stop-color:#949494"/>
	</linearGradient>
	<path style="fill-rule:evenodd;clip-rule:evenodd;fill:url(#SVGID_00000001647684423063260180000002191850578515417788_);" d="
		M221.7,409.9c-0.2-0.8-1-1.3-1.8-1.1c-0.1,0-0.2,0.1-0.3,0.1l-6.8,2.2c-0.5,0.1-0.8,0.4-1.1,0.8c-0.2,0.4-0.2,0.9,0,1.4l0.7,2.2
		l0.2,0.5c0.2,0.8,1,1.4,1.8,1.2c0.1,0,0.3-0.1,0.4-0.1l6.8-2.2c0.8-0.2,1.4-1,1.2-1.8c0-0.1-0.1-0.3-0.1-0.4L221.7,409.9z"/>
	
		<linearGradient id="SVGID_00000031904409113349315380000014500324501407349180_" gradientUnits="userSpaceOnUse" x1="-261.2342" y1="52.7556" x2="-236.2742" y2="86.0656" gradientTransform="matrix(-1 0 0 -1 -61.4 519.89)">
		<stop  offset="0" style="stop-color:#414141"/>
		<stop  offset="1" style="stop-color:#121212"/>
	</linearGradient>
	<path style="fill-rule:evenodd;clip-rule:evenodd;fill:url(#SVGID_00000031904409113349315380000014500324501407349180_);" d="
		M205.7,509.8c0.3,0.8,1,1,2.1,0.7c2.4-0.6,4.7-1.2,6.9-1.9c0.9-0.3,1.8-0.6,2.7-0.9c0.4-0.1,0.6-0.5,0.6-0.9c0-0.3-0.1-0.5-0.2-0.7
		l-1-1.7c-1-1.5-1.8-3.1-2.6-4.7c-0.4-0.7-0.7-1.5-1.1-2.2c0-0.1-0.1-0.2-0.1-0.2c-0.8-1.4-1.5-2.8-2.2-4.2
		c-3.9-8.1-7.4-16.5-10.4-25c-1.9-5.2-3.7-10.5-5.2-16c-2.9-10.4-4.8-21.2-5.4-32c0-0.5-0.1-1-0.1-1.5c0.3,4.8-1.8,8.4-6.1,10.9
		c-7,3.7-13.5,8.4-19.3,13.8l22.1,32.8c0.2,0.2,0.3,0.4,0.4,0.6c0.4,0.7,0.9,1.4,1.3,2.1c2.8,4.3,5.6,9.1,8.4,14.4
		c0.8,1.4,1.5,2.9,2.3,4.2c0,0.1,0.1,0.2,0.1,0.2c0.4,0.8,0.9,1.5,1.3,2.2C201.8,503.1,203.7,506.4,205.7,509.8z"/>
	
		<linearGradient id="SVGID_00000155134070755574711960000009899228994442175420_" gradientUnits="userSpaceOnUse" x1="-186.13" y1="6.0749" x2="-212.18" y2="6.0749" gradientTransform="matrix(-1 0 0 -1 -61.4 519.89)">
		<stop  offset="0" style="stop-color:#DCDCDC"/>
		<stop  offset="1" style="stop-color:#BFBFBF"/>
	</linearGradient>
	<path style="fill-rule:evenodd;clip-rule:evenodd;fill:url(#SVGID_00000155134070755574711960000009899228994442175420_);" d="
		M148.5,511.9c-1.4,0.2-2.7,0.9-3.6,2c-0.9,0.9-1.9,0.4-3-1.3l-1.5-3.8c-2.9,1.9-6.1,3.6-9.3,4.9c-1.3,0.5-2.6,1-4,1.5
		c-0.8,0.3-1.5,1-1.9,1.8c-0.2,0.3-0.3,0.7-0.4,1.1c0.8,0.5,2.3,0.7,4.6,0.7h18.1c2,0,3.1-0.2,3.4-0.7c0-0.2,0-0.5-0.1-0.7
		c-0.1-0.5-0.2-1-0.3-1.5C150,513.7,149.3,512.4,148.5,511.9z"/>
	
		<linearGradient id="SVGID_00000022527707171891048160000002580817496532836526_" gradientUnits="userSpaceOnUse" x1="-212.2114" y1="0.8549" x2="-186.2414" y2="0.8549" gradientTransform="matrix(-1 0 0 -1 -61.4 519.89)">
		<stop  offset="0" style="stop-color:#5C5C5C"/>
		<stop  offset="1" style="stop-color:#A1A1A1"/>
	</linearGradient>
	<path style="fill-rule:evenodd;clip-rule:evenodd;fill:url(#SVGID_00000022527707171891048160000002580817496532836526_);" d="
		M150.8,518.1c-0.3,0.5-1.4,0.7-3.4,0.7h-18.1c-2.3,0-3.8-0.2-4.6-0.7l0,0c-0.2,1.1,0.6,1.8,2.4,1.9h21.2
		C150.1,520,150.8,519.4,150.8,518.1z"/>
	
		<linearGradient id="SVGID_00000123408808470259847400000003594092066625106563_" gradientUnits="userSpaceOnUse" x1="-205.77" y1="5.5089" x2="-205.77" y2="12.2101" gradientTransform="matrix(-1 0 0 -1 -61.4 519.89)">
		<stop  offset="0" style="stop-color:#BFBFBF"/>
		<stop  offset="1" style="stop-color:#949494"/>
	</linearGradient>
	<path style="fill-rule:evenodd;clip-rule:evenodd;fill:url(#SVGID_00000123408808470259847400000003594092066625106563_);" d="
		M140.3,508.8l1.5,3.7c1.1,1.8,2.1,2.2,3,1.3c0.9-1.1,2.2-1.8,3.6-2l-0.8-4.3l-6.3,1.3C141,509.1,140.6,509,140.3,508.8z"/>
	
		<linearGradient id="SVGID_00000163791252434952280250000013252190730017288882_" gradientUnits="userSpaceOnUse" x1="-253.1" y1="5.6078" x2="-279" y2="5.6078" gradientTransform="matrix(-1 0 0 -1 -61.4 519.89)">
		<stop  offset="0" style="stop-color:#DCDCDC"/>
		<stop  offset="1" style="stop-color:#BFBFBF"/>
	</linearGradient>
	<path style="fill-rule:evenodd;clip-rule:evenodd;fill:url(#SVGID_00000163791252434952280250000013252190730017288882_);" d="
		M207.8,510.5c-1,0.3-1.8,0.1-2.1-0.7c-2.5,1.5-5.2,2.9-7.9,4c-1.3,0.5-2.6,1-3.9,1.5c-0.4,0.2-0.8,0.4-1.2,0.7
		c-0.5,0.6-0.9,1.4-1,2.2c0.8,0.5,2.3,0.7,4.6,0.7h18.1c2,0,3-0.2,3.2-0.7c0-0.2,0-0.4,0-0.7c-0.1-0.2-0.1-0.4-0.1-0.6
		c-0.5-2.7-1.2-4.4-2.1-4.9c-1.4,0.2-2.7,0.9-3.6,2c-0.9,0.9-1.9,0.4-3-1.3L207.8,510.5z"/>
	
		<linearGradient id="SVGID_00000127020781502755442490000001094417049189605802_" gradientUnits="userSpaceOnUse" x1="-279.0187" y1="0.835" x2="-253.0554" y2="0.835" gradientTransform="matrix(-1 0 0 -1 -61.4 519.89)">
		<stop  offset="0" style="stop-color:#5C5C5C"/>
		<stop  offset="1" style="stop-color:#A1A1A1"/>
	</linearGradient>
	<path style="fill-rule:evenodd;clip-rule:evenodd;fill:url(#SVGID_00000127020781502755442490000001094417049189605802_);" d="
		M217.6,518.1c-0.2,0.5-1.3,0.7-3.2,0.7h-18.1c-2.2,0-3.8-0.2-4.6-0.7c-0.2,1.1,0.6,1.8,2.4,1.9h21.2
		C217,520,217.8,519.4,217.6,518.1z"/>
	
		<linearGradient id="SVGID_00000061455177146443496940000010353438117502742169_" gradientUnits="userSpaceOnUse" x1="-272.965" y1="5.5089" x2="-272.965" y2="11.35" gradientTransform="matrix(-1 0 0 -1 -61.4 519.89)">
		<stop  offset="0" style="stop-color:#BFBFBF"/>
		<stop  offset="1" style="stop-color:#949494"/>
	</linearGradient>
	<path style="fill-rule:evenodd;clip-rule:evenodd;fill:url(#SVGID_00000061455177146443496940000010353438117502742169_);" d="
		M214.7,508.5c-2.2,0.7-4.5,1.3-6.9,1.9l0.9,2.1c1.1,1.8,2.1,2.2,3,1.3c0.9-1.1,2.2-1.8,3.6-2L214.7,508.5z"/>
</g>
</svg>
