<?xml version="1.0" encoding="utf-8"?>
<!-- Generator: Adobe Illustrator 27.4.1, SVG Export Plug-In . SVG Version: 6.00 Build 0)  -->
<svg version="1.1" id="Capa_1" xmlns="http://www.w3.org/2000/svg" xmlns:xlink="http://www.w3.org/1999/xlink" x="0px" y="0px"
	 viewBox="0 0 550 520" style="enable-background:new 0 0 550 520;" xml:space="preserve">
<style type="text/css">
	.st0{fill:url(#SVGID_1_);}
	.st1{fill:#B0B6C4;}
	.st2{fill:url(#SVGID_00000138561235582667603600000007173084884440397446_);}
	.st3{fill:url(#SVGID_00000052103119322267699850000014392474514906457776_);}
	.st4{fill:#D9DCE3;}
	.st5{fill:#818A9E;}
	.st6{fill:url(#SVGID_00000030478904887504438070000010505591128600133518_);}
	.st7{fill-rule:evenodd;clip-rule:evenodd;fill:#E5E6EB;}
	.st8{fill-rule:evenodd;clip-rule:evenodd;fill:#FFFFFF;}
	.st9{fill-rule:evenodd;clip-rule:evenodd;fill:url(#SVGID_00000037687646309917108400000005257137184418961032_);}
	.st10{fill:#C3C7D2;}
	.st11{fill-rule:evenodd;clip-rule:evenodd;fill:url(#SVGID_00000016769744601553522170000001489810868719016586_);}
	.st12{fill-rule:evenodd;clip-rule:evenodd;fill:url(#SVGID_00000016757721110521653760000012847369808072023976_);}
	.st13{fill-rule:evenodd;clip-rule:evenodd;fill:url(#SVGID_00000011020649463643898930000003272234861877879175_);}
	.st14{fill-rule:evenodd;clip-rule:evenodd;fill:url(#SVGID_00000075843952083395184230000008869835279874768790_);}
	.st15{fill-rule:evenodd;clip-rule:evenodd;fill:url(#SVGID_00000181770494298166516380000005794578391412088235_);}
	.st16{fill-rule:evenodd;clip-rule:evenodd;fill:url(#SVGID_00000176723565135509489860000007830291535961028776_);}
	.st17{fill-rule:evenodd;clip-rule:evenodd;fill:#E2E4E9;}
	.st18{fill-rule:evenodd;clip-rule:evenodd;fill:#BFC3CF;}
	.st19{fill-rule:evenodd;clip-rule:evenodd;fill:url(#SVGID_00000140714328913867458870000001397036837375398828_);}
	.st20{fill-rule:evenodd;clip-rule:evenodd;fill:url(#SVGID_00000027593387383117254440000017355002860075418280_);}
	.st21{fill-rule:evenodd;clip-rule:evenodd;fill:url(#SVGID_00000167380039047554433780000001535722659962078352_);}
	.st22{fill-rule:evenodd;clip-rule:evenodd;fill:url(#SVGID_00000081618670530228923360000005872386477700182913_);}
	.st23{fill-rule:evenodd;clip-rule:evenodd;fill:url(#SVGID_00000151528369848985258930000002268643246545363095_);}
	.st24{fill-rule:evenodd;clip-rule:evenodd;fill:url(#SVGID_00000136369357624847503850000004394868400066052749_);}
	.st25{fill-rule:evenodd;clip-rule:evenodd;fill:url(#SVGID_00000128482567520305205100000002163487782046302594_);}
	.st26{fill-rule:evenodd;clip-rule:evenodd;fill:url(#SVGID_00000026844665004312273260000015236489145952597436_);}
	.st27{fill-rule:evenodd;clip-rule:evenodd;fill:url(#SVGID_00000013189228209834601870000015359750724080603037_);}
	.st28{opacity:0.5;}
	.st29{fill-rule:evenodd;clip-rule:evenodd;fill:url(#SVGID_00000160876040594361802410000015825314596119599510_);}
	.st30{fill-rule:evenodd;clip-rule:evenodd;fill:#525764;fill-opacity:0.5;}
	.st31{fill-rule:evenodd;clip-rule:evenodd;fill:#8B94A8;}
	.st32{fill-rule:evenodd;clip-rule:evenodd;fill:url(#SVGID_00000111891190193963395750000013722608318438188697_);}
	.st33{fill-rule:evenodd;clip-rule:evenodd;fill:#C5C9D4;}
	.st34{fill-rule:evenodd;clip-rule:evenodd;fill:#C4C8D3;}
	.st35{fill-rule:evenodd;clip-rule:evenodd;fill:url(#SVGID_00000040535989778259625010000009084591811872837018_);}
	.st36{fill-rule:evenodd;clip-rule:evenodd;fill:url(#SVGID_00000182488380429346305490000011803775721294600882_);}
	.st37{fill-rule:evenodd;clip-rule:evenodd;fill:url(#SVGID_00000170958851416961281960000000691538173408144782_);}
	.st38{fill-rule:evenodd;clip-rule:evenodd;fill:url(#SVGID_00000044862434894075500290000003091745829586623115_);}
	.st39{fill-rule:evenodd;clip-rule:evenodd;fill:#818A9E;}
	.st40{fill-rule:evenodd;clip-rule:evenodd;fill:#7C8498;}
	.st41{fill-rule:evenodd;clip-rule:evenodd;fill:url(#SVGID_00000120558682184971414470000017729039982925399461_);}
	.st42{fill-rule:evenodd;clip-rule:evenodd;fill:url(#SVGID_00000000180242216986468630000003547400148122462625_);}
	.st43{fill-rule:evenodd;clip-rule:evenodd;fill:url(#SVGID_00000016777082363363124380000011296834047399466123_);}
	.st44{fill-rule:evenodd;clip-rule:evenodd;fill:url(#SVGID_00000168081646650044535560000009876974810377789621_);}
	.st45{fill-rule:evenodd;clip-rule:evenodd;fill:#292C33;}
	.st46{fill-rule:evenodd;clip-rule:evenodd;fill:url(#SVGID_00000126319648841896757580000001191749867268440710_);}
	.st47{fill-rule:evenodd;clip-rule:evenodd;fill:#FFFFFF;fill-opacity:0.3;}
	.st48{fill-rule:evenodd;clip-rule:evenodd;fill:#B5BAC7;}
	.st49{fill-rule:evenodd;clip-rule:evenodd;}
	.st50{fill-rule:evenodd;clip-rule:evenodd;fill:url(#SVGID_00000113331681353815642490000001071308392199036312_);}
	.st51{fill-rule:evenodd;clip-rule:evenodd;fill:url(#SVGID_00000075878240022169592190000001114028406418669236_);}
	.st52{fill-rule:evenodd;clip-rule:evenodd;fill:url(#SVGID_00000183970424079601488520000016778976896283731390_);}
	.st53{fill-rule:evenodd;clip-rule:evenodd;fill:url(#SVGID_00000003785496509799787430000009893510103028502439_);}
	.st54{fill-rule:evenodd;clip-rule:evenodd;fill:url(#SVGID_00000016041908236015052040000011591504945909935800_);}
	.st55{fill-rule:evenodd;clip-rule:evenodd;fill:url(#SVGID_00000085950449327449108600000008210489046010986384_);}
	.st56{fill-rule:evenodd;clip-rule:evenodd;fill:url(#SVGID_00000161633814410003309970000008113508804340179099_);}
	.st57{fill-rule:evenodd;clip-rule:evenodd;fill:url(#SVGID_00000140709534911453825520000004099653872663767453_);}
	.st58{fill-rule:evenodd;clip-rule:evenodd;fill:url(#SVGID_00000011753395602011710960000007890941783802580359_);}
	.st59{fill-rule:evenodd;clip-rule:evenodd;fill:url(#SVGID_00000021820785980616267890000006646702593242280328_);}
	.st60{fill-rule:evenodd;clip-rule:evenodd;fill:#25272D;}
	.st61{fill-rule:evenodd;clip-rule:evenodd;fill:#838CA0;}
	.st62{fill-rule:evenodd;clip-rule:evenodd;fill:#B6BBC8;}
	.st63{fill-rule:evenodd;clip-rule:evenodd;fill:url(#SVGID_00000013908277697167395940000011866122971555714435_);}
	.st64{fill-rule:evenodd;clip-rule:evenodd;fill:url(#SVGID_00000023268022147460059320000005195841046979359650_);}
	.st65{fill-rule:evenodd;clip-rule:evenodd;fill:url(#SVGID_00000124866534290986909930000005486042150398602670_);}
	.st66{fill-rule:evenodd;clip-rule:evenodd;fill:url(#SVGID_00000078754841953023368490000008873195081416319421_);}
	.st67{fill-rule:evenodd;clip-rule:evenodd;fill:url(#SVGID_00000091010344345053803270000014864566048981625019_);}
	.st68{fill-rule:evenodd;clip-rule:evenodd;fill:url(#SVGID_00000137814941637686192530000010214384624007328681_);}
	.st69{fill-rule:evenodd;clip-rule:evenodd;fill:url(#SVGID_00000098192732649136939960000018071144362303518349_);}
	.st70{fill-rule:evenodd;clip-rule:evenodd;fill:url(#SVGID_00000095304610014968112060000014507498348978830780_);}
	.st71{fill-rule:evenodd;clip-rule:evenodd;fill:url(#SVGID_00000145050727586072945910000008594704221050146490_);}
	.st72{fill-rule:evenodd;clip-rule:evenodd;fill:url(#SVGID_00000173153807873585188100000005256020499236499863_);}
	.st73{fill-rule:evenodd;clip-rule:evenodd;fill:url(#SVGID_00000053516679638195508490000003658525989413916085_);}
	.st74{fill-rule:evenodd;clip-rule:evenodd;fill:url(#SVGID_00000118365624547082433500000013875019493323007901_);}
	.st75{fill-rule:evenodd;clip-rule:evenodd;fill:url(#SVGID_00000038385370325860360350000017899451878070638496_);}
	.st76{fill-rule:evenodd;clip-rule:evenodd;fill:url(#SVGID_00000053515564188089725810000007432568628063939205_);}
	.st77{fill-rule:evenodd;clip-rule:evenodd;fill:url(#SVGID_00000088835361561549837370000013483205538128492177_);}
	.st78{fill-rule:evenodd;clip-rule:evenodd;fill:url(#SVGID_00000040532517375787612240000011053198594433803689_);}
	.st79{fill-rule:evenodd;clip-rule:evenodd;fill:url(#SVGID_00000146482725036915133780000010477348511001417369_);}
	.st80{fill-rule:evenodd;clip-rule:evenodd;fill:#525764;fill-opacity:0.3;}
	.st81{fill-rule:evenodd;clip-rule:evenodd;fill:#272930;}
	.st82{fill-rule:evenodd;clip-rule:evenodd;fill:url(#SVGID_00000067200397050028101290000003944047108391168939_);}
	.st83{fill-rule:evenodd;clip-rule:evenodd;fill:url(#SVGID_00000139261777951175352460000013344357980184347305_);}
	.st84{fill-rule:evenodd;clip-rule:evenodd;fill:url(#SVGID_00000027593756213585339110000008496796204188115842_);}
	.st85{fill-rule:evenodd;clip-rule:evenodd;fill:url(#SVGID_00000132800432870316664910000009285404944587779489_);}
	.st86{fill-rule:evenodd;clip-rule:evenodd;fill:url(#SVGID_00000029031735068994730400000008881842530182827453_);}
	.st87{fill-rule:evenodd;clip-rule:evenodd;fill:url(#SVGID_00000043431422481315393730000013101543275557003413_);}
	.st88{fill-rule:evenodd;clip-rule:evenodd;fill:url(#SVGID_00000168814425454363788810000004258403096972130480_);}
	.st89{fill-rule:evenodd;clip-rule:evenodd;fill:url(#SVGID_00000039115051636125166810000010374478656165093567_);}
	.st90{fill-rule:evenodd;clip-rule:evenodd;fill:url(#SVGID_00000102526521377517963010000006327547658877783209_);}
	.st91{fill-rule:evenodd;clip-rule:evenodd;fill:url(#SVGID_00000057128482186471015750000018159334757619604639_);}
	.st92{fill-rule:evenodd;clip-rule:evenodd;fill:url(#SVGID_00000159452980306159819950000004153833695696417436_);}
	.st93{fill-rule:evenodd;clip-rule:evenodd;fill:url(#SVGID_00000111886110669919356800000010929939221658070422_);}
	.st94{fill-rule:evenodd;clip-rule:evenodd;fill:url(#SVGID_00000121237691321726556070000008239296226513380783_);}
	.st95{fill-rule:evenodd;clip-rule:evenodd;fill:url(#SVGID_00000057859965153132799050000011329900690338397074_);}
	.st96{fill-rule:evenodd;clip-rule:evenodd;fill:url(#SVGID_00000022525526956934896490000002625869009744662711_);}
	.st97{fill-rule:evenodd;clip-rule:evenodd;fill:url(#SVGID_00000015343189357129069900000009819019759591181713_);}
	.st98{fill-rule:evenodd;clip-rule:evenodd;fill:url(#SVGID_00000137827337455818268090000001405772822043953792_);}
	.st99{fill-rule:evenodd;clip-rule:evenodd;fill:url(#SVGID_00000054243027363386754530000007377567886983815578_);}
	.st100{fill-rule:evenodd;clip-rule:evenodd;fill:url(#SVGID_00000165230338598568441990000003124940423556676252_);}
	.st101{fill-rule:evenodd;clip-rule:evenodd;fill:url(#SVGID_00000070115403347358836100000006527406655336360120_);}
	.st102{fill-rule:evenodd;clip-rule:evenodd;fill:url(#SVGID_00000165210980230614482030000017289166668227352717_);}
	.st103{fill-rule:evenodd;clip-rule:evenodd;fill:url(#SVGID_00000023255985265410449050000013649847743515304847_);}
	.st104{fill-rule:evenodd;clip-rule:evenodd;fill:url(#SVGID_00000124157777505613043580000016260149165268881853_);}
	.st105{fill-rule:evenodd;clip-rule:evenodd;fill:url(#SVGID_00000021096881785934512570000010916720042700440491_);}
</style>
<g id="Layer_2">
	<g id="Layer19_0_FILL">
		
			<linearGradient id="SVGID_1_" gradientUnits="userSpaceOnUse" x1="250.6752" y1="-7281.1479" x2="250.6752" y2="-7319.1079" gradientTransform="matrix(0.98 0.21 0.21 -0.98 1467.52 -7155.9902)">
			<stop  offset="0" style="stop-color:#EAEBEF;stop-opacity:0.5"/>
			<stop  offset="1" style="stop-color:#EAEBEF;stop-opacity:0"/>
			<stop  offset="1" style="stop-color:#FFFFFF;stop-opacity:0"/>
		</linearGradient>
		<path class="st0" d="M187.4,16.8c-10.2-2.2-20.3,4.3-22.5,14.6c-1.1,4.9-0.2,10.1,2.6,14.3c5.7,8.8,17.5,11.3,26.3,5.6
			c4.2-2.7,7.1-7,8.2-11.9c1.1-4.9,0.2-10.1-2.6-14.3C196.7,20.8,192.4,17.8,187.4,16.8z"/>
	</g>
	<circle class="st1" cx="180.5" cy="49.5" r="3.8"/>
	<g id="Layer18_0_FILL">
		
			<linearGradient id="SVGID_00000080180453482064184500000002381812241270386583_" gradientUnits="userSpaceOnUse" x1="250.6373" y1="-7286.7676" x2="250.6373" y2="-7313.5176" gradientTransform="matrix(0.98 0.21 0.21 -0.98 1467.52 -7155.9902)">
			<stop  offset="0" style="stop-color:#D9DCE3;stop-opacity:0.5"/>
			<stop  offset="1" style="stop-color:#EAEBEF;stop-opacity:0"/>
			<stop  offset="1" style="stop-color:#FFFFFF;stop-opacity:0"/>
		</linearGradient>
		<path style="fill:url(#SVGID_00000080180453482064184500000002381812241270386583_);" d="M190.7,46.7c3-1.9,5.1-4.9,5.8-8.4
			c0.8-3.5,0.1-7.1-1.9-10.1c-4-6.2-12.3-8-18.5-4c-3,1.9-5.1,5-5.8,8.4c-1.6,7.2,3,14.3,10.2,15.9l0,0
			C184.1,49.3,187.8,48.6,190.7,46.7z"/>
	</g>
	<g id="Layer17_0_FILL">
		
			<linearGradient id="SVGID_00000000941948356073613540000001822500921654696633_" gradientUnits="userSpaceOnUse" x1="251.8156" y1="339.9023" x2="251.8156" y2="351.3429" gradientTransform="matrix(0.9778 0.2096 -0.2096 0.9778 8.6501 -350.0186)">
			<stop  offset="0" style="stop-color:#8A93A7"/>
			<stop  offset="1" style="stop-color:#CED2DA"/>
		</linearGradient>
		<path style="fill:url(#SVGID_00000000941948356073613540000001822500921654696633_);" d="M186.4,35.7c-0.5-0.1-1,0-1.4,0.3
			s-0.7,0.7-0.8,1.2l-0.2,0.9l-1.9-0.4l0.2-0.9c0.1-0.5,0-1-0.3-1.5c-0.3-0.4-0.7-0.7-1.2-0.8s-1,0-1.4,0.3s-0.7,0.7-0.8,1.2
			s0,1,0.3,1.4s0.7,0.7,1.2,0.8l0.9,0.2l-0.7,3.4l-0.9,4h0.2h0.1l0.7,0.2l0.8-3.9l0.8-3.6l1.9,0.4l-0.8,3.6l-0.8,3.9l0.9,0.2
			l0.9-4.1l0.7-3.4l0.9,0.2c0.5,0.1,1,0,1.4-0.3s0.7-0.7,0.8-1.2s0-1-0.3-1.4S186.9,35.7,186.4,35.7 M185.4,36.6
			c0.5-0.3,1.1-0.1,1.4,0.4c0.1,0.2,0.1,0.4,0.1,0.6c-0.1,0.2-0.2,0.5-0.4,0.6s-0.5,0.2-0.7,0.1l-0.9-0.2l0.2-0.9
			C185.1,37,185.2,36.8,185.4,36.6 M180.5,35.3c0.3,0.1,0.5,0.2,0.6,0.4s0.2,0.5,0.1,0.7l-0.2,0.9l-0.9-0.2c-0.2,0-0.5-0.2-0.6-0.4
			s-0.2-0.5-0.1-0.7c0.1-0.2,0.2-0.5,0.4-0.6s0.5-0.1,0.7,0V35.3z"/>
		<polygon class="st4" points="181.8,38.6 181.1,42.2 180.2,46.1 181.9,46.4 182.1,46.5 182.9,42.6 183.7,39 		"/>
		<path class="st4" d="M186.5,38.3c0.2-0.1,0.4-0.3,0.4-0.6c0.1-0.5-0.3-1-0.9-1.1c-0.2,0-0.4,0-0.6,0.1c-0.2,0.1-0.4,0.4-0.4,0.6
			l-0.2,0.9l0.9,0.2C186,38.5,186.3,38.5,186.5,38.3z"/>
		<path class="st4" d="M180.6,35.4c-0.2-0.1-0.5,0-0.7,0.1s-0.4,0.3-0.4,0.6c-0.1,0.2,0,0.5,0.1,0.7s0.4,0.4,0.6,0.4l0.9,0.2
			l0.2-0.9c0.1-0.2,0-0.5-0.1-0.7C181,35.6,180.8,35.5,180.6,35.4z"/>
		<path class="st4" d="M192.4,36.6c0.1-1,0-2.1-0.2-3.1s-0.7-2-1.2-2.8c-0.6-0.9-1.3-1.7-2.1-2.3c-0.8-0.7-1.8-1.2-2.8-1.5l-0.4-0.1
			l-0.4-0.1l-0.4-0.1l-0.4-0.1c-1.1-0.1-2.1,0-3.1,0.2c-2,0.5-3.8,1.7-5.1,3.3c-0.7,0.8-1.2,1.8-1.5,2.8c-0.5,1.4-0.6,2.9-0.4,4.3
			c0.2,1.4,0.7,2.7,1.5,3.8c0.4,0.7,0.8,1.4,1.1,2.2c0.3,0.7,0.4,1.5,0.4,2.3l1.9,0.4l0.9-4l0.7-3.4l-0.9-0.2
			c-0.5-0.1-0.9-0.4-1.2-0.8c-0.3-0.4-0.4-0.9-0.3-1.4c0.1-0.5,0.4-0.9,0.8-1.2c0.4-0.3,0.9-0.4,1.4-0.3c0.5,0.1,0.9,0.4,1.2,0.8
			c0.3,0.4,0.4,1,0.3,1.5l-0.2,0.9l1.9,0.4l0.2-0.9c0.1-0.5,0.4-0.9,0.8-1.2c0.4-0.3,0.9-0.4,1.4-0.3c0.5,0.1,0.9,0.4,1.2,0.8
			c0.3,0.4,0.4,0.9,0.3,1.4c-0.1,0.5-0.4,0.9-0.8,1.2c-0.4,0.3-0.9,0.4-1.4,0.3l-0.9-0.2l-0.7,3.4l-0.9,4h0.1L185,47
			c0.3-0.7,0.8-1.4,1.3-2c0.6-0.6,1.2-1.1,1.9-1.5c1.2-0.7,2.2-1.7,3-2.9c0.5-0.8,0.9-1.6,1.1-2.4C192.3,37.7,192.4,37.2,192.4,36.6
			z"/>
	</g>
	<g id="Layer9_0_FILL">
		<path class="st1" d="M182.2,48c0,0.1,0,0.2,0.1,0.3s0.2,0.2,0.3,0.2l1.9,0.4l0.2-0.9l-1.9-0.4c-0.1,0-0.2,0-0.4,0
			C182.4,47.7,182.3,47.8,182.2,48 M180.8,47.3c-0.1-0.1-0.2-0.2-0.3-0.2l-3.3-0.7l-0.2,0.9l3.3,0.7c0.1,0,0.3,0,0.4,0
			c0.1-0.1,0.2-0.2,0.2-0.3C180.9,47.5,180.9,47.4,180.8,47.3L180.8,47.3z"/>
		<path class="st5" d="M177.4,45.5l-0.2,0.9l3.3,0.7c0.1,0,0.2,0.1,0.3,0.2c0,0.1,0,0.3,0,0.4c0,0.1-0.1,0.2-0.2,0.3
			c-0.1,0.1-0.2,0.1-0.4,0l-3.2-0.7l-0.3,1.4l0.9,0.2l5.6,1.2l0.9,0.2l0.3-1.4l-1.9-0.4c-0.1,0-0.2-0.1-0.3-0.2
			c-0.1-0.1-0.1-0.2-0.1-0.3s0.1-0.3,0.2-0.3c0.1,0,0.2,0,0.4,0l1.9,0.4l0.2-0.9l-1.8-0.4l-1.2-0.3l-1.6-0.3l-0.7-0.2h-0.1
			L177.4,45.5z"/>
		<path class="st1" d="M186.4,35.7c-0.5-0.1-1,0-1.4,0.3s-0.7,0.7-0.8,1.2l-0.2,0.9l-1.9-0.4l0.2-0.9c0.1-0.5,0-1-0.3-1.5
			c-0.3-0.4-0.7-0.7-1.2-0.8s-1,0-1.4,0.3s-0.7,0.7-0.8,1.2s0,1,0.3,1.4s0.7,0.7,1.2,0.8l0.9,0.2l-0.7,3.4l-0.9,4h0.2h0.1l0.7,0.2
			l0.8-3.9l0.8-3.6l1.9,0.4l-0.8,3.6l-0.8,3.9l0.9,0.2l0.9-4.1l0.7-3.4l0.9,0.2c0.5,0.1,1,0,1.4-0.3s0.7-0.7,0.8-1.2s0-1-0.3-1.4
			S186.9,35.7,186.4,35.7 M185.4,36.6c0.5-0.3,1.1-0.1,1.4,0.4c0.1,0.2,0.1,0.4,0.1,0.6c-0.1,0.2-0.2,0.5-0.4,0.6s-0.5,0.2-0.7,0.1
			l-0.9-0.2l0.2-0.9C185.1,37,185.2,36.8,185.4,36.6 M180.5,35.3c0.3,0.1,0.5,0.2,0.6,0.4s0.2,0.5,0.1,0.7l-0.2,0.9l-0.9-0.2
			c-0.2,0-0.5-0.2-0.6-0.4s-0.2-0.5-0.1-0.7c0.1-0.2,0.2-0.5,0.4-0.6s0.5-0.1,0.7,0V35.3z"/>
		
			<linearGradient id="SVGID_00000106837856795732002350000008148013289070279328_" gradientUnits="userSpaceOnUse" x1="251.8775" y1="331.2726" x2="251.8775" y2="351.3264" gradientTransform="matrix(0.9778 0.2096 -0.2096 0.9778 8.6501 -350.0186)">
			<stop  offset="0" style="stop-color:#B0B6C4;stop-opacity:0.6"/>
			<stop  offset="0.74" style="stop-color:#CED2DA;stop-opacity:0.6"/>
			<stop  offset="1" style="stop-color:#FBFCFC;stop-opacity:0.6"/>
		</linearGradient>
		<path style="fill:url(#SVGID_00000106837856795732002350000008148013289070279328_);" d="M183.7,39l-0.8,3.6l-0.8,3.9h-0.2
			l-1.6-0.3l0.8-3.9l0.8-3.6L183.7,39z M180.6,35.4c-0.2-0.1-0.5,0-0.7,0.1s-0.4,0.3-0.4,0.6c-0.1,0.2,0,0.5,0.1,0.7
			s0.4,0.4,0.6,0.4l0.9,0.2l0.2-0.9c0.1-0.2,0-0.5-0.1-0.7C181,35.6,180.8,35.5,180.6,35.4L180.6,35.4z M186.5,38.3
			c0.2-0.1,0.4-0.3,0.4-0.6c0.1-0.5-0.3-1-0.9-1.1c-0.2,0-0.4,0-0.6,0.1c-0.2,0.1-0.4,0.4-0.4,0.6l-0.2,0.9l0.9,0.2
			C186,38.5,186.3,38.5,186.5,38.3L186.5,38.3z M192.5,36.6c0.1-1,0-2.1-0.2-3.1c-0.3-1-0.7-2-1.2-2.8c-0.6-0.9-1.3-1.7-2.1-2.3
			c-0.8-0.7-1.8-1.2-2.8-1.5l-0.4-0.1l-0.4-0.1l-0.4-0.1l-0.4-0.1c-1.1-0.1-2.1,0-3.1,0.2c-2,0.5-3.8,1.7-5.1,3.3
			c-0.7,0.8-1.2,1.8-1.5,2.8c-0.5,1.4-0.6,2.9-0.4,4.3c0.2,1.4,0.7,2.7,1.5,3.8c0.4,0.7,0.8,1.4,1.1,2.2c0.3,0.7,0.4,1.5,0.4,2.3
			l1.9,0.4l0.9-4l0.7-3.4l-0.9-0.2c-0.5-0.1-0.9-0.4-1.2-0.8c-0.3-0.4-0.4-0.9-0.3-1.4c0.1-0.5,0.4-0.9,0.8-1.2
			c0.4-0.3,0.9-0.4,1.4-0.3c0.5,0.1,0.9,0.4,1.2,0.8c0.3,0.4,0.4,1,0.3,1.5l-0.2,0.9l1.9,0.4l0.2-0.9c0.1-0.5,0.4-0.9,0.8-1.2
			c0.4-0.3,0.9-0.4,1.4-0.3c0.5,0.1,0.9,0.4,1.2,0.8c0.3,0.4,0.4,0.9,0.3,1.4c-0.1,0.5-0.4,0.9-0.8,1.2c-0.4,0.3-0.9,0.4-1.4,0.3
			l-0.9-0.2l-0.7,3.4l-0.9,4h0.1l1.8,0.4c0.3-0.7,0.8-1.4,1.3-2c0.6-0.6,1.2-1.1,1.9-1.5c1.2-0.7,2.2-1.7,3-2.9
			c0.5-0.8,0.9-1.6,1.1-2.4C192.3,37.7,192.4,37.2,192.5,36.6L192.5,36.6z"/>
	</g>
	<path class="st7" d="M181.5,128.2c5,0.2,7.5,2.8,7.5,7.9V346c0,5.1-2.5,7.8-7.5,7.9H50.1c-5.3,0-7.9-2.6-7.9-7.9V136.1
		c0-5.2,2.6-7.9,7.9-7.9L181.5,128.2L181.5,128.2z"/>
	<path class="st8" d="M180.9,160.4v25.5c0,3.7-1.9,5.5-5.6,5.5H55.5c-3.7,0-5.6-1.9-5.6-5.5v-32.2c0-3.7,1.9-5.6,5.6-5.6h119.8
		c3.7,0,5.6,1.9,5.6,5.6L180.9,160.4L180.9,160.4z M49.9,290.7h131v50.1c0,3.7-1.9,5.5-5.6,5.5H55.5c-3.7,0-5.6-1.8-5.6-5.5V290.7z"
		/>
	
		<linearGradient id="SVGID_00000139257307236605465210000000868791819552317324_" gradientUnits="userSpaceOnUse" x1="59.8436" y1="511.5309" x2="170.9564" y2="622.6436" gradientTransform="matrix(1 0 0 1 0 -322)">
		<stop  offset="0" style="stop-color:#ABB0C0"/>
		<stop  offset="1" style="stop-color:#858EA2"/>
	</linearGradient>
	<path style="fill-rule:evenodd;clip-rule:evenodd;fill:url(#SVGID_00000139257307236605465210000000868791819552317324_);" d="
		M180.9,290.7h-131v-88.5c0-3.7,1.9-5.5,5.6-5.5h119.8c3.7,0,5.6,1.8,5.6,5.5V290.7z"/>
	<circle id="Options1" class="st10" cx="177.1" cy="138.2" r="2.2"/>
	<circle id="Options1-2" class="st10" cx="168.6" cy="138.2" r="2.2"/>
	<circle id="Options1-3" class="st10" cx="160.1" cy="138.3" r="2.2"/>
	<path class="st10" d="M97.5,141.8L97.5,141.8l-44.4-0.2c-1.7,0-3.1-1.4-3.1-3.1c0-1.7,1.4-3.1,3.1-3.1l0,0l44.4,0.2
		c1.7,0,3.1,1.4,3.1,3.1C100.6,140.4,99.2,141.8,97.5,141.8z"/>
	
		<linearGradient id="SVGID_00000156564333161044182160000004483228539351129263_" gradientUnits="userSpaceOnUse" x1="83.1403" y1="645.45" x2="62.09" y2="645.45" gradientTransform="matrix(1 0 0 1 0 -322)">
		<stop  offset="0" style="stop-color:#AFB5C3"/>
		<stop  offset="1" style="stop-color:#555B68"/>
	</linearGradient>
	<path style="fill-rule:evenodd;clip-rule:evenodd;fill:url(#SVGID_00000156564333161044182160000004483228539351129263_);" d="
		M62.8,325.9c-0.5-0.4-0.7-1-0.7-1.7c0-1.3,1.1-2.4,2.4-2.4c0.6,0,1.3,0.2,1.7,0.7l3.3,3.3l9.7-9.7c0.4-0.5,1-0.7,1.7-0.7
		c1.3,0,2.4,1,2.4,2.3c0,0,0,0,0,0.1c0,0.6-0.2,1.2-0.7,1.7l-11.3,11.3c-0.4,0.5-1,0.7-1.7,0.7c-0.6,0-1.2-0.2-1.7-0.7L62.8,325.9z"
		/>
	
		<linearGradient id="SVGID_00000037662050435068866630000010398636785242255253_" gradientUnits="userSpaceOnUse" x1="59.6285" y1="659.8233" x2="85.8365" y2="631.0936" gradientTransform="matrix(1 0 0 1 0 -322)">
		<stop  offset="0" style="stop-color:#E7E9ED"/>
		<stop  offset="0.99" style="stop-color:#F2F4F6"/>
	</linearGradient>
	<path style="fill-rule:evenodd;clip-rule:evenodd;fill:url(#SVGID_00000037662050435068866630000010398636785242255253_);" d="
		M62.8,325.9l4.9,4.9c0.4,0.5,1,0.7,1.7,0.7c0.6,0,1.2-0.2,1.7-0.7l11.3-11.3c0.5-0.4,0.7-1,0.7-1.7c0-1.3-1-2.4-2.3-2.4
		c0,0,0,0-0.1,0c-0.6,0-1.2,0.2-1.7,0.7l-9.7,9.7l-3.3-3.3c-0.4-0.5-1.1-0.7-1.7-0.7c-1.3,0-2.3,1.1-2.4,2.4
		C62.1,324.9,62.4,325.5,62.8,325.9z M63.6,338.8c-4.2,0-6.3-2.1-6.3-6.3v-18c0-4.2,2.1-6.3,6.3-6.3h18.1c4.2,0,6.4,2.1,6.4,6.3v18
		c0,4.2-2.1,6.3-6.4,6.3H63.6z"/>
	
		<linearGradient id="SVGID_00000093143172681849171690000016434268693062810263_" gradientUnits="userSpaceOnUse" x1="57.4" y1="480.1404" x2="155.4" y2="480.1404" gradientTransform="matrix(1 0 0 1 0 -322)">
		<stop  offset="0" style="stop-color:#E7E9ED"/>
		<stop  offset="0.99" style="stop-color:#F2F4F6"/>
	</linearGradient>
	<path style="fill-rule:evenodd;clip-rule:evenodd;fill:url(#SVGID_00000093143172681849171690000016434268693062810263_);" d="
		M153,155.8c0.6,0,1.3,0.3,1.7,0.7c0.5,0.4,0.7,1,0.7,1.6c0,1.3-1,2.3-2.3,2.4c0,0,0,0-0.1,0H59.8c-0.6,0-1.2-0.2-1.7-0.7
		c-0.5-0.4-0.7-1-0.7-1.7c0-0.6,0.2-1.2,0.7-1.6c0.4-0.5,1-0.8,1.7-0.7H153z"/>
	
		<linearGradient id="SVGID_00000033365098067617854450000004126671792832662206_" gradientUnits="userSpaceOnUse" x1="57.3993" y1="503.75" x2="112.761" y2="503.75" gradientTransform="matrix(1 0 0 1 0 -322)">
		<stop  offset="0" style="stop-color:#E7E9ED"/>
		<stop  offset="0.99" style="stop-color:#F2F4F6"/>
	</linearGradient>
	<path style="fill-rule:evenodd;clip-rule:evenodd;fill:url(#SVGID_00000033365098067617854450000004126671792832662206_);" d="
		M110.4,179.4c0.7,0,1.3,0.3,1.7,0.7c0.4,0.4,0.6,1,0.6,1.6s-0.2,1.2-0.6,1.7c-0.5,0.4-1.1,0.7-1.7,0.7H59.8c-0.5,0-1.1-0.2-1.5-0.5
		c-0.1,0-0.1-0.1-0.1-0.2c-0.5-0.5-0.7-1.1-0.7-1.7c0-0.6,0.2-1.2,0.7-1.6c0.4-0.5,1-0.7,1.7-0.7H110.4z"/>
	
		<linearGradient id="SVGID_00000077292354439491427730000006905199492142696341_" gradientUnits="userSpaceOnUse" x1="57.4" y1="491.9" x2="166.2" y2="491.9" gradientTransform="matrix(1 0 0 1 0 -322)">
		<stop  offset="0" style="stop-color:#E7E9ED"/>
		<stop  offset="0.99" style="stop-color:#F2F4F6"/>
	</linearGradient>
	<path style="fill-rule:evenodd;clip-rule:evenodd;fill:url(#SVGID_00000077292354439491427730000006905199492142696341_);" d="
		M163.9,167.6c1.3,0,2.3,1.1,2.3,2.3l0,0c0,0.6-0.2,1.2-0.7,1.7c-0.4,0.4-1,0.7-1.7,0.7h-104c-0.6,0-1.2-0.2-1.7-0.7
		c-0.5-0.4-0.7-1-0.7-1.7c0-0.6,0.2-1.2,0.7-1.7c0.4-0.5,1-0.7,1.7-0.7L163.9,167.6L163.9,167.6z"/>
	
		<linearGradient id="SVGID_00000044162157973201549150000007421156240769569964_" gradientUnits="userSpaceOnUse" x1="57.4" y1="622.3" x2="164.8194" y2="622.3" gradientTransform="matrix(1 0 0 1 0 -322)">
		<stop  offset="0" style="stop-color:#E7E9ED"/>
		<stop  offset="0.99" style="stop-color:#F2F4F6"/>
	</linearGradient>
	<path style="fill-rule:evenodd;clip-rule:evenodd;fill:url(#SVGID_00000044162157973201549150000007421156240769569964_);" d="
		M162.5,297.9c0.6,0,1.3,0.2,1.7,0.7c0.4,0.4,0.7,1,0.6,1.7c0,1.3-1,2.3-2.3,2.4h-0.1H59.8c-0.6,0-1.2-0.2-1.7-0.7
		c-0.5-0.4-0.7-1-0.7-1.7c0-1.3,1.1-2.4,2.4-2.4H162.5z"/>
	<path class="st7" d="M340.8,128.2c5,0.2,7.5,2.8,7.5,7.9v282.7c0,5.2-2.5,7.8-7.5,7.9H209.5c-5.2,0-7.9-2.6-7.9-7.9V136.1
		c0-5.2,2.6-7.9,7.9-7.9L340.8,128.2L340.8,128.2z"/>
	<path class="st8" d="M340.3,153.7v19.5c0,3.7-1.9,5.6-5.6,5.6H214.9c-3.7,0-5.6-1.9-5.6-5.6v-19.5c0-3.7,1.9-5.6,5.6-5.6h119.8
		C338.4,148.1,340.3,150,340.3,153.7z M253.1,363.8l68-0.1l19.3,0.1v49.9c0,3.7-1.9,5.5-5.6,5.5H214.9c-3.8,0-5.6-1.8-5.6-5.5v-49.9
		l19.1-0.1L253.1,363.8z"/>
	<path class="st17" d="M161.2,219.4l-0.2-0.1c-1-0.2-1.8-0.7-2.4-1.6c-0.1-0.1-0.2-0.3-0.3-0.5c-0.4-0.7-0.5-1.6-0.3-2.4
		c0.2-1,0.8-1.8,1.6-2.3c1.6-1.2,3.9-0.8,5.1,0.9c0.1,0.1,0.1,0.1,0.1,0.2c0.6,0.8,0.8,1.8,0.6,2.8s-0.8,1.9-1.6,2.5
		C163.1,219.4,162.1,219.6,161.2,219.4z M99.3,240c-0.2-0.6-0.2-1.3-0.1-1.9c0.2-1,0.8-1.8,1.7-2.4c0.8-0.6,1.9-0.8,2.8-0.5
		c1,0.2,1.8,0.7,2.4,1.6c0.5,0.7,0.7,1.6,0.7,2.5c0,0.1-0.1,0.2-0.1,0.4c-0.2,1-0.8,1.9-1.7,2.4c-0.1,0.1-0.2,0.1-0.3,0.2
		c-0.8,0.4-1.6,0.6-2.5,0.4c-0.1,0-0.2-0.1-0.3-0.1c-0.8-0.3-1.5-0.8-2-1.5C99.6,240.7,99.4,240.3,99.3,240z M124.7,252.9
		c0.8-0.4,1.7-0.6,2.5-0.4c0.1,0,0.2,0,0.3,0.1c0.9,0.2,1.6,0.8,2.1,1.5c0.2,0.3,0.3,0.7,0.4,1c0.2,0.6,0.2,1.2,0.1,1.9
		c-0.2,1-0.8,1.9-1.6,2.4s-1.9,0.7-2.9,0.5s-1.9-0.8-2.4-1.6c-0.5-0.7-0.7-1.5-0.6-2.4c0-0.2,0-0.3,0.1-0.5c0.2-1,0.8-1.9,1.6-2.4
		C124.5,253,124.6,253,124.7,252.9L124.7,252.9z M70.3,269.3c0.8,0.2,1.5,0.7,2,1.5c0.2,0.3,0.4,0.6,0.5,1c0.2,0.6,0.2,1.2,0.1,1.8
		c-0.4,2-2.4,3.4-4.5,3c-1-0.2-1.8-0.8-2.4-1.6c-1.2-1.7-0.7-4.1,1-5.2l0,0c0.8-0.6,1.9-0.8,2.8-0.5
		C70.1,269.1,70.2,269.2,70.3,269.3z"/>
	<path class="st18" d="M161.2,219.4l-31.1,35.7c-0.1-0.3-0.2-0.7-0.4-1c-0.5-0.7-1.3-1.3-2.1-1.5l30.8-35.3c0.1,0.2,0.2,0.3,0.3,0.5
		c0.5,0.8,1.4,1.4,2.4,1.6H161.2z M106.7,239.3l18,13.6c-0.1,0-0.2,0.1-0.3,0.1c-0.8,0.6-1.4,1.4-1.6,2.4c0,0.2-0.1,0.3-0.1,0.5
		l-18-13.7c0.1,0,0.2-0.1,0.3-0.2c0.9-0.5,1.5-1.4,1.7-2.4C106.7,239.5,106.7,239.4,106.7,239.3L106.7,239.3z M99.3,240
		c0.1,0.4,0.3,0.7,0.5,1c0.5,0.7,1.2,1.3,2,1.5l-28.9,29.2c-0.1-0.4-0.3-0.7-0.5-1c-0.5-0.7-1.2-1.3-2-1.5L99.3,240z"/>
	
		<linearGradient id="SVGID_00000111882526158772875000000011452119570691398572_" gradientUnits="userSpaceOnUse" x1="274.8" y1="580.8" x2="274.8" y2="505.7" gradientTransform="matrix(1 0 0 1 0 -322)">
		<stop  offset="0" style="stop-color:#AFB5C3"/>
		<stop  offset="1" style="stop-color:#7A8295"/>
	</linearGradient>
	<path style="fill-rule:evenodd;clip-rule:evenodd;fill:url(#SVGID_00000111882526158772875000000011452119570691398572_);" d="
		M340.3,189.2v64.1c0,3.6-1.8,5.4-5.3,5.5H214.9c-3.7,0-5.6-1.8-5.6-5.5v-64.1c0-3.7,1.9-5.5,5.6-5.5H335
		C338.5,183.8,340.3,185.6,340.3,189.2z"/>
	
		<linearGradient id="SVGID_00000089572949038690783690000018433187725498354076_" gradientUnits="userSpaceOnUse" x1="240.2151" y1="571.5301" x2="289.8751" y2="666.7001" gradientTransform="matrix(1 0 0 1 0 -322)">
		<stop  offset="0" style="stop-color:#C5C9D4"/>
		<stop  offset="1" style="stop-color:#838CA0"/>
	</linearGradient>
	<path style="fill-rule:evenodd;clip-rule:evenodd;fill:url(#SVGID_00000089572949038690783690000018433187725498354076_);" d="
		M228.3,363.7l-19.1,0.1v-94.5c0-1,0.2-2,0.6-2.9c0.8-1.7,2.4-2.6,4.8-2.6h120c3.7,0,5.6,1.8,5.6,5.5v94.5l-19.3-0.1H228.3z"/>
	<circle id="Options1-4" class="st10" cx="338.6" cy="137" r="2.2"/>
	<circle id="Options1-5" class="st10" cx="330.1" cy="137.1" r="2.2"/>
	<circle id="Options1-6" class="st10" cx="321.6" cy="137.1" r="2.2"/>
	<path class="st10" d="M259,140.6L259,140.6l-44.4-0.2c-1.7,0-3.1-1.4-3.1-3.1c0-1.7,1.4-3.1,3.1-3.1l0,0l44.4,0.2
		c1.7,0,3.1,1.4,3.1,3.1C262.1,139.3,260.7,140.6,259,140.6z"/>
	
		<linearGradient id="SVGID_00000083779469192587501310000011522706656997183104_" gradientUnits="userSpaceOnUse" x1="216.8" y1="480.15" x2="319.5" y2="480.15" gradientTransform="matrix(1 0 0 1 0 -322)">
		<stop  offset="0" style="stop-color:#E7E9ED"/>
		<stop  offset="0.99" style="stop-color:#F2F4F6"/>
	</linearGradient>
	<path style="fill-rule:evenodd;clip-rule:evenodd;fill:url(#SVGID_00000083779469192587501310000011522706656997183104_);" d="
		M219.1,160.5c-0.6,0-1.2-0.2-1.6-0.7c-0.5-0.4-0.7-1-0.7-1.7c0-0.6,0.3-1.2,0.7-1.6c0.4-0.5,1-0.7,1.6-0.7h98
		c0.7,0,1.3,0.3,1.7,0.7c0.4,0.4,0.7,1,0.7,1.6c0,1.3-1,2.3-2.2,2.4c-0.1,0-0.1,0-0.2,0H219.1z"/>
	
		<linearGradient id="SVGID_00000162345705378214559010000001717134328675518606_" gradientUnits="userSpaceOnUse" x1="216.7808" y1="492" x2="320.942" y2="492" gradientTransform="matrix(1 0 0 1 0 -322)">
		<stop  offset="0" style="stop-color:#E7E9ED"/>
		<stop  offset="0.99" style="stop-color:#F2F4F6"/>
	</linearGradient>
	<path style="fill-rule:evenodd;clip-rule:evenodd;fill:url(#SVGID_00000162345705378214559010000001717134328675518606_);" d="
		M217.5,168.3c0.4-0.5,1-0.7,1.6-0.7h99.4c0.6,0,1.3,0.2,1.7,0.7c0.4,0.4,0.7,1,0.6,1.7c0,0.6-0.2,1.2-0.6,1.7
		c-0.5,0.4-1.1,0.7-1.7,0.7h-99.4c-0.6,0-1.2-0.2-1.6-0.7c-0.5-0.4-0.7-1-0.7-1.7C216.7,169.4,217,168.8,217.5,168.3z"/>
	
		<linearGradient id="SVGID_00000029763166637632633510000007763056397291598999_" gradientUnits="userSpaceOnUse" x1="216.8" y1="695.2" x2="310.9" y2="695.2" gradientTransform="matrix(1 0 0 1 0 -322)">
		<stop  offset="0" style="stop-color:#E7E9ED"/>
		<stop  offset="0.99" style="stop-color:#F2F4F6"/>
	</linearGradient>
	<path style="fill-rule:evenodd;clip-rule:evenodd;fill:url(#SVGID_00000029763166637632633510000007763056397291598999_);" d="
		M308.5,370.9c1.3,0,2.4,1,2.4,2.3l0,0c0,0.6-0.2,1.2-0.7,1.7c-0.4,0.5-1.1,0.7-1.7,0.7h-89.4c-0.6,0-1.2-0.2-1.6-0.7
		c-0.5-0.4-0.7-1-0.7-1.7c0-0.6,0.3-1.3,0.7-1.7c0.4-0.5,1-0.7,1.6-0.7h89.4V370.9z"/>
	
		<linearGradient id="SVGID_00000027601252475007600930000001990763245983211159_" gradientUnits="userSpaceOnUse" x1="216.7297" y1="731.8" x2="283.7297" y2="731.8" gradientTransform="matrix(1 0 0 1 0 -322)">
		<stop  offset="0" style="stop-color:#E7E9ED"/>
		<stop  offset="0.99" style="stop-color:#F2F4F6"/>
	</linearGradient>
	<path style="fill-rule:evenodd;clip-rule:evenodd;fill:url(#SVGID_00000027601252475007600930000001990763245983211159_);" d="
		M281.4,407.4c0.6,0,1.2,0.2,1.7,0.7c0.5,0.4,0.7,1.1,0.7,1.7c0,1.3-1.1,2.3-2.4,2.4h-62.3c-0.6,0-1.2-0.2-1.6-0.7
		c-0.5-0.4-0.7-1-0.7-1.7c0-0.6,0.3-1.3,0.7-1.7c0.4-0.4,1-0.7,1.6-0.7L281.4,407.4L281.4,407.4z"/>
	
		<linearGradient id="SVGID_00000097482118435081526770000013310069782735665558_" gradientUnits="userSpaceOnUse" x1="216.7" y1="707.8404" x2="314.7" y2="707.8404" gradientTransform="matrix(1 0 0 1 0 -322)">
		<stop  offset="0" style="stop-color:#E7E9ED"/>
		<stop  offset="0.99" style="stop-color:#F2F4F6"/>
	</linearGradient>
	<path style="fill-rule:evenodd;clip-rule:evenodd;fill:url(#SVGID_00000097482118435081526770000013310069782735665558_);" d="
		M312.3,383.5c0.6,0,1.3,0.3,1.7,0.7c0.4,0.4,0.7,1,0.7,1.6c0,1.3-1,2.3-2.3,2.4h-0.1h-93.2c-0.6,0-1.2-0.2-1.7-0.7
		c-0.4-0.4-0.7-1.1-0.7-1.7s0.2-1.2,0.7-1.6c0.4-0.5,1-0.8,1.7-0.7L312.3,383.5L312.3,383.5z"/>
	
		<linearGradient id="SVGID_00000055675409001213679650000013373926565219293847_" gradientUnits="userSpaceOnUse" x1="216.7" y1="719.8" x2="325.6" y2="719.8" gradientTransform="matrix(1 0 0 1 0 -322)">
		<stop  offset="0" style="stop-color:#E7E9ED"/>
		<stop  offset="0.99" style="stop-color:#F2F4F6"/>
	</linearGradient>
	<path style="fill-rule:evenodd;clip-rule:evenodd;fill:url(#SVGID_00000055675409001213679650000013373926565219293847_);" d="
		M324.9,396.1c0.4,0.4,0.7,1.1,0.7,1.7s-0.2,1.2-0.7,1.7c-0.4,0.5-1,0.7-1.7,0.7H219.1c-0.6,0-1.3-0.2-1.7-0.7
		c-0.4-0.4-0.7-1-0.7-1.7c0-0.6,0.2-1.2,0.7-1.7c0.4-0.5,1.1-0.7,1.7-0.7h104.2C323.9,395.4,324.5,395.6,324.9,396.1z"/>
	
		<linearGradient id="SVGID_00000011022735405722666860000012054491315950850732_" gradientUnits="userSpaceOnUse" x1="238.4" y1="636.85" x2="311.119" y2="636.85" gradientTransform="matrix(1 0 0 1 0 -322)">
		<stop  offset="0" style="stop-color:#FFFFFF;stop-opacity:0.5"/>
		<stop  offset="1" style="stop-color:#FFFFFF;stop-opacity:0.2"/>
	</linearGradient>
	<path style="fill-rule:evenodd;clip-rule:evenodd;fill:url(#SVGID_00000011022735405722666860000012054491315950850732_);" d="
		M276.7,333.8c0-0.8,0.3-1.5,0.9-2.1c0.5-0.6,1.3-0.9,2.1-0.9h27.9c0.8,0,1.6,0.3,2.1,0.9c0.6,0.5,0.9,1.3,0.9,2.1v19.6
		c0,1.6-1.3,3-2.9,3h-0.1h-27.8c-1.7,0-3-1.3-3-3L276.7,333.8z M239,333.8c0-0.8,0.3-1.5,0.9-2.1c0.5-0.6,1.3-0.9,2.1-0.9h27.9
		c0.8,0,1.6,0.3,2.1,0.9c0.6,0.5,0.9,1.3,0.9,2.1v19.6c0,1.6-1.3,3-2.9,3h-0.1H242c-1.7,0-3-1.3-3-3V333.8z M241.4,279.3
		c-0.8,0-1.5-0.3-2.1-0.9s-0.9-1.3-0.9-2.1c0-1.7,1.3-3,3-3h66.8c0.8,0,1.6,0.3,2.1,0.9c0.6,0.6,0.9,1.3,0.8,2.1
		c0.1,1.6-1.2,2.9-2.8,3c-0.1,0-0.1,0-0.2,0H241.4z M239,288.2c0-1.7,1.3-3,3-3h65.5c0.8,0,1.6,0.3,2.1,0.9c0.6,0.5,0.9,1.3,0.9,2.1
		V321c0,0.8-0.3,1.6-0.9,2.1s-1.3,0.8-2.1,0.8H242c-1.7,0-3-1.3-3-3V288.2z"/>
	<g class="st28">
		<path class="st7" d="M500.3,128.2c5,0.2,7.5,2.8,7.5,7.9v54.4c0,5.1-2.5,7.7-7.5,7.9H368.9c-5.3,0-7.9-2.6-7.9-7.9v-54.4
			c0-5.2,2.6-7.9,7.9-7.9L500.3,128.2L500.3,128.2z"/>
		<path class="st8" d="M374.1,148.8h120.2c3,0,5.4,2.4,5.4,5.4l0,0V185c0,3.7-1.9,5.5-5.6,5.5H374.3c-3.7,0-5.6-1.8-5.6-5.5v-30.8
			C368.7,151.2,371.1,148.8,374.1,148.8L374.1,148.8z"/>
		
			<linearGradient id="SVGID_00000136413060736728735490000003063243357713875619_" gradientUnits="userSpaceOnUse" x1="376.1" y1="489.15" x2="490.7194" y2="489.15" gradientTransform="matrix(1 0 0 1 0 -322)">
			<stop  offset="0" style="stop-color:#E7E9ED"/>
			<stop  offset="0.99" style="stop-color:#F2F4F6"/>
		</linearGradient>
		<path style="fill-rule:evenodd;clip-rule:evenodd;fill:url(#SVGID_00000136413060736728735490000003063243357713875619_);" d="
			M460.7,170.7c0.6,0,1.3,0.3,1.7,0.7c0.5,0.4,0.7,1,0.7,1.6c0,1.3-0.9,2.3-2.2,2.4c-0.1,0-0.1,0-0.2,0h-82.2
			c-0.6,0-1.2-0.2-1.7-0.7s-0.7-1.1-0.7-1.7c0-0.6,0.2-1.2,0.7-1.6c0.4-0.5,1-0.7,1.7-0.7H460.7z M490.1,159.6
			c0.4,0.5,0.7,1.1,0.6,1.7c0,1.3-0.9,2.3-2.2,2.4c-0.1,0-0.1,0-0.2,0H378.5c-0.6,0-1.2-0.2-1.7-0.7c-0.4-0.4-0.7-1-0.7-1.7
			c0-0.6,0.2-1.2,0.7-1.7c0.4-0.5,1-0.7,1.7-0.7h109.8C489,158.9,489.6,159.2,490.1,159.6L490.1,159.6z"/>
		<circle id="Options1-7" class="st10" cx="495.8" cy="137.8" r="2.2"/>
		<circle id="Options1-8" class="st10" cx="487.3" cy="137.9" r="2.2"/>
		<circle id="Options1-9" class="st10" cx="478.8" cy="137.9" r="2.2"/>
		<path class="st10" d="M416.1,141.4L416.1,141.4l-44.4-0.2c-1.7,0-3.1-1.4-3.1-3.1c0-1.7,1.4-3.1,3.1-3.1l0,0l44.4,0.2
			c1.7,0,3.1,1.4,3.1,3.1S417.8,141.4,416.1,141.4L416.1,141.4z"/>
	</g>
	<path class="st30" d="M204.4,139h1.2h0.7l119.8,4.1c3.7,0.1,5.5,2,5.4,5.7l-2.2,64c-0.2,3.7-2.1,5.5-5.9,5.3l-3.7-0.1H319l-117.4-4
		v-72.9L204.4,139z"/>
	<path class="st31" d="M217.6,131.8c0.6-0.6,1.1-1.4,1.1-2.3c1.6,0.3,3,1.1,4.1,2.3c0.2,0.2,0.3,0.5,0.2,0.9c0,0.3-0.1,0.6-0.3,0.8
		s-0.5,0.3-0.9,0.4c-0.3,0-0.6-0.1-0.8-0.4C220.2,132.4,218.9,131.8,217.6,131.8z M216.4,125.8c0.1,0,0.1-0.1,0.2-0.1
		c2.7-0.9,5.7-0.2,7.6,2c0.2,0.3,0.3,0.6,0.3,0.9s-0.2,0.6-0.4,0.8s-0.5,0.3-0.8,0.3s-0.6-0.1-0.8-0.3c-1-1.2-2.5-1.8-4-1.6
		c-0.2-0.4-0.4-0.7-0.7-1C217.4,126.3,216.9,126,216.4,125.8L216.4,125.8z"/>
	
		<linearGradient id="SVGID_00000088837939007405184400000013950430286187047048_" gradientUnits="userSpaceOnUse" x1="214.5238" y1="456.8262" x2="186.4238" y2="428.7162" gradientTransform="matrix(1 0 0 1 0 -322)">
		<stop  offset="0" style="stop-color:#373B43"/>
		<stop  offset="1" style="stop-color:#121212"/>
	</linearGradient>
	<path style="fill-rule:evenodd;clip-rule:evenodd;fill:url(#SVGID_00000088837939007405184400000013950430286187047048_);" d="
		M216.4,125.8c0.5,0.2,1,0.5,1.3,0.9c0.3,0.3,0.5,0.6,0.7,1c0.2,0.5,0.3,1,0.3,1.6c0,0.1,0,0.2,0,0.2c-0.1,0.9-0.5,1.7-1.1,2.3v0.1
		c-0.7,0.7-1.7,1-2.7,0.9c-14.8-0.7-25-7.6-30.5-20.9c-0.4-0.9-0.4-1.9,0-2.8c0.3-0.9,1.1-1.7,2-2c0.9-0.4,1.9-0.4,2.8,0
		c0.9,0.3,1.7,1.1,2,2c4.3,10.4,12.3,15.8,24,16.3C215.7,125.5,216,125.6,216.4,125.8z"/>
	<path class="st33" d="M199.5,184.2c-0.6,0-1.2-0.3-1.6-0.7c-0.5-0.5-0.7-1.1-0.7-1.7c0-0.6,0.3-1.2,0.8-1.6c0.4-0.5,1-0.7,1.6-0.6
		c7.3,0.3,14.1,0.5,20.5,0.7c1.6,0.1,3.2,0.1,4.7,0.2c0.8,0,1.6,0,2.4,0.1c0.2,0,0.3,0,0.5,0.1l7.9,0.2c24.5,0.8,37.3,1.3,38.3,1.4
		c0.6,0,1.2,0.3,1.7,0.7c0.4,0.5,0.6,1.1,0.6,1.7c0,0.6-0.2,1.2-0.7,1.7c-0.4,0.4-1,0.7-1.7,0.6c-1,0-13.8-0.5-38.3-1.3l-7.9-0.3
		c-0.2,0-0.3,0-0.5,0c-0.8,0-1.6-0.1-2.4-0.1L220,185C213.6,184.8,206.7,184.5,199.5,184.2z"/>
	<path class="st8" d="M263.3,133.2c1.1-1.8,2.8-3,4.8-3.4l-1.2,33.7c-1.1,0-2.2-0.5-2.9-1.3c-0.8-0.8-1.1-1.9-1.1-3l0.9-9.1
		c-0.8-0.1-1.5-0.6-1.9-1.2c-0.5-0.7-0.7-1.5-0.6-2.3l0.2-7.3C261.5,137,262.1,135,263.3,133.2z M256.4,129.4l2.7,0.1l-0.3,8.6
		c0,1.3-0.5,2.5-1.4,3.4c-0.8,0.9-1.9,1.6-3.1,1.9l-0.1,17.2c0,0.7-0.3,1.3-0.7,1.8c-0.5,0.4-1.1,0.7-1.7,0.6
		c-0.6,0-1.2-0.3-1.6-0.8c-0.5-0.5-0.7-1.1-0.6-1.8l1.1-17.2c-1.1-0.4-2.1-1.2-2.8-2.1c-0.7-1-1-2.2-1-3.4l0.3-8.5l2.5,0.1l-0.3,7.9
		c0,0.3,0.1,0.6,0.2,0.8c0.2,0.2,0.5,0.3,0.8,0.3s0.5,0,0.7-0.2s0.4-0.5,0.4-0.8l0.3-7.9l2.6,0.1l-0.3,7.9c0,0.3,0.1,0.6,0.3,0.8
		s0.4,0.3,0.7,0.3c0.3,0.1,0.6,0,0.7-0.2c0.2-0.2,0.3-0.5,0.4-0.8L256.4,129.4z"/>
	<path class="st34" d="M190.1,171.1l131,4.5l-0.3,7.4l-0.2,7.5c-0.2,3.7-2.1,5.5-5.9,5.3l-119.7-4c-3.7-0.1-5.5-2.1-5.4-5.7l0.2-7.5
		L190.1,171.1z M199.5,184.2c7.3,0.3,14.1,0.5,20.5,0.7l4.7,0.2c0.8,0,1.6,0,2.4,0.1c0.2,0,0.3,0,0.5,0l7.9,0.3
		c24.5,0.8,37.3,1.3,38.3,1.3c0.6,0,1.2-0.2,1.7-0.6c0.5-0.4,0.7-1,0.7-1.7c0.1-0.6-0.2-1.2-0.6-1.7s-1-0.7-1.7-0.7
		c-1-0.1-13.8-0.5-38.3-1.4l-7.9-0.2c-0.2,0-0.3-0.1-0.5-0.1c-0.8,0-1.6-0.1-2.4-0.1c-1.6-0.1-3.1-0.1-4.7-0.2
		c-6.4-0.2-13.3-0.4-20.5-0.7c-0.6,0-1.2,0.2-1.6,0.6c-0.5,0.4-0.8,1-0.8,1.6s0.2,1.3,0.7,1.7C198.3,184,198.9,184.3,199.5,184.2z"
		/>
	
		<linearGradient id="SVGID_00000088855401633084760920000008431712871537265039_" gradientUnits="userSpaceOnUse" x1="306.4247" y1="522.9769" x2="192.9847" y2="401.4269" gradientTransform="matrix(1 0 0 1 0 -322)">
		<stop  offset="0" style="stop-color:#5A606E"/>
		<stop  offset="1" style="stop-color:#CCD0D8"/>
	</linearGradient>
	<path style="fill-rule:evenodd;clip-rule:evenodd;fill:url(#SVGID_00000088855401633084760920000008431712871537265039_);" d="
		M321.1,175.7l-130.9-4.5l1.7-49.1c0.1-3.7,2.1-5.4,5.8-5.3l119.7,4.1c3.7,0.1,5.5,2,5.4,5.7L321.1,175.7z M256.4,129.4l-0.3,7.9
		c0,0.3-0.2,0.6-0.4,0.8s-0.5,0.3-0.7,0.2c-0.3,0-0.5-0.1-0.7-0.3s-0.3-0.5-0.3-0.8l0.3-7.9l-2.6-0.1l-0.3,7.9
		c0,0.3-0.1,0.6-0.4,0.8c-0.2,0.2-0.4,0.3-0.7,0.2c-0.3,0-0.6-0.1-0.8-0.3s-0.3-0.5-0.2-0.8l0.3-7.9l-2.5-0.1l-0.3,8.5
		c0,1.2,0.3,2.4,1,3.4s1.7,1.7,2.8,2.1l-1.1,17.2c0,0.7,0.2,1.3,0.6,1.8c0.4,0.5,1,0.8,1.6,0.8s1.3-0.2,1.7-0.6
		c0.5-0.5,0.7-1.1,0.7-1.8l0.1-17.2c1.2-0.3,2.3-0.9,3.1-1.9c0.9-0.9,1.4-2.1,1.4-3.4l0.3-8.6L256.4,129.4z M263.3,133.2
		c-1.2,1.7-1.8,3.8-1.8,5.9l-0.2,7.3c-0.1,0.8,0.1,1.6,0.6,2.3c0.4,0.6,1.1,1.1,1.9,1.2l-0.9,9.1c0,1.1,0.3,2.2,1.1,3
		c0.7,0.8,1.8,1.3,2.9,1.3l1.2-33.6C266.1,130.2,264.3,131.5,263.3,133.2L263.3,133.2z"/>
	<path class="st8" d="M185.8,171l131,4.5l-0.3,7.4l-0.2,7.5c-0.1,3.7-2.1,5.5-5.8,5.4l-119.7-4.1c-3.7-0.2-5.5-2.1-5.4-5.7l0.2-7.5
		L185.8,171z M195.2,184.1c7.3,0.3,14.1,0.5,20.5,0.7c1.6,0,3.2,0.1,4.8,0.2l2.4,0.1c0.2,0,0.3,0,0.5,0l7.9,0.3
		c24.6,0.8,37.3,1.3,38.3,1.3c0.6,0,1.2-0.2,1.7-0.6c0.5-0.4,0.7-1.1,0.7-1.7c0.1-1.3-0.9-2.3-2.1-2.4h-0.1
		c-1-0.1-13.8-0.5-38.4-1.3l-7.9-0.2c-0.1,0-0.3-0.1-0.4-0.1l-2.4-0.1c-1.6,0-3.1-0.1-4.8-0.2c-6.4-0.2-13.2-0.4-20.5-0.7
		c-0.6,0-1.2,0.2-1.6,0.6c-0.5,0.4-0.8,1-0.8,1.6s0.2,1.3,0.7,1.7C194,183.8,194.6,184.1,195.2,184.1L195.2,184.1z"/>
	
		<linearGradient id="SVGID_00000175288104749771840500000015521617550220885633_" gradientUnits="userSpaceOnUse" x1="396.3444" y1="543.4008" x2="213.2044" y2="448.7508" gradientTransform="matrix(1 0 0 1 0 -322)">
		<stop  offset="0" style="stop-color:#71788B"/>
		<stop  offset="1" style="stop-color:#CCD0D8"/>
	</linearGradient>
	<path style="fill-rule:evenodd;clip-rule:evenodd;fill:url(#SVGID_00000175288104749771840500000015521617550220885633_);" d="
		M316.8,175.6l-131-4.6l1.7-49c0.1-3.7,2.1-5.4,5.8-5.3l119.7,4.1c3.7,0.1,5.5,2,5.4,5.7L316.8,175.6z"/>
	
		<linearGradient id="SVGID_00000005974061594702639490000005985020315186522293_" gradientUnits="userSpaceOnUse" x1="192.9" y1="505.1472" x2="272" y2="505.1472" gradientTransform="matrix(1 0 0 1 0 -322)">
		<stop  offset="0" style="stop-color:#E7E9ED"/>
		<stop  offset="0.99" style="stop-color:#F2F4F6"/>
	</linearGradient>
	<path style="fill-rule:evenodd;clip-rule:evenodd;fill:url(#SVGID_00000005974061594702639490000005985020315186522293_);" d="
		M195.2,184.1c-0.6,0-1.2-0.3-1.6-0.7c-0.4-0.5-0.7-1.1-0.7-1.7c0-0.6,0.3-1.2,0.8-1.6c0.4-0.5,1-0.7,1.6-0.6
		c7.3,0.3,14.1,0.5,20.5,0.7c1.6,0.1,3.2,0.1,4.8,0.2l2.4,0.1c0.2,0,0.3,0,0.4,0.1l7.9,0.2c24.6,0.8,37.3,1.3,38.4,1.3
		c1.3,0,2.3,1,2.3,2.3v0.1c0,0.6-0.2,1.3-0.7,1.7s-1.1,0.7-1.7,0.6c-1-0.1-13.8-0.5-38.4-1.3l-7.9-0.3c-0.2,0-0.3,0-0.5,0l-2.4-0.1
		c-1.6-0.1-3.2-0.1-4.8-0.2C209.3,184.6,202.5,184.4,195.2,184.1z"/>
	
		<linearGradient id="SVGID_00000045603644303685363990000013467957204089495733_" gradientUnits="userSpaceOnUse" x1="155.4146" y1="401.9147" x2="289.6447" y2="401.9147" gradientTransform="matrix(1 0 0 1 0 -322)">
		<stop  offset="0" style="stop-color:#D6D9E0"/>
		<stop  offset="0.24" style="stop-color:#D3D6DE"/>
		<stop  offset="0.42" style="stop-color:#CCD0D8"/>
		<stop  offset="0.57" style="stop-color:#BFC3CF"/>
		<stop  offset="0.7" style="stop-color:#ACB1C1"/>
		<stop  offset="0.83" style="stop-color:#949CAF"/>
		<stop  offset="0.96" style="stop-color:#7C8498"/>
		<stop  offset="1" style="stop-color:#757D90"/>
	</linearGradient>
	<path style="fill-rule:evenodd;clip-rule:evenodd;fill:url(#SVGID_00000045603644303685363990000013467957204089495733_);" d="
		M194.8,100.9l-34.6-4.7c-0.1,0-0.2-0.1-0.2-0.1c-0.5-0.1-0.9-0.2-1.4-0.3c-2.5-0.8-3.5-2.8-3.1-5.8l3.9-28.8c0.5-3.6,2.5-5.2,6-4.8
		h0.2l54,7.3c3.6,0.5,5.1,2.6,4.6,6.2l-3.9,28.8c-0.5,3.6-2.5,5.2-6.1,4.7L194.8,100.9z M209.6,76.6c-0.7-0.1-1.5,0.1-2.1,0.5
		c-0.6,0.5-1,1.1-1.1,1.9l-0.8,5.5c-0.1,0.8,0.1,1.5,0.6,2.1c0.4,0.6,1.1,1,1.8,1.1c0.8,0.1,1.5-0.1,2.1-0.6s1-1.2,1.1-1.9l0.7-5.5
		c0.1-0.7-0.1-1.4-0.5-2C211.1,77,210.4,76.6,209.6,76.6z M188.8,94.6c1.3,0.1,2.6,0.1,3.8-0.2c1.2-0.3,1.8-0.7,2-1.3s0.1-0.8-0.5-1
		l-9.7-1.3c-0.6-0.1-0.9,0.2-0.9,0.7s0.6,1.2,1.7,1.7C186.3,93.9,187.5,94.4,188.8,94.6L188.8,94.6z M174.8,80.2l0.7-5.5
		c0.1-0.7-0.1-1.5-0.6-2.1c-0.4-0.6-1.1-1-1.8-1.1c-1.5-0.2-3,0.8-3.2,2.4c0,0,0,0,0,0.1l-0.8,5.5c-0.1,0.8,0.1,1.5,0.6,2.1
		c0.4,0.6,1.1,1,1.8,1.1c0.8,0.1,1.5-0.1,2.1-0.6C174.3,81.7,174.7,81,174.8,80.2L174.8,80.2z"/>
	<path class="st39" d="M209.6,76.6c0.8,0.1,1.4,0.5,1.9,1.1s0.7,1.3,0.5,2l-0.7,5.5c-0.1,0.8-0.5,1.5-1.1,1.9
		c-0.6,0.5-1.4,0.7-2.1,0.6c-0.7-0.1-1.4-0.5-1.8-1.1c-0.5-0.6-0.8-1.4-0.6-2.1l0.8-5.5c0.1-0.7,0.5-1.4,1.1-1.9
		S208.9,76.4,209.6,76.6z M174.7,80.2c-0.1,0.8-0.5,1.4-1.1,1.9c-0.6,0.4-1.4,0.6-2.1,0.6c-0.7-0.1-1.4-0.5-1.8-1.1
		c-0.5-0.6-0.7-1.4-0.6-2.1l0.8-5.5c0.2-1.5,1.6-2.6,3.2-2.4c0.7,0.1,1.4,0.5,1.8,1.1c0.5,0.6,0.7,1.3,0.6,2.1L174.7,80.2z"/>
	<path class="st40" d="M188.8,94.6c-1.3-0.2-2.5-0.6-3.6-1.2s-1.6-1.1-1.7-1.7s0.3-0.8,0.9-0.7l9.7,1.3c0.6,0.1,0.7,0.4,0.5,1
		s-0.8,1-2,1.3C191.3,94.7,190,94.7,188.8,94.6z"/>
	
		<linearGradient id="SVGID_00000150782934120704205310000014633169698619782579_" gradientUnits="userSpaceOnUse" x1="144.0553" y1="418.2" x2="144.0553" y2="373.94" gradientTransform="matrix(1 0 0 1 0 -322)">
		<stop  offset="0" style="stop-color:#757D90"/>
		<stop  offset="1" style="stop-color:#D6D9E0"/>
	</linearGradient>
	<path style="fill-rule:evenodd;clip-rule:evenodd;fill:url(#SVGID_00000150782934120704205310000014633169698619782579_);" d="
		M160,96.2l-12.6-1.7l-19.9-2.7c-3.6-0.5-5.2-2.6-4.7-6.2l3.9-28.8c0.5-3.6,2.6-5.2,6.2-4.8l32.5,4.4c-3.5-0.4-5.5,1.2-6,4.8
		L155.6,90c-0.4,3.1,0.6,5,3.1,5.8C159.1,96,159.5,96.1,160,96.2z"/>
	
		<linearGradient id="SVGID_00000060741845307199181010000001070646627399366571_" gradientUnits="userSpaceOnUse" x1="171.15" y1="434.57" x2="171.15" y2="416.48" gradientTransform="matrix(1 0 0 1 0 -322)">
		<stop  offset="0" style="stop-color:#373B43"/>
		<stop  offset="1" style="stop-color:#121212"/>
	</linearGradient>
	<path style="fill-rule:evenodd;clip-rule:evenodd;fill:url(#SVGID_00000060741845307199181010000001070646627399366571_);" d="
		M191.9,104.4c-1,1-2,1.9-3.1,2.7c-2.5,1.9-5.2,3.4-8.2,4.3c-3.7,1.1-7.6,1.4-11.4,0.9c-2.1-0.3-4.2-0.8-6.3-1.6
		c1.3-1.1,2.1-2.6,2.4-4.3c0.5-3.7-2.1-7.2-5.9-7.7c-1.8-0.3-3.7,0.2-5.1,1.4c-0.9,0.7-1.6,1.6-2.1,2.7c-0.2-0.2-0.4-0.4-0.6-0.7
		c-1.8-2.3-3.2-4.9-4.1-7.6l12.5,1.7c0.1,0,0.2,0,0.2,0.1l34.6,4.7C193.9,102.1,193,103.3,191.9,104.4z"/>
	
		<linearGradient id="SVGID_00000112617826181399474510000006869820626719383966_" gradientUnits="userSpaceOnUse" x1="194.2262" y1="431.0883" x2="181.2089" y2="435.3642" gradientTransform="matrix(1 0 0 1 0 -322)">
		<stop  offset="0" style="stop-color:#757D90"/>
		<stop  offset="1" style="stop-color:#D6D9E0"/>
	</linearGradient>
	<path style="fill-rule:evenodd;clip-rule:evenodd;fill:url(#SVGID_00000112617826181399474510000006869820626719383966_);" d="
		M180.6,111.5c3-1,5.7-2.4,8.2-4.3c1.1-0.8,2.1-1.8,3.1-2.7c0.2,0.3,0.4,0.6,0.7,0.9c1.1,1.4,1.6,3.2,1.3,5
		c-0.2,1.8-1.2,3.5-2.6,4.6c-1.4,1.1-3.3,1.6-5.1,1.3c-1.8-0.2-3.4-1.2-4.5-2.6C181.2,112.9,180.8,112.2,180.6,111.5z"/>
	
		<linearGradient id="SVGID_00000017502406285004434250000017491935377403457440_" gradientUnits="userSpaceOnUse" x1="164.856" y1="425.0996" x2="152.026" y2="430.0195" gradientTransform="matrix(1 0 0 1 0 -322)">
		<stop  offset="0" style="stop-color:#757D90"/>
		<stop  offset="1" style="stop-color:#D6D9E0"/>
	</linearGradient>
	<path style="fill-rule:evenodd;clip-rule:evenodd;fill:url(#SVGID_00000017502406285004434250000017491935377403457440_);" d="
		M152.2,102.8c0.4-1.1,1.2-2,2.1-2.7c1.5-1.1,3.3-1.6,5.1-1.4c3.7,0.6,6.3,4,5.9,7.7c-0.2,1.7-1,3.2-2.4,4.3
		c-0.1,0.1-0.2,0.2-0.3,0.3c-1.4,1.1-3.3,1.6-5.1,1.3c-1.8-0.2-3.5-1.2-4.6-2.6c-1.1-1.5-1.6-3.3-1.3-5.1
		C151.8,104,151.9,103.4,152.2,102.8z"/>
	<path class="st45" d="M184.8,136c0-0.3,0-0.6,0.2-0.8c0.2-0.3,0.5-0.4,0.8-0.5c0.3,0,0.6,0.1,0.9,0.2c0.1,0.1,0.2,0.2,0.4,0.3
		c1.1,0.6,2.3,0.9,3.5,0.9c0.3,0,0.6,0.1,0.8,0.3s0.4,0.5,0.4,0.9c0,0.3-0.2,0.6-0.4,0.8s-0.5,0.4-0.8,0.4c-1.9,0.1-3.9-0.5-5.4-1.6
		C185,136.6,184.8,136.4,184.8,136C184.8,136.1,184.7,136,184.8,136z M188.4,131.5c0.9,0.4,2,0.6,3,0.6c0.3,0,0.6,0.1,0.9,0.3
		c0.2,0.2,0.3,0.5,0.3,0.8s0,0.6-0.2,0.8s-0.5,0.3-0.9,0.4c-1.2,0-2.3-0.1-3.4-0.5c-0.7-0.3-1.4-0.6-2-1.1c-0.2-0.2-0.4-0.4-0.5-0.7
		s0-0.6,0.2-0.9c0.2-0.2,0.5-0.4,0.8-0.4c0.3-0.1,0.6,0,0.9,0.2C187.8,131.2,188.1,131.4,188.4,131.5z"/>
	
		<linearGradient id="SVGID_00000018221529389044756430000016349448700082023570_" gradientUnits="userSpaceOnUse" x1="185.062" y1="459.2531" x2="156.6345" y2="430.8157" gradientTransform="matrix(1 0 0 1 0 -322)">
		<stop  offset="0" style="stop-color:#373B43"/>
		<stop  offset="1" style="stop-color:#121212"/>
	</linearGradient>
	<path style="fill-rule:evenodd;clip-rule:evenodd;fill:url(#SVGID_00000018221529389044756430000016349448700082023570_);" d="
		M188.4,131.5c-0.3-0.2-0.7-0.3-1-0.6c-0.2-0.2-0.5-0.3-0.9-0.2c-0.3,0-0.6,0.2-0.8,0.4c-0.2,0.3-0.3,0.6-0.2,0.9
		c0,0.3,0.2,0.6,0.5,0.7c0.6,0.5,1.3,0.9,2,1.1c-0.2,0.5-0.6,0.9-1,1.3c-0.1-0.1-0.3-0.2-0.4-0.3c-0.3-0.2-0.6-0.2-0.9-0.2
		c-0.3,0-0.6,0.2-0.8,0.5c-0.2,0.2-0.3,0.5-0.2,0.8l-0.4-0.1c-14.7-2.2-24.1-10.1-28.2-23.8c-0.3-1-0.2-2,0.3-2.8
		c0.4-0.9,1.2-1.5,2.1-1.8c1-0.3,2-0.2,2.9,0.3s1.5,1.3,1.8,2.2c3.2,10.8,10.6,17,22.1,18.7c1,0.1,1.9,0.7,2.4,1.4
		C188.1,130.5,188.3,131,188.4,131.5z"/>
	<path class="st8" d="M272.7,137.5c2.7,0,5.2,1.2,6.9,3.2c1.8,1.9,2.8,4.5,2.6,7.2c0,2.7-1.2,5.2-3.2,6.9c-3.8,4-10.1,4.2-14.1,0.4
		s-4.2-10.1-0.4-14.1c0.3-0.3,0.6-0.6,1-0.9C267.4,138.3,270,137.3,272.7,137.5z"/>
	<path class="st47" d="M272.6,135l-40.8-1.6c-3.4-0.2-6.7,1-9.2,3.4c-5.2,4.8-5.5,12.8-0.8,18c2.3,2.5,5.5,4,8.9,4.1l40.8,1.6
		c3.4,0.2,6.7-1,9.2-3.3l0,0c5.2-4.8,5.5-12.9,0.8-18.1C279.2,136.6,276,135.1,272.6,135z M219.9,133.8L219.9,133.8
		c3.2-3.1,7.6-4.7,12.1-4.4l40.8,1.6c9.3,0.4,16.5,8.2,16.1,17.4s-8.2,16.5-17.4,16.1l-40.8-1.6c-9.3-0.4-16.5-8.2-16.2-17.5
		C214.7,141.1,216.6,136.9,219.9,133.8L219.9,133.8z"/>
	<path class="st48" d="M420.9,504.7h10.6c0.4,3.6,2.5,6.6,6.4,8.9c4.4,2.6,6.5,4.2,6.4,4.9c0,0.5-0.1,1-0.3,1.4h-6.5
		c-3.1,0.1-5.2-0.5-6.5-1.7c-1.3-1.3-2.2-1.9-2.6-1.8v3.5h-4l-3.1-6.8C420.2,510.4,420.1,507.5,420.9,504.7z M399.9,504.7h10.6
		c0.8,2.7,0.7,5.7-0.3,8.4l-3,6.8h-4v-3.5c-0.4-0.1-1.3,0.5-2.6,1.8s-3.5,1.8-6.6,1.7h-6.5c-0.3-0.4-0.4-0.9-0.4-1.4
		c0-0.7,2.1-2.3,6.3-4.9C397.3,511.3,399.4,508.3,399.9,504.7L399.9,504.7z"/>
	<path class="st49" d="M401,312c0.3,0,0.6,0.1,0.9,0.3c0.2,0.2,0.4,0.5,0.4,0.9l0.1,2.6c0,0.3-0.1,0.6-0.3,0.9
		c-0.2,0.2-0.5,0.4-0.9,0.4c-0.3,0-0.6-0.1-0.9-0.4c-0.2-0.2-0.4-0.5-0.4-0.8l-0.1-2.7c-0.1-0.3,0-0.6,0.2-0.9
		C400.3,312.1,400.7,312,401,312z M416,310.9c0.3,0,0.6,0.1,0.9,0.3c0.2,0.2,0.4,0.5,0.4,0.9l0.1,2.6c0,0.3-0.1,0.6-0.3,0.9
		c-0.2,0.3-0.5,0.4-0.9,0.4c-0.3,0-0.6-0.1-0.9-0.3c-0.2-0.2-0.4-0.5-0.4-0.9l-0.2-2.7C414.8,311.5,415.3,310.9,416,310.9L416,310.9
		L416,310.9z"/>
	
		<linearGradient id="SVGID_00000140693270514786698460000013648447641375375513_" gradientUnits="userSpaceOnUse" x1="404.6195" y1="610.2113" x2="424.5603" y2="659.5085" gradientTransform="matrix(1 0 0 1 0 -322)">
		<stop  offset="0" style="stop-color:#696F80"/>
		<stop  offset="1" style="stop-color:#121212"/>
	</linearGradient>
	<path style="fill-rule:evenodd;clip-rule:evenodd;fill:url(#SVGID_00000140693270514786698460000013648447641375375513_);" d="
		M411.2,330.3c0.2,0.5,0.3,1,0.4,1.5c-1.5,0.7-3.2,0.6-4.6-0.3c-0.5-0.3-1.2-0.2-2.2,0.4c-0.2,0.1-0.4,0.2-0.5,0.4
		c-0.9,0.8-2.2,1.1-3.4,0.8c-1-0.3-1.9-0.8-2.8-1.4c-0.6-0.4-1.3-0.7-2-0.9c-0.8-0.2-1.7-0.5-2.8-0.7c-2.4-0.5-3.6-2.1-3.5-5
		c0.1-2.8-0.2-4.8-1-5.8v-0.1c-1.4-2.4-1.5-4.5-0.4-6.3c0.2-0.3,0.3-0.6,0.4-0.9c0.6-1.5,0.6-3.1,0.1-4.5l-0.1-0.4
		c-0.6-1.8-0.6-3.2,0-4.3c0.4-0.7,1.2-1.3,2-1.4c1.6-0.4,2.7-1.8,2.6-3.4c0-2.7,1.8-4.6,5.4-5.7c2.8-0.6,4.5-1.4,5.1-2.5
		c1.8-2.8,4.7-3.4,8.8-1.6c2.1,0.9,3.6,0.9,4.7,0c2.1-1.7,4.2-1.3,6.4,1l0.6,0.7c0.1,0.1,0.2,0.2,0.4,0.3v0.1
		c0.2,0.1,0.5,0.2,0.8,0.1c0.9-0.3,1.9-0.4,2.9-0.3c0.9,0,1.8,0.3,2.6,0.9c0.8,0.5,1.6,1.7,2.5,3.8c0.7,1.9,2.2,3.3,4.1,3.9
		c1.7,0.5,2.9,2.1,2.7,3.9c0,2,0.7,3.9,2,5.4c1.4,1.6,1.7,3.2,0.9,4.7c-0.8,1.5-0.4,3.4,1.2,5.6s1.9,4.2,0.8,6.1
		c-0.8,1.4-1.4,2.8-2,4.3c-0.6,1.6-1.6,2.4-2.9,2.4c-1.6-0.1-3.1,0.3-4.5,1c-1.6,0.8-3.4,1-5.1,0.7c-1.3-0.3-2.7-0.4-4-0.1l0,0
		c-0.7,0.2-1.4,0.4-2,0.5l-1.1,0.2c-0.4,0-0.8,0.1-1.1,0.1h-0.5c-0.2,0-0.4-0.1-0.7-0.1c-0.1,0-0.3,0-0.4-0.1h-0.1
		c-0.1,0-0.1,0-0.2,0c-0.2,0-0.4,0-0.5-0.1c-0.4-0.2-0.8-0.6-1.1-1c0-0.1-0.1-0.1-0.1-0.2c-0.2-0.4-0.3-0.8-0.4-1.2
		c0-0.3,0-0.7,0-1.2c0-0.2,0-0.5,0-0.7l0.2-0.7c0.7-1.7,1.9-3.2,3.4-4.4c0,0,0-0.1,0.1-0.1c1.1-1.3,1-3-0.5-4.9
		c-1.5-1.7-1.7-3.1-0.5-4.4c1.1-1.7,1.5-3.8,1.4-5.8c-0.1-1.7-0.9-3.4-2.2-4.6c-2.9-2.7-2.9-5.3,0-7.7c-2.5,1.3-4.5,1.7-5.8,1.2
		c-0.9-0.4-2.2,0.3-3.8,2c-1.6,1.8-3.2,2.3-4.8,1.5c-1.3-0.3-2.3,0.2-3,1.6c-0.5,1.4-2,2-3.4,1.5h-0.1c-1.4-0.6-2.2,0.1-2.5,2.1
		l1.1,14c0.4,4.6,2.3,7.6,5.6,9.2c2.3,1,4.8,1.4,7.3,1.1L411.2,330.3z"/>
	
		<linearGradient id="SVGID_00000106851785045294652740000007097398186568979334_" gradientUnits="userSpaceOnUse" x1="409.9529" y1="618.1" x2="409.9529" y2="652.3505" gradientTransform="matrix(1 0 0 1 0 -322)">
		<stop  offset="0" style="stop-color:#AFB5C3"/>
		<stop  offset="1" style="stop-color:#7D8599"/>
	</linearGradient>
	<path style="fill-rule:evenodd;clip-rule:evenodd;fill:url(#SVGID_00000106851785045294652740000007097398186568979334_);" d="
		M418.4,328.7c-2.3,0.8-4.8,1.3-7.2,1.6H411c-2.5,0.2-5-0.2-7.3-1.1c-3.3-1.5-5.2-4.6-5.6-9.2l-1.1-14c0.3-2,1.1-2.7,2.5-2.1
		c1.3,0.6,2.9,0,3.5-1.4v-0.1c0.8-1.4,1.8-2,3-1.6c1.6,0.7,3.2,0.2,4.8-1.5s2.9-2.4,3.8-2c1.3,0.5,3.2,0.1,5.8-1.2
		c-2.9,2.4-2.9,4.9,0,7.7c1.3,1.2,2,2.8,2.2,4.6c0.2,2-0.3,4.1-1.4,5.8c-1.2,1.3-1,2.8,0.5,4.4c1.4,2,1.6,3.6,0.5,4.9l-0.1,0.1
		c-1.5,1.1-2.7,2.6-3.4,4.4L418.4,328.7z M401,312c-0.3,0-0.7,0.1-0.9,0.4c-0.2,0.2-0.3,0.6-0.2,0.9l0.1,2.7c0,0.3,0.2,0.6,0.4,0.8
		c0.2,0.2,0.5,0.4,0.9,0.4c0.3,0,0.6-0.2,0.9-0.4c0.2-0.2,0.3-0.6,0.3-0.9l-0.1-2.6c0-0.3-0.2-0.6-0.4-0.9
		C401.6,312.1,401.3,312,401,312z M405.8,325.9l0.4,0.2c0.3,0.2,0.7,0.4,1.2,0.5c0.7,0.1,1.5,0.2,2.2,0.2c2.2-0.2,3.6-1,4.2-2.4
		c0-0.1,0.2-0.4,0.4-0.9c0.1-0.3,0.2-0.6,0.3-0.9v-0.1c0-0.1,0-0.3,0-0.5c0-0.5-0.3-0.9-0.8-0.9l0,0l-4.5,0.2l-4.5,0.2
		c-0.2,0-0.4,0.1-0.5,0.2c-0.2,0.3-0.3,0.8-0.1,1.2l0,0c0.1,0.5,0.3,0.9,0.5,1.3s0.4,0.7,0.5,0.8
		C405.3,325.4,405.5,325.7,405.8,325.9L405.8,325.9z M416,310.9c-0.7,0-1.2,0.6-1.2,1.2l0,0l0.2,2.7c0,0.3,0.1,0.6,0.4,0.9
		c0.2,0.2,0.6,0.3,0.9,0.3s0.6-0.1,0.9-0.4c0.2-0.2,0.4-0.5,0.3-0.9l-0.1-2.6c0-0.3-0.1-0.6-0.4-0.9
		C416.7,311,416.3,310.9,416,310.9L416,310.9z"/>
	
		<linearGradient id="SVGID_00000023251894032554748370000018103091544977439405_" gradientUnits="userSpaceOnUse" x1="396.5172" y1="826.7" x2="396.5172" y2="769.67" gradientTransform="matrix(1 0 0 1 0 -322)">
		<stop  offset="0" style="stop-color:#AFB5C3"/>
		<stop  offset="1" style="stop-color:#7D8599"/>
	</linearGradient>
	<path style="fill-rule:evenodd;clip-rule:evenodd;fill:url(#SVGID_00000023251894032554748370000018103091544977439405_);" d="
		M431.5,504.7h-10.6c0.9-2.7,0.9-8.6,0.1-17.7s-0.6-16,0.5-20.7c1.1-4.8,0.8-11-1-18.6h14.8c-2.7,18.5-4,37.2-3.8,55.9
		C431.4,504,431.4,504.4,431.5,504.7z M370,339.9c-0.1,0-0.2,0-0.3,0l-0.3,0.2l-5.3,2.4H364c-1.8,0.2-3.2-1.6-4.2-5.4l-0.8-3l0,0
		l0,0l-0.8-2.9v-0.1l-0.4-1.4c-0.1-0.3-0.1-0.6,0.1-0.9s0.4-0.5,0.8-0.6c0.3-0.1,0.6,0,0.9,0.1s0.5,0.4,0.6,0.7
		c-0.1-0.3,0-0.6,0.2-0.9s0.4-0.5,0.7-0.5c0.3-0.1,0.7-0.1,1,0.1s0.5,0.4,0.6,0.7c-0.1-0.3,0-0.6,0.1-0.9c0.2-0.3,0.4-0.5,0.8-0.6
		c0.3-0.1,0.6-0.1,0.9,0.1s0.5,0.4,0.6,0.7l-2-6.8c-0.1-0.3,0-0.6,0.1-0.9s0.4-0.5,0.8-0.6c0.3-0.1,0.6,0,0.9,0.1
		c0.3,0.2,0.5,0.4,0.6,0.8l2.1,7.6c1-0.4,1.7-0.1,2,0.8l1.2,4.5c0.4,1.5,0.4,3.2,0.1,4.7c0,0.1-0.1,0.1-0.1,0.2
		C370.5,338.7,370.3,339.3,370,339.9z"/>
	
		<linearGradient id="SVGID_00000139980787322848226890000011125909684383827628_" gradientUnits="userSpaceOnUse" x1="412.7207" y1="716.2" x2="412.7207" y2="655.3" gradientTransform="matrix(1 0 0 1 0 -322)">
		<stop  offset="0" style="stop-color:#373B43"/>
		<stop  offset="1" style="stop-color:#4E535F"/>
	</linearGradient>
	<path style="fill-rule:evenodd;clip-rule:evenodd;fill:url(#SVGID_00000139980787322848226890000011125909684383827628_);" d="
		M430,381.1c-0.6,0.5-1.1,0.9-1.7,1.5l-0.1,0.1c-1.1,1.2-1.2,3-0.4,4.4c-0.1,1.1,0.5,2,1.4,2.5c-0.1,0.7,0.6,1.4,1.9,2
		c0.2,0.6,0.8,0.9,1.9,0.9c0.3,0,0.7,0,1-0.1l0.3,1.9c-3.7-0.1-7.4-0.5-11-1.1c-7.6-1.5-11-6.7-10.2-15.5v-0.2
		c0.8-8.3,2.3-16.5,4.5-24.6c2-6.7,3.5-12.5,4.5-17.4c0-0.2,0.1-0.5,0.1-0.8s0.1-0.4,0.1-0.6l0,0c0.3,0,0.5,0,0.8,0
		c0.1,0,0.2,0,0.4,0c0.2,0.1,0.3,0.1,0.5,0.1c1.6,0.3,3.2,0.7,4.7,1.4c1.3,0.5,2.6,1.1,3.8,1.8c1.5,0.9,3,1.8,4.4,2.8
		c1,0.6,2,1.3,3,2c6.2,4.2,12.4,8.8,18.6,14c1.9,1.6,3.3,3.7,4.1,6c0.9,2.9-0.3,5.6-3.7,8.3l-15.4,12.6c-0.6,0.4-1.1,0.5-1.5,0.2
		l-0.1-0.2l-4.2-5l-0.2-0.3c0-0.1-0.1-0.1,0-0.2c-0.2-0.4-0.1-0.8,0.4-1.2l9.7-7.5c2.9-2.2,4.3-3.5,4.1-4c0-1.7-4.4-5-13.2-10
		c-0.5-0.2-0.9-0.5-1.3-0.7l-6.3-3.4l-5.1,18.3c-0.5,1.8-0.4,3.7,0.2,5.4c0.3,0.9,0.7,1.8,1.3,2.6L430,381.1z M411,333.3
		c-0.1,0.2-0.1,0.4-0.2,0.6v0.1c-1.4,4.4-2.4,10.7-2.9,19c-0.5,8.2-0.3,16.4,0.4,24.5c0,0.6,0.1,1.1,0.2,1.6
		c0.8,8.7-4.7,13.1-16.4,13.3c0.7-5.2,2.2-10.2,4.4-14.9c0.6-1,1.1-2,1.7-3c0-0.1,0-0.1,0.1-0.1c0.2-0.4,0.5-0.9,0.7-1.4
		c0.7-1.2,1.3-2.4,1.8-3.6s0.3-3.8-0.5-8c-1.1-3.3-1.7-6.8-1.7-10.4l-0.5,0.9c-0.1,0.3-0.3,0.5-0.5,0.8c-1,1.7-2.1,3.4-3.4,5
		c-0.3,0.3-0.5,0.7-0.9,1c-0.1,0.2-0.3,0.3-0.5,0.4c-3.3,3.8-7.4,6.8-12.1,8.6c-0.8,0.3-1.6,0.4-2.4,0.5c-3,0.2-5.4-1.7-7.2-5.6
		l-8.3-18c-0.4-0.7-0.3-1.2,0.2-1.5l0.2-0.2l0.6-0.3l5.3-2.4l0.3-0.2c0.1,0,0.2-0.1,0.3,0c0.4,0,0.8,0.2,1,0.8l4.9,11.2
		c1.3,3.3,2.3,5,3,5c2.5,0.9,5.3-1.2,8.7-6.5c3.3-5.3,5.1-8,5.2-8.2c1.4-2,3-3.8,4.9-5.4c0.9-0.7,1.9-1.2,3-1.5c0.1,0,0.3,0,0.4-0.1
		l0,0L411,333.3z"/>
	
		<linearGradient id="SVGID_00000013168616470112191200000014561473367542596482_" gradientUnits="userSpaceOnUse" x1="406.0608" y1="645.2264" x2="413.6307" y2="640.9064" gradientTransform="matrix(1 0 0 1 0 -322)">
		<stop  offset="0" style="stop-color:#292C33"/>
		<stop  offset="1" style="stop-color:#676D7E"/>
	</linearGradient>
	<path style="fill-rule:evenodd;clip-rule:evenodd;fill:url(#SVGID_00000013168616470112191200000014561473367542596482_);" d="
		M409.1,321.4c-1.8,0.9-3,2.6-3.4,4.5c-0.3-0.2-0.5-0.4-0.7-0.7c-0.1-0.1-0.2-0.4-0.5-0.8c-0.2-0.4-0.4-0.9-0.5-1.3l0,0
		c-0.2-0.4-0.1-0.8,0.1-1.2c0.1-0.1,0.3-0.2,0.5-0.2L409.1,321.4z"/>
	
		<linearGradient id="SVGID_00000007404043215974528770000011367801359264565424_" gradientUnits="userSpaceOnUse" x1="413.8957" y1="642.9917" x2="406.7993" y2="649.0672" gradientTransform="matrix(1 0 0 1 0 -322)">
		<stop  offset="0" style="stop-color:#656B7C"/>
		<stop  offset="1" style="stop-color:#676D7E"/>
	</linearGradient>
	<path style="fill-rule:evenodd;clip-rule:evenodd;fill:url(#SVGID_00000007404043215974528770000011367801359264565424_);" d="
		M405.8,325.9c0.4-1.9,1.6-3.6,3.4-4.5l4.5-0.2c0.5,0,0.8,0.4,0.8,0.8l0,0c0,0.2,0,0.3,0,0.5v0.1c-0.1,0.3-0.2,0.6-0.3,0.9
		c-0.2,0.5-0.3,0.7-0.4,0.9c-0.6,1.5-2,2.3-4.2,2.4c-0.7,0-1.5,0-2.2-0.2c-0.4-0.1-0.8-0.2-1.2-0.5L405.8,325.9z"/>
	
		<linearGradient id="SVGID_00000173147171472796178450000015555867220839644802_" gradientUnits="userSpaceOnUse" x1="416.6" y1="650.66" x2="416.6" y2="659.5592" gradientTransform="matrix(1 0 0 1 0 -322)">
		<stop  offset="0" style="stop-color:#646A7A"/>
		<stop  offset="1" style="stop-color:#7D8599"/>
	</linearGradient>
	<path style="fill-rule:evenodd;clip-rule:evenodd;fill:url(#SVGID_00000173147171472796178450000015555867220839644802_);" d="
		M411.6,331.8c-0.1-0.5-0.2-1-0.4-1.5c2.5-0.3,4.9-0.8,7.2-1.6c0,0.2,0,0.5,0,0.7c0,0.5,0,0.9,0,1.2c0.1,0.4,0.2,0.8,0.4,1.2
		c0.1,0.1,0.1,0.1,0.1,0.2c0.3,0.4,0.7,0.8,1.1,1c0.2,0.1,0.3,0.1,0.5,0.2c0.1,0,0.1,0,0.2,0h0.1c0.1,0,0.3,0.1,0.4,0.1
		c0.2,0,0.4,0,0.7,0.1h0.5v0.6v0.1c0,0.2-0.1,0.5-0.1,0.6c-0.1,0.1-0.1,0.2-0.2,0.2c-2.4,2.2-5,3-7.7,2.6c-1.9-0.1-3.4-1.6-3.6-3.5
		v-0.1c0-0.2,0.1-0.4,0.2-0.6c0.2-0.1,0.3-0.2,0.4-0.4C411.6,332.6,411.7,332.2,411.6,331.8z"/>
	
		<linearGradient id="SVGID_00000153662889088808242130000002455830813251843224_" gradientUnits="userSpaceOnUse" x1="414.305" y1="769.57" x2="414.305" y2="655.67" gradientTransform="matrix(1 0 0 1 0 -322)">
		<stop  offset="0" style="stop-color:#454955"/>
		<stop  offset="1" style="stop-color:#858DA3"/>
	</linearGradient>
	<path style="fill-rule:evenodd;clip-rule:evenodd;fill:url(#SVGID_00000153662889088808242130000002455830813251843224_);" d="
		M410.8,447.7H396c-3-18.3-4.3-36.8-4-55.3c11.8-0.1,17.3-4.6,16.4-13.3c-0.1-0.5-0.1-1-0.2-1.6c-0.7-8.1-0.9-16.3-0.4-24.5
		c0.6-8.3,1.6-14.6,2.9-19v-0.1v0.1c0.2,1.9,1.7,3.3,3.6,3.5c2.7,0.4,5.3-0.4,7.7-2.6c0.1,0,0.2-0.1,0.2-0.2c0,0.2-0.1,0.5-0.1,0.8
		c-1,4.9-2.5,10.7-4.5,17.4c-2.2,8-3.7,16.3-4.5,24.6v0.2c-0.8,8.8,2.6,14,10.2,15.5c3.6,0.7,7.3,1,11,1.1
		c2.8,17.7,3.1,35.7,0.9,53.5L410.8,447.7L410.8,447.7z"/>
	
		<linearGradient id="SVGID_00000031182504115303805840000000384420120060211586_" gradientUnits="userSpaceOnUse" x1="429.3629" y1="712.2529" x2="439.813" y2="701.8129" gradientTransform="matrix(1 0 0 1 0 -322)">
		<stop  offset="0" style="stop-color:#AFB5C3"/>
		<stop  offset="1" style="stop-color:#7D8599"/>
	</linearGradient>
	<path style="fill-rule:evenodd;clip-rule:evenodd;fill:url(#SVGID_00000031182504115303805840000000384420120060211586_);" d="
		M430,381.1c1-0.7,2-1.3,3-2c1.9-1.3,3.6-1.7,5.1-1.2l4.1,5c0.3,1.2-1.3,3.1-4.7,5.6c0.6,1.6,0.1,2.7-1.5,3.5
		c-0.6,0.2-1.3,0.3-1.9,0.3c-0.3,0.1-0.7,0.1-1,0.1c-1,0-1.7-0.3-1.9-0.9c-1.3-0.6-2-1.3-1.9-2c-1-0.4-1.5-1.4-1.4-2.5
		c-0.8-1.4-0.6-3.2,0.4-4.4l0.1-0.1C428.9,382,429.4,381.5,430,381.1z"/>
	
		<linearGradient id="SVGID_00000008833890697430224350000007024158037142901385_" gradientUnits="userSpaceOnUse" x1="403.3" y1="826.7" x2="403.3" y2="769.7" gradientTransform="matrix(1 0 0 1 0 -322)">
		<stop  offset="0" style="stop-color:#AFB5C3"/>
		<stop  offset="1" style="stop-color:#7D8599"/>
	</linearGradient>
	<path style="fill-rule:evenodd;clip-rule:evenodd;fill:url(#SVGID_00000008833890697430224350000007024158037142901385_);" d="
		M410.4,504.7h-10.6c0-0.4,0-0.7,0-1.1c0.1-18.7-1.2-37.4-3.9-55.9h14.8c-1.8,7.6-2.2,13.8-1,18.6c1.1,4.7,1.3,11.7,0.5,20.7
		C409.6,496.2,409.6,502,410.4,504.7z"/>
	<path class="st8" d="M358.4,423.1c0.4,4.1-0.5,9-2.9,14.7c-1,2.4-1.8,2.2-2.5-0.6c-0.5-2.6-2.7-4.6-5.3-4.9
		c-3.1-0.5-4.2-1.2-3.4-2.1c4.5-4.9,8.7-7.6,12.5-8.1C357.9,422,358.4,422.3,358.4,423.1z M327.6,428.6c0.8-3.5,1.9-6.8,3.3-10.1
		c1.2-2.8,2-3.6,2.4-2.3c0.7,2.5,0.7,6.4-0.2,11.6c-1.6,0-3.1,0.2-4.6,0.5C328.2,428.5,327.9,428.5,327.6,428.6L327.6,428.6z
		 M332.6,446c-1.1-1.3-1.5-2-1-2.2c0.2-0.1,0.8,0.1,1.9,0.5c0,0.2-0.1,0.5-0.2,0.7C333.2,445.4,333,445.7,332.6,446L332.6,446z
		 M318.2,442l0.4-1.7c0.2-0.5,0.4-0.6,0.6-0.3c-0.1,0.3-0.3,0.7-0.5,1C318.7,441.4,318.5,441.7,318.2,442z"/>
	<path class="st60" d="M314.1,444.1c0.8,0.1,1.7,0.4,2.5,0.7c0.1,0,0.1,0,0.2,0l0.5,0.3c1.3,0.7,1.4,1.5,0.4,2.5s-2.5,1.4-3.9,1.1
		c-0.9-0.2-1.6-0.9-1.7-1.9c-0.1-0.2-0.1-0.4-0.1-0.7v-0.4l0.1-0.6c0-0.1,0.1-0.3,0.2-0.4c0.2-0.5,0.7-0.7,1.3-0.6h0.1H314.1z
		 M319.1,456.1c-2.1-0.1-4.2-0.6-6.1-1.5c-1.3-0.5-2.1-1.9-1.8-3.3c0,1.8,2,3,6,3.7c3.5,0.6,7,0.8,10.6,0.3c3.1-0.5,2.2,0.7-2.5,3.4
		c0.4-0.2,0.8-0.5,1.1-0.9c1.2-1.2-0.2-1.8-4.2-1.6C321,456.1,320,456.1,319.1,456.1L319.1,456.1z"/>
	<path class="st61" d="M347.6,515.8c-0.6,0.9-0.8,2-0.7,3.1c0.1,0.3,0.1,0.7,0.2,1h-8.8c1.1-0.3,1.8-1.4,2.1-3.3
		c0-0.2,0-0.3,0.1-0.5c0-0.3,0.1-0.6,0.1-0.9c0.1-0.8,0.2-1.5,0.4-2.3C343,514.2,345.3,515.2,347.6,515.8z"/>
	<path class="st62" d="M350.9,509.2c0.5,0.8,0.6,1.8,0.3,2.7c-0.2,0.5-0.4,0.9-0.8,1.3l-0.2,0.2c-0.3,0.2-0.5,0.5-0.8,0.7
		c-0.7,0.5-1.3,1-1.7,1.7c-2.4-0.5-4.6-1.5-6.6-2.9c0.1-0.8,0.3-1.7,0.5-2.6l1-6.9C344.7,506,347.6,508,350.9,509.2z"/>
	
		<linearGradient id="SVGID_00000080919860614810793320000013901944958617731986_" gradientUnits="userSpaceOnUse" x1="365.3462" y1="733.9675" x2="336.6262" y2="776.9374" gradientTransform="matrix(1 0 0 1 0 -322)">
		<stop  offset="0" style="stop-color:#EBECF0"/>
		<stop  offset="1" style="stop-color:#656B7C"/>
	</linearGradient>
	<path style="fill-rule:evenodd;clip-rule:evenodd;fill:url(#SVGID_00000080919860614810793320000013901944958617731986_);" d="
		M361,461.8c-2.1-1.8-5.8-3.3-11.3-4.5s-7.7-2.3-6.9-3.5c4.3-9.4,3.9-16-1.2-19.8c-5.5-3.1-10.5-2.8-15,0.9c0.4-2.9-0.3-4.5-2.2-5
		c0.6-0.3,1.2-0.6,1.8-0.9l0,0c0.4-0.2,0.8-0.3,1.2-0.4c0.1,0,0.1-0.1,0.2-0.1c0.3-0.1,0.5-0.1,0.8-0.2c1.5-0.3,3.1-0.5,4.6-0.5
		c1,0,2.1,0.1,3.2,0.2c0.9,0.1,1.8,0.2,2.7,0.4s1.6,0.3,2.4,0.5c0.3,0.1,0.6,0.1,0.8,0.2c0.5-0.6,1-1.3,1.6-1.9
		c4.3-4.9,9.5-7.2,15.5-7c0.2,0,0.4,0,0.6,0.1c0.1,0,0.2,0,0.4,0.1c1.2,0.4,1.8,1.4,1.7,3.1c-0.1,8.5-1,17-2.5,25.4
		c0,0.2-0.1,1.8-0.4,4.7C358.7,457,359.3,459.7,361,461.8z M358.5,423.1c0-0.8-0.5-1.2-1.6-1c-3.8,0.5-7.9,3.2-12.5,8.1
		c-0.8,1,0.3,1.7,3.4,2.1c2.7,0.3,4.9,2.3,5.3,4.9c0.7,2.8,1.5,3,2.5,0.6C357.9,432.1,358.8,427.2,358.5,423.1L358.5,423.1z"/>
	
		<linearGradient id="SVGID_00000041981157419584839370000008471881411736341385_" gradientUnits="userSpaceOnUse" x1="328.3112" y1="738.5626" x2="335.4612" y2="753.6726" gradientTransform="matrix(1 0 0 1 0 -322)">
		<stop  offset="0" style="stop-color:#EBECF0"/>
		<stop  offset="1" style="stop-color:#656B7C"/>
	</linearGradient>
	<path style="fill-rule:evenodd;clip-rule:evenodd;fill:url(#SVGID_00000041981157419584839370000008471881411736341385_);" d="
		M333.1,427.9c0.9-5.2,1-9.1,0.2-11.6c-0.4-1.3-1.2-0.5-2.4,2.3c-1.4,3.2-2.5,6.6-3.3,10.1c-0.1,0-0.1,0-0.2,0.1
		c-0.4,0.1-0.8,0.2-1.2,0.4c2.1-7.3,3.9-11.9,5.6-13.8c0.1-0.2,0.3-0.3,0.4-0.5c1.4-1.2,2.9-0.4,4.4,2.4c2.1,3.7,3.7,7.6,4.7,11.7
		c-0.8-0.2-1.6-0.4-2.4-0.5s-1.8-0.3-2.7-0.4C335.2,428,334.1,427.9,333.1,427.9z"/>
	
		<linearGradient id="SVGID_00000012449197415143688150000002517976588449857183_" gradientUnits="userSpaceOnUse" x1="315.46" y1="727.8327" x2="337.5701" y2="786.2027" gradientTransform="matrix(1 0 0 1 0 -322)">
		<stop  offset="0" style="stop-color:#FFFFFF"/>
		<stop  offset="1" style="stop-color:#D9DCE3"/>
	</linearGradient>
	<path style="fill-rule:evenodd;clip-rule:evenodd;fill:url(#SVGID_00000012449197415143688150000002517976588449857183_);" d="
		M348.5,469.1l-30.1,1.3c-1.6-3.4-3.5-6.7-5.7-9.9c-3-4.5-4.3-7.5-4-9c0.6-2.2,1.7-4.1,3.2-5.8v0.4c0,0.2,0.1,0.5,0.1,0.7
		c0.1,0.9,0.8,1.7,1.7,1.9c1.4,0.4,2.9-0.1,3.9-1.1s0.9-1.9-0.4-2.5l-0.5-0.3c-0.1,0-0.1,0-0.2,0c-0.8-0.3-1.6-0.6-2.5-0.7
		c-0.1,0-0.2,0-0.3,0c0.9-0.9,1.7-1.9,2.3-3.1c1.7-5.3,4.5-8.9,8.3-11c1.9,0.5,2.7,2.1,2.2,5c4.5-3.7,9.5-4,15-0.9
		c5.1,3.8,5.5,10.4,1.2,19.8c-1,1.2,1.3,2.3,6.9,3.5s9.3,2.6,11.3,4.5c0.2,0.3,0.5,0.5,0.7,0.8c-1,0.9-2.3,1.5-3.6,1.7l3.6,0.9
		C357.7,467.7,353.2,469,348.5,469.1z M332.6,446c0.3-0.2,0.6-0.6,0.7-1c0.1-0.2,0.1-0.5,0.2-0.7c0-0.6-0.1-1.2-0.3-1.8
		c-0.2-1-0.7-1.5-1.4-1.5c-0.8,0-1.6,0.3-2.1,0.8c-0.6,0.4-1.1,1.1-1.3,1.8c-0.2,0.5-0.1,1.1,0.1,1.6c0.4,0.5,0.9,0.8,1.5,1
		c0.7,0.2,1.4,0.2,2.1,0L332.6,446z M318.2,442c0.3-0.3,0.5-0.6,0.6-1c0.2-0.3,0.3-0.7,0.5-1c0.1-0.4,0.3-0.8,0.4-1.3
		c0.2-0.8,0.2-1.2-0.1-1.2c-0.5,0.2-1,0.5-1.3,1c-0.5,0.6-1,1.2-1.3,1.9c-0.3,0.4-0.4,0.9-0.5,1.4c-0.1,0.3,0.1,0.6,0.4,0.7
		s0.6,0,1-0.3L318.2,442z M313,454.6l1.6,3.9c0.9,2.3,2.7,3.1,5.2,2.3c1.6-0.5,3.2-1.1,4.7-1.9c0.1-0.1,0.3-0.1,0.4-0.2l0.2-0.1h0.1
		c4.8-2.7,5.6-3.8,2.5-3.4c-3.5,0.5-7.1,0.3-10.6-0.3c-4-0.7-6-1.9-6-3.7C310.9,452.7,311.7,454.1,313,454.6z"/>
	
		<linearGradient id="SVGID_00000103224672497066395630000000242160663639688835_" gradientUnits="userSpaceOnUse" x1="330.9055" y1="768.2707" x2="330.7555" y2="762.9207" gradientTransform="matrix(1 0 0 1 0 -322)">
		<stop  offset="0" style="stop-color:#1E2025"/>
		<stop  offset="1" style="stop-color:#9CA3B4"/>
	</linearGradient>
	<path style="fill-rule:evenodd;clip-rule:evenodd;fill:url(#SVGID_00000103224672497066395630000000242160663639688835_);" d="
		M333.5,444.2c-1.1-0.5-1.7-0.6-1.9-0.5c-0.5,0.2-0.1,1,1,2.2l-0.6,0.2c-0.7,0.2-1.4,0.2-2.1,0c-0.6-0.2-1.1-0.5-1.5-1
		c-0.2-0.5-0.3-1.1-0.1-1.6c0.2-0.7,0.7-1.4,1.3-1.8c0.6-0.5,1.4-0.8,2.1-0.8s1.1,0.5,1.4,1.5C333.4,443,333.5,443.6,333.5,444.2z"
		/>
	
		<linearGradient id="SVGID_00000012434667362769603780000004953481927279860878_" gradientUnits="userSpaceOnUse" x1="317.84" y1="793.913" x2="348.666" y2="793.913" gradientTransform="matrix(1 0 0 1 0 -322)">
		<stop  offset="0.13" style="stop-color:#666C7D"/>
		<stop  offset="0.65" style="stop-color:#31343C"/>
		<stop  offset="1" style="stop-color:#686E7F"/>
	</linearGradient>
	<path style="fill-rule:evenodd;clip-rule:evenodd;fill:url(#SVGID_00000012434667362769603780000004953481927279860878_);" d="
		M334.2,473.9l-15.5,0.9c-0.3,0.1-0.5-0.1-0.6-0.4c0-0.1,0-0.1,0-0.2l-0.2-3.3c0-0.4,0.1-0.6,0.5-0.6l30.1-1.3l0.2,3.3
		c0.1,0.3-0.1,0.5-0.4,0.6h-0.1L334.2,473.9z"/>
	
		<linearGradient id="SVGID_00000139251935624256497110000000663471883996642192_" gradientUnits="userSpaceOnUse" x1="355.5838" y1="833.1846" x2="333.0838" y2="796.5746" gradientTransform="matrix(1 0 0 1 0 -322)">
		<stop  offset="0" style="stop-color:#4E535F"/>
		<stop  offset="1" style="stop-color:#8992A6"/>
	</linearGradient>
	<path style="fill-rule:evenodd;clip-rule:evenodd;fill:url(#SVGID_00000139251935624256497110000000663471883996642192_);" d="
		M368.3,489.3c3.4,2.7,5.3,6.8,5,11.1c-1.8-3-4.3-5.6-7.3-7.4c-2.5-1.4-5.3-2.1-8.2-2.1c-3.6,0.1-6.2,0.9-7.8,2.4
		c-3.1,2.8-2.8,8.1,0.9,15.8c-3.3-1.1-6.1-3.1-8.4-5.8l-1,6.9l-2.7,3.1l-2.3-3.4l-3,2.8l-1.6-3.1l-2.7,2.8l-1.1-3.2
		c0.1-0.5,0.2-1,0.2-1.5c0-0.2,0-0.4,0-0.6v-1c0-0.3,0-0.6,0-0.9c0-1.1-0.1-2.2-0.3-3.3c-0.1-0.8-0.3-1.5-0.5-2.3
		c-0.3-1-0.5-2.1-0.7-3.1c-0.9-5.7-0.4-10.3,1.6-14c1.6-3.1,3.6-6.1,5.9-8.8l14-0.8c2.4,5,7.7,9.6,16.1,13.7
		C365.7,487.5,367,488.3,368.3,489.3z"/>
	
		<linearGradient id="SVGID_00000114064205965991408220000003299500857289996161_" gradientUnits="userSpaceOnUse" x1="387.6972" y1="798.6141" x2="354.7972" y2="856.0841" gradientTransform="matrix(1 0 0 1 0 -322)">
		<stop  offset="0" style="stop-color:#FFFFFF"/>
		<stop  offset="0.59" style="stop-color:#8992A6"/>
	</linearGradient>
	<path style="fill-rule:evenodd;clip-rule:evenodd;fill:url(#SVGID_00000114064205965991408220000003299500857289996161_);" d="
		M367.9,519.9c-0.9-0.9,0.8-2.1,5.1-3.7c2.4-0.6,5.2-2.9,8.2-6.9c3-4,3.6-5.6,1.8-4.8c-2.7,1.2-3.4-0.1-2-3.8
		c1.4-3.7,1.4-5.1-0.1-4.3s-3.4-1.6-5.6-7.3c-2.5-5.8-4.8-9.8-6.8-11.9c1.8,1,3.4,2.2,4.8,3.7c3.1,2.7,5.8,5.8,8.2,9.2
		c0.8,1.4,1.8,1.4,2.9,0.1c0.7-0.1,1.8,1.4,3.3,4.4c1.5,3.1,1,6.8-1.3,11.3c-0.7,1.6-0.7,3.3,0,4.9c0.6,1.8-2,3.3-8,4.5
		c-2.3,0.5-3.3,1.3-3,2.5c0.5,1.4-1.6,2.1-6.2,2.2h-1.3V519.9z"/>
	
		<linearGradient id="SVGID_00000109001097603408571810000002969595433007146117_" gradientUnits="userSpaceOnUse" x1="-8270.0889" y1="2912.6921" x2="-8264.4189" y2="2912.6921" gradientTransform="matrix(0.38 -0.93 0.93 0.36 740.37 -8271)">
		<stop  offset="0" style="stop-color:#1E2025"/>
		<stop  offset="1" style="stop-color:#9CA3B4"/>
	</linearGradient>
	<path style="fill-rule:evenodd;clip-rule:evenodd;fill:url(#SVGID_00000109001097603408571810000002969595433007146117_);" d="
		M319.3,440.1c-0.3-0.4-0.5-0.3-0.6,0.3l-0.4,1.7l-0.4,0.3c-0.4,0.3-0.8,0.4-1,0.3c-0.3-0.1-0.4-0.4-0.4-0.7c0.1-0.5,0.3-1,0.5-1.4
		c0.4-0.7,0.8-1.3,1.3-1.9c0.3-0.5,0.8-0.8,1.3-1c0.3-0.1,0.4,0.3,0.1,1.2C319.6,439.3,319.5,439.7,319.3,440.1z"/>
	
		<linearGradient id="SVGID_00000153676792530424290480000012153695040703438497_" gradientUnits="userSpaceOnUse" x1="325.5847" y1="776.9026" x2="316.1747" y2="782.3626" gradientTransform="matrix(1 0 0 1 0 -322)">
		<stop  offset="0" style="stop-color:#585E6C"/>
		<stop  offset="0.63" style="stop-color:#676D7E"/>
	</linearGradient>
	<path style="fill-rule:evenodd;clip-rule:evenodd;fill:url(#SVGID_00000153676792530424290480000012153695040703438497_);" d="
		M314.6,458.5c0.2-1.2,1.7-2,4.5-2.4c1,0,2,0,3.1,0c4-0.1,5.4,0.4,4.2,1.6c-0.3,0.4-0.7,0.7-1.1,0.9h-0.1l-0.2,0.1
		c-0.1,0.1-0.3,0.2-0.4,0.2c-1.5,0.7-3.1,1.3-4.7,1.9C317.2,461.6,315.5,460.8,314.6,458.5z"/>
	
		<linearGradient id="SVGID_00000171708319380457555940000016884056061172046235_" gradientUnits="userSpaceOnUse" x1="315.2644" y1="778.6115" x2="314.2244" y2="780.2814" gradientTransform="matrix(1 0 0 1 0 -322)">
		<stop  offset="0" style="stop-color:#585E6C"/>
		<stop  offset="1" style="stop-color:#676D7E"/>
	</linearGradient>
	<path style="fill-rule:evenodd;clip-rule:evenodd;fill:url(#SVGID_00000171708319380457555940000016884056061172046235_);" d="
		M314.6,458.5l-1.6-3.9c1.9,0.9,4,1.4,6.1,1.5C316.2,456.5,314.8,457.3,314.6,458.5z"/>
	
		<linearGradient id="SVGID_00000131352324360701703490000009752485720016080786_" gradientUnits="userSpaceOnUse" x1="332.9052" y1="812.1705" x2="315.5751" y2="806.8804" gradientTransform="matrix(1 0 0 1 0 -322)">
		<stop  offset="0" style="stop-color:#B6BBC8"/>
		<stop  offset="1" style="stop-color:#FFFFFF"/>
	</linearGradient>
	<path style="fill-rule:evenodd;clip-rule:evenodd;fill:url(#SVGID_00000131352324360701703490000009752485720016080786_);" d="
		M318.7,474.8l15.5-0.9c-2.3,2.7-4.2,5.7-5.9,8.8c-2,3.7-2.5,8.4-1.6,14c0.2,1,0.4,2.1,0.7,3.1c0.2,0.8,0.4,1.5,0.5,2.3
		c0.2,1.1,0.3,2.2,0.3,3.3c-5.1-6.4-8.2-14.8-9.2-25.3c0-0.3,0-0.5-0.1-0.8l-0.1-1.6c0-0.1,0-0.1,0-0.2l-0.2-1.9
		C318.7,475.5,318.7,475.2,318.7,474.8z"/>
	
		<linearGradient id="SVGID_00000140735555026675959100000002468933703875805865_" gradientUnits="userSpaceOnUse" x1="321.6905" y1="828.3253" x2="318.9205" y2="845.8653" gradientTransform="matrix(1 0 0 1 0 -322)">
		<stop  offset="0" style="stop-color:#4E535F"/>
		<stop  offset="0.59" style="stop-color:#8992A6"/>
	</linearGradient>
	<path style="fill-rule:evenodd;clip-rule:evenodd;fill:url(#SVGID_00000140735555026675959100000002468933703875805865_);" d="
		M319,480.2c1,10.5,4.1,18.9,9.2,25.3c0,0.3,0,0.6,0,0.9v1c0,0.2,0,0.5,0,0.6c-0.1,0.5-0.1,1-0.2,1.5c-0.1,0.8-0.3,1.6-0.5,2.4
		l-1.3-2.1l-2.4,3.6l-1.4-4.4c-0.2-4.3-0.7-8.6-1.7-12.9C319.9,490.9,319.3,485.6,319,480.2z"/>
	
		<linearGradient id="SVGID_00000127017562916315624420000017266541729574045099_" gradientUnits="userSpaceOnUse" x1="329.57" y1="836.45" x2="321.32" y2="836.45" gradientTransform="matrix(1 0 0 1 0 -322)">
		<stop  offset="0" style="stop-color:#C8CBD5"/>
		<stop  offset="1" style="stop-color:#EAEBEF"/>
	</linearGradient>
	<path style="fill-rule:evenodd;clip-rule:evenodd;fill:url(#SVGID_00000127017562916315624420000017266541729574045099_);" d="
		M327.5,511.9c-0.5,1.6-1.1,3.2-1.8,4.8c-1.2,2,0.2,3.1,4,3.2h-6.5c-1.7-0.1-2.2-1.3-1.5-3.5c0.5-2.4,0.7-4.9,0.8-7.4l1.3,4.3
		l2.4-3.6L327.5,511.9z"/>
	
		<linearGradient id="SVGID_00000088831934855342286090000015604185624545715883_" gradientUnits="userSpaceOnUse" x1="330.6632" y1="835.5546" x2="342.4331" y2="840.4446" gradientTransform="matrix(1 0 0 1 0 -322)">
		<stop  offset="0" style="stop-color:#FFFFFF"/>
		<stop  offset="1" style="stop-color:#B2B8C5"/>
	</linearGradient>
	<path style="fill-rule:evenodd;clip-rule:evenodd;fill:url(#SVGID_00000088831934855342286090000015604185624545715883_);" d="
		M341,512.9c-0.1,0.8-0.2,1.6-0.4,2.3c-0.1,0.3-0.1,0.6-0.1,0.9c0,0.2-0.1,0.3-0.1,0.5c-0.3,1.9-1,3-2.1,3.3h-8.6
		c-3.8-0.1-5.1-1.2-4-3.2c0.8-1.5,1.4-3.1,1.8-4.8c0.2-0.8,0.4-1.6,0.5-2.4l1.2,3.2l2.7-2.8l1.6,3.1l3-2.8l2.3,3.4l2.7-3.1
		C341.3,511.2,341.2,512.1,341,512.9z"/>
	
		<linearGradient id="SVGID_00000124875327138327452990000000305769535098112441_" gradientUnits="userSpaceOnUse" x1="356.687" y1="832.0189" x2="378.747" y2="812.2589" gradientTransform="matrix(1 0 0 1 0 -322)">
		<stop  offset="0" style="stop-color:#4E535F"/>
		<stop  offset="1" style="stop-color:#8992A6"/>
	</linearGradient>
	<path style="fill-rule:evenodd;clip-rule:evenodd;fill:url(#SVGID_00000124875327138327452990000000305769535098112441_);" d="
		M368.8,514.5c2.9-5.4,4.4-10.1,4.5-14.1c0.2-4.3-1.7-8.5-5-11.1c1.5-2.3,1.5-6.3,0.3-12.1c2,2.1,4.3,6,6.8,11.9
		c2.2,5.7,4.1,8.1,5.6,7.3c1.5-0.9,1.5,0.6,0.1,4.3s-0.8,5,2,3.8c1.9-0.8,1.3,0.8-1.8,4.8c-3.1,4-5.8,6.3-8.3,6.9
		c-4.3,1.6-6,2.8-5.1,3.7h-2.2c0.9-0.2,1.6-1.3,2.4-3.1c0-0.1,0.1-0.2,0.2-0.3C368.4,515.9,368.6,515.2,368.8,514.5z"/>
	
		<linearGradient id="SVGID_00000115510026735545369710000001557745543689936803_" gradientUnits="userSpaceOnUse" x1="372.7886" y1="826.7571" x2="347.4314" y2="823.4287" gradientTransform="matrix(1 0 0 1 0 -322)">
		<stop  offset="0" style="stop-color:#4E535F"/>
		<stop  offset="1" style="stop-color:#8992A6"/>
	</linearGradient>
	<path style="fill-rule:evenodd;clip-rule:evenodd;fill:url(#SVGID_00000115510026735545369710000001557745543689936803_);" d="
		M351.2,511.9c0.3-0.9,0.1-1.9-0.3-2.7c-3.7-7.7-3.9-13-0.9-15.8c1.6-1.5,4.2-2.3,7.8-2.4c2.9-0.1,5.7,0.6,8.2,2.1
		c3,1.9,5.5,4.4,7.3,7.4c-0.1,4-1.6,8.7-4.5,14.1l-1.3,1.1l-1.9-2.2l-2.1,1.6l-2.7-2.1l-3.7,1.7l-2-2.4l-4,1.4L351.2,511.9z"/>
	
		<linearGradient id="SVGID_00000089555214249199545210000011327222817742789534_" gradientUnits="userSpaceOnUse" x1="347.8265" y1="836.2122" x2="367.1965" y2="841.7522" gradientTransform="matrix(1 0 0 1 0 -322)">
		<stop  offset="0" style="stop-color:#FFFFFF"/>
		<stop  offset="1" style="stop-color:#B2B8C5"/>
	</linearGradient>
	<path style="fill-rule:evenodd;clip-rule:evenodd;fill:url(#SVGID_00000089555214249199545210000011327222817742789534_);" d="
		M347.1,519.9c-0.1-0.4-0.2-0.7-0.2-1c-0.1-1.1,0.2-2.2,0.7-3.1c0.5-0.7,1-1.3,1.7-1.7c0.3-0.2,0.5-0.4,0.8-0.7l0.2-0.2
		c0.3-0.4,0.6-0.8,0.8-1.3v1.8l4-1.4l2,2.4l3.7-1.7l2.7,2.1l2.1-1.7l1.9,2.2l1.3-1.1c-0.2,0.7-0.4,1.4-0.6,2
		c-0.1,0.1-0.1,0.2-0.2,0.3c-0.7,1.8-1.5,2.8-2.4,3.1L347.1,519.9z"/>
	<polygon class="st80" points="83.2,353.8 101.4,353.8 93.9,341.9 94.1,319.6 72.2,329.3 	"/>
	<path class="st81" d="M137.5,329.4c5.3,0.2,8.1-0.6,8.2-2.4c0.1-1.4-0.1-2-0.6-1.6c-0.3,0.2-0.6,0.3-1,0.4c0.5,1.7-0.5,2.6-2.9,2.8
		C138.8,328.8,137.5,329.1,137.5,329.4z"/>
	<path class="st49" d="M139.9,315c-0.2,0.1-0.3,0.4-0.3,0.6s0.1,0.4,0.2,0.5c0,0,0.1,0,0.1,0.1c0.1,0.1,0.2,0.2,0.4,0.2h2.4
		c0.2,0,0.4-0.1,0.6-0.2c0.2-0.2,0.3-0.4,0.3-0.6s-0.1-0.5-0.3-0.6c-0.1-0.2-0.3-0.2-0.6-0.2h-2.2C140.2,314.8,140,314.8,139.9,315z
		"/>
	
		<linearGradient id="SVGID_00000103987758538283974140000012705402662949400737_" gradientUnits="userSpaceOnUse" x1="-233.23" y1="626.45" x2="-274.23" y2="626.45" gradientTransform="matrix(-1 0 0 1 -105.4 -322)">
		<stop  offset="0.38" style="stop-color:#A6ACBC"/>
		<stop  offset="1" style="stop-color:#8A93A7"/>
	</linearGradient>
	<path style="fill-rule:evenodd;clip-rule:evenodd;fill:url(#SVGID_00000103987758538283974140000012705402662949400737_);" d="
		M136.7,304.5c2.8,0.3,5.6,0.3,8.4,0.2c9.3-0.3,15.3,0.4,17.9,2.2s3.1,5.9,1.5,12.6c1.4-2.3,2.5-4.8,3.4-7.4
		c0.2-0.5,0.3-1.1,0.4-1.6c0.8-4.5,0.6-8-0.4-10.6c-1.4-3.3-4.3-5.2-8.7-5.6c-2.7-0.2-5.4-0.2-8.1,0c-1.1,0.1-2.3,0.2-3.4,0.3
		c-9.3,0.8-10.1-1-2.2-5.2c-5.6,1.1-10,2.9-13.2,5.3c-0.4,0.3-0.7,0.6-1,0.8l0,0c-0.5,0.4-1,0.9-1.4,1.3c-0.2,0.2-0.3,0.4-0.5,0.6
		c-2.1,2.4-2,4.2,0.5,5.5c0.9,0.4,1.8,0.8,2.8,1C134,304.1,135.3,304.4,136.7,304.5z"/>
	
		<linearGradient id="SVGID_00000107549008472126471610000003629812728374762145_" gradientUnits="userSpaceOnUse" x1="-250.2294" y1="626.52" x2="-250.2294" y2="655.0856" gradientTransform="matrix(-1 0 0 1 -105.4 -322)">
		<stop  offset="0" style="stop-color:#AFB5C3"/>
		<stop  offset="1" style="stop-color:#7D8599"/>
	</linearGradient>
	<path style="fill-rule:evenodd;clip-rule:evenodd;fill:url(#SVGID_00000107549008472126471610000003629812728374762145_);" d="
		M137,314.2l-0.3-9.6c2.8,0.3,5.6,0.3,8.4,0.2c5.6,0.3,8.3,4.6,7.8,12.8c-0.2,3.2-2.8,4.7-7.6,4.7h-8.1L137,314.2z M139.6,315.6
		c0,0.2,0.1,0.4,0.2,0.5c0,0,0.1,0,0.1,0.1c0.1,0.1,0.2,0.2,0.4,0.2h2.4c0.2,0,0.4-0.1,0.6-0.2c0.2-0.2,0.3-0.4,0.3-0.6
		s-0.1-0.5-0.3-0.6c-0.1-0.2-0.3-0.2-0.6-0.2h-2.2c-0.2,0-0.4,0.1-0.6,0.2C139.7,315.2,139.6,315.4,139.6,315.6L139.6,315.6z
		 M142.3,326.1H138c-0.6,0-0.8-0.6-0.7-2h8.7c1.4,0.1,1.4,2.2,0.2,6.3c-1,2.8-2.1,3.4-3.1,1.8c-0.8-1-2-1.5-3.2-1.4h-2.4v-1.4
		c5.3,0.2,8.1-0.6,8.2-2.4c0.1-1.4-0.1-2-0.6-1.6c-0.3,0.2-0.6,0.3-1,0.4C143.5,326,142.9,326.1,142.3,326.1L142.3,326.1z"/>
	
		<linearGradient id="SVGID_00000169534590690842647290000005111475918865313942_" gradientUnits="userSpaceOnUse" x1="-242.2159" y1="644.2785" x2="-240.2659" y2="636.7685" gradientTransform="matrix(-1 0 0 1 -105.4 -322)">
		<stop  offset="0" style="stop-color:#AFB5C3"/>
		<stop  offset="1" style="stop-color:#7D8599"/>
	</linearGradient>
	<path style="fill-rule:evenodd;clip-rule:evenodd;fill:url(#SVGID_00000169534590690842647290000005111475918865313942_);" d="
		M137.3,322.2l-0.3-8l-2.6,4.4C133.3,320.4,134.3,321.6,137.3,322.2z"/>
	
		<linearGradient id="SVGID_00000143601659912776903100000013413665810800136372_" gradientUnits="userSpaceOnUse" x1="-261.7434" y1="633.7012" x2="-247.8734" y2="659.4412" gradientTransform="matrix(-1 0 0 1 -105.4 -322)">
		<stop  offset="0" style="stop-color:#33363E"/>
		<stop  offset="1" style="stop-color:#131313"/>
	</linearGradient>
	<path style="fill-rule:evenodd;clip-rule:evenodd;fill:url(#SVGID_00000143601659912776903100000013413665810800136372_);" d="
		M144.9,340.5c0.5-0.8,1.1-1.4,1.8-2c0.5-0.4,1.1-0.9,1.8-1.4c1.4-0.9,2.8-1.7,4.3-2.4l2.2-1c1-3.3,1.6-8.6,1.9-15.9v-0.3
		c0-1.4,0.6-2.8,1.5-3.8c0.5-0.6,1.2-0.9,1.9-1c1-0.1,2.1,0.3,2.7,1.2c1.4,1.9,1.3,4.5-0.1,6.4c-0.7,0.8-1.7,1.3-2.8,1.4H160
		c0.1,3.6,1,5.5,2.7,5.7c0.3-2.7,1-5.4,2-7.9c1.6-6.7,1.1-10.9-1.5-12.6s-8.6-2.4-17.9-2.2c5.6,0.3,8.3,4.6,7.8,12.8
		c-0.2,3.2-2.8,4.7-7.6,4.7h-8.1v1.9h8.7c1.4,0.1,1.4,2.2,0.2,6.3c-1,2.8-2.1,3.4-3.1,1.8c-0.8-1-2-1.5-3.2-1.4h-2.4
		c-0.4,7.5,1.8,10.8,6.5,9.9L144.9,340.5z"/>
	
		<linearGradient id="SVGID_00000087390117139783106920000002465388108879103361_" gradientUnits="userSpaceOnUse" x1="-189.4898" y1="652.0421" x2="-203.6098" y2="651.9221" gradientTransform="matrix(-1 0 0 1 -105.4 -322)">
		<stop  offset="0" style="stop-color:#AFB5C3"/>
		<stop  offset="1" style="stop-color:#7D8599"/>
	</linearGradient>
	<path style="fill-rule:evenodd;clip-rule:evenodd;fill:url(#SVGID_00000087390117139783106920000002465388108879103361_);" d="
		M91.5,340.8l6.7-4c-0.7-1.8-1.1-3.7-1.3-5.6c-0.2-2.4-0.4-5-0.8-7.7c0-0.1,0-0.2,0-0.3c-0.2-1.2-0.9-2.2-1.9-2.9l-4.9-0.7l-2.7-0.4
		c-0.4,0-0.7,0.2-1,0.4c-0.4,0.3-0.7,0.7-0.7,1.2c0,0.1,0,0.3,0,0.4c0,0.3,0.2,0.6,0.3,0.8c0.1,0.1,0.1,0.2,0.2,0.3h-0.5
		c-0.1,0.1-0.3,0.2-0.4,0.4c-0.4,0.2-0.6,0.7-0.6,1.1c-0.1,0.4,0,0.9,0.3,1.3c0.1,0.2,0.3,0.4,0.4,0.5c0.2,0,0.3,0.1,0.4,0.2
		c-0.5,0.2-0.9,0.7-0.9,1.3c0,0.3,0,0.6,0.2,0.8c0.2,0.3,0.4,0.5,0.7,0.6c-0.2,0.2-0.4,0.5-0.6,0.8c0.1,0.4,0.2,0.8,0.4,1.1
		c0.2,0.3,0.6,0.6,1,0.6c0.4,0.2,0.8,0.2,1.2,0.2c0.6,1.9,1,3.8,1.1,5.8c0,0.3,0.1,0.6,0.1,0.9C88.9,339.3,90.1,340.4,91.5,340.8z"
		/>
	
		<linearGradient id="SVGID_00000083777330558465292350000001982438065010283438_" gradientUnits="userSpaceOnUse" x1="-211.26" y1="644.4594" x2="-181.3127" y2="644.4594" gradientTransform="matrix(-1 0 0 1 -105.4 -322)">
		<stop  offset="0" style="stop-color:#545A67"/>
		<stop  offset="1" style="stop-color:#121212"/>
	</linearGradient>
	<path style="fill-rule:evenodd;clip-rule:evenodd;fill:url(#SVGID_00000083777330558465292350000001982438065010283438_);" d="
		M85.4,322.1c0.1,0.1,0.1,0.2,0.2,0.3h-0.5c-0.1,0.1-0.3,0.2-0.4,0.4c-0.4,0.2-0.6,0.7-0.6,1.1c-0.1,0.4,0,0.9,0.3,1.3
		c0.1,0.2,0.3,0.4,0.4,0.5c0.2,0,0.3,0.1,0.4,0.2c-0.5,0.2-0.9,0.7-0.9,1.3c0,0.3,0,0.6,0.2,0.8l-4.7,1.8c-0.4,0.2-0.9,0.2-1.3,0.2
		h-1.1c-1.1-1.2-1.6-2.9-1.4-4.5l0.7-0.5c0.3-0.3,0.7-0.6,1.1-0.7l7.4-2.8C85,321.6,85.2,321.9,85.4,322.1z M101.7,315.1
		c0.8-0.3,1.6-0.2,2.3,0.1c0.7,0.3,1.3,0.9,1.6,1.7c0.3,0.7,0.2,1.6-0.1,2.3c-0.3,0.7-0.9,1.3-1.7,1.6l-7.6,2.9c0-0.1,0-0.2,0-0.3
		c-0.2-1.2-0.9-2.2-1.9-2.9l-4.9-0.7L101.7,315.1z"/>
	
		<linearGradient id="SVGID_00000003062750969783304540000012751415276449297822_" gradientUnits="userSpaceOnUse" x1="-201.4643" y1="659.9509" x2="-299.0457" y2="709.2462" gradientTransform="matrix(-1 0 0 1 -105.4 -322)">
		<stop  offset="0" style="stop-color:#373B43"/>
		<stop  offset="1" style="stop-color:#121212"/>
	</linearGradient>
	<path style="fill-rule:evenodd;clip-rule:evenodd;fill:url(#SVGID_00000003062750969783304540000012751415276449297822_);" d="
		M151.4,404.2c11.5-1.3,20.9-3.1,28.1-5.2c3.1-1.1,5.7-1.3,7.7-0.6c3.7-2.3,3.9-9.2,0.6-20.5c-1-3.4-2-6.9-2.9-10.3
		c-0.2-0.8-0.4-1.6-0.6-2.4c-1.9-7.1-3.6-14.3-5.2-21.5c-0.2-0.8-0.4-1.6-0.6-2.4l-2.9-0.2v0.6c-0.1,0.5-0.1,1-0.3,1.6
		c-0.1,0.6-0.2,1.2-0.4,1.7c-0.1,0.4-0.3,0.8-0.4,1.1c-0.2,0.4-0.4,0.8-0.7,1.2c-0.2,0.4-0.4,0.7-0.8,1c-6,4.3-12.5,4.5-19.4,0.6
		c-0.9-0.5-1.8-1.1-2.8-1.7c0,0-0.1-0.1-0.2-0.1c-0.6-0.4-1.3-0.7-2-0.9c-0.7-0.2-1.4-0.3-2.2-0.3c-1,0-1.9,0.2-2.9,0.5l-26.8,7.2
		c-1.7,0.4-3.5-0.2-4.5-1.7l-8-10.2c-1-1.4-2-2-3-1.8l-8.8,5.2c-0.6,0.5-0.4,1.5,0.6,3l11.4,15.2c2.8,3.7,7.1,4.9,13,3.7l21-3.8
		c1.3-0.2,2.2,0.5,2.9,2c0.4,1.1,0.7,2.2,0.8,3.3c0.4,3.8,0.7,8,0.8,12.6s0.7,9.1,1.7,13.6C145.5,398.5,147.9,402,151.4,404.2z"/>
	
		<linearGradient id="SVGID_00000008868984852994393750000012211142232784188035_" gradientUnits="userSpaceOnUse" x1="-204.3515" y1="658.486" x2="-198.4515" y2="667.136" gradientTransform="matrix(-1 0 0 1 -105.4 -322)">
		<stop  offset="0" style="stop-color:#373B43"/>
		<stop  offset="1" style="stop-color:#121212"/>
	</linearGradient>
	<path style="fill-rule:evenodd;clip-rule:evenodd;fill:url(#SVGID_00000008868984852994393750000012211142232784188035_);" d="
		M92.6,344.9l8.8-5.2l-1.3-2.2c-0.3-0.7-1.1-0.9-1.8-0.6l-6.7,4h-0.1c-0.8,0.5-0.9,1.1-0.2,2L92.6,344.9z"/>
	
		<linearGradient id="SVGID_00000142881956253289784510000001224380877817476752_" gradientUnits="userSpaceOnUse" x1="-182.75" y1="649.65" x2="-177.63" y2="649.65" gradientTransform="matrix(-1 0 0 1 -105.4 -322)">
		<stop  offset="0" style="stop-color:#AFB5C3"/>
		<stop  offset="1" style="stop-color:#818A9E"/>
	</linearGradient>
	<path style="fill-rule:evenodd;clip-rule:evenodd;fill:url(#SVGID_00000142881956253289784510000001224380877817476752_);" d="
		M77.3,329.9c-1.1-1.2-1.6-2.9-1.4-4.5l-3.1,2.7c-0.5,0.5-0.7,0.9-0.5,1.2s0.5,0.5,1.2,0.6L77.3,329.9z"/>
	
		<linearGradient id="SVGID_00000177453443514098050620000011485244462587379614_" gradientUnits="userSpaceOnUse" x1="-262.6215" y1="672.607" x2="-269.9774" y2="649.9888" gradientTransform="matrix(-1 0 0 1 -105.4 -322)">
		<stop  offset="0" style="stop-color:#535865"/>
		<stop  offset="1" style="stop-color:#5C6171"/>
	</linearGradient>
	<path style="fill-rule:evenodd;clip-rule:evenodd;fill:url(#SVGID_00000177453443514098050620000011485244462587379614_);" d="
		M154.9,333.7l-2.2,1c-1.5,0.7-2.9,1.5-4.3,2.4c-0.7,0.5-1.3,1-1.8,1.4c-0.7,0.6-1.3,1.2-1.8,2c-1,1.7-1.5,3.8-1.2,5.8
		c0.9-0.3,1.9-0.4,2.9-0.5c0.7,0,1.5,0.1,2.2,0.3c0.7,0.2,1.4,0.5,2,0.9c0.1,0,0.1,0,0.2,0.1c0.9,0.6,1.9,1.2,2.8,1.7
		c6.9,3.8,13.4,3.6,19.4-0.6c0.3-0.3,0.6-0.6,0.8-1c0.3-0.4,0.5-0.8,0.7-1.2c0.2-0.4,0.3-0.7,0.4-1.1c0.2-0.6,0.3-1.1,0.4-1.7
		c0.1-0.5,0.2-1,0.3-1.6v-0.8c0-1,0-2.1-0.2-3.1l0,0c-0.1-0.6-0.2-1.2-0.4-1.8c-0.5-2-1.7-3.9-3.3-5.2c-0.7-0.5-1.5-0.8-2.4-0.9
		c-1.6-0.2-3.2,0-4.8,0.4c-0.7,0.1-1.3,0.3-2,0.6c-0.9,0.2-1.8,0.6-2.8,1c-0.7,0.3-1.4,0.6-2.2,0.9L154.9,333.7z"/>
	
		<linearGradient id="SVGID_00000062870454671541972510000004525717019444811651_" gradientUnits="userSpaceOnUse" x1="-282.6141" y1="661.5879" x2="-323.3221" y2="720.674" gradientTransform="matrix(-1 0 0 1 -105.4 -322)">
		<stop  offset="0" style="stop-color:#373B43"/>
		<stop  offset="1" style="stop-color:#121212"/>
	</linearGradient>
	<path style="fill-rule:evenodd;clip-rule:evenodd;fill:url(#SVGID_00000062870454671541972510000004525717019444811651_);" d="
		M208.5,401.3l9.9-3c0.9-0.3,0.9-1.7,0.1-4.2c-4.4-16-8.6-26-12.7-30.1l-20.3-18.3c-1-1.1-2.1-2.1-3.3-3c-1.4-1.2-3.6-1.9-6.6-2v0.1
		l2.9,0.2c0.3,0.8,0.5,1.6,0.6,2.4c1.6,7.2,3.3,14.4,5.2,21.5L197,374c5.1,9.2,7.9,16,8.4,20.5S207,401.3,208.5,401.3z"/>
	
		<linearGradient id="SVGID_00000127023023479593677680000007378917552018679737_" gradientUnits="userSpaceOnUse" x1="-264.8507" y1="634.66" x2="-264.8507" y2="655.73" gradientTransform="matrix(-1 0 0 1 -105.4 -322)">
		<stop  offset="0" style="stop-color:#AFB5C3"/>
		<stop  offset="1" style="stop-color:#7D8599"/>
	</linearGradient>
	<path style="fill-rule:evenodd;clip-rule:evenodd;fill:url(#SVGID_00000127023023479593677680000007378917552018679737_);" d="
		M154.9,333.7l2.8-1.2c0.7-0.3,1.5-0.5,2.2-0.9c1-0.4,1.9-0.7,2.8-1c0-0.1,0-0.3,0-0.4c-0.1-1.2-0.1-2.1,0-2.9
		c-1.7-0.2-2.6-2.1-2.7-5.7h0.1c1.1-0.1,2.1-0.6,2.8-1.4c1.4-1.9,1.5-4.5,0.1-6.4c-0.6-0.9-1.6-1.3-2.7-1.2c-0.8,0.1-1.5,0.4-1.9,1
		c-1,1-1.5,2.4-1.5,3.8v0.3C156.6,325.2,155.9,330.5,154.9,333.7z"/>
	
		<linearGradient id="SVGID_00000125600509518142083640000013787930194751891080_" gradientUnits="userSpaceOnUse" x1="-256.88" y1="727.0687" x2="-294.29" y2="727.0687" gradientTransform="matrix(-1 0 0 1 -105.4 -322)">
		<stop  offset="0" style="stop-color:#373B43"/>
		<stop  offset="1" style="stop-color:#121212"/>
	</linearGradient>
	<path style="fill-rule:evenodd;clip-rule:evenodd;fill:url(#SVGID_00000125600509518142083640000013787930194751891080_);" d="
		M187.2,398.3c-2-0.6-4.6-0.4-7.7,0.6c-7.2,2.2-16.6,3.9-28.1,5.2c0.1,2.1,0.3,4.2,0.7,6.2c0,0.9,0.7,1.6,1.6,1.7
		c0.1,0,0.2,0,0.3,0.1c0.4,0.1,0.8,0.1,1.2,0c5.6-0.8,11.2-1.9,16.6-3.3c7.6-1.7,12.7-2.6,15.3-2.8c0.2,0,0.5-0.1,0.7-0.2
		s0.3-0.1,0.5-0.2c0.8-0.5,1-1.2,0.6-2.2C188,401.8,187.5,400.1,187.2,398.3z"/>
	
		<linearGradient id="SVGID_00000043456866430018579240000001942961628939645588_" gradientUnits="userSpaceOnUse" x1="-266.9353" y1="765.9633" x2="-190.6553" y2="892.4833" gradientTransform="matrix(-1 0 0 1 -105.4 -322)">
		<stop  offset="0" style="stop-color:#373B43"/>
		<stop  offset="1" style="stop-color:#121212"/>
	</linearGradient>
	<path style="fill-rule:evenodd;clip-rule:evenodd;fill:url(#SVGID_00000043456866430018579240000001942961628939645588_);" d="
		M140.3,508.8c0.3,0.2,0.7,0.2,1,0.2l6.4-1.3l2.6-0.6c1.2-0.3,1.6-1,1.2-2c-0.1-0.5-0.3-1-0.4-1.5c-0.4-1.3-0.8-2.6-1.2-3.9
		c-0.2-0.7-0.5-1.5-0.7-2.2v-0.2c-0.4-1.4-0.9-2.8-1.2-4.2c-1.9-7.4-3.1-15-3.8-22.6c-0.5-4.9,1.2-9.8,4.8-13.3l15-13.9
		c5.8-5.5,12.3-10.1,19.4-13.9c4.4-2.4,6.5-6,6.1-10.9c-0.3-4.2-0.9-8.4-1.8-12.5c-0.2,0.1-0.5,0.2-0.7,0.2c-2.6,0.1-7.7,1-15.3,2.8
		c-5.5,1.3-11,2.4-16.6,3.3c-0.4,0.1-0.8,0.1-1.2,0c-0.1-0.1-0.2-0.1-0.3-0.1v0.7c-10.1,14.4-17.7,27.4-23,39.1
		c-1.1,2.3-2,4.6-2.9,6.8c-1,3-1,6.2-0.2,9.3c0,0.2,0.1,0.4,0.2,0.5c0.4,1.7,0.8,3.4,1.2,5.1c1.8,6.7,3.6,13.1,5.6,19.4
		c0.4,1.4,0.9,2.9,1.4,4.2c0,0.1,0,0.2,0.1,0.2c0.2,0.8,0.5,1.5,0.7,2.2c0.5,1.3,1,2.6,1.4,3.9c0.5,1.5,1.1,3,1.6,4.4l0,0
		C139.8,508.3,140,508.7,140.3,508.8z"/>
	
		<linearGradient id="SVGID_00000078038797509154720920000010401015761432020116_" gradientUnits="userSpaceOnUse" x1="-8834.8887" y1="2055.5142" x2="-8829.1982" y2="2055.5142" gradientTransform="matrix(-0.31 -0.95 -0.95 0.31 -574.09 -8634.4297)">
		<stop  offset="0" style="stop-color:#373B43"/>
		<stop  offset="1" style="stop-color:#121212"/>
	</linearGradient>
	<path style="fill-rule:evenodd;clip-rule:evenodd;fill:url(#SVGID_00000078038797509154720920000010401015761432020116_);" d="
		M218.4,398.4l-9.9,3l0.5,2.5c0.1,0.5,0.4,1,0.8,1.3c0.3,0,0.5,0,0.8-0.1l7.5-2.4c0.1,0,0.2-0.1,0.3-0.2c0.4-0.4,0.6-1,0.4-1.5
		L218.4,398.4z"/>
	
		<linearGradient id="SVGID_00000079477041473934140830000016670283322533558152_" gradientUnits="userSpaceOnUse" x1="-322.1037" y1="736.4311" x2="-319.4543" y2="725.5635" gradientTransform="matrix(-1 0 0 1 -105.4 -322)">
		<stop  offset="0" style="stop-color:#AFB5C3"/>
		<stop  offset="1" style="stop-color:#7D8599"/>
	</linearGradient>
	<path style="fill-rule:evenodd;clip-rule:evenodd;fill:url(#SVGID_00000079477041473934140830000016670283322533558152_);" d="
		M212.4,415.5l-0.7-2.2c-0.2-0.4-0.2-0.9,0-1.4c0.3-0.4,0.7-0.7,1.1-0.8l6.8-2.2c0.8-0.4,1.7-0.1,2,0.7c0,0.1,0.1,0.2,0.1,0.3
		l-1.1-3.4c-0.3-1.5-1-2.9-2-4c-0.1,0.1-0.2,0.2-0.3,0.2l-7.5,2.4c-0.3,0.1-0.5,0.1-0.8,0.1c-0.7,0.7-0.8,2.1-0.4,4l0.7,4
		C210.6,414.6,211.3,415.4,212.4,415.5z"/>
	
		<linearGradient id="SVGID_00000016051720788441892890000016118483018649891994_" gradientUnits="userSpaceOnUse" x1="-321.1807" y1="735.0249" x2="-332.2507" y2="734.8049" gradientTransform="matrix(-1 0 0 1 -105.4 -322)">
		<stop  offset="0" style="stop-color:#AFB5C3"/>
		<stop  offset="1" style="stop-color:#7D8599"/>
	</linearGradient>
	<path style="fill-rule:evenodd;clip-rule:evenodd;fill:url(#SVGID_00000016051720788441892890000016118483018649891994_);" d="
		M221.7,409.9c-0.2-0.8-1-1.3-1.8-1.1c-0.1,0-0.2,0.1-0.3,0.1l-6.8,2.2c-0.5,0.1-0.8,0.4-1.1,0.8c-0.2,0.4-0.2,0.9,0,1.4l0.7,2.2
		l0.2,0.5c0.2,0.8,1,1.4,1.8,1.2c0.1,0,0.3-0.1,0.4-0.1l6.8-2.2c0.8-0.2,1.4-1,1.2-1.8c0-0.1-0.1-0.3-0.1-0.4L221.7,409.9z"/>
	
		<linearGradient id="SVGID_00000018960066173019609060000011109653812023415434_" gradientUnits="userSpaceOnUse" x1="-305.2501" y1="789.1224" x2="-280.2901" y2="755.8124" gradientTransform="matrix(-1 0 0 1 -105.4 -322)">
		<stop  offset="0" style="stop-color:#373B43"/>
		<stop  offset="1" style="stop-color:#121212"/>
	</linearGradient>
	<path style="fill-rule:evenodd;clip-rule:evenodd;fill:url(#SVGID_00000018960066173019609060000011109653812023415434_);" d="
		M205.7,509.8c0.3,0.8,1,1,2.1,0.7c2.4-0.6,4.7-1.2,6.9-1.9c0.9-0.3,1.8-0.6,2.7-0.9c0.4-0.1,0.6-0.5,0.6-0.9c0-0.3-0.1-0.5-0.2-0.7
		l-1-1.7c-1-1.5-1.8-3.1-2.6-4.7c-0.4-0.7-0.7-1.5-1.1-2.2c0-0.1-0.1-0.2-0.1-0.2c-0.8-1.4-1.5-2.8-2.2-4.2
		c-3.9-8.1-7.4-16.5-10.4-25c-1.9-5.2-3.7-10.5-5.2-16c-2.9-10.4-4.8-21.2-5.4-32c0-0.5-0.1-1-0.1-1.5c0.3,4.8-1.8,8.4-6.1,10.9
		c-7,3.7-13.5,8.4-19.3,13.8l22.1,32.8c0.2,0.2,0.3,0.4,0.4,0.6c0.4,0.7,0.9,1.4,1.3,2.1c2.8,4.3,5.6,9.1,8.4,14.4
		c0.8,1.4,1.5,2.9,2.3,4.2c0,0.1,0.1,0.2,0.1,0.2c0.4,0.8,0.9,1.5,1.3,2.2C201.8,503.1,203.7,506.4,205.7,509.8z"/>
	
		<linearGradient id="SVGID_00000147217263661510122120000002209084429594487962_" gradientUnits="userSpaceOnUse" x1="-230.13" y1="835.8" x2="-256.18" y2="835.8" gradientTransform="matrix(-1 0 0 1 -105.4 -322)">
		<stop  offset="0" style="stop-color:#D3D6DE"/>
		<stop  offset="1" style="stop-color:#AFB5C3"/>
	</linearGradient>
	<path style="fill-rule:evenodd;clip-rule:evenodd;fill:url(#SVGID_00000147217263661510122120000002209084429594487962_);" d="
		M148.5,511.9c-1.4,0.2-2.7,0.9-3.6,2c-0.9,0.9-1.9,0.4-3-1.3l-1.5-3.8c-2.9,1.9-6.1,3.6-9.3,4.9c-1.3,0.5-2.6,1-4,1.5
		c-0.8,0.3-1.5,1-1.9,1.8c-0.2,0.3-0.3,0.7-0.4,1.1c0.8,0.5,2.3,0.7,4.6,0.7h18.1c2,0,3.1-0.2,3.4-0.7c0-0.2,0-0.5-0.1-0.7
		c-0.1-0.5-0.2-1-0.3-1.5C150,513.7,149.3,512.4,148.5,511.9z"/>
	
		<linearGradient id="SVGID_00000037667894629460277450000010719555073419515291_" gradientUnits="userSpaceOnUse" x1="-256.2" y1="841.05" x2="-230.23" y2="841.05" gradientTransform="matrix(-1 0 0 1 -105.4 -322)">
		<stop  offset="0" style="stop-color:#4E535F"/>
		<stop  offset="1" style="stop-color:#8992A6"/>
	</linearGradient>
	<path style="fill-rule:evenodd;clip-rule:evenodd;fill:url(#SVGID_00000037667894629460277450000010719555073419515291_);" d="
		M150.8,518.1c-0.3,0.5-1.4,0.7-3.4,0.7h-18.1c-2.3,0-3.8-0.2-4.6-0.7l0,0c-0.2,1.1,0.6,1.8,2.4,1.9h21.2
		C150.1,520,150.8,519.4,150.8,518.1z"/>
	
		<linearGradient id="SVGID_00000170266680189461416750000004365477820399259016_" gradientUnits="userSpaceOnUse" x1="-249.75" y1="836.3811" x2="-249.75" y2="829.6799" gradientTransform="matrix(-1 0 0 1 -105.4 -322)">
		<stop  offset="0" style="stop-color:#AFB5C3"/>
		<stop  offset="1" style="stop-color:#7D8599"/>
	</linearGradient>
	<path style="fill-rule:evenodd;clip-rule:evenodd;fill:url(#SVGID_00000170266680189461416750000004365477820399259016_);" d="
		M140.3,508.8l1.5,3.7c1.1,1.8,2.1,2.2,3,1.3c0.9-1.1,2.2-1.8,3.6-2l-0.8-4.3l-6.3,1.3C141,509.1,140.6,509,140.3,508.8z"/>
	
		<linearGradient id="SVGID_00000000929622499883692100000009242993062690468012_" gradientUnits="userSpaceOnUse" x1="-297.1" y1="836.35" x2="-323" y2="836.35" gradientTransform="matrix(-1 0 0 1 -105.4 -322)">
		<stop  offset="0" style="stop-color:#D3D6DE"/>
		<stop  offset="1" style="stop-color:#AFB5C3"/>
	</linearGradient>
	<path style="fill-rule:evenodd;clip-rule:evenodd;fill:url(#SVGID_00000000929622499883692100000009242993062690468012_);" d="
		M207.8,510.5c-1,0.3-1.8,0.1-2.1-0.7c-2.5,1.5-5.2,2.9-7.9,4c-1.3,0.5-2.6,1-3.9,1.5c-0.4,0.2-0.8,0.4-1.2,0.7
		c-0.5,0.6-0.9,1.4-1,2.2c0.8,0.5,2.3,0.7,4.6,0.7h18.1c2,0,3-0.2,3.2-0.7c0-0.2,0-0.4,0-0.7c-0.1-0.2-0.1-0.4-0.1-0.6
		c-0.5-2.7-1.2-4.4-2.1-4.9c-1.4,0.2-2.7,0.9-3.6,2c-0.9,0.9-1.9,0.4-3-1.3L207.8,510.5z"/>
	
		<linearGradient id="SVGID_00000052784787561028783010000003579671541338184857_" gradientUnits="userSpaceOnUse" x1="-323.0301" y1="841.05" x2="-297.07" y2="841.05" gradientTransform="matrix(-1 0 0 1 -105.4 -322)">
		<stop  offset="0" style="stop-color:#4E535F"/>
		<stop  offset="1" style="stop-color:#8992A6"/>
	</linearGradient>
	<path style="fill-rule:evenodd;clip-rule:evenodd;fill:url(#SVGID_00000052784787561028783010000003579671541338184857_);" d="
		M217.6,518.1c-0.2,0.5-1.3,0.7-3.2,0.7h-18.1c-2.2,0-3.8-0.2-4.6-0.7c-0.2,1.1,0.6,1.8,2.4,1.9h21.2
		C217,520,217.8,519.4,217.6,518.1z"/>
	
		<linearGradient id="SVGID_00000009583677168436961240000000803572011865400462_" gradientUnits="userSpaceOnUse" x1="-316.95" y1="836.3811" x2="-316.95" y2="830.54" gradientTransform="matrix(-1 0 0 1 -105.4 -322)">
		<stop  offset="0" style="stop-color:#AFB5C3"/>
		<stop  offset="1" style="stop-color:#7D8599"/>
	</linearGradient>
	<path style="fill-rule:evenodd;clip-rule:evenodd;fill:url(#SVGID_00000009583677168436961240000000803572011865400462_);" d="
		M214.7,508.5c-2.2,0.7-4.5,1.3-6.9,1.9l0.9,2.1c1.1,1.8,2.1,2.2,3,1.3c0.9-1.1,2.2-1.8,3.6-2L214.7,508.5z"/>
</g>
</svg>
